%FSLAX25Y25*%
%MOIN*%
G70*
G01*
G75*
%ADD10C,0.01000*%
%ADD11C,0.00667*%
%ADD12C,0.00400*%
G54D10*
X0Y11811D02*
G03*
X11811Y0I11811J0D01*
G01*
Y511417D02*
G03*
X0Y499606I0J-11811D01*
G01*
X480315D02*
G03*
X468504Y511417I-11811J0D01*
G01*
Y0D02*
G03*
X480315Y11811I0J11811D01*
G01*
X7480Y511811D02*
X468110D01*
X480315Y9449D02*
Y499606D01*
X11811Y0D02*
X468504D01*
X0Y10630D02*
Y499606D01*
G54D12*
X414779Y204588D02*
X417535D01*
X416157Y203210D02*
Y205966D01*
X453740Y374410D02*
X456496D01*
X455118Y373031D02*
Y375787D01*
X461614Y374410D02*
X464370D01*
X462992Y373031D02*
Y375787D01*
X453740Y382283D02*
X456496D01*
X455118Y380906D02*
Y383661D01*
X461614Y382283D02*
X464370D01*
X462992Y380906D02*
Y383661D01*
X453740Y390158D02*
X456496D01*
X455118Y388779D02*
Y391535D01*
X461614Y390158D02*
X464370D01*
X462992Y388779D02*
Y391535D01*
X453740Y398031D02*
X456496D01*
X455118Y396654D02*
Y399410D01*
X461614Y398031D02*
X464370D01*
X462992Y396654D02*
Y399410D01*
X453740Y405905D02*
X456496D01*
X455118Y404528D02*
Y407283D01*
X461614Y405905D02*
X464370D01*
X462992Y404528D02*
Y407283D01*
X453740Y413779D02*
X456496D01*
X455118Y412402D02*
Y415158D01*
X461614Y413779D02*
X464370D01*
X462992Y412402D02*
Y415158D01*
X453740Y421654D02*
X456496D01*
X455118Y420276D02*
Y423032D01*
X461614Y421654D02*
X464370D01*
X462992Y420276D02*
Y423032D01*
X453740Y429528D02*
X456496D01*
X455118Y428150D02*
Y430905D01*
X461614Y429528D02*
X464370D01*
X462992Y428150D02*
Y430905D01*
X453740Y437402D02*
X456496D01*
X455118Y436024D02*
Y438779D01*
X461614Y437402D02*
X464370D01*
X462992Y436024D02*
Y438779D01*
X453740Y445276D02*
X456496D01*
X455118Y443898D02*
Y446654D01*
X461614Y445276D02*
X464370D01*
X462992Y443898D02*
Y446654D01*
X33015Y445276D02*
X37015D01*
X35015Y443276D02*
Y447276D01*
X42858Y445276D02*
X46858D01*
X44858Y443276D02*
Y447276D01*
X52700Y445276D02*
X56700D01*
X54700Y443276D02*
Y447276D01*
X62543Y445276D02*
X66543D01*
X64543Y443276D02*
Y447276D01*
X96021Y447008D02*
X99521D01*
X97771Y445258D02*
Y448758D01*
X96021Y437008D02*
X99521D01*
X97771Y435258D02*
Y438758D01*
X106021Y447008D02*
X109521D01*
X107771Y445258D02*
Y448758D01*
X106021Y437008D02*
X109521D01*
X107771Y435258D02*
Y438758D01*
X116021Y447008D02*
X119521D01*
X117771Y445258D02*
Y448758D01*
X116021Y437008D02*
X119521D01*
X117771Y435258D02*
Y438758D01*
X126021Y447008D02*
X129521D01*
X127771Y445258D02*
Y448758D01*
X126021Y437008D02*
X129521D01*
X127771Y435258D02*
Y438758D01*
X136021Y447008D02*
X139521D01*
X137771Y445258D02*
Y448758D01*
X136021Y437008D02*
X139521D01*
X137771Y435258D02*
Y438758D01*
X248884Y221567D02*
X252428D01*
X250656Y219795D02*
Y223339D01*
X238884Y221567D02*
X242428D01*
X240656Y219795D02*
Y223339D01*
X228884Y221567D02*
X232428D01*
X230656Y219795D02*
Y223339D01*
X218884Y221567D02*
X222428D01*
X220656Y219795D02*
Y223339D01*
X29651Y249816D02*
X33351D01*
X31501Y247966D02*
Y251666D01*
X29651Y229816D02*
X33351D01*
X31501Y227966D02*
Y231666D01*
X29651Y239816D02*
X33351D01*
X31501Y237966D02*
Y241666D01*
X309173Y134184D02*
X313109D01*
X311141Y132216D02*
Y136153D01*
X317618Y250472D02*
X320965D01*
X319291Y248799D02*
Y252146D01*
X317618Y270473D02*
X320965D01*
X319291Y268799D02*
Y272146D01*
X456661Y335827D02*
X460661D01*
X458661Y333827D02*
Y337827D01*
X456661Y345669D02*
X460661D01*
X458661Y343669D02*
Y347669D01*
X456661Y301969D02*
X460661D01*
X458661Y299969D02*
Y303969D01*
X456661Y311811D02*
X460661D01*
X458661Y309811D02*
Y313811D01*
X111234Y274459D02*
X113990D01*
X112612Y273081D02*
Y275837D01*
X8858Y476378D02*
X22638D01*
X15748Y469488D02*
Y483268D01*
X449803Y476378D02*
X463583D01*
X456693Y469488D02*
Y483268D01*
X449803Y35433D02*
X463583D01*
X456693Y28543D02*
Y42323D01*
X8858Y35433D02*
X22638D01*
X15748Y28543D02*
Y42323D01*
X145854Y156798D02*
X148610D01*
X147232Y155420D02*
Y158176D01*
X274045Y38457D02*
X276801D01*
X275423Y37079D02*
Y39835D01*
X265777Y77705D02*
X268533D01*
X267155Y76327D02*
Y79083D01*
X323150Y289300D02*
X325650D01*
X324400Y288050D02*
Y290550D01*
X352165Y284173D02*
X354921D01*
X353543Y282795D02*
Y285551D01*
X352165Y274173D02*
X354921D01*
X353543Y272795D02*
Y275551D01*
X352165Y264173D02*
X354921D01*
X353543Y262795D02*
Y265551D01*
X127599Y31496D02*
X133504D01*
X130551Y28543D02*
Y34449D01*
X112008Y31496D02*
X117913D01*
X114961Y28543D02*
Y34449D01*
X426000Y74800D02*
X429200D01*
X427600Y73200D02*
Y76400D01*
X426000Y114800D02*
X429200D01*
X427600Y113200D02*
Y116400D01*
X425800Y54000D02*
X429000D01*
X427400Y52400D02*
Y55600D01*
X425800Y14000D02*
X429000D01*
X427400Y12400D02*
Y15600D01*
X456268Y125984D02*
X460268D01*
X458268Y123984D02*
Y127984D01*
X456268Y116142D02*
X460268D01*
X458268Y114142D02*
Y118142D01*
X456268Y106299D02*
X460268D01*
X458268Y104299D02*
Y108299D01*
X456268Y83465D02*
X460268D01*
X458268Y81465D02*
Y85465D01*
X456268Y73622D02*
X460268D01*
X458268Y71622D02*
Y75622D01*
X456268Y63779D02*
X460268D01*
X458268Y61779D02*
Y65780D01*
X456255Y168898D02*
X460255D01*
X458255Y166898D02*
Y170898D01*
X456255Y178740D02*
X460255D01*
X458255Y176740D02*
Y180740D01*
X456255Y188583D02*
X460255D01*
X458255Y186583D02*
Y190583D01*
X456255Y159055D02*
X460255D01*
X458255Y157055D02*
Y161055D01*
X456255Y149213D02*
X460255D01*
X458255Y147213D02*
Y151213D01*
X362717Y450551D02*
X366260D01*
X364488Y448779D02*
Y452323D01*
X362717Y440551D02*
X366260D01*
X364488Y438779D02*
Y442323D01*
X352717Y450551D02*
X356260D01*
X354488Y448779D02*
Y452323D01*
X352717Y440551D02*
X356260D01*
X354488Y438779D02*
Y442323D01*
X342717Y450551D02*
X346260D01*
X344488Y448779D02*
Y452323D01*
X342717Y440551D02*
X346260D01*
X344488Y438779D02*
Y442323D01*
X332717Y450551D02*
X336260D01*
X334488Y448779D02*
Y452323D01*
X332717Y440551D02*
X336260D01*
X334488Y438779D02*
Y442323D01*
X322717Y450551D02*
X326260D01*
X324488Y448779D02*
Y452323D01*
X322717Y440551D02*
X326260D01*
X324488Y438779D02*
Y442323D01*
X312717Y450551D02*
X316260D01*
X314488Y448779D02*
Y452323D01*
X312717Y440551D02*
X316260D01*
X314488Y438779D02*
Y442323D01*
X302717Y450551D02*
X306260D01*
X304488Y448779D02*
Y452323D01*
X302717Y440551D02*
X306260D01*
X304488Y438779D02*
Y442323D01*
X292717Y450551D02*
X296260D01*
X294488Y448779D02*
Y452323D01*
X292717Y440551D02*
X296260D01*
X294488Y438779D02*
Y442323D01*
X282717Y450551D02*
X286260D01*
X284488Y448779D02*
Y452323D01*
X282717Y440551D02*
X286260D01*
X284488Y438779D02*
Y442323D01*
X272717Y450551D02*
X276260D01*
X274488Y448779D02*
Y452323D01*
X272717Y440551D02*
X276260D01*
X274488Y438779D02*
Y442323D01*
X262717Y450551D02*
X266260D01*
X264488Y448779D02*
Y452323D01*
X262717Y440551D02*
X266260D01*
X264488Y438779D02*
Y442323D01*
X252717Y450551D02*
X256260D01*
X254488Y448779D02*
Y452323D01*
X252717Y440551D02*
X256260D01*
X254488Y438779D02*
Y442323D01*
X242717Y450551D02*
X246260D01*
X244488Y448779D02*
Y452323D01*
X242717Y440551D02*
X246260D01*
X244488Y438779D02*
Y442323D01*
X458858Y281890D02*
X461614D01*
X460236Y280512D02*
Y283268D01*
X450984Y281890D02*
X453740D01*
X452362Y280512D02*
Y283268D01*
X458858Y274016D02*
X461614D01*
X460236Y272638D02*
Y275394D01*
X450984Y274016D02*
X453740D01*
X452362Y272638D02*
Y275394D01*
X458858Y266142D02*
X461614D01*
X460236Y264764D02*
Y267520D01*
X450984Y266142D02*
X453740D01*
X452362Y264764D02*
Y267520D01*
X458858Y258268D02*
X461614D01*
X460236Y256890D02*
Y259646D01*
X450984Y258268D02*
X453740D01*
X452362Y256890D02*
Y259646D01*
X458858Y250394D02*
X461614D01*
X460236Y249016D02*
Y251772D01*
X450984Y250394D02*
X453740D01*
X452362Y249016D02*
Y251772D01*
X458858Y242520D02*
X461614D01*
X460236Y241142D02*
Y243898D01*
X450984Y242520D02*
X453740D01*
X452362Y241142D02*
Y243898D01*
X458858Y234646D02*
X461614D01*
X460236Y233268D02*
Y236024D01*
X450984Y234646D02*
X453740D01*
X452362Y233268D02*
Y236024D01*
X458858Y226772D02*
X461614D01*
X460236Y225394D02*
Y228150D01*
X450984Y226772D02*
X453740D01*
X452362Y225394D02*
Y228150D01*
X458858Y218898D02*
X461614D01*
X460236Y217520D02*
Y220276D01*
X450984Y218898D02*
X453740D01*
X452362Y217520D02*
Y220276D01*
X458858Y211024D02*
X461614D01*
X460236Y209646D02*
Y212402D01*
X450984Y211024D02*
X453740D01*
X452362Y209646D02*
Y212402D01*
X414481Y222588D02*
X417237D01*
X415859Y221210D02*
Y223966D01*
X67353Y62800D02*
X72077D01*
X69715Y60438D02*
Y65162D01*
X67353Y82485D02*
X72077D01*
X69715Y80123D02*
Y84847D01*
X77195Y52957D02*
X81920D01*
X79558Y50595D02*
Y55320D01*
X77195Y72642D02*
X81920D01*
X79558Y70280D02*
Y75005D01*
X87038Y82485D02*
X91762D01*
X89400Y80123D02*
Y84847D01*
X87038Y62800D02*
X91762D01*
X89400Y60438D02*
Y65162D01*
X54191Y276716D02*
X58128D01*
X56159Y274747D02*
Y278684D01*
X317091Y40316D02*
X321028D01*
X319059Y38347D02*
Y42284D01*
X410194Y79564D02*
X411794D01*
X410994Y78764D02*
Y80364D01*
X399200Y73800D02*
X400800D01*
X400000Y73000D02*
Y74600D01*
X387460Y79540D02*
X389060D01*
X388260Y78740D02*
Y80340D01*
X387500Y99843D02*
X389100D01*
X388300Y99043D02*
Y100643D01*
X400200Y111000D02*
X401800D01*
X401000Y110200D02*
Y111800D01*
X348350Y230818D02*
X349950D01*
X349150Y230018D02*
Y231618D01*
X345050Y230818D02*
X346650D01*
X345850Y230018D02*
Y231618D01*
X347900Y199100D02*
X349500D01*
X348700Y198300D02*
Y199900D01*
X344600Y199100D02*
X346200D01*
X345400Y198300D02*
Y199900D01*
X261500Y199700D02*
X263100D01*
X262300Y198900D02*
Y200500D01*
X178366Y354134D02*
X179966D01*
X179166Y353334D02*
Y354934D01*
X278400Y252000D02*
X280000D01*
X279200Y251200D02*
Y252800D01*
X277900Y224100D02*
X279500D01*
X278700Y223300D02*
Y224900D01*
X284100Y258200D02*
X285700D01*
X284900Y257400D02*
Y259000D01*
X281300Y261600D02*
X282900D01*
X282100Y260800D02*
Y262400D01*
X339194Y256890D02*
X340794D01*
X339994Y256090D02*
Y257690D01*
X339194Y264370D02*
X340794D01*
X339994Y263570D02*
Y265170D01*
X339194Y289173D02*
X340794D01*
X339994Y288373D02*
Y289973D01*
X294400Y223819D02*
X296000D01*
X295200Y223019D02*
Y224619D01*
X291300Y227400D02*
X292900D01*
X292100Y226600D02*
Y228200D01*
X295921Y36700D02*
X297521D01*
X296721Y35900D02*
Y37500D01*
X406500Y228061D02*
X408100D01*
X407300Y227261D02*
Y228861D01*
X432400Y234693D02*
X434000D01*
X433200Y233893D02*
Y235493D01*
X441100Y234793D02*
X442700D01*
X441900Y233993D02*
Y235593D01*
X432400Y248866D02*
X434000D01*
X433200Y248066D02*
Y249666D01*
X441100Y248966D02*
X442700D01*
X441900Y248166D02*
Y249766D01*
X432400Y263433D02*
X434000D01*
X433200Y262633D02*
Y264233D01*
X441100Y263533D02*
X442700D01*
X441900Y262733D02*
Y264333D01*
X441100Y278100D02*
X442700D01*
X441900Y277300D02*
Y278900D01*
X432400Y278000D02*
X434000D01*
X433200Y277200D02*
Y278800D01*
X357681Y152707D02*
X359281D01*
X358481Y151907D02*
Y153507D01*
X394621Y149400D02*
X396221D01*
X395421Y148600D02*
Y150200D01*
X359099Y197825D02*
X360699D01*
X359899Y197025D02*
Y198625D01*
X359099Y188376D02*
X360699D01*
X359899Y187576D02*
Y189176D01*
X376979Y179046D02*
X378579D01*
X377779Y178246D02*
Y179846D01*
X376979Y184046D02*
X378579D01*
X377779Y183246D02*
Y184846D01*
X376979Y194000D02*
X378579D01*
X377779Y193200D02*
Y194800D01*
X410477Y171251D02*
X412077D01*
X411277Y170451D02*
Y172051D01*
X419969Y142539D02*
X421569D01*
X420769Y141739D02*
Y143339D01*
X48700Y129900D02*
X50300D01*
X49500Y129100D02*
Y130700D01*
X45100Y129900D02*
X46700D01*
X45900Y129100D02*
Y130700D01*
X45100Y126600D02*
X46700D01*
X45900Y125800D02*
Y127400D01*
X48700Y126700D02*
X50300D01*
X49500Y125900D02*
Y127500D01*
X45200Y123500D02*
X46800D01*
X46000Y122700D02*
Y124300D01*
X48800Y123600D02*
X50400D01*
X49600Y122800D02*
Y124400D01*
X45300Y120300D02*
X46900D01*
X46100Y119500D02*
Y121100D01*
X48900Y120400D02*
X50500D01*
X49700Y119600D02*
Y121200D01*
X45400Y117200D02*
X47000D01*
X46200Y116400D02*
Y118000D01*
X49000Y117200D02*
X50600D01*
X49800Y116400D02*
Y118000D01*
X235000Y210543D02*
X237400D01*
X236200Y209343D02*
Y211743D01*
X36200Y349260D02*
X38600D01*
X37400Y348060D02*
Y350460D01*
X72819Y360481D02*
X75219D01*
X74019Y359281D02*
Y361681D01*
X376500Y462800D02*
X378100D01*
X377300Y462000D02*
Y463600D01*
X372900Y462800D02*
X374500D01*
X373700Y462000D02*
Y463600D01*
X372900Y459500D02*
X374500D01*
X373700Y458700D02*
Y460300D01*
X376500Y459600D02*
X378100D01*
X377300Y458800D02*
Y460400D01*
X373000Y456400D02*
X374600D01*
X373800Y455600D02*
Y457200D01*
X376600Y456500D02*
X378200D01*
X377400Y455700D02*
Y457300D01*
X373100Y453200D02*
X374700D01*
X373900Y452400D02*
Y454000D01*
X376700Y453300D02*
X378300D01*
X377500Y452500D02*
Y454100D01*
X266400Y45200D02*
X268000D01*
X267200Y44400D02*
Y46000D01*
X262000Y45100D02*
X263600D01*
X262800Y44300D02*
Y45900D01*
X257700Y45300D02*
X259300D01*
X258500Y44500D02*
Y46100D01*
X252900Y45300D02*
X254500D01*
X253700Y44500D02*
Y46100D01*
X266400Y49500D02*
X268000D01*
X267200Y48700D02*
Y50300D01*
X262000Y49500D02*
X263600D01*
X262800Y48700D02*
Y50300D01*
X257700Y49500D02*
X259300D01*
X258500Y48700D02*
Y50300D01*
X252900Y49600D02*
X254500D01*
X253700Y48800D02*
Y50400D01*
X211400Y20300D02*
X213000D01*
X212200Y19500D02*
Y21100D01*
X207100Y20800D02*
X208700D01*
X207900Y20000D02*
Y21600D01*
X203200Y20500D02*
X204800D01*
X204000Y19700D02*
Y21300D01*
X211400Y24600D02*
X213000D01*
X212200Y23800D02*
Y25400D01*
X207300Y24900D02*
X208900D01*
X208100Y24100D02*
Y25700D01*
X203300Y24700D02*
X204900D01*
X204100Y23900D02*
Y25500D01*
X211400Y28900D02*
X213000D01*
X212200Y28100D02*
Y29700D01*
X207300Y29000D02*
X208900D01*
X208100Y28200D02*
Y29800D01*
X203200Y29000D02*
X204800D01*
X204000Y28200D02*
Y29800D01*
X395169Y375940D02*
X396769D01*
X395969Y375140D02*
Y376740D01*
X362586Y376700D02*
X364186D01*
X363386Y375900D02*
Y377500D01*
X463932Y500000D02*
X465532D01*
X464732Y499200D02*
Y500800D01*
X451168Y500787D02*
X452769D01*
X451968Y499987D02*
Y501587D01*
X440539Y500394D02*
X442139D01*
X441339Y499594D02*
Y501194D01*
X367704Y324410D02*
X369304D01*
X368504Y323609D02*
Y325209D01*
X290932Y497638D02*
X292532D01*
X291732Y496838D02*
Y498438D01*
X280696Y497244D02*
X282296D01*
X281496Y496444D02*
Y498044D01*
X270853Y497244D02*
X272453D01*
X271654Y496444D02*
Y498044D01*
X260224Y497638D02*
X261824D01*
X261024Y496838D02*
Y498438D01*
X250775Y497638D02*
X252375D01*
X251575Y496838D02*
Y498438D01*
X240539Y497638D02*
X242139D01*
X241339Y496838D02*
Y498438D01*
X230696Y497638D02*
X232296D01*
X231496Y496838D02*
Y498438D01*
X220460Y497638D02*
X222060D01*
X221260Y496838D02*
Y498438D01*
X210617Y497638D02*
X212217D01*
X211417Y496838D02*
Y498438D01*
X344476Y320472D02*
X346076D01*
X345276Y319672D02*
Y321272D01*
X351162Y414764D02*
X353562D01*
X352362Y413564D02*
Y415964D01*
X132300Y312200D02*
X133900D01*
X133100Y311400D02*
Y313000D01*
X411836Y46099D02*
X413836D01*
X412836Y45099D02*
Y47099D01*
X420300Y61800D02*
X422300D01*
X421300Y60800D02*
Y62800D01*
X257657Y282804D02*
X259257D01*
X258457Y282004D02*
Y283604D01*
X404200Y33800D02*
X405800D01*
X405000Y33000D02*
Y34600D01*
X238153Y161685D02*
X240552D01*
X239352Y160485D02*
Y162885D01*
X230853Y161685D02*
X233253D01*
X232052Y160485D02*
Y162885D01*
X223552Y161685D02*
X225953D01*
X224752Y160485D02*
Y162885D01*
X238153Y169785D02*
X240552D01*
X239352Y168585D02*
Y170985D01*
X230853Y169785D02*
X233253D01*
X232052Y168585D02*
Y170985D01*
X223552Y169585D02*
X225953D01*
X224752Y168385D02*
Y170785D01*
X237853Y178885D02*
X240252D01*
X239053Y177685D02*
Y180085D01*
X230553Y178885D02*
X232952D01*
X231752Y177685D02*
Y180085D01*
X223253Y178885D02*
X225653D01*
X224452Y177685D02*
Y180085D01*
X223355Y118803D02*
X225755D01*
X224555Y117603D02*
Y120003D01*
X230655Y118803D02*
X233055D01*
X231855Y117603D02*
Y120003D01*
X237955Y118803D02*
X240355D01*
X239155Y117603D02*
Y120003D01*
X223655Y109503D02*
X226055D01*
X224855Y108303D02*
Y110703D01*
X230955Y109703D02*
X233355D01*
X232155Y108503D02*
Y110903D01*
X238255Y109703D02*
X240655D01*
X239455Y108503D02*
Y110903D01*
X223655Y101603D02*
X226055D01*
X224855Y100403D02*
Y102803D01*
X230955Y101603D02*
X233355D01*
X232155Y100403D02*
Y102803D01*
X238255Y101603D02*
X240655D01*
X239455Y100403D02*
Y102803D01*
X238158Y43302D02*
X240558D01*
X239358Y42102D02*
Y44502D01*
X230858Y43302D02*
X233258D01*
X232058Y42102D02*
Y44502D01*
X223558Y43302D02*
X225958D01*
X224758Y42102D02*
Y44502D01*
X238158Y51402D02*
X240558D01*
X239358Y50202D02*
Y52602D01*
X230858Y51402D02*
X233258D01*
X232058Y50202D02*
Y52602D01*
X223558Y51202D02*
X225958D01*
X224758Y50002D02*
Y52402D01*
X237858Y60502D02*
X240258D01*
X239058Y59302D02*
Y61702D01*
X230558Y60502D02*
X232958D01*
X231758Y59302D02*
Y61702D01*
X223258Y60502D02*
X225658D01*
X224458Y59302D02*
Y61702D01*
X82489Y212609D02*
X84489D01*
X83489Y211609D02*
Y213609D01*
X87607Y212609D02*
X89607D01*
X88607Y211609D02*
Y213609D01*
X82489Y207491D02*
X84489D01*
X83489Y206491D02*
Y208491D01*
X82489Y202767D02*
X84489D01*
X83489Y201767D02*
Y203767D01*
X87607Y202767D02*
X89607D01*
X88607Y201767D02*
Y203767D01*
X87607Y207491D02*
X89607D01*
X88607Y206491D02*
Y208491D01*
X375800Y287800D02*
X377400D01*
X376600Y287000D02*
Y288600D01*
X233100Y361100D02*
X234700D01*
X233900Y360300D02*
Y361900D01*
X287300Y254358D02*
X288900D01*
X288100Y253558D02*
Y255158D01*
X285200Y265200D02*
X286800D01*
X286000Y264400D02*
Y266000D01*
X280302Y285827D02*
X281902D01*
X281102Y285027D02*
Y286627D01*
X291432Y241800D02*
X293032D01*
X292232Y241000D02*
Y242600D01*
X285099Y278104D02*
X286699D01*
X285898Y277304D02*
Y278904D01*
X89240Y35151D02*
X90840D01*
X90040Y34351D02*
Y35951D01*
X263203Y287134D02*
X264803D01*
X264002Y286334D02*
Y287934D01*
X305893Y297638D02*
X307493D01*
X306693Y296838D02*
Y298438D01*
X348418Y90749D02*
X350018D01*
X349218Y89949D02*
Y91549D01*
X156500Y63500D02*
X158100D01*
X157300Y62700D02*
Y64300D01*
X169700Y61100D02*
X171300D01*
X170500Y60300D02*
Y61900D01*
X162000Y49400D02*
X163600D01*
X162800Y48600D02*
Y50200D01*
X255500Y301100D02*
X257100D01*
X256300Y300300D02*
Y301900D01*
X192700Y346654D02*
X194300D01*
X193500Y345853D02*
Y347453D01*
X354556Y43540D02*
X356156D01*
X355356Y42740D02*
Y44340D01*
X376500Y33500D02*
X378100D01*
X377300Y32700D02*
Y34300D01*
X391400Y33800D02*
X393000D01*
X392200Y33000D02*
Y34600D01*
X357800Y76400D02*
X359400D01*
X358600Y75600D02*
Y77200D01*
X233255Y330512D02*
X234855D01*
X234055Y329712D02*
Y331312D01*
X210917Y288365D02*
X212517D01*
X211717Y287565D02*
Y289165D01*
X321477Y324900D02*
X323077D01*
X322277Y324100D02*
Y325700D01*
X279712Y330512D02*
X281312D01*
X280512Y329712D02*
Y331312D01*
X289032Y373228D02*
X291432D01*
X290232Y372028D02*
Y374428D01*
X342895Y373228D02*
X345294D01*
X344094Y372028D02*
Y374428D01*
X210617Y307700D02*
X212217D01*
X211417Y306900D02*
Y308500D01*
X226759Y307874D02*
X228359D01*
X227559Y307074D02*
Y308674D01*
X398508Y199046D02*
X400108D01*
X399308Y198246D02*
Y199846D01*
X397091Y165739D02*
X398691D01*
X397891Y164939D02*
Y166539D01*
X346058Y124975D02*
X347658D01*
X346858Y124175D02*
Y125775D01*
X410477Y188180D02*
X412077D01*
X411277Y187380D02*
Y188980D01*
X438036Y203534D02*
X439636D01*
X438836Y202734D02*
Y204334D01*
X428390Y203337D02*
X429990D01*
X429190Y202537D02*
Y204137D01*
X74016Y265868D02*
X76416D01*
X75216Y264668D02*
Y267069D01*
X80315Y265868D02*
X82715D01*
X81515Y264668D02*
Y267069D01*
X86614Y265868D02*
X89014D01*
X87814Y264668D02*
Y267069D01*
X92913Y265868D02*
X95313D01*
X94113Y264668D02*
Y267069D01*
X98425Y265868D02*
X100825D01*
X99625Y264668D02*
Y267069D01*
X74016Y260357D02*
X76416D01*
X75216Y259157D02*
Y261557D01*
X80315Y260750D02*
X82715D01*
X81515Y259550D02*
Y261950D01*
X86614Y260750D02*
X89014D01*
X87814Y259550D02*
Y261950D01*
X92913Y260750D02*
X95313D01*
X94113Y259550D02*
Y261950D01*
X98425Y260750D02*
X100825D01*
X99625Y259550D02*
Y261950D01*
X258068Y141732D02*
X260468D01*
X259268Y140532D02*
Y142932D01*
X174097Y212850D02*
X176497D01*
X175297Y211650D02*
Y214050D01*
X281877Y299606D02*
X283477D01*
X282677Y298806D02*
Y300406D01*
X380420Y356811D02*
X382020D01*
X381221Y356011D02*
Y357611D01*
X377153Y333858D02*
X378753D01*
X377953Y333058D02*
Y334658D01*
X275100Y254000D02*
X276700D01*
X275900Y253200D02*
Y254800D01*
X377596Y299606D02*
X379097D01*
X378346Y298856D02*
Y300356D01*
X381090Y299661D02*
X382690D01*
X381890Y298861D02*
Y300461D01*
X381090Y309661D02*
X382690D01*
X381890Y308861D02*
Y310461D01*
X377596Y309606D02*
X379097D01*
X378346Y308856D02*
Y310356D01*
X381325Y325827D02*
X382925D01*
X382125Y325027D02*
Y326627D01*
X377831Y325772D02*
X379331D01*
X378581Y325022D02*
Y326522D01*
X381325Y361811D02*
X382925D01*
X382125Y361011D02*
Y362611D01*
X377831Y361756D02*
X379331D01*
X378581Y361006D02*
Y362506D01*
X381325Y351811D02*
X382925D01*
X382125Y351011D02*
Y352611D01*
X377831Y351756D02*
X379331D01*
X378581Y351006D02*
Y352506D01*
X391878Y335827D02*
X393478D01*
X392678Y335027D02*
Y336627D01*
X395472Y335882D02*
X396972D01*
X396222Y335132D02*
Y336632D01*
X321400Y81540D02*
X323000D01*
X322200Y80740D02*
Y82340D01*
X361648Y85237D02*
X364048D01*
X362848Y84037D02*
Y86437D01*
X361636Y43540D02*
X364036D01*
X362836Y42340D02*
Y44740D01*
X383060Y142298D02*
X385460D01*
X384260Y141098D02*
Y143498D01*
X257727Y258661D02*
X259327D01*
X258527Y257861D02*
Y259461D01*
X265342Y268504D02*
X266942D01*
X266142Y267704D02*
Y269304D01*
X268885Y267323D02*
X270485D01*
X269685Y266523D02*
Y268123D01*
X272428Y266142D02*
X274028D01*
X273228Y265342D02*
Y266942D01*
X342942Y89997D02*
X344542D01*
X343742Y89197D02*
Y90797D01*
X338650Y109249D02*
X340250D01*
X339450Y108449D02*
Y110049D01*
X335035Y137573D02*
X336635D01*
X335835Y136773D02*
Y138373D01*
X364020Y174203D02*
X365620D01*
X364820Y173403D02*
Y175003D01*
X427012Y142904D02*
X428612D01*
X427812Y142104D02*
Y143704D01*
X419532Y154715D02*
X421132D01*
X420332Y153915D02*
Y155515D01*
X427012Y154715D02*
X428612D01*
X427812Y153915D02*
Y155515D01*
X392445Y179046D02*
X394045D01*
X393245Y178246D02*
Y179846D01*
X397900Y228300D02*
X399500D01*
X398700Y227500D02*
Y229100D01*
X332700Y227361D02*
X334300D01*
X333500Y226561D02*
Y228161D01*
X335000Y223817D02*
X336600D01*
X335800Y223017D02*
Y224617D01*
X335000Y217124D02*
X336600D01*
X335800Y216324D02*
Y217924D01*
X332700Y220668D02*
X334300D01*
X333500Y219868D02*
Y221468D01*
X332700Y212718D02*
X334300D01*
X333500Y211918D02*
Y213518D01*
X335000Y202482D02*
X336600D01*
X335800Y201682D02*
Y203282D01*
X335000Y209175D02*
X336600D01*
X335800Y208375D02*
Y209975D01*
X332700Y206025D02*
X334300D01*
X333500Y205225D02*
Y206825D01*
X352500Y206065D02*
X354100D01*
X353300Y205265D02*
Y206865D01*
X354800Y209214D02*
X356400D01*
X355600Y208414D02*
Y210014D01*
X354800Y202521D02*
X356400D01*
X355600Y201721D02*
Y203321D01*
X352500Y212757D02*
X354100D01*
X353300Y211958D02*
Y213558D01*
X352500Y220707D02*
X354100D01*
X353300Y219907D02*
Y221507D01*
X354800Y217164D02*
X356400D01*
X355600Y216364D02*
Y217964D01*
X354800Y223857D02*
X356400D01*
X355600Y223057D02*
Y224657D01*
X352500Y227400D02*
X354100D01*
X353300Y226600D02*
Y228200D01*
X439217Y171251D02*
X440817D01*
X440017Y170451D02*
Y172051D01*
X297569Y174297D02*
X299169D01*
X298369Y173497D02*
Y175097D01*
X305800Y174300D02*
X307400D01*
X306600Y173500D02*
Y175100D01*
X314100Y174300D02*
X315700D01*
X314900Y173500D02*
Y175100D01*
X322400Y174300D02*
X324000D01*
X323200Y173500D02*
Y175100D01*
X343600Y190714D02*
X345200D01*
X344400Y189914D02*
Y191514D01*
X330300Y146148D02*
X331900D01*
X331100Y145348D02*
Y146948D01*
X373665Y149000D02*
X375266D01*
X374465Y148200D02*
Y149800D01*
X238738Y254138D02*
X240338D01*
X239538Y253338D02*
Y254938D01*
X195224Y266256D02*
X196824D01*
X196024Y265456D02*
Y267056D01*
X309633Y200067D02*
X311233D01*
X310433Y199267D02*
Y200867D01*
X286433Y200067D02*
X288033D01*
X287233Y199267D02*
Y200867D01*
X180800Y242200D02*
X182400D01*
X181600Y241400D02*
Y243000D01*
X185100Y242300D02*
X186700D01*
X185900Y241500D02*
Y243100D01*
X189600Y242200D02*
X191200D01*
X190400Y241400D02*
Y243000D01*
X183000Y239000D02*
X184600D01*
X183800Y238200D02*
Y239800D01*
X187400Y238900D02*
X189000D01*
X188200Y238100D02*
Y239700D01*
X180700Y235600D02*
X182300D01*
X181500Y234800D02*
Y236400D01*
X185200Y235300D02*
X186800D01*
X186000Y234500D02*
Y236100D01*
X189600Y235100D02*
X191200D01*
X190400Y234300D02*
Y235900D01*
X413129Y126659D02*
X414729D01*
X413929Y125859D02*
Y127459D01*
X361800Y123400D02*
X364200D01*
X363000Y122200D02*
Y124600D01*
X354129Y123991D02*
X355729D01*
X354929Y123191D02*
Y124791D01*
X420300Y95312D02*
X422300D01*
X421300Y94312D02*
Y96312D01*
X420300Y21328D02*
X422300D01*
X421300Y20328D02*
Y22328D01*
X371000Y104800D02*
X373400D01*
X372200Y103600D02*
Y106000D01*
X292400Y21543D02*
X294000D01*
X293200Y20743D02*
Y22343D01*
X413100Y349100D02*
X414700D01*
X413900Y348300D02*
Y349900D01*
X420000Y341100D02*
X421600D01*
X420800Y340300D02*
Y341900D01*
X413100Y322600D02*
X414700D01*
X413900Y321800D02*
Y323400D01*
X413100Y306200D02*
X414700D01*
X413900Y305400D02*
Y307000D01*
X413000Y297000D02*
X414600D01*
X413800Y296200D02*
Y297800D01*
X412900Y360200D02*
X414500D01*
X413700Y359400D02*
Y361000D01*
X129100Y67200D02*
X130700D01*
X129900Y66400D02*
Y68000D01*
X134600Y67200D02*
X136200D01*
X135400Y66400D02*
Y68000D01*
X139500Y67200D02*
X141100D01*
X140300Y66400D02*
Y68000D01*
X144000Y67200D02*
X145600D01*
X144800Y66400D02*
Y68000D01*
X139700Y63200D02*
X141300D01*
X140500Y62400D02*
Y64000D01*
X144100Y63200D02*
X145700D01*
X144900Y62400D02*
Y64000D01*
X139800Y59100D02*
X141400D01*
X140600Y58300D02*
Y59900D01*
X144100Y59300D02*
X145700D01*
X144900Y58500D02*
Y60100D01*
X25100Y104000D02*
X26700D01*
X25900Y103200D02*
Y104800D01*
X30237Y104000D02*
X31837D01*
X31038Y103200D02*
Y104800D01*
X35375Y104000D02*
X36975D01*
X36175Y103200D02*
Y104800D01*
X25100Y99000D02*
X26700D01*
X25900Y98200D02*
Y99800D01*
X30237Y99000D02*
X31837D01*
X31038Y98200D02*
Y99800D01*
X35375Y99000D02*
X36975D01*
X36175Y98200D02*
Y99800D01*
X238000Y363300D02*
X239600D01*
X238800Y362500D02*
Y364100D01*
X146584Y239816D02*
X148184D01*
X147384Y239016D02*
Y240616D01*
X130300Y365300D02*
X131900D01*
X131100Y364500D02*
Y366100D01*
X145800Y370500D02*
X147400D01*
X146600Y369700D02*
Y371300D01*
X138200Y373200D02*
X139800D01*
X139000Y372400D02*
Y374000D01*
X142300Y380900D02*
X143900D01*
X143100Y380100D02*
Y381700D01*
X133825Y379675D02*
X135425D01*
X134625Y378875D02*
Y380475D01*
X300775Y497638D02*
X302375D01*
X301575Y496838D02*
Y498438D01*
X311011Y497638D02*
X312611D01*
X311811Y496838D02*
Y498438D01*
X320853Y497638D02*
X322453D01*
X321654Y496838D02*
Y498438D01*
X331090Y497638D02*
X332690D01*
X331890Y496838D02*
Y498438D01*
X340932Y497638D02*
X342532D01*
X341732Y496838D02*
Y498438D01*
X350692Y497642D02*
X352292D01*
X351492Y496842D02*
Y498442D01*
X360415Y497638D02*
X362015D01*
X361215Y496838D02*
Y498438D01*
X370601Y497531D02*
X372201D01*
X371401Y496731D02*
Y498331D01*
X379656Y497531D02*
X381256D01*
X380456Y496731D02*
Y498331D01*
X388711Y497531D02*
X390311D01*
X389511Y496731D02*
Y498331D01*
X398554Y497638D02*
X400154D01*
X399354Y496838D02*
Y498438D01*
X438800Y419700D02*
X440400D01*
X439600Y418900D02*
Y420500D01*
X434600Y423700D02*
X436200D01*
X435400Y422900D02*
Y424500D01*
X430700Y427600D02*
X432300D01*
X431500Y426800D02*
Y428400D01*
X426300Y403200D02*
X427900D01*
X427100Y402400D02*
Y404000D01*
X421247Y412205D02*
X422847D01*
X422047Y411405D02*
Y413005D01*
X415600Y415600D02*
X417200D01*
X416400Y414800D02*
Y416400D01*
X285546Y346654D02*
X287146D01*
X286347Y345853D02*
Y347453D01*
X239400Y346700D02*
X241000D01*
X240200Y345900D02*
Y347500D01*
X186500Y354134D02*
X188100D01*
X187300Y353334D02*
Y354934D01*
X235440Y354147D02*
X237040D01*
X236240Y353346D02*
Y354946D01*
X281579Y354140D02*
X283179D01*
X282379Y353340D02*
Y354940D01*
X327642Y353353D02*
X329242D01*
X328442Y352553D02*
Y354153D01*
X201512Y330512D02*
X203112D01*
X202312Y329712D02*
Y331312D01*
X327600Y330400D02*
X329200D01*
X328400Y329600D02*
Y331200D01*
X331200Y345800D02*
X332800D01*
X332000Y345000D02*
Y346600D01*
X293788Y330512D02*
X295388D01*
X294588Y329712D02*
Y331312D01*
X249012Y330512D02*
X250612D01*
X249812Y329712D02*
Y331312D01*
X182334Y354134D02*
X183934D01*
X183134Y353334D02*
Y354934D01*
X253200Y141600D02*
X255600D01*
X254400Y140400D02*
Y142800D01*
X248700Y141700D02*
X251100D01*
X249900Y140500D02*
Y142900D01*
X174100Y208400D02*
X176500D01*
X175300Y207200D02*
Y209600D01*
X174000Y203900D02*
X176400D01*
X175200Y202700D02*
Y205100D01*
X288500Y21543D02*
X290100D01*
X289300Y20743D02*
Y22343D01*
X284800Y21543D02*
X286400D01*
X285600Y20743D02*
Y22343D01*
X159500Y280900D02*
X161100D01*
X160300Y280100D02*
Y281700D01*
X163400Y280900D02*
X165000D01*
X164200Y280100D02*
Y281700D01*
X159500Y277300D02*
X161100D01*
X160300Y276500D02*
Y278100D01*
X163400Y277300D02*
X165000D01*
X164200Y276500D02*
Y278100D01*
X159500Y293600D02*
X161100D01*
X160300Y292800D02*
Y294400D01*
X163400Y293500D02*
X165000D01*
X164200Y292700D02*
Y294300D01*
X159500Y297200D02*
X161100D01*
X160300Y296400D02*
Y298000D01*
X163400Y297300D02*
X165000D01*
X164200Y296500D02*
Y298100D01*
X159500Y301400D02*
X161100D01*
X160300Y300600D02*
Y302200D01*
X163400Y301600D02*
X165000D01*
X164200Y300800D02*
Y302400D01*
X159500Y305400D02*
X161100D01*
X160300Y304600D02*
Y306200D01*
X163400Y305500D02*
X165000D01*
X164200Y304700D02*
Y306300D01*
X159500Y309400D02*
X161100D01*
X160300Y308600D02*
Y310200D01*
X163400Y309400D02*
X165000D01*
X164200Y308600D02*
Y310200D01*
X159500Y313200D02*
X161100D01*
X160300Y312400D02*
Y314000D01*
X163400Y313200D02*
X165000D01*
X164200Y312400D02*
Y314000D01*
X159500Y323600D02*
X161100D01*
X160300Y322800D02*
Y324400D01*
X163400Y323800D02*
X165000D01*
X164200Y323000D02*
Y324600D01*
X283400Y394100D02*
X285800D01*
X284600Y392900D02*
Y395300D01*
X372586Y376700D02*
X374186D01*
X373386Y375900D02*
Y377500D01*
X403556Y375940D02*
X405156D01*
X404356Y375140D02*
Y376740D01*
X387169Y375940D02*
X388769D01*
X387969Y375140D02*
Y376740D01*
X359300Y394100D02*
X361700D01*
X360500Y392900D02*
Y395300D01*
X338837Y394100D02*
X341237D01*
X340037Y392900D02*
Y395300D01*
X383400Y446500D02*
X385000D01*
X384200Y445700D02*
Y447300D01*
X387800Y446500D02*
X389400D01*
X388600Y445700D02*
Y447300D01*
X392500Y446500D02*
X394100D01*
X393300Y445700D02*
Y447300D01*
X383400Y442600D02*
X385000D01*
X384200Y441800D02*
Y443400D01*
X387800Y442500D02*
X389400D01*
X388600Y441700D02*
Y443300D01*
X392500Y442567D02*
X394100D01*
X393300Y441767D02*
Y443367D01*
X383400Y438700D02*
X385000D01*
X384200Y437900D02*
Y439500D01*
X387800Y438700D02*
X389400D01*
X388600Y437900D02*
Y439500D01*
X392500Y438633D02*
X394100D01*
X393300Y437833D02*
Y439433D01*
X383300Y434800D02*
X384900D01*
X384100Y434000D02*
Y435600D01*
X387800Y434800D02*
X389400D01*
X388600Y434000D02*
Y435600D01*
X392500Y434700D02*
X394100D01*
X393300Y433900D02*
Y435500D01*
X136000Y312200D02*
X137600D01*
X136800Y311400D02*
Y313000D01*
X136100Y308400D02*
X137700D01*
X136900Y307600D02*
Y309200D01*
X136100Y304600D02*
X137700D01*
X136900Y303800D02*
Y305400D01*
X132300Y308200D02*
X133900D01*
X133100Y307400D02*
Y309000D01*
X132100Y304300D02*
X133700D01*
X132900Y303500D02*
Y305100D01*
X136300Y300700D02*
X137900D01*
X137100Y299900D02*
Y301500D01*
X132100Y300500D02*
X133700D01*
X132900Y299700D02*
Y301300D01*
X132000Y296800D02*
X133600D01*
X132800Y296000D02*
Y297600D01*
X136300Y296900D02*
X137900D01*
X137100Y296100D02*
Y297700D01*
X132100Y293100D02*
X133700D01*
X132900Y292300D02*
Y293900D01*
X136300Y293000D02*
X137900D01*
X137100Y292200D02*
Y293800D01*
X139800Y312300D02*
X141400D01*
X140600Y311500D02*
Y313100D01*
X140200Y308400D02*
X141800D01*
X141000Y307600D02*
Y309200D01*
X140300Y304700D02*
X141900D01*
X141100Y303900D02*
Y305500D01*
X140400Y300800D02*
X142000D01*
X141200Y300000D02*
Y301600D01*
X140300Y296800D02*
X141900D01*
X141100Y296000D02*
Y297600D01*
X140300Y293000D02*
X141900D01*
X141100Y292200D02*
Y293800D01*
X193300Y426000D02*
X194900D01*
X194100Y425200D02*
Y426800D01*
X199500Y425500D02*
X201100D01*
X200300Y424700D02*
Y426300D01*
X205300Y425700D02*
X206900D01*
X206100Y424900D02*
Y426500D01*
X193300Y421400D02*
X194900D01*
X194100Y420600D02*
Y422200D01*
X199500Y421000D02*
X201100D01*
X200300Y420200D02*
Y421800D01*
X205300Y420700D02*
X206900D01*
X206100Y419900D02*
Y421500D01*
X193300Y416300D02*
X194900D01*
X194100Y415500D02*
Y417100D01*
X199500Y416400D02*
X201100D01*
X200300Y415600D02*
Y417200D01*
X205300Y416300D02*
X206900D01*
X206100Y415500D02*
Y417100D01*
X193300Y411700D02*
X194900D01*
X194100Y410900D02*
Y412500D01*
X199500Y411400D02*
X201100D01*
X200300Y410600D02*
Y412200D01*
X205300Y411200D02*
X206900D01*
X206100Y410400D02*
Y412000D01*
X203500Y396200D02*
X205100D01*
X204300Y395400D02*
Y397000D01*
X203500Y392600D02*
X205100D01*
X204300Y391800D02*
Y393400D01*
X200300Y396100D02*
X201900D01*
X201100Y395300D02*
Y396900D01*
X200400Y392500D02*
X202000D01*
X201200Y391700D02*
Y393300D01*
X197100Y396000D02*
X198700D01*
X197900Y395200D02*
Y396800D01*
X197200Y392400D02*
X198800D01*
X198000Y391600D02*
Y393200D01*
X194000Y395900D02*
X195600D01*
X194800Y395100D02*
Y396700D01*
X194100Y392300D02*
X195700D01*
X194900Y391500D02*
Y393100D01*
X206900Y392600D02*
X208500D01*
X207700Y391800D02*
Y393400D01*
X206800Y396200D02*
X208400D01*
X207600Y395400D02*
Y397000D01*
X210000Y392700D02*
X211600D01*
X210800Y391900D02*
Y393500D01*
X210000Y396300D02*
X211600D01*
X210800Y395500D02*
Y397100D01*
X53500Y184200D02*
X55100D01*
X54300Y183400D02*
Y185000D01*
X49900Y184200D02*
X51500D01*
X50700Y183400D02*
Y185000D01*
X53400Y187400D02*
X55000D01*
X54200Y186600D02*
Y188200D01*
X49800Y187300D02*
X51400D01*
X50600Y186500D02*
Y188100D01*
X53300Y190600D02*
X54900D01*
X54100Y189800D02*
Y191400D01*
X49700Y190500D02*
X51300D01*
X50500Y189700D02*
Y191300D01*
X53200Y193700D02*
X54800D01*
X54000Y192900D02*
Y194500D01*
X49600Y193600D02*
X51200D01*
X50400Y192800D02*
Y194400D01*
X48800Y58200D02*
X50400D01*
X49600Y57400D02*
Y59000D01*
X45200Y58200D02*
X46800D01*
X46000Y57400D02*
Y59000D01*
X48700Y61400D02*
X50300D01*
X49500Y60600D02*
Y62200D01*
X45100Y61300D02*
X46700D01*
X45900Y60500D02*
Y62100D01*
X48600Y64600D02*
X50200D01*
X49400Y63800D02*
Y65400D01*
X45000Y64500D02*
X46600D01*
X45800Y63700D02*
Y65300D01*
X48500Y67700D02*
X50100D01*
X49300Y66900D02*
Y68500D01*
X44900Y67600D02*
X46500D01*
X45700Y66800D02*
Y68400D01*
X44900Y70900D02*
X46500D01*
X45700Y70100D02*
Y71700D01*
X48500Y70900D02*
X50100D01*
X49300Y70100D02*
Y71700D01*
X40200Y99000D02*
X41800D01*
X41000Y98200D02*
Y99800D01*
X40200Y104000D02*
X41800D01*
X41000Y103200D02*
Y104800D01*
X63863Y104000D02*
X65462D01*
X64662Y103200D02*
Y104800D01*
X63863Y99000D02*
X65462D01*
X64662Y98200D02*
Y99800D01*
X59038Y99000D02*
X60637D01*
X59838Y98200D02*
Y99800D01*
X53900Y99000D02*
X55500D01*
X54700Y98200D02*
Y99800D01*
X59038Y104000D02*
X60637D01*
X59838Y103200D02*
Y104800D01*
X53900Y104000D02*
X55500D01*
X54700Y103200D02*
Y104800D01*
X78363Y103800D02*
X79962D01*
X79163Y103000D02*
Y104600D01*
X78363Y98800D02*
X79962D01*
X79163Y98000D02*
Y99600D01*
X73537Y98800D02*
X75138D01*
X74338Y98000D02*
Y99600D01*
X68400Y98800D02*
X70000D01*
X69200Y98000D02*
Y99600D01*
X73537Y103800D02*
X75138D01*
X74338Y103000D02*
Y104600D01*
X68400Y103800D02*
X70000D01*
X69200Y103000D02*
Y104600D01*
X68500Y93800D02*
X70100D01*
X69300Y93000D02*
Y94600D01*
X73637Y93800D02*
X75238D01*
X74437Y93000D02*
Y94600D01*
X78462Y93800D02*
X80063D01*
X79263Y93000D02*
Y94600D01*
X54000Y94000D02*
X55600D01*
X54800Y93200D02*
Y94800D01*
X59137Y94000D02*
X60738D01*
X59938Y93200D02*
Y94800D01*
X63963Y94000D02*
X65562D01*
X64763Y93200D02*
Y94800D01*
X30338Y94000D02*
X31938D01*
X31137Y93200D02*
Y94800D01*
X25200Y94000D02*
X26800D01*
X26000Y93200D02*
Y94800D01*
X150300Y99400D02*
X151900D01*
X151100Y98600D02*
Y100200D01*
X164800Y99400D02*
X166400D01*
X165600Y98600D02*
Y100200D01*
X159975Y99400D02*
X161575D01*
X160775Y98600D02*
Y100200D01*
X154838Y99400D02*
X156438D01*
X155638Y98600D02*
Y100200D01*
X154737Y108000D02*
X156337D01*
X155537Y107200D02*
Y108800D01*
X159875Y108000D02*
X161475D01*
X160675Y107200D02*
Y108800D01*
X154838Y103800D02*
X156438D01*
X155638Y103000D02*
Y104600D01*
X159975Y103800D02*
X161575D01*
X160775Y103000D02*
Y104600D01*
X164800Y103800D02*
X166400D01*
X165600Y103000D02*
Y104600D01*
X164700Y108000D02*
X166300D01*
X165500Y107200D02*
Y108800D01*
X150300Y103800D02*
X151900D01*
X151100Y103000D02*
Y104600D01*
X150200Y108000D02*
X151800D01*
X151000Y107200D02*
Y108800D01*
X170000Y108000D02*
X171600D01*
X170800Y107200D02*
Y108800D01*
X170100Y103800D02*
X171700D01*
X170900Y103000D02*
Y104600D01*
X170100Y99400D02*
X171700D01*
X170900Y98600D02*
Y100200D01*
X37200Y162300D02*
X38800D01*
X38000Y161500D02*
Y163100D01*
X41000Y162300D02*
X42600D01*
X41800Y161500D02*
Y163100D01*
X44700Y162200D02*
X46300D01*
X45500Y161400D02*
Y163000D01*
X44700Y158800D02*
X46300D01*
X45500Y158000D02*
Y159600D01*
X41000Y158900D02*
X42600D01*
X41800Y158100D02*
Y159700D01*
X37200Y158900D02*
X38800D01*
X38000Y158100D02*
Y159700D01*
X37300Y155000D02*
X38900D01*
X38100Y154200D02*
Y155800D01*
X41100Y155000D02*
X42700D01*
X41900Y154200D02*
Y155800D01*
X44800Y154900D02*
X46400D01*
X45600Y154100D02*
Y155700D01*
X57463Y221900D02*
X59062D01*
X58262Y221100D02*
Y222700D01*
X52637Y221900D02*
X54238D01*
X53438Y221100D02*
Y222700D01*
X47500Y221900D02*
X49100D01*
X48300Y221100D02*
Y222700D01*
X71962Y221700D02*
X73563D01*
X72763Y220900D02*
Y222500D01*
X67137Y221700D02*
X68738D01*
X67937Y220900D02*
Y222500D01*
X62000Y221700D02*
X63600D01*
X62800Y220900D02*
Y222500D01*
X61900Y231700D02*
X63500D01*
X62700Y230900D02*
Y232500D01*
X67037Y231700D02*
X68638D01*
X67838Y230900D02*
Y232500D01*
X61900Y226700D02*
X63500D01*
X62700Y225900D02*
Y227500D01*
X67037Y226700D02*
X68638D01*
X67838Y225900D02*
Y227500D01*
X71863Y226700D02*
X73462D01*
X72663Y225900D02*
Y227500D01*
X71863Y231700D02*
X73462D01*
X72663Y230900D02*
Y232500D01*
X47400Y231900D02*
X49000D01*
X48200Y231100D02*
Y232700D01*
X52538Y231900D02*
X54137D01*
X53338Y231100D02*
Y232700D01*
X47400Y226900D02*
X49000D01*
X48200Y226100D02*
Y227700D01*
X52538Y226900D02*
X54137D01*
X53338Y226100D02*
Y227700D01*
X57363Y226900D02*
X58963D01*
X58162Y226100D02*
Y227700D01*
X57363Y231900D02*
X58963D01*
X58162Y231100D02*
Y232700D01*
X233800Y257000D02*
X235400D01*
X234600Y256200D02*
Y257800D01*
X251200Y111400D02*
X252800D01*
X252000Y110600D02*
Y112200D01*
X255600Y111400D02*
X257200D01*
X256400Y110600D02*
Y112200D01*
X260000Y111500D02*
X261600D01*
X260800Y110700D02*
Y112300D01*
X264500Y111400D02*
X266100D01*
X265300Y110600D02*
Y112200D01*
X268600Y111600D02*
X270200D01*
X269400Y110800D02*
Y112400D01*
X268700Y107300D02*
X270300D01*
X269500Y106500D02*
Y108100D01*
X264700Y107300D02*
X266300D01*
X265500Y106500D02*
Y108100D01*
X260200Y107100D02*
X261800D01*
X261000Y106300D02*
Y107900D01*
X255800Y107300D02*
X257400D01*
X256600Y106500D02*
Y108100D01*
X251400Y107200D02*
X253000D01*
X252200Y106400D02*
Y108000D01*
X318000Y81540D02*
X319600D01*
X318800Y80740D02*
Y82340D01*
X314537Y81540D02*
X316137D01*
X315337Y80740D02*
Y82340D01*
X142700Y239816D02*
X144300D01*
X143500Y239016D02*
Y240616D01*
X138400Y239816D02*
X140000D01*
X139200Y239016D02*
Y240616D01*
X134400Y239816D02*
X136000D01*
X135200Y239016D02*
Y240616D01*
X213998Y163582D02*
X215598D01*
X214798Y162782D02*
Y164382D01*
X196398Y172782D02*
X197998D01*
X197198Y171982D02*
Y173582D01*
X200798Y172782D02*
X202398D01*
X201598Y171982D02*
Y173582D01*
X205198Y172882D02*
X206798D01*
X205998Y172082D02*
Y173682D01*
X209698Y172782D02*
X211298D01*
X210498Y171982D02*
Y173582D01*
X213798Y172982D02*
X215398D01*
X214598Y172182D02*
Y173782D01*
X213898Y168682D02*
X215498D01*
X214698Y167882D02*
Y169482D01*
X209898Y168682D02*
X211498D01*
X210698Y167882D02*
Y169482D01*
X205398Y168482D02*
X206998D01*
X206198Y167682D02*
Y169282D01*
X200998Y168682D02*
X202598D01*
X201798Y167882D02*
Y169482D01*
X196598Y168582D02*
X198198D01*
X197398Y167782D02*
Y169382D01*
X200898Y181382D02*
X202498D01*
X201698Y180582D02*
Y182182D01*
X205298Y181482D02*
X206898D01*
X206098Y180682D02*
Y182282D01*
X209798Y181382D02*
X211398D01*
X210598Y180582D02*
Y182182D01*
X213898Y181582D02*
X215498D01*
X214698Y180782D02*
Y182382D01*
X213998Y177282D02*
X215598D01*
X214798Y176482D02*
Y178082D01*
X209998Y177282D02*
X211598D01*
X210798Y176482D02*
Y178082D01*
X205498Y177082D02*
X207098D01*
X206298Y176282D02*
Y177882D01*
X201098Y177282D02*
X202698D01*
X201898Y176482D02*
Y178082D01*
X196698Y177182D02*
X198298D01*
X197498Y176382D02*
Y177982D01*
X201280Y159928D02*
X202880D01*
X202080Y159128D02*
Y160728D01*
X209998Y163882D02*
X211598D01*
X210798Y163082D02*
Y164682D01*
X197343Y159928D02*
X198943D01*
X198143Y159128D02*
Y160728D01*
X205598Y164082D02*
X207198D01*
X206398Y163282D02*
Y164882D01*
X200998Y164182D02*
X202598D01*
X201798Y163382D02*
Y164982D01*
X196698Y164182D02*
X198298D01*
X197498Y163382D02*
Y164982D01*
X196800Y181500D02*
X198400D01*
X197600Y180700D02*
Y182300D01*
X252700Y167400D02*
X254300D01*
X253500Y166600D02*
Y168200D01*
X257100Y167500D02*
X258700D01*
X257900Y166700D02*
Y168300D01*
X261500Y167300D02*
X263100D01*
X262300Y166500D02*
Y168100D01*
X266000Y167500D02*
X267600D01*
X266800Y166700D02*
Y168300D01*
X270000Y167500D02*
X271600D01*
X270800Y166700D02*
Y168300D01*
X269900Y171800D02*
X271500D01*
X270700Y171000D02*
Y172600D01*
X265800Y171600D02*
X267400D01*
X266600Y170800D02*
Y172400D01*
X261300Y171700D02*
X262900D01*
X262100Y170900D02*
Y172500D01*
X256900Y171600D02*
X258500D01*
X257700Y170800D02*
Y172400D01*
X252500Y171600D02*
X254100D01*
X253300Y170800D02*
Y172400D01*
X40200Y503200D02*
X41800D01*
X41000Y502400D02*
Y504000D01*
X49800Y503200D02*
X51400D01*
X50600Y502400D02*
Y504000D01*
X59400Y503200D02*
X61000D01*
X60200Y502400D02*
Y504000D01*
X69700Y503200D02*
X71300D01*
X70500Y502400D02*
Y504000D01*
X79900Y503200D02*
X81500D01*
X80700Y502400D02*
Y504000D01*
X90300Y503200D02*
X91900D01*
X91100Y502400D02*
Y504000D01*
X99200Y503200D02*
X100800D01*
X100000Y502400D02*
Y504000D01*
X110100Y503200D02*
X111700D01*
X110900Y502400D02*
Y504000D01*
X120000Y503200D02*
X121600D01*
X120800Y502400D02*
Y504000D01*
X130400Y503200D02*
X132000D01*
X131200Y502400D02*
Y504000D01*
X140600Y503200D02*
X142200D01*
X141400Y502400D02*
Y504000D01*
X149000Y503200D02*
X150600D01*
X149800Y502400D02*
Y504000D01*
X157100Y503200D02*
X158700D01*
X157900Y502400D02*
Y504000D01*
X167000Y503200D02*
X168600D01*
X167800Y502400D02*
Y504000D01*
X176200Y503200D02*
X177800D01*
X177000Y502400D02*
Y504000D01*
X187100Y503200D02*
X188700D01*
X187900Y502400D02*
Y504000D01*
X199200Y503200D02*
X200800D01*
X200000Y502400D02*
Y504000D01*
X207500Y503200D02*
X209100D01*
X208300Y502400D02*
Y504000D01*
X215200Y503200D02*
X216800D01*
X216000Y502400D02*
Y504000D01*
X225300Y503200D02*
X226900D01*
X226100Y502400D02*
Y504000D01*
X235700Y503200D02*
X237300D01*
X236500Y502400D02*
Y504000D01*
X245400Y503200D02*
X247000D01*
X246200Y502400D02*
Y504000D01*
X255500Y503200D02*
X257100D01*
X256300Y502400D02*
Y504000D01*
X265800Y503200D02*
X267400D01*
X266600Y502400D02*
Y504000D01*
X275500Y503200D02*
X277100D01*
X276300Y502400D02*
Y504000D01*
X285900Y503200D02*
X287500D01*
X286700Y502400D02*
Y504000D01*
X296500Y503200D02*
X298100D01*
X297300Y502400D02*
Y504000D01*
X306500Y503200D02*
X308100D01*
X307300Y502400D02*
Y504000D01*
X355600Y503200D02*
X357200D01*
X356400Y502400D02*
Y504000D01*
X366200Y503200D02*
X367800D01*
X367000Y502400D02*
Y504000D01*
X374700Y503200D02*
X376300D01*
X375500Y502400D02*
Y504000D01*
X384700Y503200D02*
X386300D01*
X385500Y502400D02*
Y504000D01*
X393900Y503200D02*
X395500D01*
X394700Y502400D02*
Y504000D01*
X404800Y503200D02*
X406400D01*
X405600Y502400D02*
Y504000D01*
X413400Y503200D02*
X415000D01*
X414200Y502400D02*
Y504000D01*
X422900Y503200D02*
X424500D01*
X423700Y502400D02*
Y504000D01*
X431200Y503200D02*
X432800D01*
X432000Y502400D02*
Y504000D01*
X50000Y487800D02*
X51600D01*
X50800Y487000D02*
Y488600D01*
X63000Y487800D02*
X64600D01*
X63800Y487000D02*
Y488600D01*
X83400Y487800D02*
X85000D01*
X84200Y487000D02*
Y488600D01*
X73700Y487800D02*
X75300D01*
X74500Y487000D02*
Y488600D01*
X97600Y487800D02*
X99200D01*
X98400Y487000D02*
Y488600D01*
X111700Y487800D02*
X113300D01*
X112500Y487000D02*
Y488600D01*
X125200Y487800D02*
X126800D01*
X126000Y487000D02*
Y488600D01*
X134500Y487800D02*
X136100D01*
X135300Y487000D02*
Y488600D01*
X146800Y487800D02*
X148400D01*
X147600Y487000D02*
Y488600D01*
X159500Y487800D02*
X161100D01*
X160300Y487000D02*
Y488600D01*
X171500Y487800D02*
X173100D01*
X172300Y487000D02*
Y488600D01*
X184200Y487800D02*
X185800D01*
X185000Y487000D02*
Y488600D01*
X194800Y486900D02*
X196400D01*
X195600Y486100D02*
Y487700D01*
X31600Y286200D02*
X33200D01*
X32400Y285400D02*
Y287000D01*
X39700Y286300D02*
X41300D01*
X40500Y285500D02*
Y287100D01*
X48800Y286300D02*
X50400D01*
X49600Y285500D02*
Y287100D01*
X60500Y286300D02*
X62100D01*
X61300Y285500D02*
Y287100D01*
X71500Y284800D02*
X73100D01*
X72300Y284000D02*
Y285600D01*
X80600Y284900D02*
X82200D01*
X81400Y284100D02*
Y285700D01*
X92100Y283200D02*
X93700D01*
X92900Y282400D02*
Y284000D01*
X83000Y278100D02*
X84600D01*
X83800Y277300D02*
Y278900D01*
X65700Y277300D02*
X67300D01*
X66500Y276500D02*
Y278100D01*
X62400Y268300D02*
X64000D01*
X63200Y267500D02*
Y269100D01*
X44300Y268300D02*
X45900D01*
X45100Y267500D02*
Y269100D01*
X30400Y266200D02*
X32000D01*
X31200Y265400D02*
Y267000D01*
X29300Y276700D02*
X30900D01*
X30100Y275900D02*
Y277500D01*
X25400Y201400D02*
X27000D01*
X26200Y200600D02*
Y202200D01*
X25600Y190200D02*
X27200D01*
X26400Y189400D02*
Y191000D01*
X24900Y177800D02*
X26500D01*
X25700Y177000D02*
Y178600D01*
X25900Y167800D02*
X27500D01*
X26700Y167000D02*
Y168600D01*
X25600Y156300D02*
X27200D01*
X26400Y155500D02*
Y157100D01*
X25700Y144200D02*
X27300D01*
X26500Y143400D02*
Y145000D01*
X25400Y136200D02*
X27000D01*
X26200Y135400D02*
Y137000D01*
X25700Y124700D02*
X27300D01*
X26500Y123900D02*
Y125500D01*
X46700Y43200D02*
X48300D01*
X47500Y42400D02*
Y44000D01*
X42200Y33000D02*
X43800D01*
X43000Y32200D02*
Y33800D01*
X39100Y19700D02*
X40700D01*
X39900Y18900D02*
Y20500D01*
X45800Y13400D02*
X47400D01*
X46600Y12600D02*
Y14200D01*
X63300Y15600D02*
X64900D01*
X64100Y14800D02*
Y16400D01*
X82400Y16800D02*
X84000D01*
X83200Y16000D02*
Y17600D01*
X73400Y12800D02*
X75000D01*
X74200Y12000D02*
Y13600D01*
X55800Y19100D02*
X57400D01*
X56600Y18300D02*
Y19900D01*
X56200Y12900D02*
X57800D01*
X57000Y12100D02*
Y13700D01*
X89500Y10100D02*
X91100D01*
X90300Y9300D02*
Y10900D01*
X72500Y20800D02*
X74100D01*
X73300Y20000D02*
Y21600D01*
X46900Y23800D02*
X48500D01*
X47700Y23000D02*
Y24600D01*
X40600Y42800D02*
X42200D01*
X41400Y42000D02*
Y43600D01*
X194400Y21300D02*
X196000D01*
X195200Y20500D02*
Y22100D01*
X185600Y28200D02*
X187200D01*
X186400Y27400D02*
Y29000D01*
X178400Y21300D02*
X180000D01*
X179200Y20500D02*
Y22100D01*
X164700Y27400D02*
X166300D01*
X165500Y26600D02*
Y28200D01*
X159200Y20100D02*
X160800D01*
X160000Y19300D02*
Y20900D01*
X174700Y26900D02*
X176300D01*
X175500Y26100D02*
Y27700D01*
X170600Y20900D02*
X172200D01*
X171400Y20100D02*
Y21700D01*
X298200Y59800D02*
X299800D01*
X299000Y59000D02*
Y60600D01*
X310300Y59200D02*
X311900D01*
X311100Y58400D02*
Y60000D01*
X323800Y59400D02*
X325400D01*
X324600Y58600D02*
Y60200D01*
X316500Y64400D02*
X318100D01*
X317300Y63600D02*
Y65200D01*
X304700Y65600D02*
X306300D01*
X305500Y64800D02*
Y66400D01*
X290700Y67000D02*
X292300D01*
X291500Y66200D02*
Y67800D01*
X328500Y65900D02*
X330100D01*
X329300Y65100D02*
Y66700D01*
X332300Y57000D02*
X333900D01*
X333100Y56200D02*
Y57800D01*
X336300Y47700D02*
X337900D01*
X337100Y46900D02*
Y48500D01*
X331400Y41400D02*
X333000D01*
X332200Y40600D02*
Y42200D01*
X333500Y34200D02*
X335100D01*
X334300Y33400D02*
Y35000D01*
X341600Y38600D02*
X343200D01*
X342400Y37800D02*
Y39400D01*
X338500Y57900D02*
X340100D01*
X339300Y57100D02*
Y58700D01*
X320200Y137400D02*
X321800D01*
X321000Y136600D02*
Y138200D01*
X327300Y137000D02*
X328900D01*
X328100Y136200D02*
Y137800D01*
X324500Y128900D02*
X326100D01*
X325300Y128100D02*
Y129700D01*
X319900Y130600D02*
X321500D01*
X320700Y129800D02*
Y131400D01*
X298600Y138800D02*
X300200D01*
X299400Y138000D02*
Y139600D01*
X291800Y141100D02*
X293400D01*
X292600Y140300D02*
Y141900D01*
X298700Y131500D02*
X300300D01*
X299500Y130700D02*
Y132300D01*
M02*
