%FSLAX25Y25*%
%MOIN*%
G70*
G01*
G75*
G04 Layer_Color=32896*
%ADD10C,0.01000*%
%ADD11R,0.04134X0.05512*%
%ADD12R,0.05512X0.04134*%
%ADD13R,0.04724X0.03150*%
%ADD14O,0.04724X0.03150*%
%ADD15R,0.04724X0.01969*%
%ADD16R,0.04724X0.01181*%
%ADD17R,0.01969X0.04724*%
%ADD18R,0.01181X0.04724*%
%ADD19R,0.05512X0.03937*%
%ADD20R,0.06102X0.08661*%
%ADD21R,0.08661X0.06102*%
%ADD22R,0.06102X0.02362*%
%ADD23R,0.02362X0.06102*%
%ADD24R,0.08268X0.14764*%
%ADD25R,0.09843X0.09055*%
%ADD26R,0.06000X0.10000*%
%ADD27O,0.06102X0.02362*%
%ADD28R,0.14764X0.08268*%
%ADD29R,0.10236X0.09449*%
%ADD30R,0.08661X0.05906*%
%ADD31R,0.05000X0.01000*%
%ADD32R,0.01000X0.05000*%
%ADD33O,0.05000X0.01000*%
%ADD34R,0.12402X0.06299*%
%ADD35R,0.02362X0.07874*%
%ADD36R,0.07087X0.06000*%
%ADD37R,0.03937X0.05512*%
%ADD38R,0.06299X0.12402*%
%ADD39R,0.09449X0.10236*%
%ADD40R,0.06000X0.07087*%
%ADD41R,0.06500X0.04500*%
%ADD42R,0.06500X0.11800*%
%ADD43O,0.03150X0.11811*%
%ADD44R,0.03150X0.11811*%
%ADD45R,0.03150X0.04724*%
%ADD46O,0.03150X0.04724*%
%ADD47R,0.01772X0.05709*%
%ADD48R,0.05709X0.01772*%
%ADD49R,0.04921X0.13386*%
%ADD50R,0.06299X0.10630*%
%ADD51R,0.10630X0.06299*%
%ADD52C,0.02000*%
%ADD53C,0.01500*%
%ADD54C,0.03000*%
%ADD55C,0.04000*%
%ADD56C,0.06000*%
%ADD57C,0.02500*%
%ADD58C,0.01200*%
%ADD59C,0.08000*%
%ADD60C,0.05000*%
%ADD61R,0.06900X0.16600*%
%ADD62R,0.12500X0.03400*%
%ADD63R,0.19600X0.16800*%
%ADD64R,0.27900X0.19600*%
%ADD65R,0.44300X0.27600*%
%ADD66R,0.18898X0.09449*%
%ADD67R,0.18898X0.09055*%
%ADD68R,0.10221X0.52362*%
%ADD69R,0.20331X0.12598*%
%ADD70R,0.45592X0.09289*%
%ADD71R,0.25590X0.20079*%
%ADD72R,0.22441X0.20254*%
%ADD73R,0.32677X0.11024*%
%ADD74R,0.36614X0.28346*%
%ADD75R,0.18504X0.62205*%
%ADD76R,0.13780X0.22835*%
%ADD77R,0.24900X0.11417*%
%ADD78R,0.30800X0.16605*%
%ADD79R,0.37402X0.13386*%
%ADD80R,0.14014X0.14161*%
%ADD81R,0.44488X0.16838*%
%ADD82R,0.14173X0.04724*%
%ADD83R,0.15354X0.16535*%
%ADD84R,0.19291X0.16142*%
%ADD85R,0.38976X0.14892*%
%ADD86R,0.15354X0.14098*%
%ADD87R,0.22300X0.17000*%
%ADD88R,0.69700X0.22200*%
%ADD89R,0.22200X0.18100*%
%ADD90R,0.20700X0.43400*%
%ADD91R,0.16900X0.61900*%
%ADD92R,0.17600X0.11100*%
%ADD93R,0.60400X0.28600*%
%ADD94R,0.06300X0.33500*%
%ADD95R,0.51100X0.18500*%
%ADD96R,0.17300X0.16200*%
%ADD97R,0.64800X0.19500*%
%ADD98R,0.54300X0.17300*%
%ADD99R,0.44100X0.21000*%
%ADD100R,0.22200X0.50300*%
%ADD101R,0.21200X0.51400*%
%ADD102R,0.42500X0.16300*%
%ADD103R,0.12300X0.11000*%
%ADD104R,0.36434X0.18432*%
%ADD105R,0.18200X0.09300*%
%ADD106R,0.30400X0.13200*%
%ADD107R,0.49910X0.31300*%
%ADD108C,0.03937*%
%ADD109C,0.05118*%
%ADD110O,0.05000X0.05906*%
%ADD111C,0.06000*%
%ADD112R,0.27559X0.26772*%
%ADD113R,0.09449X0.14961*%
%ADD114C,0.05906*%
%ADD115R,0.05906X0.05906*%
%ADD116C,0.06299*%
%ADD117O,0.05906X0.05000*%
%ADD118C,0.11811*%
%ADD119C,0.12598*%
%ADD120C,0.05000*%
%ADD121C,0.04724*%
%ADD122R,0.04724X0.04724*%
%ADD123C,0.09843*%
%ADD124R,0.08661X0.08661*%
%ADD125C,0.06200*%
%ADD126O,0.07874X0.05000*%
%ADD127R,0.06299X0.06299*%
%ADD128C,0.03000*%
%ADD129C,0.04000*%
%ADD130R,0.60400X0.13100*%
%ADD131C,0.00787*%
%ADD132C,0.00984*%
%ADD133C,0.02362*%
%ADD134C,0.01772*%
%ADD135C,0.01181*%
%ADD136C,0.00394*%
%ADD137C,0.00600*%
%ADD138C,0.00700*%
%ADD139C,0.00500*%
%ADD140C,0.00004*%
%ADD141C,0.00827*%
%ADD142C,0.00800*%
%ADD143C,0.00591*%
%ADD144C,0.00591*%
%ADD145R,1.14340X0.26480*%
%ADD146R,0.04934X0.06312*%
%ADD147R,0.06312X0.04934*%
%ADD148R,0.05524X0.03950*%
%ADD149O,0.05524X0.03950*%
%ADD150R,0.05524X0.02769*%
%ADD151R,0.05524X0.01981*%
%ADD152R,0.02769X0.05524*%
%ADD153R,0.01981X0.05524*%
%ADD154R,0.06312X0.04737*%
%ADD155R,0.06902X0.09461*%
%ADD156R,0.09461X0.06902*%
%ADD157R,0.06902X0.03162*%
%ADD158R,0.03162X0.06902*%
%ADD159R,0.09068X0.15564*%
%ADD160R,0.10642X0.09855*%
%ADD161R,0.06800X0.10800*%
%ADD162O,0.06902X0.03162*%
%ADD163R,0.15564X0.09068*%
%ADD164R,0.11036X0.10249*%
%ADD165R,0.09461X0.06706*%
%ADD166R,0.05800X0.01800*%
%ADD167R,0.01800X0.05800*%
%ADD168O,0.05800X0.01800*%
%ADD169R,0.13202X0.07099*%
%ADD170R,0.03162X0.08674*%
%ADD171R,0.07887X0.06800*%
%ADD172R,0.04737X0.06312*%
%ADD173R,0.07099X0.13202*%
%ADD174R,0.10249X0.11036*%
%ADD175R,0.06800X0.07887*%
%ADD176R,0.07300X0.05300*%
%ADD177R,0.07300X0.12600*%
%ADD178O,0.03950X0.12611*%
%ADD179R,0.03950X0.12611*%
%ADD180R,0.03950X0.05524*%
%ADD181O,0.03950X0.05524*%
%ADD182R,0.02572X0.06509*%
%ADD183R,0.06509X0.02572*%
%ADD184R,0.05721X0.14186*%
%ADD185R,0.07099X0.11430*%
%ADD186R,0.11430X0.07099*%
%ADD187C,0.04737*%
%ADD188C,0.05918*%
%ADD189O,0.05800X0.06706*%
%ADD190C,0.06800*%
%ADD191R,0.28359X0.27572*%
%ADD192R,0.10249X0.15761*%
%ADD193C,0.06706*%
%ADD194R,0.06706X0.06706*%
%ADD195C,0.07099*%
%ADD196C,0.11811*%
%ADD197O,0.06706X0.05800*%
%ADD198C,0.12611*%
%ADD199C,0.13398*%
%ADD200C,0.05800*%
%ADD201C,0.05524*%
%ADD202R,0.05524X0.05524*%
%ADD203C,0.10642*%
%ADD204R,0.09461X0.09461*%
%ADD205C,0.07000*%
%ADD206O,0.08674X0.05800*%
%ADD207R,0.07099X0.07099*%
%ADD208C,0.03800*%
%ADD209C,0.04800*%
G54D10*
X306742Y286023D02*
Y295276D01*
X286959Y285827D02*
X306742D01*
Y286023D02*
Y295276D01*
X288965D02*
X306742D01*
X286959Y286082D02*
Y295276D01*
X288965D01*
X288008Y231276D02*
Y240529D01*
Y240724D02*
X307792D01*
X288008Y231276D02*
Y240529D01*
Y231276D02*
X305786D01*
X307792D02*
Y240470D01*
X305786Y231276D02*
X307792D01*
G54D138*
X268113Y271784D02*
Y285563D01*
X260632Y271784D02*
X268113D01*
X260632D02*
Y285563D01*
X268113D01*
X289083Y259524D02*
X302862D01*
X289083D02*
Y267004D01*
X302862D01*
Y259524D02*
Y267004D01*
X277362Y285236D02*
X284842D01*
X277362Y271457D02*
Y285236D01*
Y271457D02*
X284842D01*
Y285236D01*
X247452Y285753D02*
X254933D01*
X247452Y271974D02*
Y285753D01*
Y271974D02*
X254933D01*
Y285753D01*
X247452Y255474D02*
Y269253D01*
X254933D01*
Y255474D02*
Y269253D01*
X247452Y255474D02*
X254933D01*
X289083Y242524D02*
Y250004D01*
Y242524D02*
X302862D01*
Y250004D01*
X289083D02*
X302862D01*
X289083Y258504D02*
X302862D01*
Y251024D02*
Y258504D01*
X289083Y251024D02*
X302862D01*
X289083D02*
Y258504D01*
Y284504D02*
X302862D01*
Y277024D02*
Y284504D01*
X289083Y277024D02*
X302862D01*
X289083D02*
Y284504D01*
X302862Y268524D02*
Y276004D01*
X289083D02*
X302862D01*
X289083Y268524D02*
Y276004D01*
Y268524D02*
X302862D01*
G54D143*
X309843Y237444D02*
X309318Y237969D01*
Y239019D01*
X309843Y239543D01*
X311942D01*
X312467Y239019D01*
Y237969D01*
X311942Y237444D01*
X309318Y234296D02*
X309843Y235345D01*
X310893Y236395D01*
X311942D01*
X312467Y235870D01*
Y234820D01*
X311942Y234296D01*
X311417D01*
X310893Y234820D01*
Y236395D01*
X311942Y233246D02*
X312467Y232721D01*
Y231672D01*
X311942Y231147D01*
X309843D01*
X309318Y231672D01*
Y232721D01*
X309843Y233246D01*
X310368D01*
X310893Y232721D01*
Y231147D01*
X299082Y300262D02*
X299607Y300786D01*
X300656D01*
X301181Y300262D01*
Y298163D01*
X300656Y297638D01*
X299607D01*
X299082Y298163D01*
X295934Y300786D02*
X296983Y300262D01*
X298032Y299212D01*
Y298163D01*
X297508Y297638D01*
X296458D01*
X295934Y298163D01*
Y298687D01*
X296458Y299212D01*
X298032D01*
X294884Y300262D02*
X294359Y300786D01*
X293310D01*
X292785Y300262D01*
Y299737D01*
X293310Y299212D01*
X292785Y298687D01*
Y298163D01*
X293310Y297638D01*
X294359D01*
X294884Y298163D01*
Y298687D01*
X294359Y299212D01*
X294884Y299737D01*
Y300262D01*
X294359Y299212D02*
X293310D01*
X262123Y295534D02*
X265272D01*
X262123D02*
Y294184D01*
X262274Y293734D01*
X262423Y293584D01*
X262723Y293435D01*
X263023D01*
X263323Y293584D01*
X263473Y293734D01*
X263623Y294184D01*
Y295534D01*
Y294484D02*
X265272Y293435D01*
X262123Y290930D02*
Y292430D01*
X263473Y292580D01*
X263323Y292430D01*
X263173Y291980D01*
Y291530D01*
X263323Y291080D01*
X263623Y290780D01*
X264073Y290630D01*
X264373D01*
X264823Y290780D01*
X265123Y291080D01*
X265272Y291530D01*
Y291980D01*
X265123Y292430D01*
X264973Y292580D01*
X264673Y292730D01*
X262723Y289926D02*
X262573Y289626D01*
X262123Y289176D01*
X265272D01*
X312205Y263385D02*
Y260236D01*
Y263385D02*
X310855D01*
X310405Y263235D01*
X310255Y263085D01*
X310105Y262785D01*
Y262485D01*
X310255Y262186D01*
X310405Y262036D01*
X310855Y261886D01*
X312205D01*
X311155D02*
X310105Y260236D01*
X309401Y262785D02*
X309101Y262935D01*
X308651Y263385D01*
Y260236D01*
X305292Y262935D02*
X305442Y263235D01*
X305892Y263385D01*
X306192D01*
X306642Y263235D01*
X306942Y262785D01*
X307091Y262036D01*
Y261286D01*
X306942Y260686D01*
X306642Y260386D01*
X306192Y260236D01*
X306042D01*
X305592Y260386D01*
X305292Y260686D01*
X305142Y261136D01*
Y261286D01*
X305292Y261736D01*
X305592Y262036D01*
X306042Y262186D01*
X306192D01*
X306642Y262036D01*
X306942Y261736D01*
X307091Y261286D01*
X279844Y292137D02*
Y294236D01*
X281418D01*
Y293187D01*
Y294236D01*
X282992D01*
X279844Y291088D02*
X282992D01*
Y289514D01*
X282468Y288989D01*
X281943D01*
X281418Y289514D01*
Y291088D01*
Y289514D01*
X280893Y288989D01*
X280368D01*
X279844Y289514D01*
Y291088D01*
X282992Y287939D02*
Y286890D01*
Y287415D01*
X279844D01*
X280368Y287939D01*
X250923Y292374D02*
X250623Y292525D01*
X250324Y292824D01*
X250173Y293124D01*
Y293724D01*
X250324Y294024D01*
X250623Y294324D01*
X250923Y294474D01*
X251373Y294624D01*
X252123D01*
X252573Y294474D01*
X252873Y294324D01*
X253172Y294024D01*
X253322Y293724D01*
Y293124D01*
X253172Y292824D01*
X252873Y292525D01*
X252573Y292374D01*
X250173Y289690D02*
Y291190D01*
X251523Y291340D01*
X251373Y291190D01*
X251223Y290740D01*
Y290290D01*
X251373Y289840D01*
X251673Y289541D01*
X252123Y289390D01*
X252423D01*
X252873Y289541D01*
X253172Y289840D01*
X253322Y290290D01*
Y290740D01*
X253172Y291190D01*
X253023Y291340D01*
X252723Y291490D01*
X250773Y288686D02*
X250623Y288386D01*
X250173Y287936D01*
X253322D01*
X249663Y250815D02*
X249363Y250964D01*
X249063Y251264D01*
X248914Y251564D01*
Y252164D01*
X249063Y252464D01*
X249363Y252764D01*
X249663Y252914D01*
X250113Y253064D01*
X250863D01*
X251313Y252914D01*
X251613Y252764D01*
X251912Y252464D01*
X252062Y252164D01*
Y251564D01*
X251912Y251264D01*
X251613Y250964D01*
X251313Y250815D01*
X248914Y248130D02*
Y249630D01*
X250263Y249780D01*
X250113Y249630D01*
X249963Y249180D01*
Y248730D01*
X250113Y248280D01*
X250413Y247980D01*
X250863Y247831D01*
X251163D01*
X251613Y247980D01*
X251912Y248280D01*
X252062Y248730D01*
Y249180D01*
X251912Y249630D01*
X251763Y249780D01*
X251463Y249930D01*
X248914Y246226D02*
X249063Y246676D01*
X249513Y246976D01*
X250263Y247126D01*
X250713D01*
X251463Y246976D01*
X251912Y246676D01*
X252062Y246226D01*
Y245926D01*
X251912Y245476D01*
X251463Y245176D01*
X250713Y245026D01*
X250263D01*
X249513Y245176D01*
X249063Y245476D01*
X248914Y245926D01*
Y246226D01*
X310349Y246494D02*
X310499Y246794D01*
X310799Y247094D01*
X311099Y247243D01*
X311699D01*
X311999Y247094D01*
X312298Y246794D01*
X312449Y246494D01*
X312598Y246044D01*
Y245294D01*
X312449Y244844D01*
X312298Y244544D01*
X311999Y244244D01*
X311699Y244094D01*
X311099D01*
X310799Y244244D01*
X310499Y244544D01*
X310349Y244844D01*
X307965Y247243D02*
X309465Y245144D01*
X307215D01*
X307965Y247243D02*
Y244094D01*
X304561Y247243D02*
X306061Y244094D01*
X306660Y247243D02*
X304561D01*
X310349Y255549D02*
X310499Y255849D01*
X310799Y256149D01*
X311099Y256298D01*
X311699D01*
X311999Y256149D01*
X312298Y255849D01*
X312449Y255549D01*
X312598Y255099D01*
Y254349D01*
X312449Y253899D01*
X312298Y253599D01*
X311999Y253299D01*
X311699Y253150D01*
X311099D01*
X310799Y253299D01*
X310499Y253599D01*
X310349Y253899D01*
X307965Y256298D02*
X309465Y254199D01*
X307215D01*
X307965Y256298D02*
Y253150D01*
X304861Y255849D02*
X305011Y256149D01*
X305461Y256298D01*
X305761D01*
X306211Y256149D01*
X306510Y255699D01*
X306660Y254949D01*
Y254199D01*
X306510Y253599D01*
X306211Y253299D01*
X305761Y253150D01*
X305611D01*
X305161Y253299D01*
X304861Y253599D01*
X304711Y254049D01*
Y254199D01*
X304861Y254649D01*
X305161Y254949D01*
X305611Y255099D01*
X305761D01*
X306211Y254949D01*
X306510Y254649D01*
X306660Y254199D01*
X311137Y281533D02*
X311287Y281833D01*
X311586Y282133D01*
X311886Y282283D01*
X312486D01*
X312786Y282133D01*
X313086Y281833D01*
X313236Y281533D01*
X313386Y281083D01*
Y280333D01*
X313236Y279884D01*
X313086Y279584D01*
X312786Y279284D01*
X312486Y279134D01*
X311886D01*
X311586Y279284D01*
X311287Y279584D01*
X311137Y279884D01*
X308752Y282283D02*
X310252Y280184D01*
X308003D01*
X308752Y282283D02*
Y279134D01*
X307148Y282283D02*
X305499D01*
X306398Y281083D01*
X305948D01*
X305648Y280933D01*
X305499Y280783D01*
X305349Y280333D01*
Y280033D01*
X305499Y279584D01*
X305798Y279284D01*
X306248Y279134D01*
X306698D01*
X307148Y279284D01*
X307298Y279434D01*
X307448Y279734D01*
X310743Y272872D02*
X310893Y273171D01*
X311193Y273471D01*
X311493Y273621D01*
X312092D01*
X312392Y273471D01*
X312692Y273171D01*
X312842Y272872D01*
X312992Y272422D01*
Y271672D01*
X312842Y271222D01*
X312692Y270922D01*
X312392Y270622D01*
X312092Y270472D01*
X311493D01*
X311193Y270622D01*
X310893Y270922D01*
X310743Y271222D01*
X308359Y273621D02*
X309858Y271522D01*
X307609D01*
X308359Y273621D02*
Y270472D01*
X306904Y272872D02*
Y273022D01*
X306754Y273322D01*
X306604Y273471D01*
X306304Y273621D01*
X305705D01*
X305405Y273471D01*
X305255Y273322D01*
X305105Y273022D01*
Y272722D01*
X305255Y272422D01*
X305555Y271972D01*
X307054Y270472D01*
X304955D01*
M02*
