%FSLAX25Y25*%
%MOIN*%
G70*
G01*
G75*
G04 Layer_Color=128*
%ADD10C,0.01000*%
%ADD11R,0.04134X0.05512*%
%ADD12R,0.05512X0.04134*%
%ADD13R,0.04724X0.03150*%
%ADD14O,0.04724X0.03150*%
%ADD15R,0.04724X0.01969*%
%ADD16R,0.04724X0.01181*%
%ADD17R,0.01969X0.04724*%
%ADD18R,0.01181X0.04724*%
%ADD19R,0.05512X0.03937*%
%ADD20R,0.06102X0.08661*%
%ADD21R,0.08661X0.06102*%
%ADD22R,0.06102X0.02362*%
%ADD23R,0.02362X0.06102*%
%ADD24R,0.08268X0.14764*%
%ADD25R,0.09843X0.09055*%
%ADD26R,0.06000X0.10000*%
%ADD27O,0.06102X0.02362*%
%ADD28R,0.14764X0.08268*%
%ADD29R,0.10236X0.09449*%
%ADD30R,0.08661X0.05906*%
%ADD31R,0.05000X0.01000*%
%ADD32R,0.01000X0.05000*%
%ADD33O,0.05000X0.01000*%
%ADD34R,0.12402X0.06299*%
%ADD35R,0.02362X0.07874*%
%ADD36R,0.07087X0.06000*%
%ADD37R,0.03937X0.05512*%
%ADD38R,0.06299X0.12402*%
%ADD39R,0.09449X0.10236*%
%ADD40R,0.06000X0.07087*%
%ADD41R,0.06500X0.04500*%
%ADD42R,0.06500X0.11800*%
%ADD43O,0.03150X0.11811*%
%ADD44R,0.03150X0.11811*%
%ADD45R,0.03150X0.04724*%
%ADD46O,0.03150X0.04724*%
%ADD47R,0.01772X0.05709*%
%ADD48R,0.05709X0.01772*%
%ADD49R,0.04921X0.13386*%
%ADD50R,0.06299X0.10630*%
%ADD51R,0.10630X0.06299*%
%ADD52C,0.02000*%
%ADD53C,0.01500*%
%ADD54C,0.03000*%
%ADD55C,0.04000*%
%ADD56C,0.06000*%
%ADD57C,0.02500*%
%ADD58C,0.01200*%
%ADD59C,0.08000*%
%ADD60C,0.05000*%
%ADD61R,0.06900X0.16600*%
%ADD62R,0.12500X0.03400*%
%ADD63R,0.19600X0.16800*%
%ADD64R,0.27900X0.19600*%
%ADD65R,0.44300X0.27600*%
%ADD66R,0.18898X0.09449*%
%ADD67R,0.18898X0.09055*%
%ADD68R,0.10221X0.52362*%
%ADD69R,0.20331X0.12598*%
%ADD70R,0.45592X0.09289*%
%ADD71R,0.25590X0.20079*%
%ADD72R,0.22441X0.20254*%
%ADD73R,0.32677X0.11024*%
%ADD74R,0.36614X0.28346*%
%ADD75R,0.18504X0.62205*%
%ADD76R,0.13780X0.22835*%
%ADD77R,0.24900X0.11417*%
%ADD78R,0.30800X0.16605*%
%ADD79R,0.37402X0.13386*%
%ADD80R,0.14014X0.14161*%
%ADD81R,0.44488X0.16838*%
%ADD82R,0.14173X0.04724*%
%ADD83R,0.15354X0.16535*%
%ADD84R,0.19291X0.16142*%
%ADD85R,0.38976X0.14892*%
%ADD86R,0.15354X0.14098*%
%ADD87R,0.22300X0.17000*%
%ADD88R,0.69700X0.22200*%
%ADD89R,0.22200X0.18100*%
%ADD90R,0.20700X0.43400*%
%ADD91R,0.16900X0.61900*%
%ADD92R,0.17600X0.11100*%
%ADD93R,0.60400X0.28600*%
%ADD94R,0.06300X0.33500*%
%ADD95R,0.51100X0.18500*%
%ADD96R,0.17300X0.16200*%
%ADD97R,0.64800X0.19500*%
%ADD98R,0.54300X0.17300*%
%ADD99R,0.44100X0.21000*%
%ADD100R,0.22200X0.50300*%
%ADD101R,0.21200X0.51400*%
%ADD102R,0.42500X0.16300*%
%ADD103R,0.12300X0.11000*%
%ADD104R,0.36434X0.18432*%
%ADD105R,0.18200X0.09300*%
%ADD106R,0.30400X0.13200*%
%ADD107R,0.49910X0.31300*%
%ADD108C,0.03937*%
%ADD109C,0.05118*%
%ADD110O,0.05000X0.05906*%
%ADD111C,0.06000*%
%ADD112R,0.27559X0.26772*%
%ADD113R,0.09449X0.14961*%
%ADD114C,0.05906*%
%ADD115R,0.05906X0.05906*%
%ADD116C,0.06299*%
%ADD117O,0.05906X0.05000*%
%ADD118C,0.11811*%
%ADD119C,0.12598*%
%ADD120C,0.05000*%
%ADD121C,0.04724*%
%ADD122R,0.04724X0.04724*%
%ADD123C,0.09843*%
%ADD124R,0.08661X0.08661*%
%ADD125C,0.06200*%
%ADD126O,0.07874X0.05000*%
%ADD127R,0.06299X0.06299*%
%ADD128C,0.03000*%
%ADD129C,0.04000*%
%ADD130R,0.60400X0.13100*%
%ADD131C,0.00787*%
%ADD132C,0.00984*%
%ADD133C,0.02362*%
%ADD134C,0.01772*%
%ADD135C,0.01181*%
%ADD136C,0.00394*%
%ADD137C,0.00600*%
%ADD138C,0.00700*%
%ADD139C,0.00500*%
%ADD140C,0.00004*%
%ADD141C,0.00827*%
%ADD142C,0.00800*%
%ADD143C,0.00591*%
%ADD144C,0.00591*%
%ADD145R,1.14340X0.26480*%
%ADD146R,0.04934X0.06312*%
%ADD147R,0.06312X0.04934*%
%ADD148R,0.05524X0.03950*%
%ADD149O,0.05524X0.03950*%
%ADD150R,0.05524X0.02769*%
%ADD151R,0.05524X0.01981*%
%ADD152R,0.02769X0.05524*%
%ADD153R,0.01981X0.05524*%
%ADD154R,0.06312X0.04737*%
%ADD155R,0.06902X0.09461*%
%ADD156R,0.09461X0.06902*%
%ADD157R,0.06902X0.03162*%
%ADD158R,0.03162X0.06902*%
%ADD159R,0.09068X0.15564*%
%ADD160R,0.10642X0.09855*%
%ADD161R,0.06800X0.10800*%
%ADD162O,0.06902X0.03162*%
%ADD163R,0.15564X0.09068*%
%ADD164R,0.11036X0.10249*%
%ADD165R,0.09461X0.06706*%
%ADD166R,0.05800X0.01800*%
%ADD167R,0.01800X0.05800*%
%ADD168O,0.05800X0.01800*%
%ADD169R,0.13202X0.07099*%
%ADD170R,0.03162X0.08674*%
%ADD171R,0.07887X0.06800*%
%ADD172R,0.04737X0.06312*%
%ADD173R,0.07099X0.13202*%
%ADD174R,0.10249X0.11036*%
%ADD175R,0.06800X0.07887*%
%ADD176R,0.07300X0.05300*%
%ADD177R,0.07300X0.12600*%
%ADD178O,0.03950X0.12611*%
%ADD179R,0.03950X0.12611*%
%ADD180R,0.03950X0.05524*%
%ADD181O,0.03950X0.05524*%
%ADD182R,0.02572X0.06509*%
%ADD183R,0.06509X0.02572*%
%ADD184R,0.05721X0.14186*%
%ADD185R,0.07099X0.11430*%
%ADD186R,0.11430X0.07099*%
%ADD187C,0.04737*%
%ADD188C,0.05918*%
%ADD189O,0.05800X0.06706*%
%ADD190C,0.06800*%
%ADD191R,0.28359X0.27572*%
%ADD192R,0.10249X0.15761*%
%ADD193C,0.06706*%
%ADD194R,0.06706X0.06706*%
%ADD195C,0.07099*%
%ADD196C,0.11811*%
%ADD197O,0.06706X0.05800*%
%ADD198C,0.12611*%
%ADD199C,0.13398*%
%ADD200C,0.05800*%
%ADD201C,0.05524*%
%ADD202R,0.05524X0.05524*%
%ADD203C,0.10642*%
%ADD204R,0.09461X0.09461*%
%ADD205C,0.07000*%
%ADD206O,0.08674X0.05800*%
%ADD207R,0.07099X0.07099*%
%ADD208C,0.03800*%
%ADD209C,0.04800*%
G54D11*
X292232Y263264D02*
D03*
X299713D02*
D03*
X292232Y246264D02*
D03*
X299713D02*
D03*
Y254764D02*
D03*
X292232D02*
D03*
X299713Y280764D02*
D03*
X292232D02*
D03*
X299713Y272264D02*
D03*
X292232D02*
D03*
G54D12*
X264372Y274934D02*
D03*
Y282414D02*
D03*
X281102Y282087D02*
D03*
Y274606D02*
D03*
X251192Y282604D02*
D03*
Y275124D02*
D03*
Y266104D02*
D03*
Y258624D02*
D03*
G54D40*
X291350Y290551D02*
D03*
X302350D02*
D03*
X303400Y236000D02*
D03*
X292400D02*
D03*
M02*
