%FSLAX25Y25*%
%MOIN*%
G70*
G01*
G75*
%ADD10C,0.01000*%
%ADD11R,0.04134X0.05512*%
%ADD12R,0.05512X0.04134*%
%ADD13R,0.04724X0.03150*%
%ADD14O,0.04724X0.03150*%
%ADD15R,0.04724X0.01969*%
%ADD16R,0.04724X0.01181*%
%ADD17R,0.01969X0.04724*%
%ADD18R,0.01181X0.04724*%
%ADD19R,0.05512X0.03937*%
%ADD20R,0.06102X0.08661*%
%ADD21R,0.08661X0.06102*%
%ADD22R,0.06102X0.02362*%
%ADD23R,0.02362X0.06102*%
%ADD24R,0.08268X0.14764*%
%ADD25R,0.09843X0.09055*%
%ADD26R,0.06000X0.10000*%
%ADD27O,0.06102X0.02362*%
%ADD28R,0.14764X0.08268*%
%ADD29R,0.10236X0.09449*%
%ADD30R,0.08661X0.05906*%
%ADD31R,0.05000X0.01000*%
%ADD32R,0.01000X0.05000*%
%ADD33O,0.05000X0.01000*%
%ADD34R,0.12402X0.06299*%
%ADD35R,0.02362X0.07874*%
%ADD36R,0.07087X0.06000*%
%ADD37R,0.03937X0.05512*%
%ADD38R,0.06299X0.12402*%
%ADD39R,0.09449X0.10236*%
%ADD40R,0.06000X0.07087*%
%ADD41R,0.06500X0.04500*%
%ADD42R,0.06500X0.11800*%
%ADD43O,0.03150X0.11811*%
%ADD44R,0.03150X0.11811*%
%ADD45R,0.03150X0.04724*%
%ADD46O,0.03150X0.04724*%
%ADD47R,0.01772X0.05709*%
%ADD48R,0.05709X0.01772*%
%ADD49R,0.04921X0.13386*%
%ADD50R,0.06299X0.10630*%
%ADD51R,0.10630X0.06299*%
%ADD52C,0.02000*%
%ADD53C,0.01500*%
%ADD54C,0.03000*%
%ADD55C,0.04000*%
%ADD56C,0.06000*%
%ADD57C,0.02500*%
%ADD58C,0.01200*%
%ADD59C,0.08000*%
%ADD60C,0.05000*%
%ADD61R,0.06900X0.16600*%
%ADD62R,0.12500X0.03400*%
%ADD63R,0.19600X0.16800*%
%ADD64R,0.27900X0.19600*%
%ADD65R,0.44300X0.27600*%
%ADD66R,0.18898X0.09449*%
%ADD67R,0.18898X0.09055*%
%ADD68R,0.10221X0.52362*%
%ADD69R,0.20331X0.12598*%
%ADD70R,0.45592X0.09289*%
%ADD71R,0.25590X0.20079*%
%ADD72R,0.22441X0.20254*%
%ADD73R,0.32677X0.11024*%
%ADD74R,0.36614X0.28346*%
%ADD75R,0.18504X0.62205*%
%ADD76R,0.13780X0.22835*%
%ADD77R,0.24900X0.11417*%
%ADD78R,0.30800X0.16605*%
%ADD79R,0.37402X0.13386*%
%ADD80R,0.14014X0.14161*%
%ADD81R,0.44488X0.16838*%
%ADD82R,0.14173X0.04724*%
%ADD83R,0.15354X0.16535*%
%ADD84R,0.19291X0.16142*%
%ADD85R,0.38976X0.14892*%
%ADD86R,0.15354X0.14098*%
%ADD87R,0.22300X0.17000*%
%ADD88R,0.69700X0.22200*%
%ADD89R,0.22200X0.18100*%
%ADD90R,0.20700X0.43400*%
%ADD91R,0.16900X0.61900*%
%ADD92R,0.17600X0.11100*%
%ADD93R,0.60400X0.28600*%
%ADD94R,0.06300X0.33500*%
%ADD95R,0.51100X0.18500*%
%ADD96R,0.17300X0.16200*%
%ADD97R,0.64800X0.19500*%
%ADD98R,0.54300X0.17300*%
%ADD99R,0.44100X0.21000*%
%ADD100R,0.22200X0.50300*%
%ADD101R,0.21200X0.51400*%
%ADD102R,0.42500X0.16300*%
%ADD103R,0.12300X0.11000*%
%ADD104R,0.36434X0.18432*%
%ADD105R,0.18200X0.09300*%
%ADD106R,0.30400X0.13200*%
%ADD107R,0.49910X0.31300*%
%ADD108C,0.03937*%
%ADD109C,0.05118*%
%ADD110O,0.05000X0.05906*%
%ADD111C,0.06000*%
%ADD112R,0.27559X0.26772*%
%ADD113R,0.09449X0.14961*%
%ADD114C,0.05906*%
%ADD115R,0.05906X0.05906*%
%ADD116C,0.06299*%
%ADD117O,0.05906X0.05000*%
%ADD118C,0.11811*%
%ADD119C,0.12598*%
%ADD120C,0.05000*%
%ADD121C,0.04724*%
%ADD122R,0.04724X0.04724*%
%ADD123C,0.09843*%
%ADD124R,0.08661X0.08661*%
%ADD125C,0.06200*%
%ADD126O,0.07874X0.05000*%
%ADD127R,0.06299X0.06299*%
%ADD128C,0.03000*%
%ADD129C,0.04000*%
%ADD130R,0.60400X0.13100*%
%ADD131C,0.00787*%
%ADD132C,0.00984*%
%ADD133C,0.02362*%
%ADD134C,0.01772*%
%ADD135C,0.01181*%
%ADD136C,0.00394*%
%ADD137C,0.00600*%
%ADD138C,0.00700*%
%ADD139C,0.00500*%
%ADD140C,0.00004*%
%ADD141C,0.00827*%
%ADD142C,0.00800*%
%ADD143C,0.00591*%
%ADD144C,0.00591*%
%ADD145R,1.14340X0.26480*%
G54D10*
X287848Y253058D02*
G03*
X287848Y253058I-1204J0D01*
G01*
X155488Y427008D02*
Y457008D01*
X80054Y427008D02*
Y457008D01*
X155488D01*
X80054Y427008D02*
X155488D01*
X127871D02*
Y431308D01*
X107871D02*
X127871D01*
X107871Y427108D02*
Y431308D01*
X130334Y187325D02*
Y210947D01*
X104350Y187325D02*
Y210947D01*
X130334D01*
X104743Y187325D02*
X129940D01*
X149871Y130092D02*
X159124D01*
X149676Y110308D02*
Y130092D01*
X149871D02*
X159124D01*
Y112314D02*
Y130092D01*
X149930Y110308D02*
X159124D01*
Y112314D01*
X53776Y195608D02*
X63029D01*
X63224D02*
Y215392D01*
X53776Y195608D02*
X63029D01*
X53776D02*
Y213386D01*
Y215392D02*
X62970D01*
X53776Y213386D02*
Y215392D01*
X42976Y213386D02*
Y215392D01*
X52170D01*
X42976Y195608D02*
Y213386D01*
Y195608D02*
X52229D01*
X52424D02*
Y215392D01*
X42976Y195608D02*
X52229D01*
X193308Y236076D02*
X195314D01*
X193308D02*
Y245270D01*
X195314Y236076D02*
X213092D01*
Y245329D01*
X193308Y245524D02*
X213092D01*
Y236076D02*
Y245329D01*
X251794Y161627D02*
Y163633D01*
X260988D01*
X251794Y143850D02*
Y161627D01*
Y143850D02*
X261047D01*
X261243D02*
Y163633D01*
X251794Y143850D02*
X261047D01*
X250608Y24275D02*
X259861D01*
X260057D02*
Y44059D01*
X250608Y24275D02*
X259861D01*
X250608D02*
Y42053D01*
Y44059D02*
X259802D01*
X250608Y42053D02*
Y44059D01*
Y101039D02*
Y103045D01*
X259802D01*
X250608Y83262D02*
Y101039D01*
Y83262D02*
X259861D01*
X260057D02*
Y103045D01*
X250608Y83262D02*
X259861D01*
X205076Y99186D02*
Y101192D01*
X214270D01*
X205076Y81408D02*
Y99186D01*
Y81408D02*
X214329D01*
X214524D02*
Y101192D01*
X205076Y81408D02*
X214329D01*
X123892Y103416D02*
Y127038D01*
X97908Y103416D02*
Y127038D01*
X123892D01*
X98302Y103416D02*
X123498D01*
X57904Y47052D02*
Y94296D01*
Y47052D02*
X101211D01*
Y94296D01*
X57904D02*
X101211D01*
X349101Y497300D02*
X353100D01*
X351101D01*
Y499966D01*
X349101D01*
X353100D01*
X349101Y501299D02*
X353100D01*
Y503965D01*
Y505297D02*
Y506630D01*
Y505964D01*
X349101D01*
X349768Y505297D01*
Y508630D02*
X349101Y509296D01*
Y510629D01*
X349768Y511296D01*
X350434D01*
X351101Y510629D01*
X351767Y511296D01*
X352434D01*
X353100Y510629D01*
Y509296D01*
X352434Y508630D01*
X351767D01*
X351101Y509296D01*
X350434Y508630D01*
X349768D01*
X351101Y509296D02*
Y510629D01*
X339308Y495669D02*
X343307D01*
X341308D01*
Y498335D01*
X339308D01*
X343307D01*
X339308Y499668D02*
X343307D01*
Y502334D01*
Y503667D02*
Y505000D01*
Y504333D01*
X339308D01*
X339975Y503667D01*
X339308Y506999D02*
Y509665D01*
X339975D01*
X342641Y506999D01*
X343307D01*
X329466Y496063D02*
X333465D01*
X331465D01*
Y498729D01*
X329466D01*
X333465D01*
X329466Y500062D02*
X333465D01*
Y502728D01*
Y504060D02*
Y505393D01*
Y504727D01*
X329466D01*
X330132Y504060D01*
X329466Y510058D02*
X330132Y508726D01*
X331465Y507393D01*
X332798D01*
X333465Y508059D01*
Y509392D01*
X332798Y510058D01*
X332132D01*
X331465Y509392D01*
Y507393D01*
X319230Y496850D02*
X323228D01*
X321229D01*
Y499516D01*
X319230D01*
X323228D01*
X319230Y500849D02*
X323228D01*
Y503515D01*
Y504848D02*
Y506181D01*
Y505514D01*
X319230D01*
X319896Y504848D01*
X319230Y510846D02*
Y508180D01*
X321229D01*
X320563Y509513D01*
Y510179D01*
X321229Y510846D01*
X322562D01*
X323228Y510179D01*
Y508847D01*
X322562Y508180D01*
X309781Y497244D02*
X313779D01*
X311780D01*
Y499910D01*
X309781D01*
X313779D01*
X309781Y501243D02*
X313779D01*
Y503909D01*
Y505241D02*
Y506574D01*
Y505908D01*
X309781D01*
X310447Y505241D01*
X313779Y510573D02*
X309781D01*
X311780Y508574D01*
Y511240D01*
X299545Y497244D02*
X303543D01*
X301544D01*
Y499910D01*
X299545D01*
X303543D01*
X299545Y501243D02*
X303543D01*
Y503909D01*
Y505241D02*
Y506574D01*
Y505908D01*
X299545D01*
X300211Y505241D01*
Y508574D02*
X299545Y509240D01*
Y510573D01*
X300211Y511240D01*
X300877D01*
X301544Y510573D01*
Y509907D01*
Y510573D01*
X302210Y511240D01*
X302877D01*
X303543Y510573D01*
Y509240D01*
X302877Y508574D01*
X289702Y498425D02*
X293701D01*
X291701D01*
Y501091D01*
X289702D01*
X293701D01*
X289702Y502424D02*
X293701D01*
Y505090D01*
Y506423D02*
Y507756D01*
Y507089D01*
X289702D01*
X290369Y506423D01*
X293701Y512421D02*
Y509755D01*
X291035Y512421D01*
X290369D01*
X289702Y511754D01*
Y510421D01*
X290369Y509755D01*
X279466Y498425D02*
X283465D01*
X281465D01*
Y501091D01*
X279466D01*
X283465D01*
X279466Y502424D02*
X283465D01*
Y505090D01*
Y506423D02*
Y507756D01*
Y507089D01*
X279466D01*
X280132Y506423D01*
X283465Y509755D02*
Y511088D01*
Y510421D01*
X279466D01*
X280132Y509755D01*
X269230Y498032D02*
X273228D01*
X271229D01*
Y500697D01*
X269230D01*
X273228D01*
X269230Y502030D02*
X273228D01*
Y504696D01*
Y506029D02*
Y507362D01*
Y506695D01*
X269230D01*
X269896Y506029D01*
Y509361D02*
X269230Y510028D01*
Y511361D01*
X269896Y512027D01*
X272562D01*
X273228Y511361D01*
Y510028D01*
X272562Y509361D01*
X269896D01*
X259387Y499606D02*
X263386D01*
X261386D01*
Y502272D01*
X259387D01*
X263386D01*
X259387Y503605D02*
X263386D01*
Y506271D01*
X262719Y507604D02*
X263386Y508270D01*
Y509603D01*
X262719Y510269D01*
X260054D01*
X259387Y509603D01*
Y508270D01*
X260054Y507604D01*
X260720D01*
X261386Y508270D01*
Y510269D01*
X249545Y499213D02*
X253543D01*
X251544D01*
Y501878D01*
X249545D01*
X253543D01*
X249545Y503211D02*
X253543D01*
Y505877D01*
X250211Y507210D02*
X249545Y507876D01*
Y509209D01*
X250211Y509876D01*
X250877D01*
X251544Y509209D01*
X252210Y509876D01*
X252877D01*
X253543Y509209D01*
Y507876D01*
X252877Y507210D01*
X252210D01*
X251544Y507876D01*
X250877Y507210D01*
X250211D01*
X251544Y507876D02*
Y509209D01*
X239308Y499213D02*
X243307D01*
X241308D01*
Y501878D01*
X239308D01*
X243307D01*
X239308Y503211D02*
X243307D01*
Y505877D01*
X239308Y507210D02*
Y509876D01*
X239975D01*
X242641Y507210D01*
X243307D01*
X229466Y499213D02*
X233465D01*
X231465D01*
Y501878D01*
X229466D01*
X233465D01*
X229466Y503211D02*
X233465D01*
Y505877D01*
X229466Y509876D02*
X230132Y508543D01*
X231465Y507210D01*
X232798D01*
X233465Y507876D01*
Y509209D01*
X232798Y509876D01*
X232132D01*
X231465Y509209D01*
Y507210D01*
X218836Y499213D02*
X222835D01*
X220835D01*
Y501878D01*
X218836D01*
X222835D01*
X218836Y503211D02*
X222835D01*
Y505877D01*
X218836Y509876D02*
Y507210D01*
X220835D01*
X220169Y508543D01*
Y509209D01*
X220835Y509876D01*
X222168D01*
X222835Y509209D01*
Y507876D01*
X222168Y507210D01*
X208993Y499213D02*
X212992D01*
X210993D01*
Y501878D01*
X208993D01*
X212992D01*
X208993Y503211D02*
X212992D01*
Y505877D01*
Y509209D02*
X208993D01*
X210993Y507210D01*
Y509876D01*
X378426Y499106D02*
X382424D01*
X380425D01*
Y501772D01*
X378426D01*
X382424D01*
X378426Y503105D02*
X382424D01*
Y505770D01*
X379092Y507103D02*
X378426Y507770D01*
Y509103D01*
X379092Y509769D01*
X379759D01*
X380425Y509103D01*
Y508436D01*
Y509103D01*
X381092Y509769D01*
X381758D01*
X382424Y509103D01*
Y507770D01*
X381758Y507103D01*
X369201Y498800D02*
X373200D01*
X371201D01*
Y501466D01*
X369201D01*
X373200D01*
X369201Y502799D02*
X373200D01*
Y505465D01*
Y509463D02*
Y506797D01*
X370534Y509463D01*
X369868D01*
X369201Y508797D01*
Y507464D01*
X369868Y506797D01*
X358901Y500100D02*
X362900D01*
X360901D01*
Y502766D01*
X358901D01*
X362900D01*
X358901Y504099D02*
X362900D01*
Y506765D01*
Y508097D02*
Y509430D01*
Y508764D01*
X358901D01*
X359568Y508097D01*
X103500Y286098D02*
X108165D01*
X105833D01*
Y279100D01*
X110498D02*
Y286098D01*
X113997D01*
X115163Y284931D01*
Y282599D01*
X113997Y281433D01*
X110498D01*
X122161Y286098D02*
X117496D01*
Y282599D01*
X119828Y283765D01*
X120994D01*
X122161Y282599D01*
Y280266D01*
X120994Y279100D01*
X118662D01*
X117496Y280266D01*
X139000Y170998D02*
X143665D01*
X141333D01*
Y164000D01*
X145998D02*
Y170998D01*
X149497D01*
X150663Y169831D01*
Y167499D01*
X149497Y166333D01*
X145998D01*
X157661Y170998D02*
X155328Y169831D01*
X152996Y167499D01*
Y165166D01*
X154162Y164000D01*
X156494D01*
X157661Y165166D01*
Y166333D01*
X156494Y167499D01*
X152996D01*
X280100Y48801D02*
X284765D01*
X282433D01*
Y41803D01*
X287098D02*
Y48801D01*
X290597D01*
X291763Y47635D01*
Y45302D01*
X290597Y44136D01*
X287098D01*
X298761Y41803D02*
X294095D01*
X298761Y46468D01*
Y47635D01*
X297594Y48801D01*
X295262D01*
X294095Y47635D01*
X272700Y73098D02*
X277365D01*
X275033D01*
Y66100D01*
X279698D02*
Y73098D01*
X283197D01*
X284363Y71931D01*
Y69599D01*
X283197Y68433D01*
X279698D01*
X286696Y66100D02*
X289028D01*
X287862D01*
Y73098D01*
X286696Y71931D01*
X304265Y124931D02*
X303099Y126098D01*
X300766D01*
X299600Y124931D01*
Y120266D01*
X300766Y119100D01*
X303099D01*
X304265Y120266D01*
Y122599D01*
X301933D01*
X306598Y119100D02*
Y126098D01*
X311263Y119100D01*
Y126098D01*
X313596D02*
Y119100D01*
X317094D01*
X318261Y120266D01*
Y124931D01*
X317094Y126098D01*
X313596D01*
X320593Y124931D02*
X321760Y126098D01*
X324092D01*
X325258Y124931D01*
Y123765D01*
X324092Y122599D01*
X322926D01*
X324092D01*
X325258Y121433D01*
Y120266D01*
X324092Y119100D01*
X321760D01*
X320593Y120266D01*
X8286Y446078D02*
X7119Y447244D01*
X4787D01*
X3621Y446078D01*
Y441413D01*
X4787Y440246D01*
X7119D01*
X8286Y441413D01*
X10618Y440246D02*
Y444912D01*
X12951Y447244D01*
X15283Y444912D01*
Y440246D01*
Y443745D01*
X10618D01*
X17616Y440246D02*
Y447244D01*
X22281Y440246D01*
Y447244D01*
X312565Y53131D02*
X311399Y54298D01*
X309066D01*
X307900Y53131D01*
Y48466D01*
X309066Y47300D01*
X311399D01*
X312565Y48466D01*
Y50799D01*
X310233D01*
X314898Y47300D02*
Y54298D01*
X319563Y47300D01*
Y54298D01*
X321896D02*
Y47300D01*
X325394D01*
X326561Y48466D01*
Y53131D01*
X325394Y54298D01*
X321896D01*
X328893Y47300D02*
X331226D01*
X330060D01*
Y54298D01*
X328893Y53131D01*
X386896Y497244D02*
X390895D01*
X388895D01*
Y499910D01*
X386896D01*
X390895D01*
X386896Y501243D02*
X390895D01*
Y503909D01*
Y505241D02*
Y506574D01*
Y505908D01*
X386896D01*
X387562Y505241D01*
X390228Y508574D02*
X390895Y509240D01*
Y510573D01*
X390228Y511240D01*
X387562D01*
X386896Y510573D01*
Y509240D01*
X387562Y508574D01*
X388229D01*
X388895Y509240D01*
Y511240D01*
X397101Y496700D02*
X401100D01*
X399101D01*
Y499366D01*
X397101D01*
X401100D01*
X397101Y500699D02*
X401100D01*
Y503365D01*
Y507363D02*
Y504697D01*
X398434Y507363D01*
X397768D01*
X397101Y506697D01*
Y505364D01*
X397768Y504697D01*
Y508696D02*
X397101Y509363D01*
Y510696D01*
X397768Y511362D01*
X400434D01*
X401100Y510696D01*
Y509363D01*
X400434Y508696D01*
X397768D01*
X264642Y424098D02*
Y420766D01*
X266308Y419100D01*
X267974Y420766D01*
Y424098D01*
X270473Y422432D02*
X272139D01*
X272972Y421599D01*
Y419100D01*
X270473D01*
X269640Y419933D01*
X270473Y420766D01*
X272972D01*
X274639Y419100D02*
X276305D01*
X275471D01*
Y424098D01*
X274639D01*
X278804Y422432D02*
X280470Y419100D01*
X282136Y422432D01*
X286301Y419100D02*
X284635D01*
X283802Y419933D01*
Y421599D01*
X284635Y422432D01*
X286301D01*
X287135Y421599D01*
Y420766D01*
X283802D01*
X294632Y422432D02*
X296298D01*
X297131Y421599D01*
Y419100D01*
X294632D01*
X293799Y419933D01*
X294632Y420766D01*
X297131D01*
X298797Y419100D02*
Y422432D01*
X301296D01*
X302130Y421599D01*
Y419100D01*
X307128Y424098D02*
Y419100D01*
X304629D01*
X303796Y419933D01*
Y421599D01*
X304629Y422432D01*
X307128D01*
X313792Y419100D02*
Y424098D01*
X316292D01*
X317125Y423265D01*
Y421599D01*
X316292Y420766D01*
X313792D01*
X318791Y422432D02*
Y419933D01*
X319624Y419100D01*
X322123D01*
Y422432D01*
X323789Y419100D02*
Y422432D01*
X324622D01*
X325455Y421599D01*
Y419100D01*
Y421599D01*
X326288Y422432D01*
X327121Y421599D01*
Y419100D01*
X328788Y417434D02*
Y422432D01*
X331287D01*
X332120Y421599D01*
Y419933D01*
X331287Y419100D01*
X328788D01*
X144000Y35733D02*
X146999D01*
X147999Y36066D01*
X148332Y36399D01*
X148666Y37066D01*
Y38065D01*
X148332Y38732D01*
X147999Y39065D01*
X146999Y39399D01*
X144000D01*
Y32400D01*
X152232Y39399D02*
X151565Y39065D01*
X150899Y38399D01*
X150565Y37732D01*
X150232Y36732D01*
Y35066D01*
X150565Y34066D01*
X150899Y33400D01*
X151565Y32733D01*
X152232Y32400D01*
X153565D01*
X154231Y32733D01*
X154898Y33400D01*
X155231Y34066D01*
X155564Y35066D01*
Y36732D01*
X155231Y37732D01*
X154898Y38399D01*
X154231Y39065D01*
X153565Y39399D01*
X152232D01*
X157197D02*
X158863Y32400D01*
X160530Y39399D02*
X158863Y32400D01*
X160530Y39399D02*
X162196Y32400D01*
X163862Y39399D02*
X162196Y32400D01*
X169595Y39399D02*
X165262D01*
Y32400D01*
X169595D01*
X165262Y36066D02*
X167928D01*
X170761Y39399D02*
Y32400D01*
Y39399D02*
X173760D01*
X174760Y39065D01*
X175093Y38732D01*
X175427Y38065D01*
Y37399D01*
X175093Y36732D01*
X174760Y36399D01*
X173760Y36066D01*
X170761D01*
X173094D02*
X175427Y32400D01*
X22174Y300472D02*
X19550Y292600D01*
X22174Y300472D02*
X24798Y292600D01*
X22174Y299348D02*
X24423Y292600D01*
X20300Y294849D02*
X23673D01*
X18800Y292600D02*
X21049D01*
X23299D02*
X25548D01*
X31433Y299348D02*
X31808Y300472D01*
Y298223D01*
X31433Y299348D01*
X30683Y300097D01*
X29559Y300472D01*
X28434D01*
X27310Y300097D01*
X26560Y299348D01*
Y298598D01*
X26935Y297848D01*
X27310Y297473D01*
X28059Y297098D01*
X30309Y296349D01*
X31058Y295974D01*
X31808Y295224D01*
X26560Y298598D02*
X27310Y297848D01*
X28059Y297473D01*
X30309Y296724D01*
X31058Y296349D01*
X31433Y295974D01*
X31808Y295224D01*
Y293725D01*
X31058Y292975D01*
X29934Y292600D01*
X28809D01*
X27685Y292975D01*
X26935Y293725D01*
X26560Y294849D01*
Y292600D01*
X26935Y293725D01*
X34845Y300472D02*
X33720Y300097D01*
X33345Y299348D01*
Y298223D01*
X33720Y297473D01*
X34845Y297098D01*
X36344D01*
X37469Y297473D01*
X37843Y298223D01*
Y299348D01*
X37469Y300097D01*
X36344Y300472D01*
X34845D01*
X34095Y300097D01*
X33720Y299348D01*
Y298223D01*
X34095Y297473D01*
X34845Y297098D01*
X36344D02*
X37094Y297473D01*
X37469Y298223D01*
Y299348D01*
X37094Y300097D01*
X36344Y300472D01*
X34845Y297098D02*
X33720Y296724D01*
X33345Y296349D01*
X32970Y295599D01*
Y294099D01*
X33345Y293350D01*
X33720Y292975D01*
X34845Y292600D01*
X36344D01*
X37469Y292975D01*
X37843Y293350D01*
X38218Y294099D01*
Y295599D01*
X37843Y296349D01*
X37469Y296724D01*
X36344Y297098D01*
X34845D02*
X34095Y296724D01*
X33720Y296349D01*
X33345Y295599D01*
Y294099D01*
X33720Y293350D01*
X34095Y292975D01*
X34845Y292600D01*
X36344D02*
X37094Y292975D01*
X37469Y293350D01*
X37843Y294099D01*
Y295599D01*
X37469Y296349D01*
X37094Y296724D01*
X36344Y297098D01*
X41630Y300472D02*
X40505Y300097D01*
X39755Y298973D01*
X39380Y297098D01*
Y295974D01*
X39755Y294099D01*
X40505Y292975D01*
X41630Y292600D01*
X42380D01*
X43504Y292975D01*
X44254Y294099D01*
X44629Y295974D01*
Y297098D01*
X44254Y298973D01*
X43504Y300097D01*
X42380Y300472D01*
X41630D01*
X40880Y300097D01*
X40505Y299723D01*
X40130Y298973D01*
X39755Y297098D01*
Y295974D01*
X40130Y294099D01*
X40505Y293350D01*
X40880Y292975D01*
X41630Y292600D01*
X42380D02*
X43129Y292975D01*
X43504Y293350D01*
X43879Y294099D01*
X44254Y295974D01*
Y297098D01*
X43879Y298973D01*
X43504Y299723D01*
X43129Y300097D01*
X42380Y300472D01*
X48040D02*
X46916Y300097D01*
X46166Y298973D01*
X45791Y297098D01*
Y295974D01*
X46166Y294099D01*
X46916Y292975D01*
X48040Y292600D01*
X48790D01*
X49915Y292975D01*
X50664Y294099D01*
X51039Y295974D01*
Y297098D01*
X50664Y298973D01*
X49915Y300097D01*
X48790Y300472D01*
X48040D01*
X47290Y300097D01*
X46916Y299723D01*
X46541Y298973D01*
X46166Y297098D01*
Y295974D01*
X46541Y294099D01*
X46916Y293350D01*
X47290Y292975D01*
X48040Y292600D01*
X48790D02*
X49540Y292975D01*
X49915Y293350D01*
X50289Y294099D01*
X50664Y295974D01*
Y297098D01*
X50289Y298973D01*
X49915Y299723D01*
X49540Y300097D01*
X48790Y300472D01*
X61910D02*
Y292600D01*
X62285Y300472D02*
Y292600D01*
X59661Y300472D02*
X59286Y298223D01*
Y300472D01*
X64909D01*
Y298223D01*
X64534Y300472D01*
X60786Y292600D02*
X63410D01*
X66409Y295599D02*
X70907D01*
Y296349D01*
X70533Y297098D01*
X70158Y297473D01*
X69408Y297848D01*
X68283D01*
X67159Y297473D01*
X66409Y296724D01*
X66034Y295599D01*
Y294849D01*
X66409Y293725D01*
X67159Y292975D01*
X68283Y292600D01*
X69033D01*
X70158Y292975D01*
X70907Y293725D01*
X70533Y295599D02*
Y296724D01*
X70158Y297473D01*
X68283Y297848D02*
X67533Y297473D01*
X66784Y296724D01*
X66409Y295599D01*
Y294849D01*
X66784Y293725D01*
X67533Y292975D01*
X68283Y292600D01*
X73232Y297848D02*
Y292600D01*
X73606Y297848D02*
Y292600D01*
Y296724D02*
X74356Y297473D01*
X75481Y297848D01*
X76231D01*
X77355Y297473D01*
X77730Y296724D01*
Y292600D01*
X76231Y297848D02*
X76980Y297473D01*
X77355Y296724D01*
Y292600D01*
X77730Y296724D02*
X78480Y297473D01*
X79604Y297848D01*
X80354D01*
X81479Y297473D01*
X81854Y296724D01*
Y292600D01*
X80354Y297848D02*
X81104Y297473D01*
X81479Y296724D01*
Y292600D01*
X72107Y297848D02*
X73606D01*
X72107Y292600D02*
X74731D01*
X76231D02*
X78855D01*
X80354D02*
X82978D01*
X84703Y297848D02*
Y289976D01*
X85078Y297848D02*
Y289976D01*
Y296724D02*
X85827Y297473D01*
X86577Y297848D01*
X87327D01*
X88451Y297473D01*
X89201Y296724D01*
X89576Y295599D01*
Y294849D01*
X89201Y293725D01*
X88451Y292975D01*
X87327Y292600D01*
X86577D01*
X85827Y292975D01*
X85078Y293725D01*
X87327Y297848D02*
X88077Y297473D01*
X88826Y296724D01*
X89201Y295599D01*
Y294849D01*
X88826Y293725D01*
X88077Y292975D01*
X87327Y292600D01*
X83578Y297848D02*
X85078D01*
X83578Y289976D02*
X86202D01*
X95911Y299348D02*
X96286Y298223D01*
Y300472D01*
X95911Y299348D01*
X95162Y300097D01*
X94037Y300472D01*
X93287D01*
X92163Y300097D01*
X91413Y299348D01*
X91038Y298598D01*
X90663Y297473D01*
Y295599D01*
X91038Y294474D01*
X91413Y293725D01*
X92163Y292975D01*
X93287Y292600D01*
X94037D01*
X95162Y292975D01*
X95911Y293725D01*
X96286Y294474D01*
X93287Y300472D02*
X92537Y300097D01*
X91788Y299348D01*
X91413Y298598D01*
X91038Y297473D01*
Y295599D01*
X91413Y294474D01*
X91788Y293725D01*
X92537Y292975D01*
X93287Y292600D01*
X98536Y300472D02*
Y292600D01*
X98910Y300472D02*
Y292600D01*
X97411Y300472D02*
X101909D01*
X103034Y300097D01*
X103409Y299723D01*
X103784Y298973D01*
Y298223D01*
X103409Y297473D01*
X103034Y297098D01*
X101909Y296724D01*
Y300472D02*
X102659Y300097D01*
X103034Y299723D01*
X103409Y298973D01*
Y298223D01*
X103034Y297473D01*
X102659Y297098D01*
X101909Y296724D01*
X98910D02*
X101909D01*
X103034Y296349D01*
X103409Y295974D01*
X103784Y295224D01*
Y294099D01*
X103409Y293350D01*
X103034Y292975D01*
X101909Y292600D01*
X97411D01*
X101909Y296724D02*
X102659Y296349D01*
X103034Y295974D01*
X103409Y295224D01*
Y294099D01*
X103034Y293350D01*
X102659Y292975D01*
X101909Y292600D01*
X112668Y300472D02*
X115292Y292600D01*
X113043Y300472D02*
X115292Y293725D01*
X117916Y300472D02*
X115292Y292600D01*
X111918Y300472D02*
X114168D01*
X116417D02*
X118666D01*
X119678Y298973D02*
X120428Y299348D01*
X121553Y300472D01*
Y292600D01*
X121178Y300097D02*
Y292600D01*
X119678D02*
X123052D01*
X124777Y293350D02*
X124402Y292975D01*
X124777Y292600D01*
X125152Y292975D01*
X124777Y293350D01*
X126763Y298973D02*
X127513Y299348D01*
X128638Y300472D01*
Y292600D01*
X128263Y300097D02*
Y292600D01*
X126763D02*
X130137D01*
X33074Y459511D02*
X30408D01*
Y457511D01*
X31741Y458178D01*
X32408D01*
X33074Y457511D01*
Y456178D01*
X32408Y455512D01*
X31075D01*
X30408Y456178D01*
X34407Y459511D02*
Y456845D01*
X35740Y455512D01*
X37073Y456845D01*
Y459511D01*
X46736Y458450D02*
X46070Y459117D01*
X44737D01*
X44070Y458450D01*
Y455785D01*
X44737Y455118D01*
X46070D01*
X46736Y455785D01*
Y457118D01*
X45403D01*
X54408Y459117D02*
Y455118D01*
Y457118D01*
X57074D01*
Y459117D01*
Y455118D01*
X65330Y459117D02*
Y455118D01*
X67996D01*
X109032Y49465D02*
X108199Y50298D01*
X106533D01*
X105700Y49465D01*
Y46133D01*
X106533Y45300D01*
X108199D01*
X109032Y46133D01*
Y47799D01*
X107366D01*
X110698Y45300D02*
Y50298D01*
X114031Y45300D01*
Y50298D01*
X115697D02*
Y45300D01*
X118196D01*
X119029Y46133D01*
Y49465D01*
X118196Y50298D01*
X115697D01*
X259900Y69799D02*
X262566D01*
X261233Y71132D02*
Y68466D01*
X266564Y71799D02*
X263899D01*
Y69799D01*
X265232Y70466D01*
X265898D01*
X266564Y69799D01*
Y68466D01*
X265898Y67800D01*
X264565D01*
X263899Y68466D01*
X267897Y71799D02*
Y69133D01*
X269230Y67800D01*
X270563Y69133D01*
Y71799D01*
X153100Y156499D02*
X155766D01*
X157099Y155166D02*
X157765Y154500D01*
X159098D01*
X159765Y155166D01*
Y157832D01*
X159098Y158499D01*
X157765D01*
X157099Y157832D01*
Y157166D01*
X157765Y156499D01*
X159765D01*
X161097Y154500D02*
Y155166D01*
X161764D01*
Y154500D01*
X161097D01*
X167095Y158499D02*
X165763Y157832D01*
X164430Y156499D01*
Y155166D01*
X165096Y154500D01*
X166429D01*
X167095Y155166D01*
Y155833D01*
X166429Y156499D01*
X164430D01*
X168428Y158499D02*
Y155833D01*
X169761Y154500D01*
X171094Y155833D01*
Y158499D01*
X118400Y272100D02*
X119733D01*
X119067D01*
Y276099D01*
X118400Y275432D01*
X124398Y272100D02*
X121732D01*
X124398Y274766D01*
Y275432D01*
X123732Y276099D01*
X122399D01*
X121732Y275432D01*
X125731Y276099D02*
Y273433D01*
X127064Y272100D01*
X128397Y273433D01*
Y276099D01*
X129632Y45400D02*
X126300D01*
X129632Y48732D01*
Y49565D01*
X128799Y50398D01*
X127133D01*
X126300Y49565D01*
X133798Y45400D02*
Y50398D01*
X131298Y47899D01*
X134631D01*
X136297Y50398D02*
Y47066D01*
X137963Y45400D01*
X139629Y47066D01*
Y50398D01*
G54D52*
X216852Y139985D02*
Y184985D01*
X220353D01*
X243353D02*
X246852D01*
Y139985D02*
Y184985D01*
X228853Y139985D02*
X235352D01*
X228955Y79903D02*
X235455D01*
X246955D02*
Y124903D01*
X243455D02*
X246955D01*
X216955D02*
X220455D01*
X216955Y79903D02*
Y124903D01*
X216858Y21602D02*
Y66602D01*
X220358D01*
X243358D02*
X246858D01*
Y21602D02*
Y66602D01*
X228858Y21602D02*
X235358D01*
X471682Y404938D02*
X470349Y403605D01*
Y400939D01*
X471682Y399606D01*
X477014D01*
X478346Y400939D01*
Y403605D01*
X477014Y404938D01*
X478346Y407604D02*
Y410269D01*
Y408937D01*
X470349D01*
X471682Y407604D01*
X478346Y419600D02*
Y414268D01*
X473015Y419600D01*
X471682D01*
X470349Y418267D01*
Y415601D01*
X471682Y414268D01*
X470349Y422266D02*
X478346D01*
Y426264D01*
X477014Y427597D01*
X475681D01*
X474348Y426264D01*
Y422266D01*
Y426264D01*
X473015Y427597D01*
X471682D01*
X470349Y426264D01*
Y422266D01*
X471682Y298639D02*
X470349Y297306D01*
Y294640D01*
X471682Y293307D01*
X477014D01*
X478346Y294640D01*
Y297306D01*
X477014Y298639D01*
X478346Y301305D02*
Y303970D01*
Y302637D01*
X470349D01*
X471682Y301305D01*
Y307969D02*
X470349Y309302D01*
Y311968D01*
X471682Y313301D01*
X473015D01*
X474348Y311968D01*
Y310635D01*
Y311968D01*
X475681Y313301D01*
X477014D01*
X478346Y311968D01*
Y309302D01*
X477014Y307969D01*
X478346Y315966D02*
X473015D01*
X470349Y318632D01*
X473015Y321298D01*
X478346D01*
X474348D01*
Y315966D01*
X469582Y241965D02*
X467916Y240298D01*
Y236966D01*
X469582Y235300D01*
X476246D01*
X477913Y236966D01*
Y240298D01*
X476246Y241965D01*
X477913Y245297D02*
Y248629D01*
Y246963D01*
X467916D01*
X469582Y245297D01*
X477913Y258626D02*
X467916D01*
X472914Y253627D01*
Y260292D01*
X470969Y163365D02*
X469303Y161698D01*
Y158366D01*
X470969Y156700D01*
X477634D01*
X479300Y158366D01*
Y161698D01*
X477634Y163365D01*
X479300Y166697D02*
Y170029D01*
Y168363D01*
X469303D01*
X470969Y166697D01*
X469303Y181692D02*
Y175027D01*
X474302D01*
X472636Y178360D01*
Y180026D01*
X474302Y181692D01*
X477634D01*
X479300Y180026D01*
Y176693D01*
X477634Y175027D01*
X48373Y471716D02*
X46707Y473383D01*
X43374D01*
X41708Y471716D01*
Y465052D01*
X43374Y463386D01*
X46707D01*
X48373Y465052D01*
X51705Y473383D02*
X58369D01*
Y471716D01*
X51705Y465052D01*
Y463386D01*
X323987Y477228D02*
X322321Y478894D01*
X318989D01*
X317323Y477228D01*
Y470564D01*
X318989Y468898D01*
X322321D01*
X323987Y470564D01*
X327320Y468898D02*
X330652D01*
X328986D01*
Y478894D01*
X327320Y477228D01*
X342315Y468898D02*
X335650D01*
X342315Y475562D01*
Y477228D01*
X340649Y478894D01*
X337316D01*
X335650Y477228D01*
X470894Y332103D02*
X469562Y330770D01*
Y328105D01*
X470894Y326772D01*
X476226D01*
X477559Y328105D01*
Y330770D01*
X476226Y332103D01*
X477559Y334769D02*
Y337435D01*
Y336102D01*
X469562D01*
X470894Y334769D01*
Y341434D02*
X469562Y342766D01*
Y345432D01*
X470894Y346765D01*
X472227D01*
X473560Y345432D01*
Y344099D01*
Y345432D01*
X474893Y346765D01*
X476226D01*
X477559Y345432D01*
Y342766D01*
X476226Y341434D01*
X469562Y349431D02*
X477559D01*
Y353430D01*
X476226Y354763D01*
X474893D01*
X473560Y353430D01*
Y349431D01*
Y353430D01*
X472227Y354763D01*
X470894D01*
X469562Y353430D01*
Y349431D01*
X470969Y109364D02*
X469303Y107698D01*
Y104366D01*
X470969Y102700D01*
X477634D01*
X479300Y104366D01*
Y107698D01*
X477634Y109364D01*
X479300Y112697D02*
Y116029D01*
Y114363D01*
X469303D01*
X470969Y112697D01*
X469303Y127692D02*
X470969Y124360D01*
X474302Y121027D01*
X477634D01*
X479300Y122694D01*
Y126026D01*
X477634Y127692D01*
X475968D01*
X474302Y126026D01*
Y121027D01*
X470469Y67465D02*
X468803Y65798D01*
Y62466D01*
X470469Y60800D01*
X477134D01*
X478800Y62466D01*
Y65798D01*
X477134Y67465D01*
X478800Y70797D02*
Y74129D01*
Y72463D01*
X468803D01*
X470469Y70797D01*
X468803Y79127D02*
Y85792D01*
X470469D01*
X477134Y79127D01*
X478800D01*
X117464Y470331D02*
X115798Y471997D01*
X112466D01*
X110800Y470331D01*
Y463666D01*
X112466Y462000D01*
X115798D01*
X117464Y463666D01*
X120797Y470331D02*
X122463Y471997D01*
X125795D01*
X127461Y470331D01*
Y468665D01*
X125795Y466998D01*
X127461Y465332D01*
Y463666D01*
X125795Y462000D01*
X122463D01*
X120797Y463666D01*
Y465332D01*
X122463Y466998D01*
X120797Y468665D01*
Y470331D01*
X122463Y466998D02*
X125795D01*
X12570Y221808D02*
X5906D01*
Y216809D01*
X9238D01*
X5906D01*
Y211811D01*
X17568Y218476D02*
X20901D01*
X22567Y216809D01*
Y211811D01*
X17568D01*
X15902Y213477D01*
X17568Y215143D01*
X22567D01*
X25899Y211811D02*
Y218476D01*
X30897D01*
X32564Y216809D01*
Y211811D01*
G54D58*
X423600Y106800D02*
X431600D01*
Y82800D02*
Y106800D01*
X423600Y82800D02*
X431600D01*
X423600D02*
Y106800D01*
X427600D02*
Y110800D01*
Y78800D02*
Y82800D01*
X423400Y22000D02*
X431400D01*
X423400D02*
Y46000D01*
X431400D01*
Y22000D02*
Y46000D01*
X427400Y18000D02*
Y22000D01*
Y46000D02*
Y50000D01*
G54D131*
X420094Y204588D02*
G03*
X420094Y204588I-3937J0D01*
G01*
X87170Y197255D02*
G03*
X84670Y197255I-1250J0D01*
G01*
X116549Y274459D02*
G03*
X116549Y274459I-3937J0D01*
G01*
X151169Y156798D02*
G03*
X151169Y156798I-3937J0D01*
G01*
X279360Y38457D02*
G03*
X279360Y38457I-3937J0D01*
G01*
X271092Y77705D02*
G03*
X271092Y77705I-3937J0D01*
G01*
X39019Y386953D02*
G03*
X39019Y391953I0J2500D01*
G01*
X419796Y222588D02*
G03*
X419796Y222588I-3937J0D01*
G01*
X337488Y215550D02*
X348512D01*
X337488Y228935D02*
X348512D01*
X280259Y176868D02*
Y187892D01*
X293645Y176868D02*
Y187892D01*
X346788Y390967D02*
X347674D01*
X346788D02*
Y411833D01*
X347674D01*
X356926Y390967D02*
X357812D01*
Y411833D01*
X356926D02*
X357812D01*
X466929Y386221D02*
X468898D01*
X466929Y378346D02*
Y386221D01*
Y378346D02*
X468898D01*
X466929Y433465D02*
X468898D01*
X466929D02*
Y441339D01*
X468898Y366535D02*
Y453150D01*
X449213Y366535D02*
Y453150D01*
Y366535D02*
X468898D01*
X466929Y441339D02*
X468898D01*
X417520Y327461D02*
Y328346D01*
X438386D01*
Y327461D02*
Y328346D01*
X417520Y317323D02*
Y318209D01*
Y317323D02*
X438386D01*
Y318209D01*
X417520Y339665D02*
Y340551D01*
X438386D01*
Y339665D02*
Y340551D01*
X417520Y329528D02*
Y330413D01*
Y329528D02*
X438386D01*
Y330413D01*
X391929Y318484D02*
X404134D01*
Y338169D01*
X391929D02*
X404134D01*
X391929Y318484D02*
Y338169D01*
X361043Y386417D02*
X380728D01*
X361043D02*
Y398622D01*
X380728D01*
Y386417D02*
Y398622D01*
X412224Y386417D02*
X431910D01*
X412224D02*
Y398622D01*
X431910D01*
Y386417D02*
Y398622D01*
X398388Y391167D02*
X399274D01*
X398388D02*
Y412033D01*
X399274D01*
X408526Y391167D02*
X409412D01*
Y412033D01*
X408526D02*
X409412D01*
X434388Y384767D02*
X435274D01*
X434388D02*
Y405633D01*
X435274D01*
X444526Y384767D02*
X445412D01*
Y405633D01*
X444526D02*
X445412D01*
X383488Y391067D02*
X384374D01*
X383488D02*
Y411933D01*
X384374D01*
X393626Y391067D02*
X394512D01*
Y411933D01*
X393626D02*
X394512D01*
X436409Y469239D02*
X438869D01*
X447039Y461069D01*
Y436561D02*
Y461069D01*
X436409Y436561D02*
X447039D01*
X422531Y469239D02*
X424991D01*
X414361Y461069D02*
X422531Y469239D01*
X414361Y436561D02*
Y461069D01*
Y436561D02*
X424991D01*
X391929Y344468D02*
Y364154D01*
X404134D01*
Y344468D02*
Y364154D01*
X391929Y344468D02*
X404134D01*
X438386Y355118D02*
Y356004D01*
X417520Y355118D02*
X438386D01*
X417520D02*
Y356004D01*
X438386Y365256D02*
Y366142D01*
X417520D02*
X438386D01*
X417520Y365256D02*
Y366142D01*
X438386Y342913D02*
Y343799D01*
X417520Y342913D02*
X438386D01*
X417520D02*
Y343799D01*
X438386Y353051D02*
Y353937D01*
X417520D02*
X438386D01*
X417520Y353051D02*
Y353937D01*
X438386Y303937D02*
Y304823D01*
X417520Y303937D02*
X438386D01*
X417520D02*
Y304823D01*
X438386Y314075D02*
Y314961D01*
X417520D02*
X438386D01*
X417520Y314075D02*
Y314961D01*
X378740Y466536D02*
Y477559D01*
X392126Y466536D02*
Y477559D01*
X320891Y215550D02*
X331915D01*
X320891Y228935D02*
X331915D01*
X320888Y200907D02*
X331912D01*
X320888Y214293D02*
X331912D01*
X223228Y466142D02*
Y477165D01*
X236614Y466142D02*
Y477165D01*
X264173Y466142D02*
Y477165D01*
X277559Y466142D02*
Y477165D01*
X131555Y51826D02*
Y53794D01*
Y65605D02*
Y67574D01*
X113445Y51826D02*
Y53794D01*
Y65605D02*
Y67574D01*
Y51826D02*
X131555D01*
X113445Y67574D02*
X131555D01*
X357087Y466142D02*
Y477165D01*
X343701Y466142D02*
Y477165D01*
X316929Y466142D02*
Y477165D01*
X303543Y466142D02*
Y477165D01*
X378551Y144679D02*
X390756D01*
X378551Y124995D02*
Y144679D01*
Y124995D02*
X390756D01*
Y144679D01*
X87170Y197255D02*
X91363D01*
X80477Y197117D02*
X84670D01*
X80477D02*
Y217117D01*
X91363D01*
Y197255D02*
Y216940D01*
X167539Y278631D02*
Y281091D01*
X159369Y270461D02*
X167539Y278631D01*
X134861Y270461D02*
X159369D01*
X134861D02*
Y281091D01*
X167539Y292509D02*
Y294969D01*
X159369Y303139D02*
X167539Y294969D01*
X134861Y303139D02*
X159369D01*
X134861Y292509D02*
Y303139D01*
X90257Y239964D02*
Y240160D01*
Y257877D02*
Y258074D01*
X120178D01*
X90257Y239964D02*
X120178D01*
Y257877D02*
Y258074D01*
Y239964D02*
Y240160D01*
X111123Y239964D02*
Y258074D01*
X215656Y216567D02*
Y226567D01*
X255656D01*
X215656Y216567D02*
X255656D01*
Y226567D01*
X67539Y193329D02*
Y194215D01*
X88405D01*
Y193329D02*
Y194215D01*
X67539Y183191D02*
Y184077D01*
Y183191D02*
X88405D01*
Y184077D01*
X139108Y322824D02*
Y331092D01*
X158596D01*
X165092Y324596D01*
Y322824D02*
Y324596D01*
X139108Y305108D02*
Y313376D01*
Y305108D02*
X158596D01*
X165092Y311604D01*
Y313376D01*
X343307Y378543D02*
Y404921D01*
X296850D02*
X343307D01*
X296850Y378543D02*
Y404921D01*
Y378543D02*
X343307D01*
X390368Y48284D02*
Y67969D01*
X378163Y48284D02*
X390368D01*
X378163D02*
Y67969D01*
X390368D01*
X450787Y1181D02*
Y472047D01*
X17717Y1181D02*
Y472835D01*
X82729Y151786D02*
X94934D01*
X82729Y132101D02*
Y151786D01*
Y132101D02*
X94934D01*
Y151786D01*
X391694Y292319D02*
Y312004D01*
X403899D01*
Y292319D02*
Y312004D01*
X391694Y292319D02*
X403899D01*
X127933Y129088D02*
Y129974D01*
X107067Y129088D02*
X127933D01*
X107067D02*
Y129974D01*
X127933Y139226D02*
Y140112D01*
X107067D02*
X127933D01*
X107067Y139226D02*
Y140112D01*
X180704Y390908D02*
X182476D01*
X174208Y397404D02*
X180704Y390908D01*
X174208Y397404D02*
Y416892D01*
X182476D01*
X191924Y390908D02*
X193696D01*
X200192Y397404D01*
Y416892D01*
X191924D02*
X200192D01*
X63624Y161792D02*
X71892D01*
Y142304D02*
Y161792D01*
X65396Y135808D02*
X71892Y142304D01*
X63624Y135808D02*
X65396D01*
X45908Y161792D02*
X54176D01*
X45908Y142304D02*
Y161792D01*
Y142304D02*
X52404Y135808D01*
X54176D01*
X129345Y110394D02*
X147455D01*
X129345Y101339D02*
X129542D01*
X147258D02*
X147455D01*
X129345D02*
Y131261D01*
X147455Y101339D02*
Y131261D01*
X147258D02*
X147455D01*
X129345D02*
X129542D01*
X29931Y59961D02*
X32391D01*
X21761Y68131D02*
X29931Y59961D01*
X21761Y68131D02*
Y92639D01*
X32391D01*
X43809Y59961D02*
X46269D01*
X54439Y68131D01*
Y92639D01*
X43809D02*
X54439D01*
X210231Y389661D02*
X212691D01*
X202061Y397831D02*
X210231Y389661D01*
X202061Y397831D02*
Y422339D01*
X212691D01*
X224109Y389661D02*
X226569D01*
X234739Y397831D01*
Y422339D01*
X224109D02*
X234739D01*
X387008Y436508D02*
X395276D01*
X387008D02*
Y455996D01*
X393504Y462492D01*
X395276D01*
X404724Y436508D02*
X412992D01*
Y455996D01*
X406496Y462492D02*
X412992Y455996D01*
X404724Y462492D02*
X406496D01*
X39019Y379749D02*
X79019D01*
Y399158D01*
X39019D02*
X79019D01*
X39019Y391953D02*
Y399158D01*
Y379749D02*
Y386953D01*
X438386Y291732D02*
Y292618D01*
X417520Y291732D02*
X438386D01*
X417520D02*
Y292618D01*
X438386Y301870D02*
Y302756D01*
X417520D02*
X438386D01*
X417520Y301870D02*
Y302756D01*
X378163Y102186D02*
X390368D01*
X378163Y82501D02*
Y102186D01*
Y82501D02*
X390368D01*
Y102186D01*
X205118Y334842D02*
X231102D01*
X205118D02*
Y349410D01*
X231102D01*
Y334842D02*
Y349410D01*
X343543Y294173D02*
X363543D01*
X343543Y249173D02*
Y294173D01*
Y249173D02*
X353543D01*
Y254173D01*
X363543D01*
Y294173D01*
X241413Y378543D02*
X287870D01*
X241413D02*
Y404921D01*
X287870D01*
Y378543D02*
Y404921D01*
X306102Y201870D02*
Y227854D01*
X291535Y201870D02*
X306102D01*
X291535D02*
Y227854D01*
X306102D01*
X370079Y334842D02*
Y349410D01*
X344094D02*
X370079D01*
X344094Y334842D02*
Y349410D01*
Y334842D02*
X370079D01*
X323753D02*
Y349410D01*
X297769D02*
X323753D01*
X297769Y334842D02*
Y349410D01*
Y334842D02*
X323753D01*
X277428D02*
Y349410D01*
X251444D02*
X277428D01*
X251444Y334842D02*
Y349410D01*
Y334842D02*
X277428D01*
X59729Y117107D02*
X75871D01*
X59729Y130493D02*
X75871D01*
X224410Y428740D02*
X384252D01*
X224410Y462362D02*
X384252D01*
X224410Y428740D02*
Y462362D01*
X384567Y428740D02*
Y462362D01*
X388048Y201369D02*
X400253D01*
X388048Y166723D02*
Y201369D01*
Y166723D02*
X400253D01*
Y201369D01*
X464173Y277953D02*
X466142D01*
X446457Y203150D02*
X466142D01*
X446457D02*
Y289764D01*
X466142Y203150D02*
Y289764D01*
X464173Y270079D02*
Y277953D01*
Y270079D02*
X466142D01*
X464173Y214961D02*
X466142D01*
X464173D02*
Y222835D01*
X466142D01*
X302537Y80140D02*
Y89982D01*
X301789Y80140D02*
Y89982D01*
Y80140D02*
X304151D01*
X301789Y89982D02*
X304151D01*
X149521Y254519D02*
Y256881D01*
X139679Y254519D02*
Y256881D01*
X149521D01*
X139679Y256133D02*
X149521D01*
X337388Y200907D02*
X348412D01*
X337388Y214293D02*
X348412D01*
X102407Y383488D02*
Y394512D01*
X115793Y383488D02*
Y394512D01*
X129507Y383588D02*
Y394612D01*
X142893Y383588D02*
Y394612D01*
X228549Y231499D02*
X228399Y231799D01*
X228099Y232099D01*
X227800Y232249D01*
X227200D01*
X226900Y232099D01*
X226600Y231799D01*
X226450Y231499D01*
X226300Y231049D01*
Y230300D01*
X226450Y229850D01*
X226600Y229550D01*
X226900Y229250D01*
X227200Y229100D01*
X227800D01*
X228099Y229250D01*
X228399Y229550D01*
X228549Y229850D01*
Y230300D01*
X227800D02*
X228549D01*
X229269Y232249D02*
Y229100D01*
Y232249D02*
X231368Y229100D01*
Y232249D02*
Y229100D01*
X232238Y232249D02*
Y229100D01*
Y232249D02*
X233288D01*
X233737Y232099D01*
X234037Y231799D01*
X234187Y231499D01*
X234337Y231049D01*
Y230300D01*
X234187Y229850D01*
X234037Y229550D01*
X233737Y229250D01*
X233288Y229100D01*
X232238D01*
X249099Y231999D02*
X248799Y232299D01*
X248349Y232449D01*
X247750D01*
X247300Y232299D01*
X247000Y231999D01*
Y231699D01*
X247150Y231399D01*
X247300Y231249D01*
X247600Y231099D01*
X248499Y230800D01*
X248799Y230649D01*
X248949Y230500D01*
X249099Y230200D01*
Y229750D01*
X248799Y229450D01*
X248349Y229300D01*
X247750D01*
X247300Y229450D01*
X247000Y229750D01*
X252053Y231699D02*
X251903Y231999D01*
X251603Y232299D01*
X251304Y232449D01*
X250704D01*
X250404Y232299D01*
X250104Y231999D01*
X249954Y231699D01*
X249804Y231249D01*
Y230500D01*
X249954Y230050D01*
X250104Y229750D01*
X250404Y229450D01*
X250704Y229300D01*
X251304D01*
X251603Y229450D01*
X251903Y229750D01*
X252053Y230050D01*
X252938Y232449D02*
Y229300D01*
X255037Y232449D02*
X252938Y230350D01*
X253688Y231099D02*
X255037Y229300D01*
X236900Y232249D02*
Y229100D01*
Y232249D02*
X237950D01*
X238400Y232099D01*
X238699Y231799D01*
X238849Y231499D01*
X238999Y231049D01*
Y230300D01*
X238849Y229850D01*
X238699Y229550D01*
X238400Y229250D01*
X237950Y229100D01*
X236900D01*
X242103D02*
X240904Y232249D01*
X239704Y229100D01*
X240154Y230150D02*
X241653D01*
X243888Y232249D02*
Y229100D01*
X242838Y232249D02*
X244937D01*
X215200Y232149D02*
X216400Y229000D01*
X217599Y232149D02*
X216400Y229000D01*
X220253Y231399D02*
X220103Y231699D01*
X219803Y231999D01*
X219503Y232149D01*
X218904D01*
X218604Y231999D01*
X218304Y231699D01*
X218154Y231399D01*
X218004Y230949D01*
Y230200D01*
X218154Y229750D01*
X218304Y229450D01*
X218604Y229150D01*
X218904Y229000D01*
X219503D01*
X219803Y229150D01*
X220103Y229450D01*
X220253Y229750D01*
X223387Y231399D02*
X223237Y231699D01*
X222937Y231999D01*
X222638Y232149D01*
X222038D01*
X221738Y231999D01*
X221438Y231699D01*
X221288Y231399D01*
X221138Y230949D01*
Y230200D01*
X221288Y229750D01*
X221438Y229450D01*
X221738Y229150D01*
X222038Y229000D01*
X222638D01*
X222937Y229150D01*
X223237Y229450D01*
X223387Y229750D01*
G54D132*
X336292Y189580D02*
G03*
X336292Y189580I-492J0D01*
G01*
X347477Y388408D02*
G03*
X347477Y388408I-492J0D01*
G01*
X441437Y317520D02*
G03*
X441437Y317520I-492J0D01*
G01*
Y329724D02*
G03*
X441437Y329724I-492J0D01*
G01*
X385728Y339154D02*
G03*
X385728Y339154I-492J0D01*
G01*
X360551Y379724D02*
G03*
X360551Y379724I-492J0D01*
G01*
X411732Y379724D02*
G03*
X411732Y379724I-492J0D01*
G01*
X399077Y388608D02*
G03*
X399077Y388608I-492J0D01*
G01*
X435077Y382208D02*
G03*
X435077Y382208I-492J0D01*
G01*
X384177Y388508D02*
G03*
X384177Y388508I-492J0D01*
G01*
X399654Y495776D02*
G03*
X399654Y495776I-492J0D01*
G01*
X389812Y495669D02*
G03*
X389812Y495669I-492J0D01*
G01*
X437491Y471798D02*
G03*
X437491Y471798I-492J0D01*
G01*
X385728Y365138D02*
G03*
X385728Y365138I-492J0D01*
G01*
X441437Y355315D02*
G03*
X441437Y355315I-492J0D01*
G01*
Y343110D02*
G03*
X441437Y343110I-492J0D01*
G01*
Y304134D02*
G03*
X441437Y304134I-492J0D01*
G01*
X351792Y495780D02*
G03*
X351792Y495780I-492J0D01*
G01*
X342033Y495776D02*
G03*
X342033Y495776I-492J0D01*
G01*
X332190D02*
G03*
X332190Y495776I-492J0D01*
G01*
X321954D02*
G03*
X321954Y495776I-492J0D01*
G01*
X312111D02*
G03*
X312111Y495776I-492J0D01*
G01*
X301875D02*
G03*
X301875Y495776I-492J0D01*
G01*
X292033D02*
G03*
X292033Y495776I-492J0D01*
G01*
X281797D02*
G03*
X281797Y495776I-492J0D01*
G01*
X271954D02*
G03*
X271954Y495776I-492J0D01*
G01*
X261718D02*
G03*
X261718Y495776I-492J0D01*
G01*
X251875D02*
G03*
X251875Y495776I-492J0D01*
G01*
X241639D02*
G03*
X241639Y495776I-492J0D01*
G01*
X231797D02*
G03*
X231797Y495776I-492J0D01*
G01*
X221561D02*
G03*
X221561Y495776I-492J0D01*
G01*
X211718D02*
G03*
X211718Y495776I-492J0D01*
G01*
X380757Y495669D02*
G03*
X380757Y495669I-492J0D01*
G01*
X371702D02*
G03*
X371702Y495669I-492J0D01*
G01*
X361516Y495776D02*
G03*
X361516Y495776I-492J0D01*
G01*
X138592Y418480D02*
G03*
X138592Y418480I-492J0D01*
G01*
X147092D02*
G03*
X147092Y418480I-492J0D01*
G01*
X96292Y418880D02*
G03*
X96292Y418880I-492J0D01*
G01*
X104792Y418780D02*
G03*
X104792Y418780I-492J0D01*
G01*
X113292D02*
G03*
X113292Y418780I-492J0D01*
G01*
X397941Y124010D02*
G03*
X397941Y124010I-492J0D01*
G01*
X170590Y280501D02*
G03*
X170590Y280501I-492J0D01*
G01*
X65472Y194018D02*
G03*
X65472Y194018I-492J0D01*
G01*
X168143Y312785D02*
G03*
X168143Y312785I-492J0D01*
G01*
X297146Y370276D02*
G03*
X297146Y370276I-492J0D01*
G01*
X397553Y47300D02*
G03*
X397553Y47300I-492J0D01*
G01*
X102119Y131117D02*
G03*
X102119Y131117I-492J0D01*
G01*
X385493Y312988D02*
G03*
X385493Y312988I-492J0D01*
G01*
X105000Y139915D02*
G03*
X105000Y139915I-492J0D01*
G01*
X88113Y35000D02*
G03*
X88113Y35000I-492J0D01*
G01*
X182377Y388349D02*
G03*
X182377Y388349I-492J0D01*
G01*
X54077Y133249D02*
G03*
X54077Y133249I-492J0D01*
G01*
X32293Y57402D02*
G03*
X32293Y57402I-492J0D01*
G01*
X212593Y387102D02*
G03*
X212593Y387102I-492J0D01*
G01*
X405807Y465051D02*
G03*
X405807Y465051I-492J0D01*
G01*
X441437Y291929D02*
G03*
X441437Y291929I-492J0D01*
G01*
X397553Y81516D02*
G03*
X397553Y81516I-492J0D01*
G01*
X204035Y328543D02*
G03*
X204035Y328543I-492J0D01*
G01*
X241709Y370276D02*
G03*
X241709Y370276I-492J0D01*
G01*
X201066Y262319D02*
G03*
X201066Y262319I-492J0D01*
G01*
X130192Y418580D02*
G03*
X130192Y418580I-492J0D01*
G01*
X121792Y418680D02*
G03*
X121792Y418680I-492J0D01*
G01*
X312894Y200295D02*
G03*
X312894Y200295I-492J0D01*
G01*
X343012Y328543D02*
G03*
X343012Y328543I-492J0D01*
G01*
X296686D02*
G03*
X296686Y328543I-492J0D01*
G01*
X250361D02*
G03*
X250361Y328543I-492J0D01*
G01*
X407438Y165739D02*
G03*
X407438Y165739I-492J0D01*
G01*
G54D133*
X397047Y334232D02*
G03*
X397047Y334232I-1181J0D01*
G01*
X366161Y390354D02*
G03*
X366161Y390354I-1181J0D01*
G01*
X417343Y390354D02*
G03*
X417343Y390354I-1181J0D01*
G01*
X397047Y360216D02*
G03*
X397047Y360216I-1181J0D01*
G01*
X388000Y128931D02*
G03*
X388000Y128931I-1181J0D01*
G01*
X301969Y382480D02*
G03*
X301969Y382480I-1181J0D01*
G01*
X387612Y52221D02*
G03*
X387612Y52221I-1181J0D01*
G01*
X92178Y136038D02*
G03*
X92178Y136038I-1181J0D01*
G01*
X396812Y308067D02*
G03*
X396812Y308067I-1181J0D01*
G01*
X387612Y86438D02*
G03*
X387612Y86438I-1181J0D01*
G01*
X210236Y338779D02*
G03*
X210236Y338779I-1181J0D01*
G01*
X246532Y382480D02*
G03*
X246532Y382480I-1181J0D01*
G01*
X303346Y205807D02*
G03*
X303346Y205807I-1181J0D01*
G01*
X349213Y338779D02*
G03*
X349213Y338779I-1181J0D01*
G01*
X302887D02*
G03*
X302887Y338779I-1181J0D01*
G01*
X256562D02*
G03*
X256562Y338779I-1181J0D01*
G01*
X397497Y170660D02*
G03*
X397497Y170660I-1181J0D01*
G01*
G54D134*
X136673Y52613D02*
G03*
X136673Y52613I-880J0D01*
G01*
G54D135*
X97038Y196861D02*
G03*
X97038Y196861I-557J0D01*
G01*
X123918Y239964D02*
G03*
X123918Y239964I-1181J0D01*
G01*
X130526Y98780D02*
G03*
X130526Y98780I-1181J0D01*
G01*
X312073Y301967D02*
Y294094D01*
X309449Y301967D02*
X314697D01*
X315634Y300467D02*
X316384Y300842D01*
X317509Y301967D01*
Y294094D01*
X325906Y301967D02*
X322157D01*
X321782Y298593D01*
X322157Y298968D01*
X323282Y299343D01*
X324406D01*
X325531Y298968D01*
X326281Y298218D01*
X326656Y297094D01*
Y296344D01*
X326281Y295219D01*
X325531Y294469D01*
X324406Y294094D01*
X323282D01*
X322157Y294469D01*
X321782Y294844D01*
X321407Y295594D01*
X341449Y244972D02*
X340325Y244598D01*
X339575Y243473D01*
X339200Y241599D01*
Y240474D01*
X339575Y238599D01*
X340325Y237475D01*
X341449Y237100D01*
X342199D01*
X343324Y237475D01*
X344073Y238599D01*
X344448Y240474D01*
Y241599D01*
X344073Y243473D01*
X343324Y244598D01*
X342199Y244972D01*
X341449D01*
X346585Y237850D02*
X346210Y237475D01*
X346585Y237100D01*
X346960Y237475D01*
X346585Y237850D01*
X348684Y243473D02*
X349434Y243848D01*
X350559Y244972D01*
Y237100D01*
X360080Y243098D02*
X359705Y243848D01*
X358956Y244598D01*
X358206Y244972D01*
X356707D01*
X355957Y244598D01*
X355207Y243848D01*
X354832Y243098D01*
X354457Y241973D01*
Y240099D01*
X354832Y238974D01*
X355207Y238225D01*
X355957Y237475D01*
X356707Y237100D01*
X358206D01*
X358956Y237475D01*
X359705Y238225D01*
X360080Y238974D01*
X362292Y235975D02*
X367540Y244972D01*
X370315D02*
X369190Y244598D01*
X368440Y243473D01*
X368065Y241599D01*
Y240474D01*
X368440Y238599D01*
X369190Y237475D01*
X370315Y237100D01*
X371064D01*
X372189Y237475D01*
X372939Y238599D01*
X373313Y240474D01*
Y241599D01*
X372939Y243473D01*
X372189Y244598D01*
X371064Y244972D01*
X370315D01*
X375450Y237850D02*
X375075Y237475D01*
X375450Y237100D01*
X375825Y237475D01*
X375450Y237850D01*
X377550Y243473D02*
X378299Y243848D01*
X379424Y244972D01*
Y237100D01*
X383323Y244972D02*
X386321Y237100D01*
X389320Y244972D02*
X386321Y237100D01*
G54D136*
X316678Y134184D02*
G03*
X316678Y134184I-5537J0D01*
G01*
X329124Y289300D02*
G03*
X329124Y289300I-4961J0D01*
G01*
X288066Y176538D02*
G03*
X288066Y176538I-557J0D01*
G01*
X61696Y276716D02*
G03*
X61696Y276716I-5537J0D01*
G01*
X324597Y40316D02*
G03*
X324597Y40316I-5537J0D01*
G01*
G54D137*
X328149Y272879D02*
G03*
X310433Y272972I-8858J93D01*
G01*
X310434Y247964D02*
G03*
X328150Y247872I8858J-91D01*
G01*
X326791Y272972D02*
G03*
X311791Y272972I-7500J0D01*
G01*
Y247972D02*
G03*
X326791Y247972I7500J0D01*
G01*
X328149Y247873D02*
Y272879D01*
X310434Y247964D02*
Y272972D01*
X311791Y247972D02*
Y272972D01*
X326791Y247972D02*
Y272972D01*
G54D138*
X385110Y77540D02*
X398890D01*
X385110Y70060D02*
Y77540D01*
Y70060D02*
X398890D01*
Y77540D01*
X384110Y114740D02*
X397890D01*
X384110Y107260D02*
Y114740D01*
Y107260D02*
X397890D01*
Y114740D01*
X274960Y238590D02*
X282440D01*
Y224810D02*
Y238590D01*
X274960Y224810D02*
X282440D01*
X274960D02*
Y238590D01*
X302897Y189270D02*
X310377D01*
Y175490D02*
Y189270D01*
X302897Y175490D02*
X310377D01*
X302897D02*
Y189270D01*
X412458Y181880D02*
X419938D01*
Y168101D02*
Y181880D01*
X412458Y168101D02*
X419938D01*
X412458D02*
Y181880D01*
X438442Y156290D02*
Y163770D01*
X424662Y156290D02*
X438442D01*
X424662D02*
Y163770D01*
X438442D01*
X403560Y212510D02*
X411040D01*
X403560D02*
Y226290D01*
X411040D01*
Y212510D02*
Y226290D01*
X375450Y175188D02*
Y182668D01*
X361670Y175188D02*
X375450D01*
X361670D02*
Y182668D01*
X375450D01*
Y165739D02*
Y173219D01*
X361670Y165739D02*
X375450D01*
X361670D02*
Y173219D01*
X375450D01*
Y184636D02*
Y192117D01*
X361670Y184636D02*
X375450D01*
X361670D02*
Y192117D01*
X375450D01*
Y194085D02*
Y201566D01*
X361670Y194085D02*
X375450D01*
X361670D02*
Y201566D01*
X375450D01*
X361670Y163376D02*
X369151D01*
Y149597D02*
Y163376D01*
X361670Y149597D02*
X369151D01*
X361670D02*
Y163376D01*
X379781Y147628D02*
Y155109D01*
X393560D01*
Y147628D02*
Y155109D01*
X379781Y147628D02*
X393560D01*
X379781Y156290D02*
Y163770D01*
X393560D01*
Y156290D02*
Y163770D01*
X379781Y156290D02*
X393560D01*
X421513Y168101D02*
X428993D01*
X421513D02*
Y181880D01*
X428993D01*
Y168101D02*
Y181880D01*
X409702Y156290D02*
Y163770D01*
X423481D01*
Y156290D02*
Y163770D01*
X409702Y156290D02*
X423481D01*
X394741D02*
Y163770D01*
X408521D01*
Y156290D02*
Y163770D01*
X394741Y156290D02*
X408521D01*
X370725Y149597D02*
X378206D01*
X370725D02*
Y163376D01*
X378206D01*
Y149597D02*
Y163376D01*
X421513Y185030D02*
X428993D01*
X421513D02*
Y198810D01*
X428993D01*
Y185030D02*
Y198810D01*
X430174D02*
X437654D01*
Y185030D02*
Y198810D01*
X430174Y185030D02*
X437654D01*
X430174D02*
Y198810D01*
X412458D02*
X419938D01*
Y185030D02*
Y198810D01*
X412458Y185030D02*
X419938D01*
X412458D02*
Y198810D01*
X430568Y168101D02*
X438048D01*
X430568D02*
Y181880D01*
X438048D01*
Y168101D02*
Y181880D01*
X430174Y214164D02*
X437654D01*
Y200384D02*
Y214164D01*
X430174Y200384D02*
X437654D01*
X430174D02*
Y214164D01*
X421119D02*
X428599D01*
Y200384D02*
Y214164D01*
X421119Y200384D02*
X428599D01*
X421119D02*
Y214164D01*
X396316Y203928D02*
Y211408D01*
X382536Y203928D02*
X396316D01*
X382536D02*
Y211408D01*
X396316D01*
X411277Y203928D02*
Y211408D01*
X397497Y203928D02*
X411277D01*
X397497D02*
Y211408D01*
X411277D01*
X394860Y226390D02*
X402340D01*
Y212610D02*
Y226390D01*
X394860Y212610D02*
X402340D01*
X394860D02*
Y226390D01*
X332060Y175604D02*
Y188596D01*
Y175604D02*
X339540D01*
Y188596D01*
X332060D02*
X339540D01*
X340660Y175110D02*
X348140D01*
X340660D02*
Y188890D01*
X348140D01*
Y175110D02*
Y188890D01*
X74858Y431496D02*
Y431890D01*
X74464Y431496D02*
X74858D01*
X25251Y431496D02*
Y433186D01*
X74858Y431890D02*
Y433376D01*
X25251Y433186D02*
Y433350D01*
X74858Y433376D02*
Y453150D01*
X59715Y451076D02*
Y452850D01*
X39715Y450776D02*
Y452850D01*
X30215Y450776D02*
Y452850D01*
X60915Y451076D02*
X70115D01*
X30215Y450776D02*
X39715D01*
X70115Y451076D02*
Y453150D01*
X25251Y431496D02*
X74858D01*
X25251Y453937D02*
X74858D01*
X25251Y433350D02*
Y453150D01*
X74858Y453150D02*
Y453918D01*
X74839Y453937D02*
X74858Y453918D01*
X25251Y453150D02*
Y453935D01*
X59715Y452850D02*
Y453737D01*
X70115Y453150D02*
Y453937D01*
X39715Y452850D02*
Y453837D01*
X30215Y452850D02*
Y453837D01*
X59715Y451076D02*
X60915D01*
X231299Y309055D02*
Y322835D01*
X223819D02*
X231299D01*
X223819Y309055D02*
Y322835D01*
Y309055D02*
X231299D01*
X215158D02*
Y322835D01*
X207677D02*
X215158D01*
X207677Y309055D02*
Y322835D01*
Y309055D02*
X215158D01*
X395422Y494792D02*
X402902D01*
Y481800D02*
Y494792D01*
X395422Y481800D02*
X402902D01*
X395422D02*
Y494792D01*
X385579Y494685D02*
X393060D01*
Y481693D02*
Y494685D01*
X385579Y481693D02*
X393060D01*
X385579D02*
Y494685D01*
X403781Y42950D02*
Y56729D01*
Y42950D02*
X411261D01*
Y56729D01*
X403781D02*
X411261D01*
X412360Y50910D02*
Y64690D01*
Y50910D02*
X419840D01*
Y64690D01*
X412360D02*
X419840D01*
X402994Y76414D02*
Y90194D01*
Y76414D02*
X410474D01*
Y90194D01*
X402994D02*
X410474D01*
X412049Y83894D02*
Y97674D01*
Y83894D02*
X419529D01*
Y97674D01*
X412049D02*
X419529D01*
X347560Y481804D02*
Y494796D01*
Y481804D02*
X355040D01*
Y494796D01*
X347560D02*
X355040D01*
X337801Y481800D02*
Y494792D01*
Y481800D02*
X345281D01*
Y494792D01*
X337801D02*
X345281D01*
X327958Y481800D02*
Y494792D01*
Y481800D02*
X335438D01*
Y494792D01*
X327958D02*
X335438D01*
X317722Y481800D02*
Y494792D01*
Y481800D02*
X325202D01*
Y494792D01*
X317722D02*
X325202D01*
X307879Y481800D02*
Y494792D01*
Y481800D02*
X315360D01*
Y494792D01*
X307879D02*
X315360D01*
X297643Y481800D02*
Y494792D01*
Y481800D02*
X305123D01*
Y494792D01*
X297643D02*
X305123D01*
X287801Y481800D02*
Y494792D01*
Y481800D02*
X295281D01*
Y494792D01*
X287801D02*
X295281D01*
X277564Y481800D02*
Y494792D01*
Y481800D02*
X285045D01*
Y494792D01*
X277564D02*
X285045D01*
X267722Y481800D02*
Y494792D01*
Y481800D02*
X275202D01*
Y494792D01*
X267722D02*
X275202D01*
X257486Y481800D02*
Y494792D01*
Y481800D02*
X264966D01*
Y494792D01*
X257486D02*
X264966D01*
X247643Y481800D02*
Y494792D01*
Y481800D02*
X255123D01*
Y494792D01*
X247643D02*
X255123D01*
X237407Y481800D02*
Y494792D01*
Y481800D02*
X244887D01*
Y494792D01*
X237407D02*
X244887D01*
X227565Y481800D02*
Y494792D01*
Y481800D02*
X235045D01*
Y494792D01*
X227565D02*
X235045D01*
X217328Y481800D02*
Y494792D01*
Y481800D02*
X224809D01*
Y494792D01*
X217328D02*
X224809D01*
X207486Y481800D02*
Y494792D01*
Y481800D02*
X214966D01*
Y494792D01*
X207486D02*
X214966D01*
X376524Y481693D02*
Y494685D01*
Y481693D02*
X384005D01*
Y494685D01*
X376524D02*
X384005D01*
X367469Y481693D02*
Y494685D01*
Y481693D02*
X374950D01*
Y494685D01*
X367469D02*
X374950D01*
X357283Y481800D02*
Y494792D01*
Y481800D02*
X364764D01*
Y494792D01*
X357283D02*
X364764D01*
X134360Y404504D02*
Y417496D01*
Y404504D02*
X141840D01*
Y417496D01*
X134360D02*
X141840D01*
X142860Y404504D02*
Y417496D01*
Y404504D02*
X150340D01*
Y417496D01*
X142860D02*
X150340D01*
X92060Y404904D02*
Y417896D01*
Y404904D02*
X99540D01*
Y417896D01*
X92060D02*
X99540D01*
X100560Y404804D02*
Y417796D01*
Y404804D02*
X108040D01*
Y417796D01*
X100560D02*
X108040D01*
X109060Y404804D02*
Y417796D01*
Y404804D02*
X116540D01*
Y417796D01*
X109060D02*
X116540D01*
X369010Y107260D02*
Y114740D01*
X382790D01*
Y107260D02*
Y114740D01*
X369010Y107260D02*
X382790D01*
X430568Y139754D02*
X438048D01*
X430568D02*
Y153534D01*
X438048D01*
Y139754D02*
Y153534D01*
X207977Y289743D02*
X215458D01*
X207977D02*
Y303523D01*
X215458D01*
Y289743D02*
Y303523D01*
X311165Y189270D02*
X318645D01*
Y175490D02*
Y189270D01*
X311165Y175490D02*
X318645D01*
X311165D02*
Y189270D01*
X22501Y221816D02*
Y256903D01*
X19691Y221816D02*
Y256903D01*
X43801Y221816D02*
Y256903D01*
X19691Y221816D02*
X43512D01*
X19691Y256903D02*
X43801D01*
X447549Y326220D02*
X467323D01*
X447523Y355748D02*
X467323D01*
Y326220D02*
Y355748D01*
X445276Y326220D02*
X447549D01*
X444882D02*
Y355748D01*
X447523D01*
X464567Y335669D02*
X466929D01*
X464567D02*
Y345905D01*
X467323D01*
X365998Y66572D02*
Y74052D01*
X352218Y66572D02*
X365998D01*
X352218D02*
Y74052D01*
X365998D01*
X352218Y57516D02*
Y64997D01*
X365998D01*
Y57516D02*
Y64997D01*
X352218Y57516D02*
X365998D01*
X377151Y37981D02*
Y45461D01*
X390931D01*
Y37981D02*
Y45461D01*
X377151Y37981D02*
X390931D01*
X365986Y46099D02*
Y53579D01*
X352206Y46099D02*
X365986D01*
X352206D02*
Y53579D01*
X365986D01*
X403781Y58698D02*
X411261D01*
X403781D02*
Y72477D01*
X411261D01*
Y58698D02*
Y72477D01*
X266610Y198260D02*
Y205740D01*
X280390D01*
Y198260D02*
Y205740D01*
X266610Y198260D02*
X280390D01*
X447549Y292362D02*
X467323D01*
X447523Y321890D02*
X467323D01*
Y292362D02*
Y321890D01*
X445276Y292362D02*
X447549D01*
X444882D02*
Y321890D01*
X447523D01*
X464567Y301811D02*
X466929D01*
X464567D02*
Y312047D01*
X467323D01*
X352218Y96509D02*
Y103989D01*
X365998D01*
Y96509D02*
Y103989D01*
X352218Y96509D02*
X365998D01*
X88110Y162340D02*
X101890D01*
X88110Y154860D02*
Y162340D01*
Y154860D02*
X101890D01*
Y162340D01*
X86890Y154860D02*
Y162340D01*
X73110Y154860D02*
X86890D01*
X73110D02*
Y162340D01*
X86890D01*
X205889Y276470D02*
X213369D01*
Y262690D02*
Y276470D01*
X205889Y262690D02*
X213369D01*
X205889D02*
Y276470D01*
X85383Y219759D02*
Y227239D01*
X99163D01*
Y219759D02*
Y227239D01*
X85383Y219759D02*
X99163D01*
X101671D02*
X115450D01*
Y227239D01*
X101671D02*
X115450D01*
X101671Y219759D02*
Y227239D01*
X57750Y31260D02*
Y38740D01*
X71530D01*
Y31260D02*
Y38740D01*
X57750Y31260D02*
X71530D01*
X253530Y206803D02*
Y214283D01*
X239750Y206803D02*
X253530D01*
X239750D02*
Y214283D01*
X253530D01*
X60260Y359890D02*
X67740D01*
Y346110D02*
Y359890D01*
X60260Y346110D02*
X67740D01*
X60260D02*
Y359890D01*
X50260Y359990D02*
X57740D01*
Y346210D02*
Y359990D01*
X50260Y346210D02*
X57740D01*
X50260D02*
Y359990D01*
X276789Y80752D02*
X290568D01*
Y88232D01*
X276789D02*
X290568D01*
X276789Y80752D02*
Y88232D01*
X271277Y24521D02*
X285057D01*
Y32002D01*
X271277D02*
X285057D01*
X271277Y24521D02*
Y32002D01*
X73644Y38740D02*
X86636D01*
X73644Y31260D02*
Y38740D01*
Y31260D02*
X86636D01*
Y38740D01*
X85383Y228759D02*
X99163D01*
Y236239D01*
X85383D02*
X99163D01*
X85383Y228759D02*
Y236239D01*
X101791Y229058D02*
X115570D01*
Y236538D01*
X101791D02*
X115570D01*
X101791Y229058D02*
Y236538D01*
X365998Y105509D02*
Y112989D01*
X352218Y105509D02*
X365998D01*
X352218D02*
Y112989D01*
X365998D01*
X352218Y94489D02*
X365998D01*
X352218Y87009D02*
Y94489D01*
Y87009D02*
X365998D01*
Y94489D01*
X110710Y141260D02*
Y148740D01*
X124490D01*
Y141260D02*
Y148740D01*
X110710Y141260D02*
X124490D01*
X44740Y140110D02*
Y153890D01*
X37260D02*
X44740D01*
X37260Y140110D02*
Y153890D01*
Y140110D02*
X44740D01*
X160660Y113910D02*
Y127690D01*
Y113910D02*
X168140D01*
Y127690D01*
X160660D02*
X168140D01*
X40360Y346110D02*
X47840D01*
X40360D02*
Y359890D01*
X47840D01*
Y346110D02*
Y359890D01*
X115964Y260554D02*
Y268034D01*
X102184Y260554D02*
X115964D01*
X102184D02*
Y268034D01*
X115964D01*
X92735Y191262D02*
X100216D01*
Y177483D02*
Y191262D01*
X92735Y177483D02*
X100216D01*
X92735D02*
Y191262D01*
X207060Y145410D02*
X214540D01*
X207060D02*
Y159190D01*
X214540D01*
Y145410D02*
Y159190D01*
X264983Y146064D02*
X272464D01*
X264983D02*
Y159844D01*
X272464D01*
Y146064D02*
Y159844D01*
X206360Y31510D02*
Y45290D01*
Y31510D02*
X213840D01*
Y45290D01*
X206360D02*
X213840D01*
X262222Y26884D02*
X269702D01*
X262222D02*
Y40663D01*
X269702D01*
Y26884D02*
Y40663D01*
X203540Y85110D02*
Y98890D01*
X196060D02*
X203540D01*
X196060Y85110D02*
Y98890D01*
Y85110D02*
X203540D01*
X262222Y85083D02*
X269702D01*
X262222D02*
Y98862D01*
X269702D01*
Y85083D02*
Y98862D01*
X370110Y73360D02*
Y80840D01*
X383890D01*
Y73360D02*
Y80840D01*
X370110Y73360D02*
X383890D01*
X402994Y92162D02*
X410474D01*
X402994D02*
Y105942D01*
X410474D01*
Y92162D02*
Y105942D01*
X366339Y32549D02*
X373819D01*
Y18769D02*
Y32549D01*
X366339Y18769D02*
X373819D01*
X366339D02*
Y32549D01*
X395860Y32190D02*
X403340D01*
Y18410D02*
Y32190D01*
X395860Y18410D02*
X403340D01*
X395860D02*
Y32190D01*
X195060Y343510D02*
X202540D01*
X195060D02*
Y357290D01*
X202540D01*
Y343510D02*
Y357290D01*
X224513Y289743D02*
Y303523D01*
X217032D02*
X224513D01*
X217032Y289743D02*
Y303523D01*
Y289743D02*
X224513D01*
X351780Y132652D02*
X365559D01*
X351780Y125172D02*
Y132652D01*
Y125172D02*
X365559D01*
Y132652D01*
X351780Y133833D02*
X365559D01*
Y141313D01*
X351780D02*
X365559D01*
X351780Y133833D02*
Y141313D01*
X350598Y126746D02*
Y140526D01*
X343118D02*
X350598D01*
X343118Y126746D02*
Y140526D01*
Y126746D02*
X350598D01*
X411916Y137264D02*
X425695D01*
X411916Y129783D02*
Y137264D01*
Y129783D02*
X425695D01*
Y137264D01*
X403260Y123470D02*
Y137250D01*
Y123470D02*
X410740D01*
Y137250D01*
X403260D02*
X410740D01*
X36910Y425340D02*
X50690D01*
X36910Y417860D02*
Y425340D01*
Y417860D02*
X50690D01*
Y425340D01*
X319432Y175490D02*
Y189270D01*
Y175490D02*
X326913D01*
Y189270D01*
X319432D02*
X326913D01*
X404760Y18410D02*
Y32190D01*
Y18410D02*
X412240D01*
Y32190D01*
X404760D02*
X412240D01*
X105118Y11727D02*
X140394D01*
X105118Y43701D02*
X140394D01*
X105118Y40157D02*
X140394D01*
Y11727D02*
Y43701D01*
X105118Y11727D02*
Y43701D01*
X196834Y263303D02*
X204314D01*
X196834D02*
Y276295D01*
X204314D01*
Y263303D02*
Y276295D01*
X125960Y417596D02*
X133440D01*
Y404604D02*
Y417596D01*
X125960Y404604D02*
X133440D01*
X125960D02*
Y417596D01*
X117560Y417696D02*
X125040D01*
Y404704D02*
Y417696D01*
X117560Y404704D02*
X125040D01*
X117560D02*
Y417696D01*
X444488Y96142D02*
X458661D01*
X461417D02*
X466535D01*
X466929Y96535D01*
Y98110D01*
X444488Y96142D02*
Y98110D01*
Y133543D02*
Y135906D01*
X466929D01*
Y133937D02*
Y135906D01*
X444488Y98110D02*
Y133543D01*
X458661Y96142D02*
X466535D01*
X466929Y98110D02*
Y133543D01*
X464068Y100884D02*
X466929D01*
X464068D02*
Y110084D01*
X464168Y110184D01*
X466929D01*
X463768Y121684D02*
X466929D01*
X463768D02*
Y131184D01*
X463868Y131284D01*
X466929D01*
Y97716D02*
Y98110D01*
Y133543D02*
Y133937D01*
X444488Y53622D02*
X458661D01*
X461417D02*
X466535D01*
X466929Y54016D01*
Y55590D01*
X444488Y53622D02*
Y55590D01*
Y91024D02*
Y93386D01*
X466929D01*
Y91417D02*
Y93386D01*
X444488Y55590D02*
Y91024D01*
X458661Y53622D02*
X466535D01*
X466929Y55590D02*
Y91024D01*
X464068Y58365D02*
X466929D01*
X464068D02*
Y67565D01*
X464168Y67665D01*
X466929D01*
X463768Y79165D02*
X466929D01*
X463768D02*
Y88665D01*
X463868Y88765D01*
X466929D01*
Y55197D02*
Y55590D01*
Y91024D02*
Y91417D01*
X466917Y196142D02*
Y196535D01*
Y138819D02*
Y196142D01*
X444476Y138583D02*
Y196142D01*
X466917Y196535D02*
Y198504D01*
X444476D02*
X466917D01*
X444476Y196142D02*
Y198504D01*
Y138583D02*
X466917D01*
X463767Y159055D02*
X466759D01*
X463767Y148779D02*
Y159055D01*
Y148779D02*
X466602D01*
X463924Y188622D02*
X466917D01*
X463924Y178425D02*
Y188622D01*
Y178425D02*
X466838D01*
X295079Y343504D02*
Y357283D01*
X287598D02*
X295079D01*
X287598Y343504D02*
Y357283D01*
Y343504D02*
X295079D01*
X341142Y342717D02*
Y356496D01*
X333661D02*
X341142D01*
X333661Y342717D02*
Y356496D01*
Y342717D02*
X341142D01*
X248940Y343510D02*
Y357290D01*
X241460D02*
X248940D01*
X241460Y343510D02*
Y357290D01*
Y343510D02*
X248940D01*
X294629Y189270D02*
X302110D01*
Y175490D02*
Y189270D01*
X294629Y175490D02*
X302110D01*
X294629D02*
Y189270D01*
X224410Y445551D02*
X249788D01*
Y428840D02*
Y445551D01*
X289606Y428740D02*
Y434351D01*
X310433D01*
Y428840D02*
Y434351D01*
X240199Y424751D02*
X244188Y428740D01*
X240199Y424751D02*
X246988D01*
X244388Y428740D02*
X248277Y424851D01*
X246988Y424751D02*
X248177D01*
X403210Y138760D02*
Y146240D01*
X416990D01*
Y138760D02*
Y146240D01*
X403210Y138760D02*
X416990D01*
X337992Y278543D02*
Y292323D01*
X330512D02*
X337992D01*
X330512Y278543D02*
Y292323D01*
Y278543D02*
X337992D01*
X374213Y336024D02*
X381693D01*
X374213D02*
Y349803D01*
X381693D01*
Y336024D02*
Y349803D01*
X294506Y26096D02*
Y39876D01*
X287025D02*
X294506D01*
X287025Y26096D02*
Y39876D01*
Y26096D02*
X294506D01*
X337992Y261221D02*
Y275000D01*
X330512D02*
X337992D01*
X330512Y261221D02*
Y275000D01*
Y261221D02*
X337992D01*
X330512Y260039D02*
X337992D01*
Y246260D02*
Y260039D01*
X330512Y246260D02*
X337992D01*
X330512D02*
Y260039D01*
X169610Y121660D02*
Y129140D01*
X183390D01*
Y121660D02*
Y129140D01*
X169610Y121660D02*
X183390D01*
X123810Y257160D02*
X137590D01*
Y264640D01*
X123810D02*
X137590D01*
X123810Y257160D02*
Y264640D01*
G54D139*
X430165Y240993D02*
Y241793D01*
X430065Y241893D02*
X430165Y241793D01*
X430065Y241893D02*
X435165D01*
Y240993D02*
Y241893D01*
X430165Y240193D02*
Y240993D01*
X435165Y228693D02*
Y240993D01*
X430165Y228693D02*
X435165D01*
X430165D02*
Y240193D01*
Y255166D02*
Y255966D01*
X430065Y256066D02*
X430165Y255966D01*
X430065Y256066D02*
X435165D01*
Y255166D02*
Y256066D01*
X430165Y254366D02*
Y255166D01*
X435165Y242866D02*
Y255166D01*
X430165Y242866D02*
X435165D01*
X430165D02*
Y254366D01*
Y257433D02*
Y268933D01*
Y257433D02*
X435165D01*
Y269733D01*
X430165Y268933D02*
Y269733D01*
X435165D02*
Y270633D01*
X430065D02*
X435165D01*
X430065D02*
X430165Y270533D01*
Y269733D02*
Y270533D01*
X430165Y284300D02*
Y285100D01*
X430065Y285200D02*
X430165Y285100D01*
X430065Y285200D02*
X435165D01*
Y284300D02*
Y285200D01*
X430165Y283500D02*
Y284300D01*
X435165Y272000D02*
Y284300D01*
X430165Y272000D02*
X435165D01*
X430165D02*
Y283500D01*
X346808Y403369D02*
X357812D01*
X348363D02*
X348363D01*
X352300Y399431D01*
X352300D01*
X356237Y403369D01*
X425984Y326772D02*
X429921Y322835D01*
Y322835D02*
Y322835D01*
X425984Y318898D02*
X429921Y322835D01*
X425984Y318898D02*
Y318898D01*
Y317342D02*
Y328346D01*
Y338976D02*
X429921Y335039D01*
Y335039D02*
Y335039D01*
X425984Y331102D02*
X429921Y335039D01*
X425984Y331102D02*
Y331102D01*
Y329547D02*
Y340551D01*
X398408Y403569D02*
X409412D01*
X399963D02*
X399963D01*
X403900Y399632D01*
X403900D01*
X407837Y403569D01*
X434408Y397168D02*
X445412D01*
X435963D02*
X435963D01*
X439900Y393232D01*
X439900D01*
X443837Y397168D01*
X383508Y403469D02*
X394512D01*
X385063D02*
X385063D01*
X389000Y399532D01*
X389000D01*
X392937Y403469D01*
X30215Y450776D02*
X39715D01*
X60915Y451076D02*
X70115D01*
X425984Y355138D02*
Y366142D01*
Y356693D02*
Y356693D01*
X429921Y360630D01*
Y360630D01*
X425984Y364567D02*
X429921Y360630D01*
X425984Y342933D02*
Y353937D01*
Y344488D02*
Y344488D01*
X429921Y348425D01*
Y348425D01*
X425984Y352362D02*
X429921Y348425D01*
X425984Y303957D02*
Y314961D01*
Y305512D02*
Y305512D01*
X429921Y309449D01*
Y309449D01*
X425984Y313386D02*
X429921Y309449D01*
X79940Y183191D02*
Y194195D01*
Y192640D02*
Y192640D01*
X76003Y188703D02*
X79940Y192640D01*
X76003Y188703D02*
Y188703D01*
Y188703D02*
X79940Y184766D01*
X115532Y134600D02*
X119468Y130663D01*
X115532Y134600D02*
Y134600D01*
X119468Y138537D01*
Y138537D01*
Y129088D02*
Y140092D01*
X425984Y291752D02*
Y302756D01*
Y293307D02*
Y293307D01*
X429921Y297244D01*
Y297244D01*
X425984Y301181D02*
X429921Y297244D01*
X377509Y23828D02*
X378309D01*
X377409Y23728D02*
X377509Y23828D01*
X377409Y23728D02*
Y28828D01*
X378309D01*
Y23828D02*
X379109D01*
X378309Y28828D02*
X390609D01*
Y23828D02*
Y28828D01*
X379109Y23828D02*
X390609D01*
X463768Y121684D02*
Y131184D01*
X464068Y110084D02*
X464168Y110184D01*
X464068Y100884D02*
Y110084D01*
X463768Y79165D02*
Y88665D01*
X464068Y67565D02*
X464168Y67665D01*
X464068Y58365D02*
Y67565D01*
X65500Y424400D02*
X66300D01*
X66400Y424500D01*
Y419400D02*
Y424500D01*
X65500Y419400D02*
X66400D01*
X64700Y424400D02*
X65500D01*
X53200Y419400D02*
X65500D01*
X53200D02*
Y424400D01*
X64700D01*
G54D140*
X346808Y391006D02*
X357792D01*
X346808D02*
Y411794D01*
X357792D01*
Y391006D02*
Y411794D01*
X417559Y328327D02*
X438346D01*
X417559Y317342D02*
Y328327D01*
Y317342D02*
X438346D01*
Y328327D01*
X417559Y340531D02*
X438346D01*
X417559Y329547D02*
Y340531D01*
Y329547D02*
X438346D01*
Y340531D01*
X398408Y391206D02*
X409392D01*
X398408D02*
Y411994D01*
X409392D01*
Y391206D02*
Y411994D01*
X434408Y384806D02*
X445392D01*
X434408D02*
Y405594D01*
X445392D01*
Y384806D02*
Y405594D01*
X383508Y391106D02*
X394492D01*
X383508D02*
Y411894D01*
X394492D01*
Y391106D02*
Y411894D01*
X414361Y461069D02*
X422531Y469239D01*
X414361Y436561D02*
Y461069D01*
X447039Y436561D02*
Y461069D01*
X438869Y469239D02*
X447039Y461069D01*
X438346Y355138D02*
Y366122D01*
X417559Y355138D02*
X438346D01*
X417559D02*
Y366122D01*
X438346D01*
Y342933D02*
Y353917D01*
X417559Y342933D02*
X438346D01*
X417559D02*
Y353917D01*
X438346D01*
Y303957D02*
Y314941D01*
X417559Y303957D02*
X438346D01*
X417559D02*
Y314941D01*
X438346D01*
X159369Y303139D02*
X167539Y294969D01*
X134861Y303139D02*
X159369D01*
X134861Y270461D02*
X159369D01*
X167539Y278631D01*
X67578Y183211D02*
Y194195D01*
X88365D01*
Y183211D02*
Y194195D01*
X67578Y183211D02*
X88365D01*
X158596Y305108D02*
X165092Y311604D01*
X139108Y305108D02*
X158596D01*
X139108Y331092D02*
X158596D01*
X165092Y324596D01*
X107106Y129108D02*
X127894D01*
Y140092D01*
X107106D02*
X127894D01*
X107106Y129108D02*
Y140092D01*
X193696Y390908D02*
X200192Y397404D01*
Y416892D01*
X174208Y397404D02*
Y416892D01*
Y397404D02*
X180704Y390908D01*
X45908Y142304D02*
X52404Y135808D01*
X45908Y142304D02*
Y161792D01*
X71892Y142304D02*
Y161792D01*
X65396Y135808D02*
X71892Y142304D01*
X46269Y59961D02*
X54439Y68131D01*
Y92639D01*
X21761Y68131D02*
Y92639D01*
Y68131D02*
X29931Y59961D01*
X226569Y389661D02*
X234739Y397831D01*
Y422339D01*
X202061Y397831D02*
Y422339D01*
Y397831D02*
X210231Y389661D01*
X406496Y462492D02*
X412992Y455996D01*
Y436508D02*
Y455996D01*
X387008Y436508D02*
Y455996D01*
X393504Y462492D01*
X438346Y291752D02*
Y302736D01*
X417559Y291752D02*
X438346D01*
X417559D02*
Y302736D01*
X438346D01*
G54D141*
X449213Y453150D02*
X468898D01*
X446457Y289764D02*
X466142D01*
G54D142*
X251232Y288807D02*
X290602D01*
X251232Y249437D02*
X288634D01*
X251232D02*
Y288807D01*
X288634Y249437D02*
X290602Y251405D01*
X290602Y288807D02*
X290602Y251405D01*
G54D143*
X189171Y208967D02*
X202171D01*
X189171D02*
Y233967D01*
X202171Y208967D02*
Y233967D01*
X189171D02*
X202171D01*
X270827Y229338D02*
X273976D01*
X270827D02*
Y230687D01*
X270977Y231137D01*
X271127Y231287D01*
X271427Y231437D01*
X271726D01*
X272026Y231287D01*
X272176Y231137D01*
X272326Y230687D01*
Y229338D01*
Y230387D02*
X273976Y231437D01*
X270827Y233941D02*
Y232442D01*
X272176Y232292D01*
X272026Y232442D01*
X271876Y232892D01*
Y233341D01*
X272026Y233791D01*
X272326Y234091D01*
X272776Y234241D01*
X273076D01*
X273526Y234091D01*
X273826Y233791D01*
X273976Y233341D01*
Y232892D01*
X273826Y232442D01*
X273676Y232292D01*
X273376Y232142D01*
X270827Y235846D02*
X270977Y235396D01*
X271427Y235096D01*
X272176Y234946D01*
X272626D01*
X273376Y235096D01*
X273826Y235396D01*
X273976Y235846D01*
Y236145D01*
X273826Y236595D01*
X273376Y236895D01*
X272626Y237045D01*
X272176D01*
X271427Y236895D01*
X270977Y236595D01*
X270827Y236145D01*
Y235846D01*
X387000Y116200D02*
Y119349D01*
X388574D01*
X389099Y118824D01*
Y117774D01*
X388574Y117250D01*
X387000D01*
X388050D02*
X389099Y116200D01*
X390149D02*
X391198D01*
X390673D01*
Y119349D01*
X390149Y118824D01*
X378600Y69100D02*
Y72249D01*
X380174D01*
X380699Y71724D01*
Y70674D01*
X380174Y70149D01*
X378600D01*
X379649D02*
X380699Y69100D01*
X381749Y69625D02*
X382273Y69100D01*
X383323D01*
X383848Y69625D01*
Y71724D01*
X383323Y72249D01*
X382273D01*
X381749Y71724D01*
Y71199D01*
X382273Y70674D01*
X383848D01*
X420651Y257448D02*
Y259547D01*
Y258498D01*
X423800D01*
X420651Y260597D02*
X422751D01*
X423800Y261646D01*
X422751Y262696D01*
X420651D01*
X421176Y265844D02*
X420651Y265319D01*
Y264270D01*
X421176Y263745D01*
X421701D01*
X422226Y264270D01*
Y265319D01*
X422751Y265844D01*
X423275D01*
X423800Y265319D01*
Y264270D01*
X423275Y263745D01*
X421176Y266894D02*
X420651Y267419D01*
Y268468D01*
X421176Y268993D01*
X421701D01*
X422226Y268468D01*
Y267943D01*
Y268468D01*
X422751Y268993D01*
X423275D01*
X423800Y268468D01*
Y267419D01*
X423275Y266894D01*
X420651Y272948D02*
Y275047D01*
Y273998D01*
X423800D01*
X420651Y276097D02*
X422751D01*
X423800Y277146D01*
X422751Y278196D01*
X420651D01*
X421176Y281344D02*
X420651Y280820D01*
Y279770D01*
X421176Y279245D01*
X421701D01*
X422226Y279770D01*
Y280820D01*
X422751Y281344D01*
X423275D01*
X423800Y280820D01*
Y279770D01*
X423275Y279245D01*
X423800Y283968D02*
X420651D01*
X422226Y282394D01*
Y284493D01*
X420351Y243848D02*
Y245947D01*
Y244898D01*
X423500D01*
X420351Y246997D02*
X422450D01*
X423500Y248046D01*
X422450Y249096D01*
X420351D01*
X420876Y252244D02*
X420351Y251719D01*
Y250670D01*
X420876Y250145D01*
X421401D01*
X421926Y250670D01*
Y251719D01*
X422450Y252244D01*
X422975D01*
X423500Y251719D01*
Y250670D01*
X422975Y250145D01*
X423500Y253294D02*
Y254343D01*
Y253819D01*
X420351D01*
X420876Y253294D01*
X420451Y229248D02*
Y231347D01*
Y230298D01*
X423600D01*
X420451Y232397D02*
X422550D01*
X423600Y233446D01*
X422550Y234496D01*
X420451D01*
X420976Y237644D02*
X420451Y237120D01*
Y236070D01*
X420976Y235545D01*
X421501D01*
X422026Y236070D01*
Y237120D01*
X422550Y237644D01*
X423075D01*
X423600Y237120D01*
Y236070D01*
X423075Y235545D01*
X423600Y240793D02*
Y238694D01*
X421501Y240793D01*
X420976D01*
X420451Y240268D01*
Y239219D01*
X420976Y238694D01*
X339676Y278699D02*
X339151Y278174D01*
Y277125D01*
X339676Y276600D01*
X341775D01*
X342300Y277125D01*
Y278174D01*
X341775Y278699D01*
X342300Y279749D02*
Y280798D01*
Y280273D01*
X339151D01*
X339676Y279749D01*
X342300Y282372D02*
Y283422D01*
Y282897D01*
X339151D01*
X339676Y282372D01*
X339151Y287095D02*
Y284996D01*
X340726D01*
X340201Y286046D01*
Y286571D01*
X340726Y287095D01*
X341775D01*
X342300Y286571D01*
Y285521D01*
X341775Y284996D01*
X339601Y268949D02*
X339301Y268799D01*
X339001Y268499D01*
X338851Y268199D01*
Y267600D01*
X339001Y267300D01*
X339301Y267000D01*
X339601Y266850D01*
X340051Y266700D01*
X340800D01*
X341250Y266850D01*
X341550Y267000D01*
X341850Y267300D01*
X342000Y267600D01*
Y268199D01*
X341850Y268499D01*
X341550Y268799D01*
X341250Y268949D01*
X338851Y271333D02*
X340950Y269834D01*
Y272083D01*
X338851Y271333D02*
X342000D01*
X338851Y273538D02*
X339001Y273088D01*
X339451Y272788D01*
X340201Y272638D01*
X340651D01*
X341400Y272788D01*
X341850Y273088D01*
X342000Y273538D01*
Y273838D01*
X341850Y274287D01*
X341400Y274587D01*
X340651Y274737D01*
X340201D01*
X339451Y274587D01*
X339001Y274287D01*
X338851Y273838D01*
Y273538D01*
X339901Y248849D02*
X339601Y248699D01*
X339301Y248399D01*
X339151Y248099D01*
Y247500D01*
X339301Y247200D01*
X339601Y246900D01*
X339901Y246750D01*
X340351Y246600D01*
X341100D01*
X341550Y246750D01*
X341850Y246900D01*
X342150Y247200D01*
X342300Y247500D01*
Y248099D01*
X342150Y248399D01*
X341850Y248699D01*
X341550Y248849D01*
X339151Y250034D02*
Y251683D01*
X340351Y250784D01*
Y251233D01*
X340501Y251533D01*
X340651Y251683D01*
X341100Y251833D01*
X341400D01*
X341850Y251683D01*
X342150Y251383D01*
X342300Y250934D01*
Y250484D01*
X342150Y250034D01*
X342000Y249884D01*
X341700Y249734D01*
X340201Y254487D02*
X340651Y254337D01*
X340950Y254037D01*
X341100Y253588D01*
Y253438D01*
X340950Y252988D01*
X340651Y252688D01*
X340201Y252538D01*
X340051D01*
X339601Y252688D01*
X339301Y252988D01*
X339151Y253438D01*
Y253588D01*
X339301Y254037D01*
X339601Y254337D01*
X340201Y254487D01*
X340950D01*
X341700Y254337D01*
X342150Y254037D01*
X342300Y253588D01*
Y253288D01*
X342150Y252838D01*
X341850Y252688D01*
X409299Y150324D02*
X408774Y150849D01*
X407725D01*
X407200Y150324D01*
Y148225D01*
X407725Y147700D01*
X408774D01*
X409299Y148225D01*
X410349Y147700D02*
X411398D01*
X410873D01*
Y150849D01*
X410349Y150324D01*
X414547Y147700D02*
Y150849D01*
X412972Y149274D01*
X415071D01*
X308212Y173719D02*
Y170570D01*
X306638D01*
X306113Y171095D01*
Y172144D01*
X306638Y172669D01*
X308212D01*
X307162D02*
X306113Y173719D01*
X302964D02*
X305063D01*
X302964Y171620D01*
Y171095D01*
X303489Y170570D01*
X304538D01*
X305063Y171095D01*
X301915Y170570D02*
X299816D01*
Y171095D01*
X301915Y173194D01*
Y173719D01*
X281440Y170569D02*
Y173718D01*
X283014D01*
X283539Y173193D01*
Y172143D01*
X283014Y171619D01*
X281440D01*
X282490D02*
X283539Y170569D01*
X286688D02*
X284589D01*
X286688Y172668D01*
Y173193D01*
X286163Y173718D01*
X285114D01*
X284589Y173193D01*
X289836Y173718D02*
X288787Y173193D01*
X287737Y172143D01*
Y171094D01*
X288262Y170569D01*
X289312D01*
X289836Y171094D01*
Y171619D01*
X289312Y172143D01*
X287737D01*
X373622Y351181D02*
Y354330D01*
X375196D01*
X375721Y353805D01*
Y352755D01*
X375196Y352231D01*
X373622D01*
X374672D02*
X375721Y351181D01*
X376771Y353805D02*
X377295Y354330D01*
X378345D01*
X378870Y353805D01*
Y353280D01*
X378345Y352755D01*
X377820D01*
X378345D01*
X378870Y352231D01*
Y351706D01*
X378345Y351181D01*
X377295D01*
X376771Y351706D01*
X382018Y354330D02*
X380969Y353805D01*
X379919Y352755D01*
Y351706D01*
X380444Y351181D01*
X381493D01*
X382018Y351706D01*
Y352231D01*
X381493Y352755D01*
X379919D01*
X361399Y372125D02*
Y374224D01*
X360874Y374749D01*
X359825D01*
X359300Y374224D01*
Y372125D01*
X359825Y371600D01*
X360874D01*
X360349Y372650D02*
X361399Y371600D01*
X360874D02*
X361399Y372125D01*
X364023Y371600D02*
Y374749D01*
X362449Y373174D01*
X364548D01*
X413910Y374540D02*
Y376640D01*
X413385Y377164D01*
X412336D01*
X411811Y376640D01*
Y374540D01*
X412336Y374016D01*
X413385D01*
X412860Y375065D02*
X413910Y374016D01*
X413385D02*
X413910Y374540D01*
X417059Y374016D02*
X414960D01*
X417059Y376115D01*
Y376640D01*
X416534Y377164D01*
X415484D01*
X414960Y376640D01*
X356237Y417934D02*
Y414786D01*
X357811D01*
X358336Y415311D01*
Y417410D01*
X357811Y417934D01*
X356237D01*
X359386D02*
X361485D01*
Y417410D01*
X359386Y415311D01*
Y414786D01*
X383243Y419992D02*
Y416843D01*
X384817D01*
X385342Y417368D01*
Y419467D01*
X384817Y419992D01*
X383243D01*
X388491D02*
X387441Y419467D01*
X386391Y418417D01*
Y417368D01*
X386916Y416843D01*
X387966D01*
X388491Y417368D01*
Y417893D01*
X387966Y418417D01*
X386391D01*
X398204Y420092D02*
Y416943D01*
X399778D01*
X400303Y417468D01*
Y419567D01*
X399778Y420092D01*
X398204D01*
X403451D02*
X401352D01*
Y418517D01*
X402402Y419042D01*
X402927D01*
X403451Y418517D01*
Y417468D01*
X402927Y416943D01*
X401877D01*
X401352Y417468D01*
X434227Y413692D02*
Y410543D01*
X435801D01*
X436326Y411068D01*
Y413167D01*
X435801Y413692D01*
X434227D01*
X438949Y410543D02*
Y413692D01*
X437375Y412117D01*
X439474D01*
X89813Y463238D02*
X88763D01*
X89288D01*
Y460614D01*
X88763Y460090D01*
X88239D01*
X87714Y460614D01*
X92962Y463238D02*
X91912Y462714D01*
X90862Y461664D01*
Y460614D01*
X91387Y460090D01*
X92437D01*
X92962Y460614D01*
Y461139D01*
X92437Y461664D01*
X90862D01*
X416576Y99446D02*
X413428D01*
Y101020D01*
X413952Y101545D01*
X415002D01*
X415527Y101020D01*
Y99446D01*
Y100495D02*
X416576Y101545D01*
X413952Y102594D02*
X413428Y103119D01*
Y104169D01*
X413952Y104693D01*
X414477D01*
X415002Y104169D01*
Y103644D01*
Y104169D01*
X415527Y104693D01*
X416052D01*
X416576Y104169D01*
Y103119D01*
X416052Y102594D01*
X416576Y107317D02*
X413428D01*
X415002Y105743D01*
Y107842D01*
X402009Y79367D02*
X398861D01*
Y80941D01*
X399386Y81466D01*
X400435D01*
X400960Y80941D01*
Y79367D01*
Y80417D02*
X402009Y81466D01*
X399386Y82516D02*
X398861Y83040D01*
Y84090D01*
X399386Y84615D01*
X399910D01*
X400435Y84090D01*
Y83565D01*
Y84090D01*
X400960Y84615D01*
X401485D01*
X402009Y84090D01*
Y83040D01*
X401485Y82516D01*
X399386Y85664D02*
X398861Y86189D01*
Y87238D01*
X399386Y87763D01*
X399910D01*
X400435Y87238D01*
X400960Y87763D01*
X401485D01*
X402009Y87238D01*
Y86189D01*
X401485Y85664D01*
X400960D01*
X400435Y86189D01*
X399910Y85664D01*
X399386D01*
X400435Y86189D02*
Y87238D01*
X417281Y66068D02*
X414132D01*
Y67642D01*
X414657Y68167D01*
X415707D01*
X416232Y67642D01*
Y66068D01*
Y67117D02*
X417281Y68167D01*
X414132Y71315D02*
Y69216D01*
X415707D01*
X415182Y70266D01*
Y70791D01*
X415707Y71315D01*
X416756D01*
X417281Y70791D01*
Y69741D01*
X416756Y69216D01*
X417281Y74464D02*
Y72365D01*
X415182Y74464D01*
X414657D01*
X414132Y73939D01*
Y72890D01*
X414657Y72365D01*
X402797Y45509D02*
X399648D01*
Y47083D01*
X400173Y47608D01*
X401223D01*
X401747Y47083D01*
Y45509D01*
Y46558D02*
X402797Y47608D01*
X399648Y50756D02*
Y48657D01*
X401223D01*
X400698Y49707D01*
Y50232D01*
X401223Y50756D01*
X402272D01*
X402797Y50232D01*
Y49182D01*
X402272Y48657D01*
X402797Y53380D02*
X399648D01*
X401223Y51806D01*
Y53905D01*
X436455Y32504D02*
X433307D01*
Y34078D01*
X433831Y34603D01*
X434881D01*
X435406Y34078D01*
Y32504D01*
Y33553D02*
X436455Y34603D01*
X433831Y35653D02*
X433307Y36177D01*
Y37227D01*
X433831Y37752D01*
X434356D01*
X434881Y37227D01*
Y36702D01*
Y37227D01*
X435406Y37752D01*
X435930D01*
X436455Y37227D01*
Y36177D01*
X435930Y35653D01*
X436455Y38801D02*
Y39851D01*
Y39326D01*
X433307D01*
X433831Y38801D01*
X436655Y90784D02*
X433506D01*
Y92359D01*
X434031Y92883D01*
X435081D01*
X435606Y92359D01*
Y90784D01*
Y91834D02*
X436655Y92883D01*
X434031Y93933D02*
X433506Y94458D01*
Y95507D01*
X434031Y96032D01*
X434556D01*
X435081Y95507D01*
Y94982D01*
Y95507D01*
X435606Y96032D01*
X436130D01*
X436655Y95507D01*
Y94458D01*
X436130Y93933D01*
X434031Y97081D02*
X433506Y97606D01*
Y98656D01*
X434031Y99181D01*
X436130D01*
X436655Y98656D01*
Y97606D01*
X436130Y97081D01*
X434031D01*
X444500Y281900D02*
X441351Y281892D01*
X441347Y283466D01*
X441871Y283992D01*
X442920Y283995D01*
X443446Y283471D01*
X443450Y281897D01*
X444492Y285049D02*
X444489Y286098D01*
X444490Y285573D01*
X441342Y285565D01*
X441868Y285042D01*
X337099Y198924D02*
X336574Y199449D01*
X335525D01*
X335000Y198924D01*
Y196825D01*
X335525Y196300D01*
X336574D01*
X337099Y196825D01*
X338149Y196300D02*
Y199449D01*
X339723D01*
X340248Y198924D01*
Y197874D01*
X339723Y197350D01*
X338149D01*
X343396Y196300D02*
X341297D01*
X343396Y198399D01*
Y198924D01*
X342871Y199449D01*
X341822D01*
X341297Y198924D01*
X338499Y232824D02*
X337974Y233349D01*
X336925D01*
X336400Y232824D01*
Y230725D01*
X336925Y230200D01*
X337974D01*
X338499Y230725D01*
X339549Y230200D02*
Y233349D01*
X341123D01*
X341648Y232824D01*
Y231774D01*
X341123Y231249D01*
X339549D01*
X342697Y230200D02*
X343747D01*
X343222D01*
Y233349D01*
X342697Y232824D01*
X109347Y73713D02*
X111446D01*
X110396D01*
Y70565D01*
X112495Y73713D02*
Y71614D01*
X113545Y70565D01*
X114594Y71614D01*
Y73713D01*
X117743Y73188D02*
X117218Y73713D01*
X116169D01*
X115644Y73188D01*
Y72664D01*
X116169Y72139D01*
X117218D01*
X117743Y71614D01*
Y71089D01*
X117218Y70565D01*
X116169D01*
X115644Y71089D01*
X120891Y73713D02*
X118792D01*
Y72139D01*
X119842Y72664D01*
X120367D01*
X120891Y72139D01*
Y71089D01*
X120367Y70565D01*
X119317D01*
X118792Y71089D01*
X322500Y230700D02*
Y233849D01*
X324074D01*
X324599Y233324D01*
Y232274D01*
X324074Y231750D01*
X322500D01*
X323550D02*
X324599Y230700D01*
X327748D02*
X325649D01*
X327748Y232799D01*
Y233324D01*
X327223Y233849D01*
X326173D01*
X325649Y233324D01*
X328797Y231225D02*
X329322Y230700D01*
X330371D01*
X330896Y231225D01*
Y233324D01*
X330371Y233849D01*
X329322D01*
X328797Y233324D01*
Y232799D01*
X329322Y232274D01*
X330896D01*
X321676Y195789D02*
Y198938D01*
X323250D01*
X323775Y198413D01*
Y197363D01*
X323250Y196838D01*
X321676D01*
X322725D02*
X323775Y195789D01*
X326923D02*
X324824D01*
X326923Y197888D01*
Y198413D01*
X326398Y198938D01*
X325349D01*
X324824Y198413D01*
X327973D02*
X328498Y198938D01*
X329547D01*
X330072Y198413D01*
Y197888D01*
X329547Y197363D01*
X330072Y196838D01*
Y196314D01*
X329547Y195789D01*
X328498D01*
X327973Y196314D01*
Y196838D01*
X328498Y197363D01*
X327973Y197888D01*
Y198413D01*
X328498Y197363D02*
X329547D01*
X394488Y468898D02*
Y472046D01*
X396062D01*
X396587Y471522D01*
Y470472D01*
X396062Y469947D01*
X394488D01*
X395538D02*
X396587Y468898D01*
X399736D02*
X397637D01*
X399736Y470997D01*
Y471522D01*
X399211Y472046D01*
X398162D01*
X397637Y471522D01*
X402884Y472046D02*
X400785D01*
Y470472D01*
X401835Y470997D01*
X402360D01*
X402884Y470472D01*
Y469422D01*
X402360Y468898D01*
X401310D01*
X400785Y469422D01*
X238583Y469361D02*
Y472509D01*
X240157D01*
X240682Y471984D01*
Y470935D01*
X240157Y470410D01*
X238583D01*
X239632D02*
X240682Y469361D01*
X241731D02*
X242781D01*
X242256D01*
Y472509D01*
X241731Y471984D01*
X245929Y469361D02*
Y472509D01*
X244355Y470935D01*
X246454D01*
X279528Y468967D02*
Y472116D01*
X281102D01*
X281627Y471591D01*
Y470541D01*
X281102Y470016D01*
X279528D01*
X280577D02*
X281627Y468967D01*
X284775D02*
X282676D01*
X284775Y471066D01*
Y471591D01*
X284250Y472116D01*
X283201D01*
X282676Y471591D01*
X285825Y468967D02*
X286874D01*
X286350D01*
Y472116D01*
X285825Y471591D01*
X371800Y116200D02*
Y119349D01*
X373374D01*
X373899Y118824D01*
Y117774D01*
X373374Y117250D01*
X371800D01*
X372849D02*
X373899Y116200D01*
X377048D02*
X374949D01*
X377048Y118299D01*
Y118824D01*
X376523Y119349D01*
X375473D01*
X374949Y118824D01*
X379672Y116200D02*
Y119349D01*
X378097Y117774D01*
X380196D01*
X392800Y122549D02*
Y119925D01*
X393325Y119400D01*
X394374D01*
X394899Y119925D01*
Y122549D01*
X395949Y122024D02*
X396473Y122549D01*
X397523D01*
X398048Y122024D01*
Y121499D01*
X397523Y120974D01*
X396998D01*
X397523D01*
X398048Y120449D01*
Y119925D01*
X397523Y119400D01*
X396473D01*
X395949Y119925D01*
X318842Y173719D02*
Y170216D01*
X317090D01*
X316507Y170800D01*
Y171967D01*
X317090Y172551D01*
X318842D01*
X317674D02*
X316507Y173719D01*
X313004D02*
X315339D01*
X313004Y171384D01*
Y170800D01*
X313587Y170216D01*
X314755D01*
X315339Y170800D01*
X311836D02*
X311252Y170216D01*
X310085D01*
X309501Y170800D01*
Y173135D01*
X310085Y173719D01*
X311252D01*
X311836Y173135D01*
Y170800D01*
X430400Y135000D02*
Y138149D01*
X431974D01*
X432499Y137624D01*
Y136574D01*
X431974Y136049D01*
X430400D01*
X431450D02*
X432499Y135000D01*
X433549D02*
X434598D01*
X434073D01*
Y138149D01*
X433549Y137624D01*
X436172Y135525D02*
X436697Y135000D01*
X437747D01*
X438272Y135525D01*
Y137624D01*
X437747Y138149D01*
X436697D01*
X436172Y137624D01*
Y137099D01*
X436697Y136574D01*
X438272D01*
X206599Y293483D02*
X203451D01*
Y295058D01*
X203975Y295583D01*
X205025D01*
X205550Y295058D01*
Y293483D01*
Y294533D02*
X206599Y295583D01*
Y296632D02*
Y297682D01*
Y297157D01*
X203451D01*
X203975Y296632D01*
X206599Y301355D02*
Y299256D01*
X204500Y301355D01*
X203975D01*
X203451Y300830D01*
Y299781D01*
X203975Y299256D01*
X69799Y423849D02*
X67700D01*
Y420700D01*
X69799D01*
X67700Y422274D02*
X68749D01*
X72948Y423324D02*
X72423Y423849D01*
X71373D01*
X70849Y423324D01*
Y422799D01*
X71373Y422274D01*
X72423D01*
X72948Y421749D01*
Y421225D01*
X72423Y420700D01*
X71373D01*
X70849Y421225D01*
X73997Y423849D02*
Y420700D01*
X75572D01*
X76096Y421225D01*
Y423324D01*
X75572Y423849D01*
X73997D01*
X77146Y420700D02*
X78195D01*
X77671D01*
Y423849D01*
X77146Y423324D01*
X153399Y135024D02*
X152874Y135549D01*
X151825D01*
X151300Y135024D01*
Y132925D01*
X151825Y132400D01*
X152874D01*
X153399Y132925D01*
X156548Y135549D02*
X155498Y135024D01*
X154449Y133974D01*
Y132925D01*
X154973Y132400D01*
X156023D01*
X156548Y132925D01*
Y133449D01*
X156023Y133974D01*
X154449D01*
X157597Y135549D02*
X159696D01*
Y135024D01*
X157597Y132925D01*
Y132400D01*
X290551Y375590D02*
Y372966D01*
X291076Y372441D01*
X292126D01*
X292650Y372966D01*
Y375590D01*
X293700Y375065D02*
X294225Y375590D01*
X295274D01*
X295799Y375065D01*
Y374540D01*
X295274Y374015D01*
X295799Y373491D01*
Y372966D01*
X295274Y372441D01*
X294225D01*
X293700Y372966D01*
Y373491D01*
X294225Y374015D01*
X293700Y374540D01*
Y375065D01*
X294225Y374015D02*
X295274D01*
X440946Y350524D02*
Y349475D01*
Y349999D01*
X443570D01*
X444095Y349475D01*
Y348950D01*
X443570Y348425D01*
X444095Y353148D02*
X440946D01*
X442520Y351574D01*
Y353673D01*
X166799Y330824D02*
X166274Y331349D01*
X165225D01*
X164700Y330824D01*
Y328725D01*
X165225Y328200D01*
X166274D01*
X166799Y328725D01*
X167849Y331349D02*
Y328200D01*
X169423D01*
X169948Y328725D01*
Y330824D01*
X169423Y331349D01*
X167849D01*
X170997Y330824D02*
X171522Y331349D01*
X172572D01*
X173096Y330824D01*
Y330299D01*
X172572Y329774D01*
X172047D01*
X172572D01*
X173096Y329250D01*
Y328725D01*
X172572Y328200D01*
X171522D01*
X170997Y328725D01*
X328200Y243549D02*
X329400Y242049D01*
Y240400D01*
X330599Y243549D02*
X329400Y242049D01*
X331154Y242799D02*
Y242949D01*
X331304Y243249D01*
X331454Y243399D01*
X331754Y243549D01*
X332354D01*
X332653Y243399D01*
X332803Y243249D01*
X332953Y242949D01*
Y242649D01*
X332803Y242349D01*
X332504Y241899D01*
X331004Y240400D01*
X333103D01*
X92145Y195395D02*
Y193146D01*
X92295Y192696D01*
X92595Y192396D01*
X93045Y192246D01*
X93344D01*
X93794Y192396D01*
X94094Y192696D01*
X94244Y193146D01*
Y195395D01*
X95414D02*
X97063D01*
X96163Y194196D01*
X96613D01*
X96913Y194046D01*
X97063Y193896D01*
X97213Y193446D01*
Y193146D01*
X97063Y192696D01*
X96763Y192396D01*
X96314Y192246D01*
X95864D01*
X95414Y192396D01*
X95264Y192546D01*
X95114Y192846D01*
X98818Y195395D02*
X98368Y195246D01*
X98068Y194796D01*
X97918Y194046D01*
Y193596D01*
X98068Y192846D01*
X98368Y192396D01*
X98818Y192246D01*
X99117D01*
X99567Y192396D01*
X99867Y192846D01*
X100017Y193596D01*
Y194046D01*
X99867Y194796D01*
X99567Y195246D01*
X99117Y195395D01*
X98818D01*
X218500Y15449D02*
Y13200D01*
X218650Y12750D01*
X218950Y12450D01*
X219400Y12300D01*
X219700D01*
X220149Y12450D01*
X220449Y12750D01*
X220599Y13200D01*
Y15449D01*
X221619Y14699D02*
Y14849D01*
X221769Y15149D01*
X221919Y15299D01*
X222219Y15449D01*
X222818D01*
X223118Y15299D01*
X223268Y15149D01*
X223418Y14849D01*
Y14549D01*
X223268Y14249D01*
X222969Y13800D01*
X221469Y12300D01*
X223568D01*
X226072Y14999D02*
X225922Y15299D01*
X225473Y15449D01*
X225173D01*
X224723Y15299D01*
X224423Y14849D01*
X224273Y14099D01*
Y13350D01*
X224423Y12750D01*
X224723Y12450D01*
X225173Y12300D01*
X225323D01*
X225773Y12450D01*
X226072Y12750D01*
X226222Y13200D01*
Y13350D01*
X226072Y13800D01*
X225773Y14099D01*
X225323Y14249D01*
X225173D01*
X224723Y14099D01*
X224423Y13800D01*
X224273Y13350D01*
X218400Y76549D02*
Y74300D01*
X218550Y73850D01*
X218850Y73550D01*
X219300Y73400D01*
X219600D01*
X220049Y73550D01*
X220349Y73850D01*
X220499Y74300D01*
Y76549D01*
X221519Y75799D02*
Y75949D01*
X221669Y76249D01*
X221819Y76399D01*
X222119Y76549D01*
X222719D01*
X223018Y76399D01*
X223168Y76249D01*
X223318Y75949D01*
Y75649D01*
X223168Y75349D01*
X222868Y74900D01*
X221369Y73400D01*
X223468D01*
X225972Y76549D02*
X224473D01*
X224323Y75199D01*
X224473Y75349D01*
X224923Y75499D01*
X225373D01*
X225822Y75349D01*
X226122Y75049D01*
X226272Y74600D01*
Y74300D01*
X226122Y73850D01*
X225822Y73550D01*
X225373Y73400D01*
X224923D01*
X224473Y73550D01*
X224323Y73700D01*
X224173Y74000D01*
X86300Y129249D02*
Y127000D01*
X86450Y126550D01*
X86750Y126250D01*
X87200Y126100D01*
X87500D01*
X87949Y126250D01*
X88249Y126550D01*
X88399Y127000D01*
Y129249D01*
X89419Y128499D02*
Y128649D01*
X89569Y128949D01*
X89719Y129099D01*
X90019Y129249D01*
X90618D01*
X90918Y129099D01*
X91068Y128949D01*
X91218Y128649D01*
Y128349D01*
X91068Y128049D01*
X90768Y127600D01*
X89269Y126100D01*
X91368D01*
X92223Y128499D02*
Y128649D01*
X92373Y128949D01*
X92523Y129099D01*
X92823Y129249D01*
X93423D01*
X93722Y129099D01*
X93872Y128949D01*
X94022Y128649D01*
Y128349D01*
X93872Y128049D01*
X93572Y127600D01*
X92073Y126100D01*
X94172D01*
X389800Y81649D02*
Y79400D01*
X389950Y78950D01*
X390250Y78650D01*
X390700Y78500D01*
X391000D01*
X391449Y78650D01*
X391749Y78950D01*
X391899Y79400D01*
Y81649D01*
X392769Y81049D02*
X393069Y81199D01*
X393519Y81649D01*
Y78500D01*
X395078Y81049D02*
X395378Y81199D01*
X395828Y81649D01*
Y78500D01*
X231571Y374802D02*
Y372178D01*
X232096Y371654D01*
X233145D01*
X233670Y372178D01*
Y374802D01*
X234719Y371654D02*
X235769D01*
X235244D01*
Y374802D01*
X234719Y374277D01*
X237343D02*
X237868Y374802D01*
X238918D01*
X239442Y374277D01*
Y372178D01*
X238918Y371654D01*
X237868D01*
X237343Y372178D01*
Y374277D01*
X34300Y371949D02*
Y369700D01*
X34450Y369250D01*
X34750Y368950D01*
X35200Y368800D01*
X35500D01*
X35949Y368950D01*
X36249Y369250D01*
X36399Y369700D01*
Y371949D01*
X39068Y371499D02*
X38918Y371799D01*
X38469Y371949D01*
X38169D01*
X37719Y371799D01*
X37419Y371349D01*
X37269Y370599D01*
Y369850D01*
X37419Y369250D01*
X37719Y368950D01*
X38169Y368800D01*
X38319D01*
X38769Y368950D01*
X39068Y369250D01*
X39218Y369700D01*
Y369850D01*
X39068Y370300D01*
X38769Y370599D01*
X38319Y370749D01*
X38169D01*
X37719Y370599D01*
X37419Y370300D01*
X37269Y369850D01*
X205800Y212749D02*
Y210125D01*
X206325Y209600D01*
X207374D01*
X207899Y210125D01*
Y212749D01*
X211048D02*
X208949D01*
Y211174D01*
X209998Y211699D01*
X210523D01*
X211048Y211174D01*
Y210125D01*
X210523Y209600D01*
X209473D01*
X208949Y210125D01*
X243701Y294094D02*
Y291845D01*
X243851Y291395D01*
X244151Y291095D01*
X244601Y290945D01*
X244900D01*
X245350Y291095D01*
X245650Y291395D01*
X245800Y291845D01*
Y294094D01*
X248169D02*
X246670Y291995D01*
X248919D01*
X248169Y294094D02*
Y290945D01*
X220600Y135649D02*
Y133025D01*
X221125Y132500D01*
X222174D01*
X222699Y133025D01*
Y135649D01*
X223749Y132500D02*
X224798D01*
X224273D01*
Y135649D01*
X223749Y135124D01*
X342954Y102988D02*
Y99839D01*
Y102988D02*
X344304D01*
X344754Y102838D01*
X344904Y102688D01*
X345054Y102389D01*
Y102089D01*
X344904Y101789D01*
X344754Y101639D01*
X344304Y101489D01*
X342954D01*
X344004D02*
X345054Y99839D01*
X347708Y101939D02*
X347558Y101489D01*
X347258Y101189D01*
X346808Y101039D01*
X346658D01*
X346208Y101189D01*
X345908Y101489D01*
X345758Y101939D01*
Y102089D01*
X345908Y102539D01*
X346208Y102838D01*
X346658Y102988D01*
X346808D01*
X347258Y102838D01*
X347558Y102539D01*
X347708Y101939D01*
Y101189D01*
X347558Y100439D01*
X347258Y99989D01*
X346808Y99839D01*
X346508D01*
X346058Y99989D01*
X345908Y100289D01*
X349462Y102988D02*
X349012Y102838D01*
X348712Y102389D01*
X348563Y101639D01*
Y101189D01*
X348712Y100439D01*
X349012Y99989D01*
X349462Y99839D01*
X349762D01*
X350212Y99989D01*
X350512Y100439D01*
X350662Y101189D01*
Y101639D01*
X350512Y102389D01*
X350212Y102838D01*
X349762Y102988D01*
X349462D01*
X90800Y167449D02*
Y164300D01*
Y167449D02*
X92150D01*
X92599Y167299D01*
X92749Y167149D01*
X92899Y166849D01*
Y166549D01*
X92749Y166249D01*
X92599Y166099D01*
X92150Y165949D01*
X90800D01*
X91850D02*
X92899Y164300D01*
X95403Y167449D02*
X93904D01*
X93754Y166099D01*
X93904Y166249D01*
X94354Y166399D01*
X94804D01*
X95253Y166249D01*
X95553Y165949D01*
X95703Y165500D01*
Y165200D01*
X95553Y164750D01*
X95253Y164450D01*
X94804Y164300D01*
X94354D01*
X93904Y164450D01*
X93754Y164600D01*
X93604Y164900D01*
X98357Y166399D02*
X98207Y165949D01*
X97908Y165649D01*
X97458Y165500D01*
X97308D01*
X96858Y165649D01*
X96558Y165949D01*
X96408Y166399D01*
Y166549D01*
X96558Y166999D01*
X96858Y167299D01*
X97308Y167449D01*
X97458D01*
X97908Y167299D01*
X98207Y166999D01*
X98357Y166399D01*
Y165649D01*
X98207Y164900D01*
X97908Y164450D01*
X97458Y164300D01*
X97158D01*
X96708Y164450D01*
X96558Y164750D01*
X76700Y167149D02*
Y164000D01*
Y167149D02*
X78049D01*
X78499Y166999D01*
X78649Y166849D01*
X78799Y166549D01*
Y166249D01*
X78649Y165949D01*
X78499Y165799D01*
X78049Y165649D01*
X76700D01*
X77750D02*
X78799Y164000D01*
X81303Y167149D02*
X79804D01*
X79654Y165799D01*
X79804Y165949D01*
X80254Y166099D01*
X80704D01*
X81154Y165949D01*
X81453Y165649D01*
X81603Y165200D01*
Y164900D01*
X81453Y164450D01*
X81154Y164150D01*
X80704Y164000D01*
X80254D01*
X79804Y164150D01*
X79654Y164300D01*
X79504Y164600D01*
X83058Y167149D02*
X82608Y166999D01*
X82458Y166699D01*
Y166399D01*
X82608Y166099D01*
X82908Y165949D01*
X83508Y165799D01*
X83957Y165649D01*
X84257Y165349D01*
X84407Y165050D01*
Y164600D01*
X84257Y164300D01*
X84108Y164150D01*
X83658Y164000D01*
X83058D01*
X82608Y164150D01*
X82458Y164300D01*
X82308Y164600D01*
Y165050D01*
X82458Y165349D01*
X82758Y165649D01*
X83208Y165799D01*
X83808Y165949D01*
X84108Y166099D01*
X84257Y166399D01*
Y166699D01*
X84108Y166999D01*
X83658Y167149D01*
X83058D01*
X65600Y114449D02*
Y111300D01*
Y114449D02*
X66949D01*
X67399Y114299D01*
X67549Y114149D01*
X67699Y113849D01*
Y113549D01*
X67549Y113249D01*
X67399Y113099D01*
X66949Y112949D01*
X65600D01*
X66650D02*
X67699Y111300D01*
X70203Y114449D02*
X68704D01*
X68554Y113099D01*
X68704Y113249D01*
X69154Y113399D01*
X69604D01*
X70053Y113249D01*
X70353Y112949D01*
X70503Y112500D01*
Y112200D01*
X70353Y111750D01*
X70053Y111450D01*
X69604Y111300D01*
X69154D01*
X68704Y111450D01*
X68554Y111600D01*
X68404Y111900D01*
X73307Y114449D02*
X71808Y111300D01*
X71208Y114449D02*
X73307D01*
X207100Y280849D02*
Y277700D01*
Y280849D02*
X208450D01*
X208899Y280699D01*
X209049Y280549D01*
X209199Y280249D01*
Y279949D01*
X209049Y279649D01*
X208899Y279499D01*
X208450Y279349D01*
X207100D01*
X208150D02*
X209199Y277700D01*
X211403Y280849D02*
X209904Y278750D01*
X212153D01*
X211403Y280849D02*
Y277700D01*
X214657Y279799D02*
X214508Y279349D01*
X214208Y279049D01*
X213758Y278900D01*
X213608D01*
X213158Y279049D01*
X212858Y279349D01*
X212708Y279799D01*
Y279949D01*
X212858Y280399D01*
X213158Y280699D01*
X213608Y280849D01*
X213758D01*
X214208Y280699D01*
X214508Y280399D01*
X214657Y279799D01*
Y279049D01*
X214508Y278300D01*
X214208Y277850D01*
X213758Y277700D01*
X213458D01*
X213008Y277850D01*
X212858Y278150D01*
X76402Y225527D02*
Y222378D01*
Y225527D02*
X77752D01*
X78202Y225377D01*
X78352Y225227D01*
X78501Y224927D01*
Y224627D01*
X78352Y224327D01*
X78202Y224177D01*
X77752Y224027D01*
X76402D01*
X77452D02*
X78501Y222378D01*
X79206Y224927D02*
X79506Y225077D01*
X79956Y225527D01*
Y222378D01*
X82265Y225527D02*
X81815Y225377D01*
X81665Y225077D01*
Y224777D01*
X81815Y224477D01*
X82115Y224327D01*
X82715Y224177D01*
X83165Y224027D01*
X83465Y223727D01*
X83615Y223427D01*
Y222977D01*
X83465Y222678D01*
X83315Y222528D01*
X82865Y222378D01*
X82265D01*
X81815Y222528D01*
X81665Y222678D01*
X81516Y222977D01*
Y223427D01*
X81665Y223727D01*
X81965Y224027D01*
X82415Y224177D01*
X83015Y224327D01*
X83315Y224477D01*
X83465Y224777D01*
Y225077D01*
X83315Y225377D01*
X82865Y225527D01*
X82265D01*
X117741Y225133D02*
Y221984D01*
Y225133D02*
X119090D01*
X119540Y224983D01*
X119690Y224833D01*
X119840Y224533D01*
Y224233D01*
X119690Y223933D01*
X119540Y223783D01*
X119090Y223633D01*
X117741D01*
X118790D02*
X119840Y221984D01*
X120545Y224533D02*
X120845Y224683D01*
X121295Y225133D01*
Y221984D01*
X124953Y225133D02*
X123454Y221984D01*
X122854Y225133D02*
X124953D01*
X61400Y29549D02*
Y26400D01*
Y29549D02*
X62749D01*
X63199Y29399D01*
X63349Y29249D01*
X63499Y28949D01*
Y28649D01*
X63349Y28349D01*
X63199Y28199D01*
X62749Y28049D01*
X61400D01*
X62450D02*
X63499Y26400D01*
X64204Y28949D02*
X64504Y29099D01*
X64954Y29549D01*
Y26400D01*
X68313Y29549D02*
X66813D01*
X66663Y28199D01*
X66813Y28349D01*
X67263Y28499D01*
X67713D01*
X68163Y28349D01*
X68463Y28049D01*
X68613Y27600D01*
Y27300D01*
X68463Y26850D01*
X68163Y26550D01*
X67713Y26400D01*
X67263D01*
X66813Y26550D01*
X66663Y26700D01*
X66513Y27000D01*
X243800Y204949D02*
Y201800D01*
Y204949D02*
X245149D01*
X245599Y204799D01*
X245749Y204649D01*
X245899Y204349D01*
Y204049D01*
X245749Y203749D01*
X245599Y203599D01*
X245149Y203449D01*
X243800D01*
X244850D02*
X245899Y201800D01*
X246604Y204349D02*
X246904Y204499D01*
X247354Y204949D01*
Y201800D01*
X249813Y204949D02*
X249363Y204799D01*
X249063Y204349D01*
X248913Y203599D01*
Y203150D01*
X249063Y202400D01*
X249363Y201950D01*
X249813Y201800D01*
X250113D01*
X250563Y201950D01*
X250863Y202400D01*
X251013Y203150D01*
Y203599D01*
X250863Y204349D01*
X250563Y204799D01*
X250113Y204949D01*
X249813D01*
X61200Y344049D02*
Y340900D01*
Y344049D02*
X62550D01*
X62999Y343899D01*
X63149Y343749D01*
X63299Y343449D01*
Y343149D01*
X63149Y342849D01*
X62999Y342699D01*
X62550Y342549D01*
X61200D01*
X62250D02*
X63299Y340900D01*
X64754Y344049D02*
X64304Y343899D01*
X64154Y343599D01*
Y343299D01*
X64304Y342999D01*
X64604Y342849D01*
X65204Y342699D01*
X65654Y342549D01*
X65953Y342249D01*
X66103Y341950D01*
Y341500D01*
X65953Y341200D01*
X65803Y341050D01*
X65354Y340900D01*
X64754D01*
X64304Y341050D01*
X64154Y341200D01*
X64004Y341500D01*
Y341950D01*
X64154Y342249D01*
X64454Y342549D01*
X64904Y342699D01*
X65504Y342849D01*
X65803Y342999D01*
X65953Y343299D01*
Y343599D01*
X65803Y343899D01*
X65354Y344049D01*
X64754D01*
X51885Y343973D02*
Y340824D01*
Y343973D02*
X53234D01*
X53684Y343823D01*
X53834Y343673D01*
X53984Y343374D01*
Y343074D01*
X53834Y342774D01*
X53684Y342624D01*
X53234Y342474D01*
X51885D01*
X52934D02*
X53984Y340824D01*
X56788Y343973D02*
X55288Y340824D01*
X54689Y343973D02*
X56788D01*
X385564Y315092D02*
Y317191D01*
X385039Y317716D01*
X383989D01*
X383465Y317191D01*
Y315092D01*
X383989Y314567D01*
X385039D01*
X384514Y315616D02*
X385564Y314567D01*
X385039D02*
X385564Y315092D01*
X386613Y317191D02*
X387138Y317716D01*
X388188D01*
X388712Y317191D01*
Y316666D01*
X388188Y316141D01*
X387663D01*
X388188D01*
X388712Y315616D01*
Y315092D01*
X388188Y314567D01*
X387138D01*
X386613Y315092D01*
X143600Y15200D02*
X144949D01*
X145399Y15349D01*
X145549Y15499D01*
X145699Y15799D01*
Y16249D01*
X145549Y16549D01*
X145399Y16699D01*
X144949Y16849D01*
X143600D01*
Y13700D01*
X147304Y16849D02*
X147004Y16699D01*
X146704Y16399D01*
X146554Y16099D01*
X146404Y15649D01*
Y14900D01*
X146554Y14450D01*
X146704Y14150D01*
X147004Y13850D01*
X147304Y13700D01*
X147904D01*
X148203Y13850D01*
X148503Y14150D01*
X148653Y14450D01*
X148803Y14900D01*
Y15649D01*
X148653Y16099D01*
X148503Y16399D01*
X148203Y16699D01*
X147904Y16849D01*
X147304D01*
X149538D02*
X150288Y13700D01*
X151038Y16849D02*
X150288Y13700D01*
X151038Y16849D02*
X151787Y13700D01*
X152537Y16849D02*
X151787Y13700D01*
X430520Y14257D02*
Y17406D01*
X431569Y16356D01*
X432619Y17406D01*
Y14257D01*
X434193Y16356D02*
X435243D01*
X435767Y15832D01*
Y14257D01*
X434193D01*
X433668Y14782D01*
X434193Y15307D01*
X435767D01*
X436817Y16356D02*
Y14257D01*
Y15307D01*
X437342Y15832D01*
X437866Y16356D01*
X438391D01*
X439965Y14257D02*
Y17406D01*
Y15307D02*
X441540Y16356D01*
X439965Y15307D02*
X441540Y14257D01*
X445213D02*
X443114D01*
X445213Y16356D01*
Y16881D01*
X444688Y17406D01*
X443639D01*
X443114Y16881D01*
X22441Y392913D02*
Y396062D01*
X23491Y395012D01*
X24540Y396062D01*
Y392913D01*
X26114Y395012D02*
X27164D01*
X27689Y394488D01*
Y392913D01*
X26114D01*
X25589Y393438D01*
X26114Y393963D01*
X27689D01*
X28738Y395012D02*
Y392913D01*
Y393963D01*
X29263Y394488D01*
X29788Y395012D01*
X30312D01*
X31887Y392913D02*
Y396062D01*
Y393963D02*
X33461Y395012D01*
X31887Y393963D02*
X33461Y392913D01*
X35035D02*
X36085D01*
X35560D01*
Y396062D01*
X35035Y395537D01*
X133484Y199726D02*
Y196577D01*
X135283D01*
X135628Y199126D02*
X135928Y199276D01*
X136378Y199726D01*
Y196577D01*
X137937Y199126D02*
X138237Y199276D01*
X138687Y199726D01*
Y196577D01*
X91250Y117805D02*
Y114656D01*
X93050D01*
X94144Y117805D02*
X93695Y117655D01*
X93545Y117355D01*
Y117055D01*
X93695Y116755D01*
X93994Y116605D01*
X94594Y116455D01*
X95044Y116305D01*
X95344Y116005D01*
X95494Y115706D01*
Y115256D01*
X95344Y114956D01*
X95194Y114806D01*
X94744Y114656D01*
X94144D01*
X93695Y114806D01*
X93545Y114956D01*
X93395Y115256D01*
Y115706D01*
X93545Y116005D01*
X93844Y116305D01*
X94294Y116455D01*
X94894Y116605D01*
X95194Y116755D01*
X95344Y117055D01*
Y117355D01*
X95194Y117655D01*
X94744Y117805D01*
X94144D01*
X440351Y313899D02*
Y312849D01*
Y313374D01*
X442975D01*
X443500Y312849D01*
Y312325D01*
X442975Y311800D01*
X443500Y314949D02*
Y315998D01*
Y315473D01*
X440351D01*
X440876Y314949D01*
X281447Y93152D02*
X279348D01*
Y91578D01*
X280398D01*
X279348D01*
Y90004D01*
X282497Y93152D02*
Y90004D01*
X284071D01*
X284596Y90529D01*
Y91053D01*
X284071Y91578D01*
X282497D01*
X284071D01*
X284596Y92103D01*
Y92628D01*
X284071Y93152D01*
X282497D01*
X285645Y92628D02*
X286170Y93152D01*
X287220D01*
X287744Y92628D01*
Y92103D01*
X287220Y91578D01*
X286695D01*
X287220D01*
X287744Y91053D01*
Y90529D01*
X287220Y90004D01*
X286170D01*
X285645Y90529D01*
X276225Y21268D02*
X274127D01*
Y19693D01*
X275176D01*
X274127D01*
Y18119D01*
X277275Y21268D02*
Y18119D01*
X278849D01*
X279374Y18644D01*
Y19168D01*
X278849Y19693D01*
X277275D01*
X278849D01*
X279374Y20218D01*
Y20743D01*
X278849Y21268D01*
X277275D01*
X282523Y18119D02*
X280424D01*
X282523Y20218D01*
Y20743D01*
X281998Y21268D01*
X280948D01*
X280424Y20743D01*
X13128Y243122D02*
X11029D01*
Y241548D01*
X12078D01*
X11029D01*
Y239974D01*
X14178D02*
X15227D01*
X14702D01*
Y243122D01*
X14178Y242598D01*
X72603Y181525D02*
Y178376D01*
Y181525D02*
X73653D01*
X74103Y181375D01*
X74403Y181075D01*
X74553Y180775D01*
X74703Y180325D01*
Y179575D01*
X74553Y179126D01*
X74403Y178826D01*
X74103Y178526D01*
X73653Y178376D01*
X72603D01*
X75558Y180775D02*
Y180925D01*
X75708Y181225D01*
X75857Y181375D01*
X76157Y181525D01*
X76757D01*
X77057Y181375D01*
X77207Y181225D01*
X77357Y180925D01*
Y180625D01*
X77207Y180325D01*
X76907Y179875D01*
X75408Y178376D01*
X77507D01*
X80011Y181075D02*
X79861Y181375D01*
X79411Y181525D01*
X79111D01*
X78662Y181375D01*
X78362Y180925D01*
X78212Y180175D01*
Y179426D01*
X78362Y178826D01*
X78662Y178526D01*
X79111Y178376D01*
X79261D01*
X79711Y178526D01*
X80011Y178826D01*
X80161Y179276D01*
Y179426D01*
X80011Y179875D01*
X79711Y180175D01*
X79261Y180325D01*
X79111D01*
X78662Y180175D01*
X78362Y179875D01*
X78212Y179426D01*
X126000Y145449D02*
Y142300D01*
Y145449D02*
X127050D01*
X127499Y145299D01*
X127799Y144999D01*
X127949Y144699D01*
X128099Y144249D01*
Y143500D01*
X127949Y143050D01*
X127799Y142750D01*
X127499Y142450D01*
X127050Y142300D01*
X126000D01*
X130753Y144399D02*
X130603Y143949D01*
X130304Y143649D01*
X129854Y143500D01*
X129704D01*
X129254Y143649D01*
X128954Y143949D01*
X128804Y144399D01*
Y144549D01*
X128954Y144999D01*
X129254Y145299D01*
X129704Y145449D01*
X129854D01*
X130304Y145299D01*
X130603Y144999D01*
X130753Y144399D01*
Y143649D01*
X130603Y142900D01*
X130304Y142450D01*
X129854Y142300D01*
X129554D01*
X129104Y142450D01*
X128954Y142750D01*
X76800Y29849D02*
Y26700D01*
Y29849D02*
X77850D01*
X78299Y29699D01*
X78599Y29399D01*
X78749Y29099D01*
X78899Y28649D01*
Y27900D01*
X78749Y27450D01*
X78599Y27150D01*
X78299Y26850D01*
X77850Y26700D01*
X76800D01*
X79754Y29099D02*
Y29249D01*
X79904Y29549D01*
X80054Y29699D01*
X80354Y29849D01*
X80954D01*
X81253Y29699D01*
X81403Y29549D01*
X81553Y29249D01*
Y28949D01*
X81403Y28649D01*
X81103Y28199D01*
X79604Y26700D01*
X81703D01*
X217749Y213399D02*
X217599Y213699D01*
X217299Y213999D01*
X217000Y214149D01*
X216400D01*
X216100Y213999D01*
X215800Y213699D01*
X215650Y213399D01*
X215500Y212949D01*
Y212200D01*
X215650Y211750D01*
X215800Y211450D01*
X216100Y211150D01*
X216400Y211000D01*
X217000D01*
X217299Y211150D01*
X217599Y211450D01*
X217749Y211750D01*
X219534Y214149D02*
X219234Y213999D01*
X218934Y213699D01*
X218784Y213399D01*
X218634Y212949D01*
Y212200D01*
X218784Y211750D01*
X218934Y211450D01*
X219234Y211150D01*
X219534Y211000D01*
X220133D01*
X220433Y211150D01*
X220733Y211450D01*
X220883Y211750D01*
X221033Y212200D01*
Y212949D01*
X220883Y213399D01*
X220733Y213699D01*
X220433Y213999D01*
X220133Y214149D01*
X219534D01*
X221768D02*
Y211000D01*
Y214149D02*
X223867Y211000D01*
Y214149D02*
Y211000D01*
X224887Y213399D02*
Y213549D01*
X225037Y213849D01*
X225187Y213999D01*
X225487Y214149D01*
X226086D01*
X226386Y213999D01*
X226536Y213849D01*
X226686Y213549D01*
Y213249D01*
X226536Y212949D01*
X226236Y212499D01*
X224737Y211000D01*
X226836D01*
X185449Y424799D02*
X185299Y425099D01*
X184999Y425399D01*
X184699Y425549D01*
X184100D01*
X183800Y425399D01*
X183500Y425099D01*
X183350Y424799D01*
X183200Y424349D01*
Y423600D01*
X183350Y423150D01*
X183500Y422850D01*
X183800Y422550D01*
X184100Y422400D01*
X184699D01*
X184999Y422550D01*
X185299Y422850D01*
X185449Y423150D01*
X186334Y425549D02*
Y422400D01*
Y425549D02*
X187384D01*
X187833Y425399D01*
X188133Y425099D01*
X188283Y424799D01*
X188433Y424349D01*
Y423600D01*
X188283Y423150D01*
X188133Y422850D01*
X187833Y422550D01*
X187384Y422400D01*
X186334D01*
X191087Y424499D02*
X190937Y424049D01*
X190638Y423749D01*
X190188Y423600D01*
X190038D01*
X189588Y423749D01*
X189288Y424049D01*
X189138Y424499D01*
Y424649D01*
X189288Y425099D01*
X189588Y425399D01*
X190038Y425549D01*
X190188D01*
X190638Y425399D01*
X190937Y425099D01*
X191087Y424499D01*
Y423749D01*
X190937Y423000D01*
X190638Y422550D01*
X190188Y422400D01*
X189888D01*
X189438Y422550D01*
X189288Y422850D01*
X125001Y248049D02*
X124701Y247899D01*
X124401Y247599D01*
X124251Y247300D01*
Y246700D01*
X124401Y246400D01*
X124701Y246100D01*
X125001Y245950D01*
X125451Y245800D01*
X126200D01*
X126650Y245950D01*
X126950Y246100D01*
X127250Y246400D01*
X127400Y246700D01*
Y247300D01*
X127250Y247599D01*
X126950Y247899D01*
X126650Y248049D01*
X124251Y248934D02*
X127400D01*
X124251D02*
Y249984D01*
X124401Y250433D01*
X124701Y250733D01*
X125001Y250883D01*
X125451Y251033D01*
X126200D01*
X126650Y250883D01*
X126950Y250733D01*
X127250Y250433D01*
X127400Y249984D01*
Y248934D01*
X124251Y252488D02*
X124401Y252038D01*
X124701Y251888D01*
X125001D01*
X125301Y252038D01*
X125451Y252338D01*
X125601Y252938D01*
X125751Y253387D01*
X126050Y253687D01*
X126350Y253837D01*
X126800D01*
X127100Y253687D01*
X127250Y253537D01*
X127400Y253087D01*
Y252488D01*
X127250Y252038D01*
X127100Y251888D01*
X126800Y251738D01*
X126350D01*
X126050Y251888D01*
X125751Y252188D01*
X125601Y252638D01*
X125451Y253238D01*
X125301Y253537D01*
X125001Y253687D01*
X124701D01*
X124401Y253537D01*
X124251Y253087D01*
Y252488D01*
X57349Y169499D02*
X57199Y169799D01*
X56899Y170099D01*
X56599Y170249D01*
X56000D01*
X55700Y170099D01*
X55400Y169799D01*
X55250Y169499D01*
X55100Y169049D01*
Y168300D01*
X55250Y167850D01*
X55400Y167550D01*
X55700Y167250D01*
X56000Y167100D01*
X56599D01*
X56899Y167250D01*
X57199Y167550D01*
X57349Y167850D01*
X58234Y170249D02*
Y167100D01*
Y170249D02*
X59284D01*
X59733Y170099D01*
X60033Y169799D01*
X60183Y169499D01*
X60333Y169049D01*
Y168300D01*
X60183Y167850D01*
X60033Y167550D01*
X59733Y167250D01*
X59284Y167100D01*
X58234D01*
X62837Y169799D02*
X62687Y170099D01*
X62238Y170249D01*
X61938D01*
X61488Y170099D01*
X61188Y169649D01*
X61038Y168899D01*
Y168150D01*
X61188Y167550D01*
X61488Y167250D01*
X61938Y167100D01*
X62088D01*
X62537Y167250D01*
X62837Y167550D01*
X62987Y168000D01*
Y168150D01*
X62837Y168599D01*
X62537Y168899D01*
X62088Y169049D01*
X61938D01*
X61488Y168899D01*
X61188Y168599D01*
X61038Y168150D01*
X136749Y138799D02*
X136599Y139099D01*
X136299Y139399D01*
X136000Y139549D01*
X135400D01*
X135100Y139399D01*
X134800Y139099D01*
X134650Y138799D01*
X134500Y138349D01*
Y137600D01*
X134650Y137150D01*
X134800Y136850D01*
X135100Y136550D01*
X135400Y136400D01*
X136000D01*
X136299Y136550D01*
X136599Y136850D01*
X136749Y137150D01*
X137634Y139549D02*
Y136400D01*
Y139549D02*
X138684D01*
X139133Y139399D01*
X139433Y139099D01*
X139583Y138799D01*
X139733Y138349D01*
Y137600D01*
X139583Y137150D01*
X139433Y136850D01*
X139133Y136550D01*
X138684Y136400D01*
X137634D01*
X142237Y139549D02*
X140738D01*
X140588Y138199D01*
X140738Y138349D01*
X141188Y138499D01*
X141638D01*
X142087Y138349D01*
X142387Y138049D01*
X142537Y137600D01*
Y137300D01*
X142387Y136850D01*
X142087Y136550D01*
X141638Y136400D01*
X141188D01*
X140738Y136550D01*
X140588Y136700D01*
X140438Y137000D01*
X398162Y429683D02*
X397637Y430208D01*
X396588D01*
X396063Y429683D01*
Y427584D01*
X396588Y427059D01*
X397637D01*
X398162Y427584D01*
X399212Y430208D02*
Y427059D01*
X400786D01*
X401311Y427584D01*
Y429683D01*
X400786Y430208D01*
X399212D01*
X404459Y427059D02*
X402360D01*
X404459Y429158D01*
Y429683D01*
X403934Y430208D01*
X402885D01*
X402360Y429683D01*
X165599Y272524D02*
X165074Y273049D01*
X164025D01*
X163500Y272524D01*
Y270425D01*
X164025Y269900D01*
X165074D01*
X165599Y270425D01*
X166649Y273049D02*
Y269900D01*
X168223D01*
X168748Y270425D01*
Y272524D01*
X168223Y273049D01*
X166649D01*
X169797Y269900D02*
X170847D01*
X170322D01*
Y273049D01*
X169797Y272524D01*
X65320Y204688D02*
X64796Y204163D01*
Y203113D01*
X65320Y202589D01*
X67419D01*
X67944Y203113D01*
Y204163D01*
X67419Y204688D01*
X67944Y205737D02*
Y206787D01*
Y206262D01*
X64796D01*
X65320Y205737D01*
X67944Y208361D02*
Y209411D01*
Y208886D01*
X64796D01*
X65320Y208361D01*
X67944Y212559D02*
X64796D01*
X66370Y210985D01*
Y213084D01*
X38290Y203488D02*
X37765Y202963D01*
Y201914D01*
X38290Y201389D01*
X40389D01*
X40914Y201914D01*
Y202963D01*
X40389Y203488D01*
X40914Y204538D02*
Y205587D01*
Y205063D01*
X37765D01*
X38290Y204538D01*
X40914Y207162D02*
Y208211D01*
Y207686D01*
X37765D01*
X38290Y207162D01*
Y209785D02*
X37765Y210310D01*
Y211360D01*
X38290Y211884D01*
X38815D01*
X39340Y211360D01*
Y210835D01*
Y211360D01*
X39865Y211884D01*
X40389D01*
X40914Y211360D01*
Y210310D01*
X40389Y209785D01*
X77709Y232666D02*
X77184Y233190D01*
X76134D01*
X75609Y232666D01*
Y230567D01*
X76134Y230042D01*
X77184D01*
X77709Y230567D01*
X78758D02*
X79283Y230042D01*
X80332D01*
X80857Y230567D01*
Y232666D01*
X80332Y233190D01*
X79283D01*
X78758Y232666D01*
Y232141D01*
X79283Y231616D01*
X80857D01*
X81907Y230567D02*
X82431Y230042D01*
X83481D01*
X84006Y230567D01*
Y232666D01*
X83481Y233190D01*
X82431D01*
X81907Y232666D01*
Y232141D01*
X82431Y231616D01*
X84006D01*
X119441Y233453D02*
X118916Y233978D01*
X117867D01*
X117342Y233453D01*
Y231354D01*
X117867Y230829D01*
X118916D01*
X119441Y231354D01*
X120490D02*
X121015Y230829D01*
X122065D01*
X122589Y231354D01*
Y233453D01*
X122065Y233978D01*
X121015D01*
X120490Y233453D01*
Y232928D01*
X121015Y232403D01*
X122589D01*
X123639Y233453D02*
X124164Y233978D01*
X125213D01*
X125738Y233453D01*
Y232928D01*
X125213Y232403D01*
X125738Y231879D01*
Y231354D01*
X125213Y230829D01*
X124164D01*
X123639Y231354D01*
Y231879D01*
X124164Y232403D01*
X123639Y232928D01*
Y233453D01*
X124164Y232403D02*
X125213D01*
X200899Y249724D02*
X200374Y250249D01*
X199325D01*
X198800Y249724D01*
Y247625D01*
X199325Y247100D01*
X200374D01*
X200899Y247625D01*
X201949Y249724D02*
X202473Y250249D01*
X203523D01*
X204048Y249724D01*
Y249199D01*
X203523Y248674D01*
X204048Y248149D01*
Y247625D01*
X203523Y247100D01*
X202473D01*
X201949Y247625D01*
Y248149D01*
X202473Y248674D01*
X201949Y249199D01*
Y249724D01*
X202473Y248674D02*
X203523D01*
X207196Y250249D02*
X205097D01*
Y248674D01*
X206147Y249199D01*
X206672D01*
X207196Y248674D01*
Y247625D01*
X206672Y247100D01*
X205622D01*
X205097Y247625D01*
X254499Y177224D02*
X253974Y177749D01*
X252925D01*
X252400Y177224D01*
Y175125D01*
X252925Y174600D01*
X253974D01*
X254499Y175125D01*
X255549Y177224D02*
X256073Y177749D01*
X257123D01*
X257648Y177224D01*
Y176699D01*
X257123Y176174D01*
X257648Y175649D01*
Y175125D01*
X257123Y174600D01*
X256073D01*
X255549Y175125D01*
Y175649D01*
X256073Y176174D01*
X255549Y176699D01*
Y177224D01*
X256073Y176174D02*
X257123D01*
X258697Y177224D02*
X259222Y177749D01*
X260272D01*
X260796Y177224D01*
Y176699D01*
X260272Y176174D01*
X259747D01*
X260272D01*
X260796Y175649D01*
Y175125D01*
X260272Y174600D01*
X259222D01*
X258697Y175125D01*
X344810Y111687D02*
X344660Y111987D01*
X344360Y112287D01*
X344060Y112437D01*
X343460D01*
X343161Y112287D01*
X342861Y111987D01*
X342711Y111687D01*
X342561Y111238D01*
Y110488D01*
X342711Y110038D01*
X342861Y109738D01*
X343161Y109438D01*
X343460Y109288D01*
X344060D01*
X344360Y109438D01*
X344660Y109738D01*
X344810Y110038D01*
X347794Y112437D02*
X346294Y109288D01*
X345695Y112437D02*
X347794D01*
X349998D02*
X348499Y110338D01*
X350748D01*
X349998Y112437D02*
Y109288D01*
X344810Y94758D02*
X344660Y95058D01*
X344360Y95358D01*
X344060Y95508D01*
X343460D01*
X343161Y95358D01*
X342861Y95058D01*
X342711Y94758D01*
X342561Y94308D01*
Y93559D01*
X342711Y93109D01*
X342861Y92809D01*
X343161Y92509D01*
X343460Y92359D01*
X344060D01*
X344360Y92509D01*
X344660Y92809D01*
X344810Y93109D01*
X347794Y95508D02*
X346294Y92359D01*
X345695Y95508D02*
X347794D01*
X348798D02*
X350448D01*
X349548Y94308D01*
X349998D01*
X350298Y94159D01*
X350448Y94008D01*
X350598Y93559D01*
Y93259D01*
X350448Y92809D01*
X350148Y92509D01*
X349698Y92359D01*
X349248D01*
X348798Y92509D01*
X348649Y92659D01*
X348499Y92959D01*
X115449Y152399D02*
X115299Y152699D01*
X114999Y152999D01*
X114699Y153149D01*
X114100D01*
X113800Y152999D01*
X113500Y152699D01*
X113350Y152399D01*
X113200Y151949D01*
Y151200D01*
X113350Y150750D01*
X113500Y150450D01*
X113800Y150150D01*
X114100Y150000D01*
X114699D01*
X114999Y150150D01*
X115299Y150450D01*
X115449Y150750D01*
X118133Y152699D02*
X117983Y152999D01*
X117534Y153149D01*
X117234D01*
X116784Y152999D01*
X116484Y152549D01*
X116334Y151799D01*
Y151050D01*
X116484Y150450D01*
X116784Y150150D01*
X117234Y150000D01*
X117384D01*
X117833Y150150D01*
X118133Y150450D01*
X118283Y150900D01*
Y151050D01*
X118133Y151499D01*
X117833Y151799D01*
X117384Y151949D01*
X117234D01*
X116784Y151799D01*
X116484Y151499D01*
X116334Y151050D01*
X120772Y152699D02*
X120623Y152999D01*
X120173Y153149D01*
X119873D01*
X119423Y152999D01*
X119123Y152549D01*
X118973Y151799D01*
Y151050D01*
X119123Y150450D01*
X119423Y150150D01*
X119873Y150000D01*
X120023D01*
X120473Y150150D01*
X120772Y150450D01*
X120922Y150900D01*
Y151050D01*
X120772Y151499D01*
X120473Y151799D01*
X120023Y151949D01*
X119873D01*
X119423Y151799D01*
X119123Y151499D01*
X118973Y151050D01*
X33201Y145049D02*
X32901Y144899D01*
X32601Y144599D01*
X32451Y144299D01*
Y143700D01*
X32601Y143400D01*
X32901Y143100D01*
X33201Y142950D01*
X33651Y142800D01*
X34400D01*
X34850Y142950D01*
X35150Y143100D01*
X35450Y143400D01*
X35600Y143700D01*
Y144299D01*
X35450Y144599D01*
X35150Y144899D01*
X34850Y145049D01*
X32901Y147733D02*
X32601Y147583D01*
X32451Y147134D01*
Y146834D01*
X32601Y146384D01*
X33051Y146084D01*
X33801Y145934D01*
X34550D01*
X35150Y146084D01*
X35450Y146384D01*
X35600Y146834D01*
Y146984D01*
X35450Y147433D01*
X35150Y147733D01*
X34700Y147883D01*
X34550D01*
X34100Y147733D01*
X33801Y147433D01*
X33651Y146984D01*
Y146834D01*
X33801Y146384D01*
X34100Y146084D01*
X34550Y145934D01*
X32451Y150372D02*
Y148873D01*
X33801Y148723D01*
X33651Y148873D01*
X33501Y149323D01*
Y149773D01*
X33651Y150223D01*
X33951Y150522D01*
X34400Y150672D01*
X34700D01*
X35150Y150522D01*
X35450Y150223D01*
X35600Y149773D01*
Y149323D01*
X35450Y148873D01*
X35300Y148723D01*
X35000Y148573D01*
X162849Y132099D02*
X162699Y132399D01*
X162399Y132699D01*
X162100Y132849D01*
X161500D01*
X161200Y132699D01*
X160900Y132399D01*
X160750Y132099D01*
X160600Y131649D01*
Y130900D01*
X160750Y130450D01*
X160900Y130150D01*
X161200Y129850D01*
X161500Y129700D01*
X162100D01*
X162399Y129850D01*
X162699Y130150D01*
X162849Y130450D01*
X165533Y132849D02*
X164034D01*
X163884Y131499D01*
X164034Y131649D01*
X164484Y131799D01*
X164934D01*
X165383Y131649D01*
X165683Y131349D01*
X165833Y130900D01*
Y130600D01*
X165683Y130150D01*
X165383Y129850D01*
X164934Y129700D01*
X164484D01*
X164034Y129850D01*
X163884Y130000D01*
X163734Y130300D01*
X168337Y132399D02*
X168187Y132699D01*
X167738Y132849D01*
X167438D01*
X166988Y132699D01*
X166688Y132249D01*
X166538Y131499D01*
Y130750D01*
X166688Y130150D01*
X166988Y129850D01*
X167438Y129700D01*
X167588D01*
X168037Y129850D01*
X168337Y130150D01*
X168487Y130600D01*
Y130750D01*
X168337Y131200D01*
X168037Y131499D01*
X167588Y131649D01*
X167438D01*
X166988Y131499D01*
X166688Y131200D01*
X166538Y130750D01*
X24049Y57499D02*
X23899Y57799D01*
X23599Y58099D01*
X23300Y58249D01*
X22700D01*
X22400Y58099D01*
X22100Y57799D01*
X21950Y57499D01*
X21800Y57049D01*
Y56300D01*
X21950Y55850D01*
X22100Y55550D01*
X22400Y55250D01*
X22700Y55100D01*
X23300D01*
X23599Y55250D01*
X23899Y55550D01*
X24049Y55850D01*
X26733Y58249D02*
X25234D01*
X25084Y56899D01*
X25234Y57049D01*
X25684Y57199D01*
X26133D01*
X26583Y57049D01*
X26883Y56749D01*
X27033Y56300D01*
Y56000D01*
X26883Y55550D01*
X26583Y55250D01*
X26133Y55100D01*
X25684D01*
X25234Y55250D01*
X25084Y55400D01*
X24934Y55700D01*
X29237Y58249D02*
X27738Y56150D01*
X29987D01*
X29237Y58249D02*
Y55100D01*
X214949Y431299D02*
X214799Y431599D01*
X214499Y431899D01*
X214199Y432049D01*
X213600D01*
X213300Y431899D01*
X213000Y431599D01*
X212850Y431299D01*
X212700Y430849D01*
Y430100D01*
X212850Y429650D01*
X213000Y429350D01*
X213300Y429050D01*
X213600Y428900D01*
X214199D01*
X214499Y429050D01*
X214799Y429350D01*
X214949Y429650D01*
X217633Y432049D02*
X216134D01*
X215984Y430699D01*
X216134Y430849D01*
X216584Y430999D01*
X217034D01*
X217483Y430849D01*
X217783Y430549D01*
X217933Y430100D01*
Y429800D01*
X217783Y429350D01*
X217483Y429050D01*
X217034Y428900D01*
X216584D01*
X216134Y429050D01*
X215984Y429200D01*
X215834Y429500D01*
X218788Y431299D02*
Y431449D01*
X218938Y431749D01*
X219088Y431899D01*
X219388Y432049D01*
X219988D01*
X220287Y431899D01*
X220437Y431749D01*
X220587Y431449D01*
Y431149D01*
X220437Y430849D01*
X220138Y430400D01*
X218638Y428900D01*
X220737D01*
X42249Y343299D02*
X42099Y343599D01*
X41799Y343899D01*
X41500Y344049D01*
X40900D01*
X40600Y343899D01*
X40300Y343599D01*
X40150Y343299D01*
X40000Y342849D01*
Y342100D01*
X40150Y341650D01*
X40300Y341350D01*
X40600Y341050D01*
X40900Y340900D01*
X41500D01*
X41799Y341050D01*
X42099Y341350D01*
X42249Y341650D01*
X43434Y344049D02*
X45083D01*
X44184Y342849D01*
X44633D01*
X44933Y342699D01*
X45083Y342549D01*
X45233Y342100D01*
Y341800D01*
X45083Y341350D01*
X44783Y341050D01*
X44333Y340900D01*
X43884D01*
X43434Y341050D01*
X43284Y341200D01*
X43134Y341500D01*
X48037Y344049D02*
X46538Y340900D01*
X45938Y344049D02*
X48037D01*
X118501Y262749D02*
X118201Y262599D01*
X117901Y262299D01*
X117751Y262000D01*
Y261400D01*
X117901Y261100D01*
X118201Y260800D01*
X118501Y260650D01*
X118951Y260500D01*
X119700D01*
X120150Y260650D01*
X120450Y260800D01*
X120750Y261100D01*
X120900Y261400D01*
Y262000D01*
X120750Y262299D01*
X120450Y262599D01*
X120150Y262749D01*
X117751Y263934D02*
Y265583D01*
X118951Y264684D01*
Y265133D01*
X119101Y265433D01*
X119251Y265583D01*
X119700Y265733D01*
X120000D01*
X120450Y265583D01*
X120750Y265283D01*
X120900Y264833D01*
Y264384D01*
X120750Y263934D01*
X120600Y263784D01*
X120300Y263634D01*
X117751Y266738D02*
Y268387D01*
X118951Y267488D01*
Y267937D01*
X119101Y268237D01*
X119251Y268387D01*
X119700Y268537D01*
X120000D01*
X120450Y268387D01*
X120750Y268087D01*
X120900Y267638D01*
Y267188D01*
X120750Y266738D01*
X120600Y266588D01*
X120300Y266438D01*
X103649Y180799D02*
X103499Y181099D01*
X103199Y181399D01*
X102900Y181549D01*
X102300D01*
X102000Y181399D01*
X101700Y181099D01*
X101550Y180799D01*
X101400Y180349D01*
Y179600D01*
X101550Y179150D01*
X101700Y178850D01*
X102000Y178550D01*
X102300Y178400D01*
X102900D01*
X103199Y178550D01*
X103499Y178850D01*
X103649Y179150D01*
X104684Y180799D02*
Y180949D01*
X104834Y181249D01*
X104984Y181399D01*
X105284Y181549D01*
X105884D01*
X106183Y181399D01*
X106333Y181249D01*
X106483Y180949D01*
Y180649D01*
X106333Y180349D01*
X106033Y179900D01*
X104534Y178400D01*
X106633D01*
X109437Y181549D02*
X107938Y178400D01*
X107338Y181549D02*
X109437D01*
X207449Y142617D02*
X206924Y143142D01*
X205874D01*
X205350Y142617D01*
Y140518D01*
X205874Y139994D01*
X206924D01*
X207449Y140518D01*
X208498Y139994D02*
X209548D01*
X209023D01*
Y143142D01*
X208498Y142617D01*
X211122D02*
X211647Y143142D01*
X212696D01*
X213221Y142617D01*
Y142093D01*
X212696Y141568D01*
X212172D01*
X212696D01*
X213221Y141043D01*
Y140518D01*
X212696Y139994D01*
X211647D01*
X211122Y140518D01*
X267149Y163899D02*
X266999Y164199D01*
X266699Y164499D01*
X266400Y164649D01*
X265800D01*
X265500Y164499D01*
X265200Y164199D01*
X265050Y163899D01*
X264900Y163449D01*
Y162700D01*
X265050Y162250D01*
X265200Y161950D01*
X265500Y161650D01*
X265800Y161500D01*
X266400D01*
X266699Y161650D01*
X266999Y161950D01*
X267149Y162250D01*
X268034Y164049D02*
X268334Y164199D01*
X268784Y164649D01*
Y161500D01*
X270493Y163899D02*
Y164049D01*
X270643Y164349D01*
X270793Y164499D01*
X271093Y164649D01*
X271693D01*
X271993Y164499D01*
X272143Y164349D01*
X272292Y164049D01*
Y163749D01*
X272143Y163449D01*
X271843Y162999D01*
X270343Y161500D01*
X272443D01*
X208749Y50199D02*
X208599Y50499D01*
X208299Y50799D01*
X207999Y50949D01*
X207400D01*
X207100Y50799D01*
X206800Y50499D01*
X206650Y50199D01*
X206500Y49749D01*
Y49000D01*
X206650Y48550D01*
X206800Y48250D01*
X207100Y47950D01*
X207400Y47800D01*
X207999D01*
X208299Y47950D01*
X208599Y48250D01*
X208749Y48550D01*
X209634Y50349D02*
X209934Y50499D01*
X210384Y50949D01*
Y47800D01*
X211943Y50349D02*
X212243Y50499D01*
X212693Y50949D01*
Y47800D01*
X264757Y23167D02*
X264607Y23467D01*
X264307Y23767D01*
X264007Y23917D01*
X263407D01*
X263107Y23767D01*
X262807Y23467D01*
X262657Y23167D01*
X262508Y22717D01*
Y21968D01*
X262657Y21518D01*
X262807Y21218D01*
X263107Y20918D01*
X263407Y20768D01*
X264007D01*
X264307Y20918D01*
X264607Y21218D01*
X264757Y21518D01*
X265641Y23317D02*
X265941Y23467D01*
X266391Y23917D01*
Y20768D01*
X268850Y23917D02*
X268401Y23767D01*
X268101Y23317D01*
X267951Y22567D01*
Y22118D01*
X268101Y21368D01*
X268401Y20918D01*
X268850Y20768D01*
X269150D01*
X269600Y20918D01*
X269900Y21368D01*
X270050Y22118D01*
Y22567D01*
X269900Y23317D01*
X269600Y23767D01*
X269150Y23917D01*
X268850D01*
X254634Y21050D02*
X254109Y21575D01*
X253059D01*
X252535Y21050D01*
Y18951D01*
X253059Y18427D01*
X254109D01*
X254634Y18951D01*
X257782Y21575D02*
X256733Y21050D01*
X255683Y20001D01*
Y18951D01*
X256208Y18427D01*
X257258D01*
X257782Y18951D01*
Y19476D01*
X257258Y20001D01*
X255683D01*
X199687Y82195D02*
X199537Y82494D01*
X199237Y82794D01*
X198937Y82944D01*
X198337D01*
X198038Y82794D01*
X197738Y82494D01*
X197588Y82195D01*
X197438Y81745D01*
Y80995D01*
X197588Y80545D01*
X197738Y80245D01*
X198038Y79945D01*
X198337Y79795D01*
X198937D01*
X199237Y79945D01*
X199537Y80245D01*
X199687Y80545D01*
X202071Y82944D02*
X200572Y80845D01*
X202821D01*
X202071Y82944D02*
Y79795D01*
X265149Y102499D02*
X264999Y102799D01*
X264699Y103099D01*
X264400Y103249D01*
X263800D01*
X263500Y103099D01*
X263200Y102799D01*
X263050Y102499D01*
X262900Y102049D01*
Y101300D01*
X263050Y100850D01*
X263200Y100550D01*
X263500Y100250D01*
X263800Y100100D01*
X264400D01*
X264699Y100250D01*
X264999Y100550D01*
X265149Y100850D01*
X266334Y103249D02*
X267983D01*
X267084Y102049D01*
X267533D01*
X267833Y101899D01*
X267983Y101749D01*
X268133Y101300D01*
Y101000D01*
X267983Y100550D01*
X267683Y100250D01*
X267233Y100100D01*
X266784D01*
X266334Y100250D01*
X266184Y100400D01*
X266034Y100700D01*
X255349Y106899D02*
X255199Y107199D01*
X254899Y107499D01*
X254599Y107649D01*
X254000D01*
X253700Y107499D01*
X253400Y107199D01*
X253250Y106899D01*
X253100Y106449D01*
Y105700D01*
X253250Y105250D01*
X253400Y104950D01*
X253700Y104650D01*
X254000Y104500D01*
X254599D01*
X254899Y104650D01*
X255199Y104950D01*
X255349Y105250D01*
X256384Y106899D02*
Y107049D01*
X256534Y107349D01*
X256684Y107499D01*
X256984Y107649D01*
X257583D01*
X257883Y107499D01*
X258033Y107349D01*
X258183Y107049D01*
Y106749D01*
X258033Y106449D01*
X257733Y106000D01*
X256234Y104500D01*
X258333D01*
X210568Y78957D02*
X210419Y79257D01*
X210119Y79557D01*
X209819Y79707D01*
X209219D01*
X208919Y79557D01*
X208619Y79257D01*
X208469Y78957D01*
X208319Y78507D01*
Y77758D01*
X208469Y77308D01*
X208619Y77008D01*
X208919Y76708D01*
X209219Y76558D01*
X209819D01*
X210119Y76708D01*
X210419Y77008D01*
X210568Y77308D01*
X211453Y79107D02*
X211753Y79257D01*
X212203Y79707D01*
Y76558D01*
X420100Y290349D02*
Y287200D01*
X421674D01*
X422199Y287725D01*
Y289824D01*
X421674Y290349D01*
X420100D01*
X423249Y287200D02*
X424298D01*
X423773D01*
Y290349D01*
X423249Y289824D01*
X427972Y290349D02*
X426922Y289824D01*
X425872Y288774D01*
Y287725D01*
X426397Y287200D01*
X427447D01*
X427972Y287725D01*
Y288249D01*
X427447Y288774D01*
X425872D01*
X368635Y36551D02*
X368110Y37075D01*
X367060D01*
X366535Y36551D01*
Y34452D01*
X367060Y33927D01*
X368110D01*
X368635Y34452D01*
X369684Y36551D02*
X370209Y37075D01*
X371258D01*
X371783Y36551D01*
Y36026D01*
X371258Y35501D01*
X370734D01*
X371258D01*
X371783Y34976D01*
Y34452D01*
X371258Y33927D01*
X370209D01*
X369684Y34452D01*
X374407Y33927D02*
Y37075D01*
X372833Y35501D01*
X374932D01*
X362827Y75753D02*
Y78901D01*
X364401D01*
X364926Y78377D01*
Y77327D01*
X364401Y76802D01*
X362827D01*
X363876D02*
X364926Y75753D01*
X368074D02*
X365975D01*
X368074Y77852D01*
Y78377D01*
X367550Y78901D01*
X366500D01*
X365975Y78377D01*
X270875Y210923D02*
X270350Y211448D01*
X269300D01*
X268776Y210923D01*
Y208824D01*
X269300Y208299D01*
X270350D01*
X270875Y208824D01*
X271924Y211448D02*
X274023D01*
Y210923D01*
X271924Y208824D01*
Y208299D01*
X275073Y210923D02*
X275598Y211448D01*
X276647D01*
X277172Y210923D01*
Y210398D01*
X276647Y209874D01*
X277172Y209349D01*
Y208824D01*
X276647Y208299D01*
X275598D01*
X275073Y208824D01*
Y209349D01*
X275598Y209874D01*
X275073Y210398D01*
Y210923D01*
X275598Y209874D02*
X276647D01*
X396581Y15325D02*
X396056Y15850D01*
X395007D01*
X394482Y15325D01*
Y13226D01*
X395007Y12702D01*
X396056D01*
X396581Y13226D01*
X397631Y15850D02*
X399730D01*
Y15325D01*
X397631Y13226D01*
Y12702D01*
X400779Y13226D02*
X401304Y12702D01*
X402353D01*
X402878Y13226D01*
Y15325D01*
X402353Y15850D01*
X401304D01*
X400779Y15325D01*
Y14801D01*
X401304Y14276D01*
X402878D01*
X343895Y72542D02*
X343371Y73067D01*
X342321D01*
X341796Y72542D01*
Y70443D01*
X342321Y69918D01*
X343371D01*
X343895Y70443D01*
X344945Y72542D02*
X345470Y73067D01*
X346519D01*
X347044Y72542D01*
Y72017D01*
X346519Y71492D01*
X347044Y70968D01*
Y70443D01*
X346519Y69918D01*
X345470D01*
X344945Y70443D01*
Y70968D01*
X345470Y71492D01*
X344945Y72017D01*
Y72542D01*
X345470Y71492D02*
X346519D01*
X350192Y69918D02*
X348093D01*
X350192Y72017D01*
Y72542D01*
X349668Y73067D01*
X348618D01*
X348093Y72542D01*
X341895Y50101D02*
X341371Y50626D01*
X340321D01*
X339796Y50101D01*
Y48002D01*
X340321Y47477D01*
X341371D01*
X341895Y48002D01*
X342945Y47477D02*
X343994D01*
X343470D01*
Y50626D01*
X342945Y50101D01*
X345569D02*
X346094Y50626D01*
X347143D01*
X347668Y50101D01*
Y48002D01*
X347143Y47477D01*
X346094D01*
X345569Y48002D01*
Y50101D01*
X348717D02*
X349242Y50626D01*
X350292D01*
X350816Y50101D01*
Y48002D01*
X350292Y47477D01*
X349242D01*
X348717Y48002D01*
Y50101D01*
X292913Y468898D02*
Y472046D01*
X294488D01*
X295012Y471522D01*
Y470472D01*
X294488Y469947D01*
X292913D01*
X293963D02*
X295012Y468898D01*
X298161D02*
X296062D01*
X298161Y470997D01*
Y471522D01*
X297636Y472046D01*
X296587D01*
X296062Y471522D01*
X301310Y468898D02*
X299211D01*
X301310Y470997D01*
Y471522D01*
X300785Y472046D01*
X299735D01*
X299211Y471522D01*
X359449Y468898D02*
Y472046D01*
X361023D01*
X361548Y471522D01*
Y470472D01*
X361023Y469947D01*
X359449D01*
X360498D02*
X361548Y468898D01*
X364697D02*
X362597D01*
X364697Y470997D01*
Y471522D01*
X364172Y472046D01*
X363122D01*
X362597Y471522D01*
X365746D02*
X366271Y472046D01*
X367320D01*
X367845Y471522D01*
Y470997D01*
X367320Y470472D01*
X366796D01*
X367320D01*
X367845Y469947D01*
Y469422D01*
X367320Y468898D01*
X366271D01*
X365746Y469422D01*
X401616Y94328D02*
X398467D01*
Y95902D01*
X398992Y96427D01*
X400041D01*
X400566Y95902D01*
Y94328D01*
Y95377D02*
X401616Y96427D01*
X398992Y97476D02*
X398467Y98001D01*
Y99050D01*
X398992Y99575D01*
X399517D01*
X400041Y99050D01*
Y98526D01*
Y99050D01*
X400566Y99575D01*
X401091D01*
X401616Y99050D01*
Y98001D01*
X401091Y97476D01*
X401616Y102724D02*
Y100625D01*
X399517Y102724D01*
X398992D01*
X398467Y102199D01*
Y101149D01*
X398992Y100625D01*
X379689Y33439D02*
Y36588D01*
X381263D01*
X381788Y36063D01*
Y35014D01*
X381263Y34489D01*
X379689D01*
X380738D02*
X381788Y33439D01*
X384412D02*
Y36588D01*
X382838Y35014D01*
X384937D01*
X385986Y36063D02*
X386511Y36588D01*
X387560D01*
X388085Y36063D01*
Y35538D01*
X387560Y35014D01*
X387036D01*
X387560D01*
X388085Y34489D01*
Y33964D01*
X387560Y33439D01*
X386511D01*
X385986Y33964D01*
X402797Y61650D02*
X399648D01*
Y63225D01*
X400173Y63749D01*
X401223D01*
X401747Y63225D01*
Y61650D01*
Y62700D02*
X402797Y63749D01*
Y66373D02*
X399648D01*
X401223Y64799D01*
Y66898D01*
X402797Y69522D02*
X399648D01*
X401223Y67948D01*
Y70047D01*
X340986Y60076D02*
Y63224D01*
X342560D01*
X343085Y62699D01*
Y61650D01*
X342560Y61125D01*
X340986D01*
X342035D02*
X343085Y60076D01*
X346234Y63224D02*
X344134D01*
Y61650D01*
X345184Y62175D01*
X345709D01*
X346234Y61650D01*
Y60600D01*
X345709Y60076D01*
X344659D01*
X344134Y60600D01*
X347283Y62699D02*
X347808Y63224D01*
X348857D01*
X349382Y62699D01*
Y62175D01*
X348857Y61650D01*
X348333D01*
X348857D01*
X349382Y61125D01*
Y60600D01*
X348857Y60076D01*
X347808D01*
X347283Y60600D01*
X379921Y16209D02*
Y13585D01*
X380446Y13061D01*
X381496D01*
X382020Y13585D01*
Y16209D01*
X383070Y13061D02*
X384119D01*
X383595D01*
Y16209D01*
X383070Y15685D01*
X385694D02*
X386219Y16209D01*
X387268D01*
X387793Y15685D01*
Y15160D01*
X387268Y14635D01*
X387793Y14110D01*
Y13585D01*
X387268Y13061D01*
X386219D01*
X385694Y13585D01*
Y14110D01*
X386219Y14635D01*
X385694Y15160D01*
Y15685D01*
X386219Y14635D02*
X387268D01*
X392300Y44349D02*
Y41725D01*
X392825Y41200D01*
X393874D01*
X394399Y41725D01*
Y44349D01*
X395449Y41200D02*
X396498D01*
X395973D01*
Y44349D01*
X395449Y43824D01*
X398072Y41725D02*
X398597Y41200D01*
X399647D01*
X400172Y41725D01*
Y43824D01*
X399647Y44349D01*
X398597D01*
X398072Y43824D01*
Y43299D01*
X398597Y42774D01*
X400172D01*
X197378Y362856D02*
X196853Y363381D01*
X195804D01*
X195279Y362856D01*
Y360757D01*
X195804Y360232D01*
X196853D01*
X197378Y360757D01*
X198427Y360232D02*
X199477D01*
X198952D01*
Y363381D01*
X198427Y362856D01*
X201051D02*
X201576Y363381D01*
X202626D01*
X203150Y362856D01*
Y360757D01*
X202626Y360232D01*
X201576D01*
X201051Y360757D01*
Y362856D01*
X206299Y363381D02*
X204200D01*
Y361807D01*
X205250Y362331D01*
X205774D01*
X206299Y361807D01*
Y360757D01*
X205774Y360232D01*
X204725D01*
X204200Y360757D01*
X193700Y333249D02*
Y330625D01*
X194225Y330100D01*
X195274D01*
X195799Y330625D01*
Y333249D01*
X198948Y330100D02*
X196849D01*
X198948Y332199D01*
Y332724D01*
X198423Y333249D01*
X197373D01*
X196849Y332724D01*
X199997Y330100D02*
X201047D01*
X200522D01*
Y333249D01*
X199997Y332724D01*
X86399Y98924D02*
X85874Y99449D01*
X84825D01*
X84300Y98924D01*
Y96825D01*
X84825Y96300D01*
X85874D01*
X86399Y96825D01*
X87449Y96300D02*
Y99449D01*
X88498Y98399D01*
X89548Y99449D01*
Y96300D01*
X90597D02*
X91647D01*
X91122D01*
Y99449D01*
X90597Y98924D01*
X43249Y429199D02*
X43099Y429499D01*
X42799Y429799D01*
X42500Y429949D01*
X41900D01*
X41600Y429799D01*
X41300Y429499D01*
X41150Y429199D01*
X41000Y428749D01*
Y428000D01*
X41150Y427550D01*
X41300Y427250D01*
X41600Y426950D01*
X41900Y426800D01*
X42500D01*
X42799Y426950D01*
X43099Y427250D01*
X43249Y427550D01*
X44434Y429949D02*
X46083D01*
X45184Y428749D01*
X45633D01*
X45933Y428599D01*
X46083Y428449D01*
X46233Y428000D01*
Y427700D01*
X46083Y427250D01*
X45783Y426950D01*
X45333Y426800D01*
X44884D01*
X44434Y426950D01*
X44284Y427100D01*
X44134Y427400D01*
X48737Y429499D02*
X48587Y429799D01*
X48138Y429949D01*
X47838D01*
X47388Y429799D01*
X47088Y429349D01*
X46938Y428599D01*
Y427850D01*
X47088Y427250D01*
X47388Y426950D01*
X47838Y426800D01*
X47988D01*
X48438Y426950D01*
X48737Y427250D01*
X48887Y427700D01*
Y427850D01*
X48737Y428300D01*
X48438Y428599D01*
X47988Y428749D01*
X47838D01*
X47388Y428599D01*
X47088Y428300D01*
X46938Y427850D01*
X346989Y144922D02*
X346464Y145446D01*
X345414D01*
X344890Y144922D01*
Y142822D01*
X345414Y142298D01*
X346464D01*
X346989Y142822D01*
X348038Y145446D02*
X350137D01*
Y144922D01*
X348038Y142822D01*
Y142298D01*
X359587Y123268D02*
X359063Y123793D01*
X358013D01*
X357488Y123268D01*
Y121169D01*
X358013Y120644D01*
X359063D01*
X359587Y121169D01*
X360637Y123268D02*
X361161Y123793D01*
X362211D01*
X362736Y123268D01*
Y122743D01*
X362211Y122218D01*
X362736Y121694D01*
Y121169D01*
X362211Y120644D01*
X361161D01*
X360637Y121169D01*
Y121694D01*
X361161Y122218D01*
X360637Y122743D01*
Y123268D01*
X361161Y122218D02*
X362211D01*
X37399Y275924D02*
X36874Y276449D01*
X35825D01*
X35300Y275924D01*
Y273825D01*
X35825Y273300D01*
X36874D01*
X37399Y273825D01*
Y274874D01*
X36349D01*
X38449Y273300D02*
Y276449D01*
X40548Y273300D01*
Y276449D01*
X41597D02*
Y273300D01*
X43172D01*
X43696Y273825D01*
Y275924D01*
X43172Y276449D01*
X41597D01*
X46845Y273300D02*
X44746D01*
X46845Y275399D01*
Y275924D01*
X46320Y276449D01*
X45270D01*
X44746Y275924D01*
X440159Y142453D02*
Y141404D01*
Y141929D01*
X442782D01*
X443307Y141404D01*
Y140879D01*
X442782Y140354D01*
X443307Y145602D02*
Y143503D01*
X441208Y145602D01*
X440683D01*
X440159Y145077D01*
Y144028D01*
X440683Y143503D01*
X440159Y100131D02*
Y99081D01*
Y99606D01*
X442782D01*
X443307Y99081D01*
Y98556D01*
X442782Y98032D01*
X440683Y101180D02*
X440159Y101705D01*
Y102754D01*
X440683Y103279D01*
X441208D01*
X441733Y102754D01*
X442258Y103279D01*
X442782D01*
X443307Y102754D01*
Y101705D01*
X442782Y101180D01*
X442258D01*
X441733Y101705D01*
X441208Y101180D01*
X440683D01*
X441733Y101705D02*
Y102754D01*
X443832Y104853D02*
X443307Y105378D01*
X442782D01*
Y104853D01*
X443307D01*
Y105378D01*
X443832Y104853D01*
X444357Y104329D01*
X440159Y107477D02*
X443307D01*
Y109052D01*
X442782Y109576D01*
X440683D01*
X440159Y109052D01*
Y107477D01*
X443307Y110626D02*
X440159D01*
X443307Y112725D01*
X440159D01*
Y113775D02*
Y114824D01*
Y114299D01*
X443307D01*
Y113775D01*
Y114824D01*
X439765Y57611D02*
Y56561D01*
Y57086D01*
X442389D01*
X442913Y56561D01*
Y56037D01*
X442389Y55512D01*
Y58660D02*
X442913Y59185D01*
Y60235D01*
X442389Y60760D01*
X440290D01*
X439765Y60235D01*
Y59185D01*
X440290Y58660D01*
X440814D01*
X441339Y59185D01*
Y60760D01*
X229040Y295058D02*
X225892D01*
Y296633D01*
X226416Y297157D01*
X227466D01*
X227991Y296633D01*
Y295058D01*
Y296108D02*
X229040Y297157D01*
X226416Y298207D02*
X225892Y298732D01*
Y299781D01*
X226416Y300306D01*
X226941D01*
X227466Y299781D01*
Y299256D01*
Y299781D01*
X227991Y300306D01*
X228515D01*
X229040Y299781D01*
Y298732D01*
X228515Y298207D01*
X353500Y142800D02*
Y145949D01*
X355074D01*
X355599Y145424D01*
Y144374D01*
X355074Y143850D01*
X353500D01*
X354550D02*
X355599Y142800D01*
X358223D02*
Y145949D01*
X356649Y144374D01*
X358748D01*
X408400Y167649D02*
Y165025D01*
X408925Y164500D01*
X409974D01*
X410499Y165025D01*
Y167649D01*
X413648Y164500D02*
X411549D01*
X413648Y166599D01*
Y167124D01*
X413123Y167649D01*
X412073D01*
X411549Y167124D01*
X298599Y33727D02*
X298074Y34252D01*
X297025D01*
X296500Y33727D01*
Y31628D01*
X297025Y31103D01*
X298074D01*
X298599Y31628D01*
X301748Y34252D02*
X299649D01*
Y32677D01*
X300698Y33202D01*
X301223D01*
X301748Y32677D01*
Y31628D01*
X301223Y31103D01*
X300173D01*
X299649Y31628D01*
X416400Y125300D02*
Y128449D01*
X417974D01*
X418499Y127924D01*
Y126874D01*
X417974Y126349D01*
X416400D01*
X417450D02*
X418499Y125300D01*
X421648Y128449D02*
X419549D01*
Y126874D01*
X420598Y127399D01*
X421123D01*
X421648Y126874D01*
Y125825D01*
X421123Y125300D01*
X420073D01*
X419549Y125825D01*
X403850Y117469D02*
Y120618D01*
X405425D01*
X405949Y120093D01*
Y119044D01*
X405425Y118519D01*
X403850D01*
X404900D02*
X405949Y117469D01*
X409098Y120618D02*
X408048Y120093D01*
X406999Y119044D01*
Y117994D01*
X407524Y117469D01*
X408573D01*
X409098Y117994D01*
Y118519D01*
X408573Y119044D01*
X406999D01*
X413251Y308900D02*
X416400D01*
Y310474D01*
X415875Y310999D01*
X413776D01*
X413251Y310474D01*
Y308900D01*
X416400Y312049D02*
Y313098D01*
Y312573D01*
X413251D01*
X413776Y312049D01*
X413251Y314672D02*
Y316772D01*
X413776D01*
X415875Y314672D01*
X416400D01*
X327110Y173325D02*
Y170176D01*
X325535D01*
X325010Y170701D01*
Y171751D01*
X325535Y172275D01*
X327110D01*
X326060D02*
X325010Y173325D01*
X323961D02*
X322911D01*
X323436D01*
Y170176D01*
X323961Y170701D01*
X321337Y173325D02*
X320287D01*
X320812D01*
Y170176D01*
X321337Y170701D01*
X407056Y15719D02*
X406531Y16244D01*
X405481D01*
X404957Y15719D01*
Y13620D01*
X405481Y13095D01*
X406531D01*
X407056Y13620D01*
X408105Y13095D02*
X409155D01*
X408630D01*
Y16244D01*
X408105Y15719D01*
X412828Y16244D02*
X410729D01*
Y14670D01*
X411779Y15194D01*
X412303D01*
X412828Y14670D01*
Y13620D01*
X412303Y13095D01*
X411254D01*
X410729Y13620D01*
X355906Y251574D02*
Y249475D01*
X356955Y248425D01*
X358005Y249475D01*
Y251574D01*
X359054Y248425D02*
Y251574D01*
X360628D01*
X361153Y251049D01*
Y249999D01*
X360628Y249475D01*
X359054D01*
X360104D02*
X361153Y248425D01*
X362203Y251049D02*
X362727Y251574D01*
X363777D01*
X364302Y251049D01*
Y250524D01*
X363777Y249999D01*
X363252D01*
X363777D01*
X364302Y249475D01*
Y248950D01*
X363777Y248425D01*
X362727D01*
X362203Y248950D01*
X193700Y281249D02*
Y278100D01*
Y279674D01*
X195799D01*
Y281249D01*
Y278100D01*
X196849Y281249D02*
Y278100D01*
X198948D01*
X202096D02*
X199997D01*
X202096Y280199D01*
Y280724D01*
X201571Y281249D01*
X200522D01*
X199997Y280724D01*
X205245Y281249D02*
X203146D01*
Y279674D01*
X204195Y280199D01*
X204720D01*
X205245Y279674D01*
Y278625D01*
X204720Y278100D01*
X203671D01*
X203146Y278625D01*
X289961Y362844D02*
X289436Y363368D01*
X288387D01*
X287862Y362844D01*
Y360745D01*
X288387Y360220D01*
X289436D01*
X289961Y360745D01*
X291011Y360220D02*
X292060D01*
X291535D01*
Y363368D01*
X291011Y362844D01*
X295733Y363368D02*
X294684Y362844D01*
X293635Y361794D01*
Y360745D01*
X294159Y360220D01*
X295209D01*
X295733Y360745D01*
Y361269D01*
X295209Y361794D01*
X293635D01*
X336044Y362103D02*
X335519Y362627D01*
X334470D01*
X333945Y362103D01*
Y360003D01*
X334470Y359479D01*
X335519D01*
X336044Y360003D01*
X337094Y359479D02*
X338143D01*
X337618D01*
Y362627D01*
X337094Y362103D01*
X339718Y362627D02*
X341817D01*
Y362103D01*
X339718Y360003D01*
Y359479D01*
X243847Y362840D02*
X243322Y363365D01*
X242272D01*
X241747Y362840D01*
Y360741D01*
X242272Y360216D01*
X243322D01*
X243847Y360741D01*
X244896D02*
X245421Y360216D01*
X246470D01*
X246995Y360741D01*
Y362840D01*
X246470Y363365D01*
X245421D01*
X244896Y362840D01*
Y362316D01*
X245421Y361791D01*
X246995D01*
X290900Y326149D02*
Y323525D01*
X291425Y323000D01*
X292474D01*
X292999Y323525D01*
Y326149D01*
X294049Y323000D02*
X295098D01*
X294573D01*
Y326149D01*
X294049Y325624D01*
X298772Y323000D02*
X296672D01*
X298772Y325099D01*
Y325624D01*
X298247Y326149D01*
X297197D01*
X296672Y325624D01*
X339000Y325949D02*
Y323325D01*
X339525Y322800D01*
X340574D01*
X341099Y323325D01*
Y325949D01*
X342149Y322800D02*
X343198D01*
X342673D01*
Y325949D01*
X342149Y325424D01*
X344772D02*
X345297Y325949D01*
X346347D01*
X346871Y325424D01*
Y324899D01*
X346347Y324374D01*
X345822D01*
X346347D01*
X346871Y323850D01*
Y323325D01*
X346347Y322800D01*
X345297D01*
X344772Y323325D01*
X246600Y326249D02*
Y323625D01*
X247125Y323100D01*
X248174D01*
X248699Y323625D01*
Y326249D01*
X249749Y323625D02*
X250273Y323100D01*
X251323D01*
X251848Y323625D01*
Y325724D01*
X251323Y326249D01*
X250273D01*
X249749Y325724D01*
Y325199D01*
X250273Y324674D01*
X251848D01*
X359842Y424016D02*
Y427164D01*
X361417D01*
X361942Y426640D01*
Y425590D01*
X361417Y425065D01*
X359842D01*
X365090Y424016D02*
X362991D01*
X365090Y426115D01*
Y426640D01*
X364565Y427164D01*
X363516D01*
X362991Y426640D01*
X430831Y479146D02*
X430306Y479671D01*
X429256D01*
X428731Y479146D01*
Y477047D01*
X429256Y476522D01*
X430306D01*
X430831Y477047D01*
X431880Y479671D02*
Y476522D01*
X433454D01*
X433979Y477047D01*
Y479146D01*
X433454Y479671D01*
X431880D01*
X436603Y476522D02*
Y479671D01*
X435029Y478096D01*
X437128D01*
X411651Y343400D02*
X414800D01*
Y344974D01*
X414275Y345499D01*
X412176D01*
X411651Y344974D01*
Y343400D01*
X414800Y346549D02*
Y347598D01*
Y347073D01*
X411651D01*
X412176Y346549D01*
X411951Y352900D02*
X415100D01*
Y354474D01*
X414575Y354999D01*
X412476D01*
X411951Y354474D01*
Y352900D01*
X412476Y356049D02*
X411951Y356573D01*
Y357623D01*
X412476Y358148D01*
X413001D01*
X413526Y357623D01*
Y357098D01*
Y357623D01*
X414050Y358148D01*
X414575D01*
X415100Y357623D01*
Y356573D01*
X414575Y356049D01*
X443702Y426902D02*
Y425853D01*
Y426377D01*
X446326D01*
X446850Y425853D01*
Y425328D01*
X446326Y424803D01*
X444227Y427952D02*
X443702Y428476D01*
Y429526D01*
X444227Y430051D01*
X444751D01*
X445276Y429526D01*
Y429001D01*
Y429526D01*
X445801Y430051D01*
X446326D01*
X446850Y429526D01*
Y428476D01*
X446326Y427952D01*
X387926Y367454D02*
Y369553D01*
X387401Y370078D01*
X386351D01*
X385827Y369553D01*
Y367454D01*
X386351Y366929D01*
X387401D01*
X386876Y367979D02*
X387926Y366929D01*
X387401D02*
X387926Y367454D01*
X388975Y366929D02*
X390025D01*
X389500D01*
Y370078D01*
X388975Y369553D01*
X205906Y313189D02*
X202757D01*
Y314763D01*
X203282Y315288D01*
X204331D01*
X204856Y314763D01*
Y313189D01*
Y314239D02*
X205906Y315288D01*
Y316338D02*
Y317387D01*
Y316862D01*
X202757D01*
X203282Y316338D01*
Y318961D02*
X202757Y319486D01*
Y320536D01*
X203282Y321060D01*
X203806D01*
X204331Y320536D01*
Y320011D01*
Y320536D01*
X204856Y321060D01*
X205381D01*
X205906Y320536D01*
Y319486D01*
X205381Y318961D01*
X236614Y312008D02*
X233466D01*
Y313582D01*
X233990Y314107D01*
X235040D01*
X235565Y313582D01*
Y312008D01*
Y313057D02*
X236614Y314107D01*
X233990Y315157D02*
X233466Y315681D01*
Y316731D01*
X233990Y317255D01*
X234515D01*
X235040Y316731D01*
Y316206D01*
Y316731D01*
X235565Y317255D01*
X236089D01*
X236614Y316731D01*
Y315681D01*
X236089Y315157D01*
X233990Y318305D02*
X233466Y318830D01*
Y319879D01*
X233990Y320404D01*
X234515D01*
X235040Y319879D01*
Y319355D01*
Y319879D01*
X235565Y320404D01*
X236089D01*
X236614Y319879D01*
Y318830D01*
X236089Y318305D01*
X299157Y173719D02*
Y170570D01*
X297582D01*
X297058Y171095D01*
Y172144D01*
X297582Y172669D01*
X299157D01*
X298107D02*
X297058Y173719D01*
X296008Y171095D02*
X295483Y170570D01*
X294434D01*
X293909Y171095D01*
Y171620D01*
X294434Y172144D01*
X294959D01*
X294434D01*
X293909Y172669D01*
Y173194D01*
X294434Y173719D01*
X295483D01*
X296008Y173194D01*
X290760Y170570D02*
X292860D01*
Y172144D01*
X291810Y171620D01*
X291285D01*
X290760Y172144D01*
Y173194D01*
X291285Y173719D01*
X292335D01*
X292860Y173194D01*
X408876Y176199D02*
X408351Y175674D01*
Y174625D01*
X408876Y174100D01*
X410975D01*
X411500Y174625D01*
Y175674D01*
X410975Y176199D01*
X411500Y177249D02*
Y178298D01*
Y177773D01*
X408351D01*
X408876Y177249D01*
Y179872D02*
X408351Y180397D01*
Y181447D01*
X408876Y181972D01*
X409401D01*
X409926Y181447D01*
X410451Y181972D01*
X410975D01*
X411500Y181447D01*
Y180397D01*
X410975Y179872D01*
X410451D01*
X409926Y180397D01*
X409401Y179872D01*
X408876D01*
X409926Y180397D02*
Y181447D01*
X408850Y193231D02*
X408325Y192707D01*
Y191657D01*
X408850Y191132D01*
X410949D01*
X411473Y191657D01*
Y192707D01*
X410949Y193231D01*
X411473Y194281D02*
Y195331D01*
Y194806D01*
X408325D01*
X408850Y194281D01*
X410949Y196905D02*
X411473Y197430D01*
Y198479D01*
X410949Y199004D01*
X408850D01*
X408325Y198479D01*
Y197430D01*
X408850Y196905D01*
X409374D01*
X409899Y197430D01*
Y199004D01*
X422899Y218324D02*
X422374Y218849D01*
X421325D01*
X420800Y218324D01*
Y216225D01*
X421325Y215700D01*
X422374D01*
X422899Y216225D01*
X426048Y215700D02*
X423949D01*
X426048Y217799D01*
Y218324D01*
X425523Y218849D01*
X424473D01*
X423949Y218324D01*
X427097D02*
X427622Y218849D01*
X428672D01*
X429196Y218324D01*
Y216225D01*
X428672Y215700D01*
X427622D01*
X427097Y216225D01*
Y218324D01*
X382470Y166985D02*
X381945Y167509D01*
X380896D01*
X380371Y166985D01*
Y164886D01*
X380896Y164361D01*
X381945D01*
X382470Y164886D01*
X385619Y164361D02*
X383520D01*
X385619Y166460D01*
Y166985D01*
X385094Y167509D01*
X384044D01*
X383520Y166985D01*
X386668Y164361D02*
X387718D01*
X387193D01*
Y167509D01*
X386668Y166985D01*
X332600Y174249D02*
Y171100D01*
X334174D01*
X334699Y171625D01*
Y173724D01*
X334174Y174249D01*
X332600D01*
X335749Y173724D02*
X336273Y174249D01*
X337323D01*
X337848Y173724D01*
Y173199D01*
X337323Y172674D01*
X337848Y172150D01*
Y171625D01*
X337323Y171100D01*
X336273D01*
X335749Y171625D01*
Y172150D01*
X336273Y172674D01*
X335749Y173199D01*
Y173724D01*
X336273Y172674D02*
X337323D01*
X411651Y325000D02*
X414800D01*
Y326574D01*
X414275Y327099D01*
X412176D01*
X411651Y326574D01*
Y325000D01*
X414800Y328149D02*
Y329198D01*
Y328673D01*
X411651D01*
X412176Y328149D01*
Y330772D02*
X411651Y331297D01*
Y332347D01*
X412176Y332872D01*
X414275D01*
X414800Y332347D01*
Y331297D01*
X414275Y330772D01*
X412176D01*
X411751Y334500D02*
X414900D01*
Y336074D01*
X414375Y336599D01*
X412276D01*
X411751Y336074D01*
Y334500D01*
X414900Y337649D02*
Y338698D01*
Y338173D01*
X411751D01*
X412276Y337649D01*
X414900Y340272D02*
Y341322D01*
Y340797D01*
X411751D01*
X412276Y340272D01*
X387138Y341470D02*
Y343569D01*
X386614Y344093D01*
X385564D01*
X385039Y343569D01*
Y341470D01*
X385564Y340945D01*
X386614D01*
X386089Y341994D02*
X387138Y340945D01*
X386614D02*
X387138Y341470D01*
X390287Y344093D02*
X388188D01*
Y342519D01*
X389237Y343044D01*
X389762D01*
X390287Y342519D01*
Y341470D01*
X389762Y340945D01*
X388713D01*
X388188Y341470D01*
X443000Y155100D02*
X439851D01*
Y156674D01*
X440376Y157199D01*
X441426D01*
X441951Y156674D01*
Y155100D01*
Y156149D02*
X443000Y157199D01*
X440376Y158249D02*
X439851Y158773D01*
Y159823D01*
X440376Y160348D01*
X440901D01*
X441426Y159823D01*
Y159298D01*
Y159823D01*
X441951Y160348D01*
X442475D01*
X443000Y159823D01*
Y158773D01*
X442475Y158249D01*
X439851Y161397D02*
Y163496D01*
X440376D01*
X442475Y161397D01*
X443000D01*
X431946Y164361D02*
Y167509D01*
X433520D01*
X434045Y166985D01*
Y165935D01*
X433520Y165410D01*
X431946D01*
X432995D02*
X434045Y164361D01*
X435094Y166985D02*
X435619Y167509D01*
X436669D01*
X437193Y166985D01*
Y166460D01*
X436669Y165935D01*
X436144D01*
X436669D01*
X437193Y165410D01*
Y164886D01*
X436669Y164361D01*
X435619D01*
X435094Y164886D01*
X438243D02*
X438768Y164361D01*
X439817D01*
X440342Y164886D01*
Y166985D01*
X439817Y167509D01*
X438768D01*
X438243Y166985D01*
Y166460D01*
X438768Y165935D01*
X440342D01*
X341700Y170700D02*
Y173849D01*
X343274D01*
X343799Y173324D01*
Y172274D01*
X343274Y171749D01*
X341700D01*
X342750D02*
X343799Y170700D01*
X346423D02*
Y173849D01*
X344849Y172274D01*
X346948D01*
X347997Y173324D02*
X348522Y173849D01*
X349571D01*
X350096Y173324D01*
Y171225D01*
X349571Y170700D01*
X348522D01*
X347997Y171225D01*
Y173324D01*
X442182Y183258D02*
X439034D01*
Y184833D01*
X439558Y185357D01*
X440608D01*
X441132Y184833D01*
Y183258D01*
Y184308D02*
X442182Y185357D01*
Y187981D02*
X439034D01*
X440608Y186407D01*
Y188506D01*
X442182Y189556D02*
Y190605D01*
Y190080D01*
X439034D01*
X439558Y189556D01*
X442182Y191920D02*
X439034D01*
Y193494D01*
X439558Y194019D01*
X440608D01*
X441132Y193494D01*
Y191920D01*
Y192969D02*
X442182Y194019D01*
Y196643D02*
X439034D01*
X440608Y195069D01*
Y197168D01*
X442182Y200316D02*
Y198217D01*
X440083Y200316D01*
X439558D01*
X439034Y199791D01*
Y198742D01*
X439558Y198217D01*
X410300Y151700D02*
Y154849D01*
X411874D01*
X412399Y154324D01*
Y153274D01*
X411874Y152750D01*
X410300D01*
X411349D02*
X412399Y151700D01*
X415023D02*
Y154849D01*
X413449Y153274D01*
X415548D01*
X418696Y154849D02*
X416597D01*
Y153274D01*
X417647Y153799D01*
X418172D01*
X418696Y153274D01*
Y152225D01*
X418172Y151700D01*
X417122D01*
X416597Y152225D01*
X421710Y164361D02*
Y167509D01*
X423284D01*
X423809Y166985D01*
Y165935D01*
X423284Y165410D01*
X421710D01*
X422759D02*
X423809Y164361D01*
X426433D02*
Y167509D01*
X424858Y165935D01*
X426957D01*
X430106Y167509D02*
X429056Y166985D01*
X428007Y165935D01*
Y164886D01*
X428532Y164361D01*
X429581D01*
X430106Y164886D01*
Y165410D01*
X429581Y165935D01*
X428007D01*
X430599Y215718D02*
Y218866D01*
X432174D01*
X432698Y218342D01*
Y217292D01*
X432174Y216768D01*
X430599D01*
X431649D02*
X432698Y215718D01*
X435322D02*
Y218866D01*
X433748Y217292D01*
X435847D01*
X436897Y218866D02*
X438996D01*
Y218342D01*
X436897Y216243D01*
Y215718D01*
X370135Y145070D02*
Y148218D01*
X371709D01*
X372234Y147693D01*
Y146644D01*
X371709Y146119D01*
X370135D01*
X371184D02*
X372234Y145070D01*
X374858D02*
Y148218D01*
X373283Y146644D01*
X375382D01*
X376432Y147693D02*
X376957Y148218D01*
X378006D01*
X378531Y147693D01*
Y147169D01*
X378006Y146644D01*
X378531Y146119D01*
Y145594D01*
X378006Y145070D01*
X376957D01*
X376432Y145594D01*
Y146119D01*
X376957Y146644D01*
X376432Y147169D01*
Y147693D01*
X376957Y146644D02*
X378006D01*
X397000Y147800D02*
Y150949D01*
X398574D01*
X399099Y150424D01*
Y149374D01*
X398574Y148849D01*
X397000D01*
X398049D02*
X399099Y147800D01*
X402248Y150949D02*
X400149D01*
Y149374D01*
X401198Y149899D01*
X401723D01*
X402248Y149374D01*
Y148325D01*
X401723Y147800D01*
X400673D01*
X400149Y148325D01*
X405396Y150949D02*
X403297D01*
Y149374D01*
X404347Y149899D01*
X404872D01*
X405396Y149374D01*
Y148325D01*
X404872Y147800D01*
X403822D01*
X403297Y148325D01*
X396906Y152156D02*
Y155305D01*
X398481D01*
X399006Y154780D01*
Y153730D01*
X398481Y153206D01*
X396906D01*
X397956D02*
X399006Y152156D01*
X402154Y155305D02*
X400055D01*
Y153730D01*
X401105Y154255D01*
X401629D01*
X402154Y153730D01*
Y152681D01*
X401629Y152156D01*
X400580D01*
X400055Y152681D01*
X405303Y155305D02*
X404253Y154780D01*
X403204Y153730D01*
Y152681D01*
X403728Y152156D01*
X404778D01*
X405303Y152681D01*
Y153206D01*
X404778Y153730D01*
X403204D01*
X359899Y145070D02*
Y148218D01*
X361473D01*
X361998Y147693D01*
Y146644D01*
X361473Y146119D01*
X359899D01*
X360948D02*
X361998Y145070D01*
X365146Y148218D02*
X364097Y147693D01*
X363047Y146644D01*
Y145594D01*
X363572Y145070D01*
X364621D01*
X365146Y145594D01*
Y146119D01*
X364621Y146644D01*
X363047D01*
X366196Y147693D02*
X366721Y148218D01*
X367770D01*
X368295Y147693D01*
Y145594D01*
X367770Y145070D01*
X366721D01*
X366196Y145594D01*
Y147693D01*
X393600Y216400D02*
X390451D01*
Y217974D01*
X390976Y218499D01*
X392026D01*
X392550Y217974D01*
Y216400D01*
Y217449D02*
X393600Y218499D01*
X390451Y221648D02*
X390976Y220598D01*
X392026Y219549D01*
X393075D01*
X393600Y220073D01*
Y221123D01*
X393075Y221648D01*
X392550D01*
X392026Y221123D01*
Y219549D01*
X393600Y222697D02*
Y223747D01*
Y223222D01*
X390451D01*
X390976Y222697D01*
X402000Y199977D02*
Y203125D01*
X403575D01*
X404099Y202600D01*
Y201551D01*
X403575Y201026D01*
X402000D01*
X403050D02*
X404099Y199977D01*
X407248Y203125D02*
X406198Y202600D01*
X405149Y201551D01*
Y200501D01*
X405674Y199977D01*
X406723D01*
X407248Y200501D01*
Y201026D01*
X406723Y201551D01*
X405149D01*
X410396Y199977D02*
X408297D01*
X410396Y202076D01*
Y202600D01*
X409872Y203125D01*
X408822D01*
X408297Y202600D01*
X381552Y204125D02*
X378404D01*
Y205699D01*
X378928Y206224D01*
X379978D01*
X380503Y205699D01*
Y204125D01*
Y205174D02*
X381552Y206224D01*
X378404Y209372D02*
X378928Y208323D01*
X379978Y207273D01*
X381027D01*
X381552Y207798D01*
Y208847D01*
X381027Y209372D01*
X380503D01*
X379978Y208847D01*
Y207273D01*
X378928Y210422D02*
X378404Y210946D01*
Y211996D01*
X378928Y212521D01*
X379453D01*
X379978Y211996D01*
Y211471D01*
Y211996D01*
X380503Y212521D01*
X381027D01*
X381552Y211996D01*
Y210946D01*
X381027Y210422D01*
X402900Y230100D02*
Y233249D01*
X404474D01*
X404999Y232724D01*
Y231674D01*
X404474Y231150D01*
X402900D01*
X403949D02*
X404999Y230100D01*
X408148Y233249D02*
X407098Y232724D01*
X406049Y231674D01*
Y230625D01*
X406573Y230100D01*
X407623D01*
X408148Y230625D01*
Y231150D01*
X407623Y231674D01*
X406049D01*
X410772Y230100D02*
Y233249D01*
X409197Y231674D01*
X411296D01*
X359899Y165148D02*
X356750D01*
Y166723D01*
X357275Y167247D01*
X358324D01*
X358849Y166723D01*
Y165148D01*
Y166198D02*
X359899Y167247D01*
X356750Y170396D02*
X357275Y169346D01*
X358324Y168297D01*
X359374D01*
X359899Y168822D01*
Y169871D01*
X359374Y170396D01*
X358849D01*
X358324Y169871D01*
Y168297D01*
X356750Y173545D02*
Y171445D01*
X358324D01*
X357800Y172495D01*
Y173020D01*
X358324Y173545D01*
X359374D01*
X359899Y173020D01*
Y171970D01*
X359374Y171445D01*
X359600Y174800D02*
X356451D01*
Y176374D01*
X356976Y176899D01*
X358026D01*
X358551Y176374D01*
Y174800D01*
Y175849D02*
X359600Y176899D01*
X356451Y180048D02*
X356976Y178998D01*
X358026Y177949D01*
X359075D01*
X359600Y178473D01*
Y179523D01*
X359075Y180048D01*
X358551D01*
X358026Y179523D01*
Y177949D01*
X356451Y183196D02*
X356976Y182147D01*
X358026Y181097D01*
X359075D01*
X359600Y181622D01*
Y182671D01*
X359075Y183196D01*
X358551D01*
X358026Y182671D01*
Y181097D01*
X364600Y202521D02*
Y205670D01*
X366174D01*
X366699Y205145D01*
Y204096D01*
X366174Y203571D01*
X364600D01*
X365650D02*
X366699Y202521D01*
X369848Y205670D02*
X368798Y205145D01*
X367749Y204096D01*
Y203046D01*
X368273Y202521D01*
X369323D01*
X369848Y203046D01*
Y203571D01*
X369323Y204096D01*
X367749D01*
X370897Y205670D02*
X372996D01*
Y205145D01*
X370897Y203046D01*
Y202521D01*
X358000Y184700D02*
X354851D01*
Y186274D01*
X355376Y186799D01*
X356426D01*
X356950Y186274D01*
Y184700D01*
Y185749D02*
X358000Y186799D01*
X354851Y189948D02*
X355376Y188898D01*
X356426Y187849D01*
X357475D01*
X358000Y188373D01*
Y189423D01*
X357475Y189948D01*
X356950D01*
X356426Y189423D01*
Y187849D01*
X355376Y190997D02*
X354851Y191522D01*
Y192571D01*
X355376Y193096D01*
X355901D01*
X356426Y192571D01*
X356950Y193096D01*
X357475D01*
X358000Y192571D01*
Y191522D01*
X357475Y190997D01*
X356950D01*
X356426Y191522D01*
X355901Y190997D01*
X355376D01*
X356426Y191522D02*
Y192571D01*
X411700Y212749D02*
X413799D01*
X412749D01*
Y209600D01*
X414849D02*
Y212749D01*
X416423D01*
X416948Y212224D01*
Y211174D01*
X416423Y210649D01*
X414849D01*
X417997Y212224D02*
X418522Y212749D01*
X419571D01*
X420096Y212224D01*
Y211699D01*
X419571Y211174D01*
X419047D01*
X419571D01*
X420096Y210649D01*
Y210125D01*
X419571Y209600D01*
X418522D01*
X417997Y210125D01*
X420900Y224749D02*
X422999D01*
X421949D01*
Y221600D01*
X424049D02*
Y224749D01*
X425623D01*
X426148Y224224D01*
Y223174D01*
X425623Y222650D01*
X424049D01*
X428771Y221600D02*
Y224749D01*
X427197Y223174D01*
X429296D01*
X298200Y93000D02*
Y96149D01*
X299774D01*
X300299Y95624D01*
Y94574D01*
X299774Y94050D01*
X298200D01*
X301349Y96149D02*
X303448D01*
X302398D01*
Y93000D01*
X306596Y95624D02*
X306071Y96149D01*
X305022D01*
X304497Y95624D01*
Y93525D01*
X305022Y93000D01*
X306071D01*
X306596Y93525D01*
X307646Y93000D02*
X308695D01*
X308171D01*
Y96149D01*
X307646Y95624D01*
X117700Y386800D02*
Y389949D01*
X119274D01*
X119799Y389424D01*
Y388374D01*
X119274Y387849D01*
X117700D01*
X118749D02*
X119799Y386800D01*
X120849D02*
Y389949D01*
X122423D01*
X122948Y389424D01*
Y388374D01*
X122423Y387849D01*
X120849D01*
X126096Y386800D02*
X123997D01*
X126096Y388899D01*
Y389424D01*
X125572Y389949D01*
X124522D01*
X123997Y389424D01*
X145500Y387600D02*
Y390749D01*
X147074D01*
X147599Y390224D01*
Y389174D01*
X147074Y388650D01*
X145500D01*
X146549D02*
X147599Y387600D01*
X148649D02*
Y390749D01*
X150223D01*
X150748Y390224D01*
Y389174D01*
X150223Y388650D01*
X148649D01*
X151797Y387600D02*
X152847D01*
X152322D01*
Y390749D01*
X151797Y390224D01*
X175056Y134060D02*
X172957D01*
Y132486D01*
X174006D01*
X172957D01*
Y130912D01*
X176105Y134060D02*
Y130912D01*
X177680D01*
X178204Y131437D01*
Y131961D01*
X177680Y132486D01*
X176105D01*
X177680D01*
X178204Y133011D01*
Y133536D01*
X177680Y134060D01*
X176105D01*
X181353D02*
X179254D01*
Y132486D01*
X180303Y133011D01*
X180828D01*
X181353Y132486D01*
Y131437D01*
X180828Y130912D01*
X179779D01*
X179254Y131437D01*
X128069Y268957D02*
X125970D01*
Y267382D01*
X127020D01*
X125970D01*
Y265808D01*
X129119Y268957D02*
Y265808D01*
X130693D01*
X131218Y266333D01*
Y266858D01*
X130693Y267382D01*
X129119D01*
X130693D01*
X131218Y267907D01*
Y268432D01*
X130693Y268957D01*
X129119D01*
X134367D02*
X133317Y268432D01*
X132267Y267382D01*
Y266333D01*
X132792Y265808D01*
X133842D01*
X134367Y266333D01*
Y266858D01*
X133842Y267382D01*
X132267D01*
X270900Y45774D02*
X272999D01*
X276148Y47349D02*
X274049D01*
Y45774D01*
X275098Y46299D01*
X275623D01*
X276148Y45774D01*
Y44725D01*
X275623Y44200D01*
X274573D01*
X274049Y44725D01*
X277197Y47349D02*
Y45250D01*
X278247Y44200D01*
X279296Y45250D01*
Y47349D01*
X330840Y301180D02*
Y297244D01*
X329528Y301180D02*
X332152D01*
X332620Y298744D02*
X334870D01*
Y299118D01*
X334682Y299493D01*
X334495Y299681D01*
X334120Y299868D01*
X333557D01*
X333183Y299681D01*
X332808Y299306D01*
X332620Y298744D01*
Y298369D01*
X332808Y297806D01*
X333183Y297431D01*
X333557Y297244D01*
X334120D01*
X334495Y297431D01*
X334870Y297806D01*
X335713Y299868D02*
Y297244D01*
Y299118D02*
X336275Y299681D01*
X336650Y299868D01*
X337212D01*
X337587Y299681D01*
X337775Y299118D01*
Y297244D01*
Y299118D02*
X338337Y299681D01*
X338712Y299868D01*
X339274D01*
X339649Y299681D01*
X339837Y299118D01*
Y297244D01*
X341074Y299868D02*
Y295932D01*
Y299306D02*
X341448Y299681D01*
X341823Y299868D01*
X342386D01*
X342761Y299681D01*
X343135Y299306D01*
X343323Y298744D01*
Y298369D01*
X343135Y297806D01*
X342761Y297431D01*
X342386Y297244D01*
X341823D01*
X341448Y297431D01*
X341074Y297806D01*
X348196Y299868D02*
X347821Y299681D01*
X347446Y299306D01*
X347259Y298744D01*
Y298369D01*
X347446Y297806D01*
X347821Y297431D01*
X348196Y297244D01*
X348759D01*
X349133Y297431D01*
X349508Y297806D01*
X349696Y298369D01*
Y298744D01*
X349508Y299306D01*
X349133Y299681D01*
X348759Y299868D01*
X348196D01*
X352057Y301180D02*
X351682D01*
X351308Y300993D01*
X351120Y300430D01*
Y297244D01*
X350558Y299868D02*
X351870D01*
X354119Y301180D02*
X353744D01*
X353369Y300993D01*
X353182Y300430D01*
Y297244D01*
X352620Y299868D02*
X353932D01*
X356743Y299306D02*
X356556Y299681D01*
X355994Y299868D01*
X355431D01*
X354869Y299681D01*
X354681Y299306D01*
X354869Y298931D01*
X355244Y298744D01*
X356181Y298556D01*
X356556Y298369D01*
X356743Y297994D01*
Y297806D01*
X356556Y297431D01*
X355994Y297244D01*
X355431D01*
X354869Y297431D01*
X354681Y297806D01*
X357568Y298744D02*
X359817D01*
Y299118D01*
X359630Y299493D01*
X359442Y299681D01*
X359068Y299868D01*
X358505D01*
X358130Y299681D01*
X357755Y299306D01*
X357568Y298744D01*
Y298369D01*
X357755Y297806D01*
X358130Y297431D01*
X358505Y297244D01*
X359068D01*
X359442Y297431D01*
X359817Y297806D01*
X361223Y301180D02*
Y297994D01*
X361410Y297431D01*
X361785Y297244D01*
X362160D01*
X360661Y299868D02*
X361973D01*
X251200Y136674D02*
X253299D01*
X252250Y137724D02*
Y135625D01*
X256448Y138249D02*
X254349D01*
Y136674D01*
X255398Y137199D01*
X255923D01*
X256448Y136674D01*
Y135625D01*
X255923Y135100D01*
X254873D01*
X254349Y135625D01*
X257497Y138249D02*
Y136150D01*
X258547Y135100D01*
X259596Y136150D01*
Y138249D01*
X53699Y267424D02*
X53174Y267949D01*
X52125D01*
X51600Y267424D01*
Y265325D01*
X52125Y264800D01*
X53174D01*
X53699Y265325D01*
Y266374D01*
X52649D01*
X54749Y264800D02*
Y267949D01*
X56848Y264800D01*
Y267949D01*
X57897D02*
Y264800D01*
X59471D01*
X59996Y265325D01*
Y267424D01*
X59471Y267949D01*
X57897D01*
G54D144*
X140200Y395400D02*
X138101D01*
X137051Y396449D01*
X138101Y397499D01*
X140200D01*
X138626D01*
Y395400D01*
X137576Y400648D02*
X137051Y400123D01*
Y399073D01*
X137576Y398549D01*
X139675D01*
X140200Y399073D01*
Y400123D01*
X139675Y400648D01*
X137051Y403796D02*
Y401697D01*
X138626D01*
X138101Y402747D01*
Y403271D01*
X138626Y403796D01*
X139675D01*
X140200Y403271D01*
Y402222D01*
X139675Y401697D01*
X148500Y394900D02*
X146401D01*
X145351Y395950D01*
X146401Y396999D01*
X148500D01*
X146926D01*
Y394900D01*
X145876Y400148D02*
X145351Y399623D01*
Y398573D01*
X145876Y398049D01*
X147975D01*
X148500Y398573D01*
Y399623D01*
X147975Y400148D01*
X148500Y402772D02*
X145351D01*
X146926Y401197D01*
Y403296D01*
X97600Y395600D02*
X95501D01*
X94451Y396650D01*
X95501Y397699D01*
X97600D01*
X96026D01*
Y395600D01*
X94976Y400848D02*
X94451Y400323D01*
Y399273D01*
X94976Y398749D01*
X97075D01*
X97600Y399273D01*
Y400323D01*
X97075Y400848D01*
X94976Y401897D02*
X94451Y402422D01*
Y403472D01*
X94976Y403996D01*
X95501D01*
X96026Y403472D01*
Y402947D01*
Y403472D01*
X96551Y403996D01*
X97075D01*
X97600Y403472D01*
Y402422D01*
X97075Y401897D01*
X105500Y395300D02*
X103401D01*
X102351Y396350D01*
X103401Y397399D01*
X105500D01*
X103926D01*
Y395300D01*
X102876Y400548D02*
X102351Y400023D01*
Y398973D01*
X102876Y398449D01*
X104975D01*
X105500Y398973D01*
Y400023D01*
X104975Y400548D01*
X105500Y403696D02*
Y401597D01*
X103401Y403696D01*
X102876D01*
X102351Y403171D01*
Y402122D01*
X102876Y401597D01*
X114218Y396218D02*
X112119D01*
X111070Y397268D01*
X112119Y398317D01*
X114218D01*
X112644D01*
Y396218D01*
X111594Y401466D02*
X111070Y400941D01*
Y399891D01*
X111594Y399367D01*
X113693D01*
X114218Y399891D01*
Y400941D01*
X113693Y401466D01*
X114218Y402515D02*
Y403565D01*
Y403040D01*
X111070D01*
X111594Y402515D01*
X131000Y395400D02*
X128901D01*
X127851Y396449D01*
X128901Y397499D01*
X131000D01*
X129426D01*
Y395400D01*
X128376Y400648D02*
X127851Y400123D01*
Y399073D01*
X128376Y398549D01*
X130475D01*
X131000Y399073D01*
Y400123D01*
X130475Y400648D01*
X127851Y403796D02*
X128376Y402747D01*
X129426Y401697D01*
X130475D01*
X131000Y402222D01*
Y403271D01*
X130475Y403796D01*
X129950D01*
X129426Y403271D01*
Y401697D01*
X119751Y398100D02*
X122900D01*
X121326D01*
Y400199D01*
X119751D01*
X122900D01*
X119751Y401249D02*
Y403348D01*
Y402298D01*
X122900D01*
X152868Y258456D02*
X156016D01*
Y256882D01*
X155491Y256357D01*
X154442D01*
X153917Y256882D01*
Y258456D01*
X156016Y255307D02*
Y253208D01*
Y254258D01*
X152868D01*
X155491Y250060D02*
X156016Y250585D01*
Y251634D01*
X155491Y252159D01*
X153393D01*
X152868Y251634D01*
Y250585D01*
X153393Y250060D01*
X152868Y246911D02*
Y249010D01*
X154967Y246911D01*
X155491D01*
X156016Y247436D01*
Y248485D01*
X155491Y249010D01*
G54D145*
X77570Y316760D02*
D03*
M02*
