%FSLAX25Y25*%
%MOIN*%
G70*
G01*
G75*
G04 Layer_Physical_Order=2*
G04 Layer_Color=16711680*
%ADD10C,0.01000*%
%ADD11R,0.04134X0.05512*%
%ADD12R,0.05512X0.04134*%
%ADD13R,0.04724X0.03150*%
%ADD14O,0.04724X0.03150*%
%ADD15R,0.04724X0.01969*%
%ADD16R,0.04724X0.01181*%
%ADD17R,0.01969X0.04724*%
%ADD18R,0.01181X0.04724*%
%ADD19R,0.05512X0.03937*%
%ADD20R,0.06102X0.08661*%
%ADD21R,0.08661X0.06102*%
%ADD22R,0.06102X0.02362*%
%ADD23R,0.02362X0.06102*%
%ADD24R,0.08268X0.14764*%
%ADD25R,0.09843X0.09055*%
%ADD26R,0.06000X0.10000*%
%ADD27O,0.06102X0.02362*%
%ADD28R,0.14764X0.08268*%
%ADD29R,0.10236X0.09449*%
%ADD30R,0.08661X0.05906*%
%ADD31R,0.05000X0.01000*%
%ADD32R,0.01000X0.05000*%
%ADD33O,0.05000X0.01000*%
%ADD34R,0.12402X0.06299*%
%ADD35R,0.02362X0.07874*%
%ADD36R,0.07087X0.06000*%
%ADD37R,0.03937X0.05512*%
%ADD38R,0.06299X0.12402*%
%ADD39R,0.09449X0.10236*%
%ADD40R,0.06000X0.07087*%
%ADD41R,0.06500X0.04500*%
%ADD42R,0.06500X0.11800*%
%ADD43O,0.03150X0.11811*%
%ADD44R,0.03150X0.11811*%
%ADD45R,0.03150X0.04724*%
%ADD46O,0.03150X0.04724*%
%ADD47R,0.01772X0.05709*%
%ADD48R,0.05709X0.01772*%
%ADD49R,0.04921X0.13386*%
%ADD50R,0.06299X0.10630*%
%ADD51R,0.10630X0.06299*%
%ADD52C,0.02000*%
%ADD53C,0.01500*%
%ADD54C,0.03000*%
%ADD55C,0.04000*%
%ADD56C,0.06000*%
%ADD57C,0.02500*%
%ADD58C,0.01200*%
%ADD59C,0.08000*%
%ADD60C,0.05000*%
%ADD61R,0.06900X0.16600*%
%ADD62R,0.12500X0.03400*%
%ADD63R,0.19600X0.16800*%
%ADD64R,0.27900X0.19600*%
%ADD65R,0.44300X0.27600*%
%ADD66R,0.18898X0.09449*%
%ADD67R,0.18898X0.09055*%
%ADD68R,0.10221X0.52362*%
%ADD69R,0.20331X0.12598*%
%ADD70R,0.45592X0.09289*%
%ADD71R,0.25590X0.20079*%
%ADD72R,0.22441X0.20254*%
%ADD73R,0.32677X0.11024*%
%ADD74R,0.36614X0.28346*%
%ADD75R,0.18504X0.62205*%
%ADD76R,0.13780X0.22835*%
%ADD77R,0.24900X0.11417*%
%ADD78R,0.30800X0.16605*%
%ADD79R,0.37402X0.13386*%
%ADD80R,0.14014X0.14161*%
%ADD81R,0.44488X0.16838*%
%ADD82R,0.14173X0.04724*%
%ADD83R,0.15354X0.16535*%
%ADD84R,0.19291X0.16142*%
%ADD85R,0.38976X0.14892*%
%ADD86R,0.15354X0.14098*%
%ADD87R,0.22300X0.17000*%
%ADD88R,0.69700X0.22200*%
%ADD89R,0.22200X0.18100*%
%ADD90R,0.20700X0.43400*%
%ADD91R,0.16900X0.61900*%
%ADD92R,0.17600X0.11100*%
%ADD93R,0.60400X0.28600*%
%ADD94R,0.06300X0.33500*%
%ADD95R,0.51100X0.18500*%
%ADD96R,0.17300X0.16200*%
%ADD97R,0.64800X0.19500*%
%ADD98R,0.54300X0.17300*%
%ADD99R,0.44100X0.21000*%
%ADD100R,0.22200X0.50300*%
%ADD101R,0.21200X0.51400*%
%ADD102R,0.42500X0.16300*%
%ADD103R,0.12300X0.11000*%
%ADD104R,0.36434X0.18432*%
%ADD105R,0.18200X0.09300*%
%ADD106R,0.30400X0.13200*%
%ADD107R,0.49910X0.31300*%
%ADD108C,0.03937*%
%ADD109C,0.05118*%
%ADD110O,0.05000X0.05906*%
%ADD111C,0.06000*%
%ADD112R,0.27559X0.26772*%
%ADD113R,0.09449X0.14961*%
%ADD114C,0.05906*%
%ADD115R,0.05906X0.05906*%
%ADD116C,0.06299*%
%ADD117O,0.05906X0.05000*%
%ADD118C,0.11811*%
%ADD119C,0.12598*%
%ADD120C,0.05000*%
%ADD121C,0.04724*%
%ADD122R,0.04724X0.04724*%
%ADD123C,0.09843*%
%ADD124R,0.08661X0.08661*%
%ADD125C,0.06200*%
%ADD126O,0.07874X0.05000*%
%ADD127R,0.06299X0.06299*%
%ADD128C,0.03000*%
%ADD129C,0.04000*%
%ADD130R,0.60400X0.13100*%
G54D10*
X2594Y11417D02*
G03*
X5215Y4821I9611J0D01*
G01*
X5215D02*
G03*
X11811Y2200I6596J6990D01*
G01*
X2594Y11417D02*
G03*
X2191Y12687I-2200J0D01*
G01*
X29759Y35433D02*
G03*
X2191Y38969I-14011J0D01*
G01*
Y31897D02*
G03*
X29759Y35433I13557J3536D01*
G01*
X42000Y58100D02*
G03*
X53400Y58100I5700J0D01*
G01*
X43670Y136431D02*
G03*
X42000Y132400I4030J-4030D01*
G01*
X43670Y136431D02*
G03*
X42000Y132400I4030J-4030D01*
G01*
X74565Y62800D02*
G03*
X74565Y62800I-4850J0D01*
G01*
X56230Y132870D02*
G03*
X57900Y136900I-4030J4030D01*
G01*
X56230Y132870D02*
G03*
X57900Y136900I-4030J4030D01*
G01*
X150901Y156798D02*
G03*
X150901Y156798I-3669J0D01*
G01*
X170997Y152003D02*
G03*
X172227Y149033I4200J0D01*
G01*
X182498Y138762D02*
G03*
X185468Y137532I2970J2970D01*
G01*
X182498Y138762D02*
G03*
X185468Y137532I2970J2970D01*
G01*
X170997Y152003D02*
G03*
X172227Y149033I4200J0D01*
G01*
X153100Y169100D02*
G03*
X157131Y170770I0J5700D01*
G01*
X153100Y169100D02*
G03*
X157131Y170770I0J5700D01*
G01*
X166230Y179869D02*
G03*
X167900Y183900I-4030J4030D01*
G01*
X166230Y179869D02*
G03*
X167900Y183900I-4030J4030D01*
G01*
X36201Y229816D02*
G03*
X36201Y229816I-4700J0D01*
G01*
X57900Y192800D02*
G03*
X46500Y192800I-5700J0D01*
G01*
X33611Y244016D02*
G03*
X33611Y235616I-2110J-4200D01*
G01*
X147384D02*
G03*
X151584Y239816I0J4200D01*
G01*
X116280Y274459D02*
G03*
X116280Y274459I-3669J0D01*
G01*
X151584Y239816D02*
G03*
X147384Y244016I-4200J0D01*
G01*
X238456Y225667D02*
G03*
X245309Y221567I2200J-4100D01*
G01*
X270823Y77705D02*
G03*
X270823Y77705I-3669J0D01*
G01*
X279091Y38457D02*
G03*
X279091Y38457I-3669J0D01*
G01*
X285600Y25243D02*
G03*
X285600Y17843I0J-3700D01*
G01*
X259268Y137532D02*
G03*
X263468Y141732I0J4200D01*
G01*
D02*
G03*
X259268Y145932I-4200J0D01*
G01*
X260542Y204408D02*
G03*
X261262Y202673I2450J0D01*
G01*
X260542Y204408D02*
G03*
X261260Y202676I2450J0D01*
G01*
X278850Y158800D02*
G03*
X279570Y157065I2450J0D01*
G01*
X278850Y158800D02*
G03*
X279568Y157068I2450J0D01*
G01*
X255309Y221567D02*
G03*
X255309Y221567I-4653J0D01*
G01*
X245309D02*
G03*
X242856Y225667I-4653J0D01*
G01*
X282140Y225848D02*
G03*
X283700Y225200I1560J1552D01*
G01*
X282144Y225844D02*
G03*
X283700Y225200I1556J1556D01*
G01*
X285995Y197116D02*
G03*
X288951Y197367I1238J2951D01*
G01*
X293600Y188600D02*
G03*
X292956Y190156I-2200J0D01*
G01*
X293600Y188600D02*
G03*
X292952Y190159I-2200J0D01*
G01*
X292220Y144415D02*
G03*
X293952Y143698I1732J1732D01*
G01*
X292218Y144418D02*
G03*
X293952Y143698I1735J1730D01*
G01*
X288951Y202767D02*
G03*
X284282Y198829I-1718J-2700D01*
G01*
X289776Y225200D02*
G03*
X292023Y224201I2324J2200D01*
G01*
D02*
G03*
X298400Y223819I3177J-382D01*
G01*
X232400Y251000D02*
G03*
X233048Y249441I2200J0D01*
G01*
X232400Y251000D02*
G03*
X233044Y249444I2200J0D01*
G01*
X237800Y257000D02*
G03*
X232400Y254676I-3200J0D01*
G01*
X236800D02*
G03*
X237800Y257000I-2200J2324D01*
G01*
X242856Y244944D02*
G03*
X242208Y246504I-2200J0D01*
G01*
X242856Y244944D02*
G03*
X242212Y246500I-2200J0D01*
G01*
X240750Y254438D02*
G03*
X241468Y252705I2450J0D01*
G01*
X240750Y254438D02*
G03*
X241470Y252703I2450J0D01*
G01*
X213776Y290815D02*
G03*
X213776Y285915I-2059J-2450D01*
G01*
X245650Y284500D02*
G03*
X244932Y286232I-2450J0D01*
G01*
X245650Y284500D02*
G03*
X244930Y286235I-2450J0D01*
G01*
X241069Y290095D02*
G03*
X239335Y290815I-1735J-1730D01*
G01*
X241067Y290098D02*
G03*
X239335Y290815I-1732J-1732D01*
G01*
X261727Y258661D02*
G03*
X256203Y260861I-3200J0D01*
G01*
Y256461D02*
G03*
X261727Y258661I2324J2200D01*
G01*
X273700Y269307D02*
G03*
X272278Y269198I-472J-3165D01*
G01*
X268735Y270379D02*
G03*
X263942Y266180I-2593J-1875D01*
G01*
X279900Y229000D02*
G03*
X280548Y227441I2200J0D01*
G01*
X279900Y229000D02*
G03*
X280544Y227444I2200J0D01*
G01*
X279100Y254000D02*
G03*
X278100Y256324I-3200J0D01*
G01*
X275428Y250835D02*
G03*
X279100Y254000I472J3165D01*
G01*
X282837Y264714D02*
G03*
X279900Y259276I-737J-3114D01*
G01*
X286087Y268399D02*
G03*
X282837Y264714I-88J-3199D01*
G01*
X256739Y280104D02*
G03*
X259916Y279956I1718J2700D01*
G01*
Y285652D02*
G03*
X256739Y285504I-1460J-2848D01*
G01*
X272278Y269198D02*
G03*
X268735Y270379I-2593J-1875D01*
G01*
X267202Y287134D02*
G03*
X260948Y286181I-3200J0D01*
G01*
X267057D02*
G03*
X267202Y287134I-3055J953D01*
G01*
X288516Y269916D02*
G03*
X286960Y269272I0J-2200D01*
G01*
X288516Y269916D02*
G03*
X286957Y269268I0J-2200D01*
G01*
X285558Y272783D02*
G03*
X286648Y273378I-466J2150D01*
G01*
X285558Y272783D02*
G03*
X286652Y273382I-466J2150D01*
G01*
X287450Y274180D02*
G03*
X288099Y275740I-1552J1560D01*
G01*
X287454Y274184D02*
G03*
X288099Y275740I-1556J1556D01*
G01*
Y275780D02*
G03*
X288547Y276308I-2200J2324D01*
G01*
X284302Y285854D02*
G03*
X278100Y286934I-3200J-27D01*
G01*
X288244Y282964D02*
G03*
X286685Y282315I0J-2200D01*
G01*
X288244Y282964D02*
G03*
X286688Y282319I0J-2200D01*
G01*
X128900Y367624D02*
G03*
X134300Y365300I2200J-2324D01*
G01*
D02*
G03*
X133300Y367624I-3200J0D01*
G01*
X149800Y370500D02*
G03*
X148800Y372824I-3200J0D01*
G01*
X136800Y375524D02*
G03*
X142200Y373200I2200J-2324D01*
G01*
X133300Y376762D02*
G03*
X136800Y377327I1325J2913D01*
G01*
X142200Y373200D02*
G03*
X141200Y375524I-3200J0D01*
G01*
X144400Y372824D02*
G03*
X149800Y370500I2200J-2324D01*
G01*
X141200Y378325D02*
G03*
X144400Y377976I1900J2575D01*
G01*
X34877Y402756D02*
G03*
X34877Y402756I-6137J0D01*
G01*
X115719Y425948D02*
G03*
X117279Y425300I1560J1552D01*
G01*
X115723Y425944D02*
G03*
X117279Y425300I1556J1556D01*
G01*
X112264Y435627D02*
G03*
X112471Y437008I-4493J1381D01*
G01*
X122264Y435627D02*
G03*
X122471Y437008I-4493J1381D01*
G01*
X148800Y421800D02*
G03*
X148156Y423356I-2200J0D01*
G01*
X148800Y421800D02*
G03*
X148152Y423359I-2200J0D01*
G01*
X139971Y432855D02*
G03*
X142471Y437008I-2200J4153D01*
G01*
X172227Y316167D02*
G03*
X170997Y313197I2970J-2970D01*
G01*
X172227Y316167D02*
G03*
X170997Y313197I2970J-2970D01*
G01*
X190270Y322330D02*
G03*
X191500Y325300I-2970J2970D01*
G01*
X190270Y322330D02*
G03*
X191500Y325300I-2970J2970D01*
G01*
X199112Y330512D02*
G03*
X205512Y330512I3200J0D01*
G01*
X199112D02*
G03*
X205512Y330512I3200J0D01*
G01*
X214617Y307700D02*
G03*
X214594Y308083I-3200J0D01*
G01*
X211180Y310891D02*
G03*
X214617Y307700I237J-3191D01*
G01*
X224655Y309217D02*
G03*
X229883Y305674I2904J-1343D01*
G01*
X214817Y313617D02*
G03*
X213262Y312973I0J-2200D01*
G01*
X214817Y313617D02*
G03*
X213258Y312969I0J-2200D01*
G01*
X179166Y358334D02*
G03*
X179166Y349934I0J-4200D01*
G01*
X158169Y384331D02*
G03*
X156500Y380300I4030J-4030D01*
G01*
X158169Y384331D02*
G03*
X156500Y380300I4030J-4030D01*
G01*
X176000Y399800D02*
G03*
X171969Y398130I0J-5700D01*
G01*
X176000Y399800D02*
G03*
X171969Y398130I0J-5700D01*
G01*
X191500Y354134D02*
G03*
X187300Y358334I-4200J0D01*
G01*
X191500Y354134D02*
G03*
X187300Y358334I-4200J0D01*
G01*
X30815Y444823D02*
G03*
X39215Y444823I4200J0D01*
G01*
X40658D02*
G03*
X49058Y444823I4200J0D01*
G01*
X50500D02*
G03*
X58900Y444823I4200J0D01*
G01*
X39215Y445728D02*
G03*
X30815Y445728I-4200J0D01*
G01*
X49058D02*
G03*
X40658Y445728I-4200J0D01*
G01*
X58900D02*
G03*
X50500Y445728I-4200J0D01*
G01*
X60343Y444823D02*
G03*
X68743Y444823I4200J0D01*
G01*
X112471Y437008D02*
G03*
X109152Y432515I-4700J0D01*
G01*
X122471Y437008D02*
G03*
X119152Y432515I-4700J0D01*
G01*
X130700Y440684D02*
G03*
X125571Y432855I-2929J-3676D01*
G01*
X68743Y445728D02*
G03*
X60343Y445728I-4200J0D01*
G01*
X102471Y447008D02*
G03*
X102471Y447008I-4700J0D01*
G01*
X112471D02*
G03*
X112471Y447008I-4700J0D01*
G01*
X122471D02*
G03*
X122471Y447008I-4700J0D01*
G01*
X132471D02*
G03*
X129152Y442515I-4700J0D01*
G01*
X2191Y472842D02*
G03*
X29759Y476378I13557J3536D01*
G01*
D02*
G03*
X2191Y479914I-14011J0D01*
G01*
X11417Y509611D02*
G03*
X2191Y502691I0J-9611D01*
G01*
X132264Y445627D02*
G03*
X132471Y447008I-4493J1381D01*
G01*
X142471Y437008D02*
G03*
X135100Y440875I-4700J0D01*
G01*
Y441879D02*
G03*
X134456Y443435I-2200J0D01*
G01*
X142471Y447008D02*
G03*
X142471Y447008I-4700J0D01*
G01*
X135100Y441879D02*
G03*
X134452Y443438I-2200J0D01*
G01*
X236300Y446539D02*
G03*
X236948Y444980I2200J0D01*
G01*
X236300Y446539D02*
G03*
X236944Y444984I2200J0D01*
G01*
X209217Y483683D02*
G03*
X209862Y482127I2200J0D01*
G01*
X209217Y483683D02*
G03*
X209866Y482123I2200J0D01*
G01*
X219060Y483740D02*
G03*
X219704Y482185I2200J0D01*
G01*
X219060Y483740D02*
G03*
X219708Y482181I2200J0D01*
G01*
X213617Y495314D02*
G03*
X214617Y497638I-2200J2324D01*
G01*
D02*
G03*
X209217Y495314I-3200J0D01*
G01*
X223460D02*
G03*
X224460Y497638I-2200J2324D01*
G01*
D02*
G03*
X219060Y495314I-3200J0D01*
G01*
X229296Y483504D02*
G03*
X229944Y481944I2200J0D01*
G01*
X234696Y497638D02*
G03*
X229296Y495314I-3200J0D01*
G01*
Y483504D02*
G03*
X229940Y481948I2200J0D01*
G01*
X233696Y495314D02*
G03*
X234696Y497638I-2200J2324D01*
G01*
X246612Y330512D02*
G03*
X253012Y330512I3200J0D01*
G01*
X246612D02*
G03*
X253012Y330512I3200J0D01*
G01*
X239440Y354147D02*
G03*
X233040Y354147I-3200J0D01*
G01*
X239440D02*
G03*
X233040Y354147I-3200J0D01*
G01*
X247406Y454175D02*
G03*
X240700Y453252I-2918J-3624D01*
G01*
X257249Y454296D02*
G03*
X251806Y454353I-2761J-3745D01*
G01*
X250034Y441894D02*
G03*
X259141Y440551I4455J-1343D01*
G01*
X257249Y445591D02*
G03*
X257893Y444035I2200J0D01*
G01*
X251806Y446749D02*
G03*
X257249Y446806I2682J3802D01*
G01*
X259141Y440551D02*
G03*
X253145Y445006I-4653J0D01*
G01*
X257249Y445591D02*
G03*
X257897Y444031I2200J0D01*
G01*
X260034Y441894D02*
G03*
X269141Y440551I4455J-1343D01*
G01*
X274344Y304356D02*
G03*
X273700Y302800I1556J-1556D01*
G01*
X274348Y304360D02*
G03*
X273700Y302800I1552J-1560D01*
G01*
X291388Y330512D02*
G03*
X297788Y330512I3200J0D01*
G01*
X291388D02*
G03*
X297788Y330512I3200J0D01*
G01*
X285579Y354140D02*
G03*
X279179Y354140I-3200J0D01*
G01*
X285579D02*
G03*
X279179Y354140I-3200J0D01*
G01*
X269141Y440551D02*
G03*
X263145Y445006I-4653J0D01*
G01*
X267485Y445354D02*
G03*
X268133Y443795I2200J0D01*
G01*
X267485Y445354D02*
G03*
X268129Y443799I2200J0D01*
G01*
X270034Y441894D02*
G03*
X279141Y440551I4455J-1343D01*
G01*
X277328Y445512D02*
G03*
X277976Y443952I2200J0D01*
G01*
X277328Y445512D02*
G03*
X277972Y443956I2200J0D01*
G01*
X261649Y446865D02*
G03*
X267485Y446992I2840J3686D01*
G01*
Y454110D02*
G03*
X261649Y454237I-2997J-3559D01*
G01*
X271885Y446695D02*
G03*
X277328Y446865I2603J3856D01*
G01*
Y454237D02*
G03*
X271885Y454408I-2839J-3686D01*
G01*
X280034Y441894D02*
G03*
X289141Y440551I4455J-1343D01*
G01*
X279141D02*
G03*
X273145Y445006I-4653J0D01*
G01*
X289141Y440551D02*
G03*
X283145Y445006I-4653J0D01*
G01*
X290034Y441894D02*
G03*
X299141Y440551I4455J-1343D01*
G01*
D02*
G03*
X293145Y445006I-4653J0D01*
G01*
X281728Y446806D02*
G03*
X287170Y446749I2761J3745D01*
G01*
X286583Y454706D02*
G03*
X281728Y454296I-2095J-4155D01*
G01*
X287170Y445669D02*
G03*
X287814Y444114I2200J0D01*
G01*
X287170Y445669D02*
G03*
X287818Y444110I2200J0D01*
G01*
X297406Y454175D02*
G03*
X291570Y454175I-2918J-3624D01*
G01*
Y446927D02*
G03*
X297406Y446927I2918J3624D01*
G01*
X240700Y456600D02*
G03*
X240052Y458159I-2200J0D01*
G01*
X240700Y456600D02*
G03*
X240056Y458156I-2200J0D01*
G01*
X251806Y455394D02*
G03*
X251162Y456949I-2200J0D01*
G01*
X251806Y455394D02*
G03*
X251158Y456953I-2200J0D01*
G01*
X261649Y455551D02*
G03*
X261004Y457107I-2200J0D01*
G01*
X261649Y455551D02*
G03*
X261000Y457111I-2200J0D01*
G01*
X239139Y483461D02*
G03*
X239783Y481906I2200J0D01*
G01*
X239139Y483461D02*
G03*
X239787Y481902I2200J0D01*
G01*
X244539Y497638D02*
G03*
X239139Y495314I-3200J0D01*
G01*
X243539D02*
G03*
X244539Y497638I-2200J2324D01*
G01*
X249375Y483225D02*
G03*
X250023Y481666I2200J0D01*
G01*
X249375Y483225D02*
G03*
X250019Y481670I2200J0D01*
G01*
X258824Y483376D02*
G03*
X259472Y481817I2200J0D01*
G01*
X258824Y483376D02*
G03*
X259468Y481821I2200J0D01*
G01*
X253775Y495314D02*
G03*
X254775Y497638I-2200J2324D01*
G01*
D02*
G03*
X249375Y495314I-3200J0D01*
G01*
X264224Y497638D02*
G03*
X258824Y495314I-3200J0D01*
G01*
X271885Y455115D02*
G03*
X271237Y456674I-2200J0D01*
G01*
X271885Y455115D02*
G03*
X271241Y456671I-2200J0D01*
G01*
X281728Y455272D02*
G03*
X281083Y456828I-2200J0D01*
G01*
X281728Y455272D02*
G03*
X281079Y456832I-2200J0D01*
G01*
X291570Y455030D02*
G03*
X290926Y456586I-2200J0D01*
G01*
X291570Y455030D02*
G03*
X290922Y456590I-2200J0D01*
G01*
X269454Y483347D02*
G03*
X270102Y481787I2200J0D01*
G01*
X269454Y483347D02*
G03*
X270098Y481791I2200J0D01*
G01*
X274853Y497244D02*
G03*
X269454Y494920I-3200J0D01*
G01*
X263224Y495314D02*
G03*
X264224Y497638I-2200J2324D01*
G01*
X273853Y494920D02*
G03*
X274853Y497244I-2200J2324D01*
G01*
X279296Y483304D02*
G03*
X279944Y481744I2200J0D01*
G01*
X279296Y483304D02*
G03*
X279940Y481748I2200J0D01*
G01*
X289532Y483168D02*
G03*
X290181Y481608I2200J0D01*
G01*
X289532Y483168D02*
G03*
X290177Y481612I2200J0D01*
G01*
X284696Y497244D02*
G03*
X279296Y494920I-3200J0D01*
G01*
X283696D02*
G03*
X284696Y497244I-2200J2324D01*
G01*
X294932Y497638D02*
G03*
X289532Y495314I-3200J0D01*
G01*
X365443Y17843D02*
G03*
X368060Y18927I0J3700D01*
G01*
X365443Y17843D02*
G03*
X368060Y18927I0J3700D01*
G01*
X359136Y45528D02*
G03*
X367036Y43540I3700J-1987D01*
G01*
X315337Y85240D02*
G03*
X315337Y77840I0J-3700D01*
G01*
X341501Y92281D02*
G03*
X346942Y89997I2241J-2284D01*
G01*
X337210Y111533D02*
G03*
X341501Y106792I2241J-2284D01*
G01*
X346942Y89997D02*
G03*
X345901Y92359I-3200J0D01*
G01*
X329042Y143698D02*
G03*
X333635Y144194I2059J2450D01*
G01*
Y139897D02*
G03*
X337210Y134684I2200J-2324D01*
G01*
X359136Y87202D02*
G03*
X358648Y85240I3712J-1965D01*
G01*
X359095Y92300D02*
G03*
X359136Y91751I3700J0D01*
G01*
X359095Y92300D02*
G03*
X359136Y91751I3700J0D01*
G01*
X366536Y92259D02*
G03*
X366495Y92808I-3700J0D01*
G01*
X359292Y125373D02*
G03*
X359095Y121853I3708J-1973D01*
G01*
X367036Y43540D02*
G03*
X366536Y45528I-4200J0D01*
G01*
Y92259D02*
G03*
X366495Y92808I-3700J0D01*
G01*
X366536Y83228D02*
G03*
X367048Y85237I-3688J2009D01*
G01*
D02*
G03*
X366536Y87246I-4200J0D01*
G01*
X374663Y25531D02*
G03*
X375747Y28147I-2616J2616D01*
G01*
X374663Y25531D02*
G03*
X375747Y28147I-2616J2616D01*
G01*
X385560Y81258D02*
G03*
X391460Y79540I2700J-1718D01*
G01*
D02*
G03*
X390960Y81258I-3200J0D01*
G01*
X375747Y91416D02*
G03*
X375788Y91965I-3659J549D01*
G01*
X368388Y95893D02*
G03*
X368347Y95344I3659J-549D01*
G01*
X391500Y99843D02*
G03*
X385560Y98191I-3200J0D01*
G01*
X390960Y98064D02*
G03*
X391500Y99843I-2660J1779D01*
G01*
X368362Y106507D02*
G03*
X368388Y103036I3838J-1707D01*
G01*
X368347Y106841D02*
G03*
X368362Y106507I3700J0D01*
G01*
X366495Y121071D02*
G03*
X367200Y123400I-3495J2329D01*
G01*
D02*
G03*
X366692Y125402I-4200J0D01*
G01*
X369431Y140969D02*
G03*
X368347Y138353I2616J-2616D01*
G01*
X369431Y140969D02*
G03*
X368347Y138353I2616J-2616D01*
G01*
X375785Y106988D02*
G03*
X375747Y107390I-3697J-147D01*
G01*
X374882Y145827D02*
G03*
X373376Y144914I1110J-3530D01*
G01*
X374882Y145827D02*
G03*
X373376Y144914I1110J-3530D01*
G01*
X375992Y145998D02*
G03*
X375464Y145960I0J-3700D01*
G01*
X375788Y102617D02*
G03*
X376400Y104800I-3588J2183D01*
G01*
D02*
G03*
X375785Y106988I-4200J0D01*
G01*
X382272Y138598D02*
G03*
X388460Y142298I1987J3700D01*
G01*
X371266Y149000D02*
G03*
X374882Y145827I3200J0D01*
G01*
X375464Y145960D02*
G03*
X377665Y149000I-998J3040D01*
G01*
X371266D02*
G03*
X374882Y145827I3200J0D01*
G01*
X375464Y145960D02*
G03*
X377665Y149000I-998J3040D01*
G01*
X375992Y145998D02*
G03*
X375464Y145960I0J-3700D01*
G01*
X388460Y142298D02*
G03*
X382272Y145998I-4200J0D01*
G01*
X298200Y178000D02*
G03*
X298200Y170600I0J-3700D01*
G01*
X308716Y197367D02*
G03*
X313633Y200067I1718J2700D01*
G01*
D02*
G03*
X308716Y202767I-3200J0D01*
G01*
X319660Y170600D02*
G03*
X320500Y170503I840J3603D01*
G01*
X324040Y177903D02*
G03*
X323200Y178000I-840J-3603D01*
G01*
X332634Y202945D02*
G03*
X338124Y200282I3166J-463D01*
G01*
X295384Y241243D02*
G03*
X295432Y241800I-3151J557D01*
G01*
X297400Y228700D02*
G03*
X296756Y230256I-2200J0D01*
G01*
X298400Y223819D02*
G03*
X297400Y226143I-3200J0D01*
G01*
Y228700D02*
G03*
X296752Y230259I-2200J0D01*
G01*
X323550Y250472D02*
G03*
X323550Y250472I-4259J0D01*
G01*
X332601Y209096D02*
G03*
X332634Y202945I899J-3071D01*
G01*
X332863Y215854D02*
G03*
X332634Y209638I637J-3136D01*
G01*
D02*
G03*
X332601Y209096I3166J-463D01*
G01*
Y223739D02*
G03*
X332634Y217587I899J-3071D01*
G01*
D02*
G03*
X332863Y215854I3166J-463D01*
G01*
X335824Y229561D02*
G03*
X332634Y224280I-2324J-2200D01*
G01*
D02*
G03*
X332601Y223739I3166J-463D01*
G01*
X323550Y270473D02*
G03*
X323550Y270473I-4259J0D01*
G01*
X339156Y158756D02*
G03*
X337600Y159400I-1556J-1556D01*
G01*
X339159Y158752D02*
G03*
X337600Y159400I-1560J-1552D01*
G01*
X345901Y151099D02*
G03*
X345256Y152655I-2200J0D01*
G01*
X345901Y151099D02*
G03*
X345252Y152659I-2200J0D01*
G01*
X366692Y171012D02*
G03*
X368520Y174203I-1872J3191D01*
G01*
X366692Y171012D02*
G03*
X368520Y174203I-1872J3191D01*
G01*
D02*
G03*
X367436Y176820I-3700J0D01*
G01*
X368520Y174203D02*
G03*
X367436Y176820I-3700J0D01*
G01*
X367339Y176916D02*
G03*
X363883Y177903I-2616J-2616D01*
G01*
X347600Y190714D02*
G03*
X341200Y190714I-3200J0D01*
G01*
X347600D02*
G03*
X341200Y190714I-3200J0D01*
G01*
X356466Y205602D02*
G03*
X356500Y206065I-3166J463D01*
G01*
X356466Y212295D02*
G03*
X356500Y212757I-3166J463D01*
G01*
D02*
G03*
X356237Y214028I-3200J0D01*
G01*
X356466Y220244D02*
G03*
X356500Y220707I-3166J463D01*
G01*
X356466Y226937D02*
G03*
X356500Y227400I-3166J463D01*
G01*
X357606Y274173D02*
G03*
X357606Y274173I-4062J0D01*
G01*
X356500Y227400D02*
G03*
X350940Y229561I-3200J0D01*
G01*
X349488Y284410D02*
G03*
X357606Y284173I4055J-237D01*
G01*
X353314Y200282D02*
G03*
X358800Y202521I2286J2239D01*
G01*
D02*
G03*
X356466Y205602I-3200J0D01*
G01*
X356499Y206143D02*
G03*
X358800Y209214I-899J3071D01*
G01*
D02*
G03*
X356466Y212295I-3200J0D01*
G01*
X390906Y208476D02*
G03*
X389966Y206210I2260J-2266D01*
G01*
X390904Y208473D02*
G03*
X389966Y206210I2263J-2263D01*
G01*
X356237Y214028D02*
G03*
X358800Y217164I-637J3136D01*
G01*
D02*
G03*
X356466Y220244I-3200J0D01*
G01*
X356499Y220786D02*
G03*
X358800Y223857I-899J3071D01*
G01*
D02*
G03*
X356466Y226937I-3200J0D01*
G01*
X418600Y64330D02*
G03*
X418600Y59270I2700J-2530D01*
G01*
X418600Y23858D02*
G03*
X425000Y21328I2700J-2530D01*
G01*
D02*
G03*
X424000Y23858I-3700J0D01*
G01*
X432200Y54000D02*
G03*
X424000Y57388I-4800J0D01*
G01*
X424000Y50612D02*
G03*
X432200Y54000I3400J3388D01*
G01*
X424000Y59270D02*
G03*
X425000Y61800I-2700J2530D01*
G01*
D02*
G03*
X424000Y64330I-3700J0D01*
G01*
Y92782D02*
G03*
X425000Y95312I-2700J2530D01*
G01*
D02*
G03*
X418600Y92782I-3700J0D01*
G01*
X432400Y74800D02*
G03*
X424000Y77975I-4800J0D01*
G01*
Y71625D02*
G03*
X432400Y74800I3600J3175D01*
G01*
X424612Y142904D02*
G03*
X431012Y142904I3200J0D01*
G01*
X424612D02*
G03*
X431012Y142904I3200J0D01*
G01*
X444137Y24100D02*
G03*
X444137Y24100I-6137J0D01*
G01*
X456831Y67980D02*
G03*
X456831Y59579I0J-4200D01*
G01*
X468504Y2200D02*
G03*
X477913Y9849I0J9611D01*
G01*
X470704Y35433D02*
G03*
X470704Y35433I-14011J0D01*
G01*
X459705Y59579D02*
G03*
X463905Y63779I0J4200D01*
G01*
D02*
G03*
X459705Y67980I-4200J0D01*
G01*
X456831Y87665D02*
G03*
X456831Y79265I0J-4200D01*
G01*
Y110499D02*
G03*
X456831Y102099I0J-4200D01*
G01*
Y130184D02*
G03*
X456831Y121784I0J-4200D01*
G01*
X434308Y150818D02*
G03*
X436924Y151902I0J3700D01*
G01*
X434308Y150818D02*
G03*
X436924Y151902I0J3700D01*
G01*
X457802Y153413D02*
G03*
X457802Y145013I0J-4200D01*
G01*
X459705Y79265D02*
G03*
X463905Y83465I0J4200D01*
G01*
X459705Y102099D02*
G03*
X463905Y106299I0J4200D01*
G01*
Y83465D02*
G03*
X459705Y87665I-4200J0D01*
G01*
X463905Y106299D02*
G03*
X459705Y110499I-4200J0D01*
G01*
X463905Y125984D02*
G03*
X459705Y130184I-4200J0D01*
G01*
Y121784D02*
G03*
X463905Y125984I0J4200D01*
G01*
X458708Y145013D02*
G03*
X462908Y149213I0J4200D01*
G01*
D02*
G03*
X458708Y153413I-4200J0D01*
G01*
X401091Y165739D02*
G03*
X400341Y167797I-3200J0D01*
G01*
X396366Y162925D02*
G03*
X401091Y165739I1524J2814D01*
G01*
X401038Y180382D02*
G03*
X401758Y182117I-1730J1735D01*
G01*
X401040Y180384D02*
G03*
X401758Y182117I-1732J1732D01*
G01*
X442633Y157611D02*
G03*
X443717Y160227I-2616J2616D01*
G01*
X442633Y157611D02*
G03*
X443717Y160227I-2616J2616D01*
G01*
X437400Y195933D02*
G03*
X436317Y193317I2616J-2616D01*
G01*
X437400Y195933D02*
G03*
X436317Y193317I2616J-2616D01*
G01*
X402508Y199046D02*
G03*
X396366Y200305I-3200J0D01*
G01*
X400960Y209479D02*
G03*
X401900Y211744I-2260J2266D01*
G01*
X401758Y196987D02*
G03*
X402508Y199046I-2450J2059D01*
G01*
X419825Y204588D02*
G03*
X419825Y204588I-3669J0D01*
G01*
X400963Y209481D02*
G03*
X401900Y211744I-2263J2263D01*
G01*
X419527Y222588D02*
G03*
X419527Y222588I-3669J0D01*
G01*
X401900Y228300D02*
G03*
X395500Y228300I-3200J0D01*
G01*
X401900D02*
G03*
X395500Y228300I-3200J0D01*
G01*
X448662Y213133D02*
G03*
X448662Y208914I3700J-2109D01*
G01*
X456621Y281890D02*
G03*
X450737Y277953I-4259J0D01*
G01*
X457802Y163255D02*
G03*
X457802Y154855I0J-4200D01*
G01*
Y192783D02*
G03*
X457802Y184383I0J-4200D01*
G01*
Y173098D02*
G03*
X457802Y164698I0J-4200D01*
G01*
X454979Y203046D02*
G03*
X456062Y205662I-2616J2616D01*
G01*
X454979Y203046D02*
G03*
X456062Y205662I-2616J2616D01*
G01*
X450737Y222835D02*
G03*
X448662Y216788I1625J-3937D01*
G01*
X456299Y212648D02*
G03*
X456062Y213133I-3937J-1625D01*
G01*
Y208914D02*
G03*
X456299Y209399I-3700J2109D01*
G01*
X456062Y216788D02*
G03*
X456621Y218898I-3700J2109D01*
G01*
X458708Y154855D02*
G03*
X462908Y159055I0J4200D01*
G01*
D02*
G03*
X458708Y163255I-4200J0D01*
G01*
Y164698D02*
G03*
X462908Y168898I0J4200D01*
G01*
D02*
G03*
X458708Y173098I-4200J0D01*
G01*
Y184383D02*
G03*
X462908Y188583I0J4200D01*
G01*
D02*
G03*
X458708Y192783I-4200J0D01*
G01*
X456299Y209399D02*
G03*
X464495Y211024I3937J1625D01*
G01*
D02*
G03*
X456299Y212648I-4259J0D01*
G01*
X450737Y230709D02*
G03*
X450737Y222835I1625J-3937D01*
G01*
X453987Y230709D02*
G03*
X456621Y234646I-1625J3937D01*
G01*
X450737Y238583D02*
G03*
X450737Y230709I1625J-3937D01*
G01*
Y246457D02*
G03*
X450737Y238583I1625J-3937D01*
G01*
X453987Y246457D02*
G03*
X456621Y250394I-1625J3937D01*
G01*
Y218898D02*
G03*
X453987Y222835I-4259J0D01*
G01*
X456299Y228396D02*
G03*
X453987Y230709I-3937J-1625D01*
G01*
Y222835D02*
G03*
X456299Y225147I-1625J3937D01*
G01*
X456621Y234646D02*
G03*
X453987Y238583I-4259J0D01*
G01*
X456621Y242520D02*
G03*
X453987Y246457I-4259J0D01*
G01*
X453987Y238583D02*
G03*
X456621Y242520I-1625J3937D01*
G01*
X450737Y254331D02*
G03*
X450737Y246457I1625J-3937D01*
G01*
Y262205D02*
G03*
X450737Y254331I1625J-3937D01*
G01*
X456621Y258268D02*
G03*
X453987Y262205I-4259J0D01*
G01*
X450737Y270079D02*
G03*
X450737Y262205I1625J-3937D01*
G01*
Y277953D02*
G03*
X450737Y270079I1625J-3937D01*
G01*
X453987Y277953D02*
G03*
X456621Y281890I-1625J3937D01*
G01*
Y250394D02*
G03*
X453987Y254331I-4259J0D01*
G01*
X453987Y262205D02*
G03*
X456621Y266142I-1625J3937D01*
G01*
X453987Y254331D02*
G03*
X456621Y258268I-1625J3937D01*
G01*
Y266142D02*
G03*
X453987Y270079I-4259J0D01*
G01*
X456621Y274016D02*
G03*
X453987Y277953I-4259J0D01*
G01*
X453987Y270079D02*
G03*
X456621Y274016I-1625J3937D01*
G01*
X456299Y225147D02*
G03*
X464495Y226772I3937J1625D01*
G01*
D02*
G03*
X456299Y228396I-4259J0D01*
G01*
X308411Y300338D02*
G03*
X308411Y294938I-1718J-2700D01*
G01*
X328600Y289300D02*
G03*
X328600Y289300I-4200J0D01*
G01*
X325200Y330400D02*
G03*
X331600Y330400I3200J0D01*
G01*
X325200D02*
G03*
X331600Y330400I3200J0D01*
G01*
X300034Y441894D02*
G03*
X309141Y440551I4455J-1343D01*
G01*
D02*
G03*
X303145Y445006I-4653J0D01*
G01*
X297406Y445433D02*
G03*
X298051Y443878I2200J0D01*
G01*
X297406Y445433D02*
G03*
X298055Y443874I2200J0D01*
G01*
X307249Y445591D02*
G03*
X307897Y444031I2200J0D01*
G01*
X307249Y445591D02*
G03*
X307893Y444035I2200J0D01*
G01*
X326137Y355574D02*
G03*
X325200Y353311I2263J-2263D01*
G01*
X326137Y355574D02*
G03*
X325200Y353311I2263J-2263D01*
G01*
X331642Y353353D02*
G03*
X326179Y355615I-3200J0D01*
G01*
X331642Y353353D02*
G03*
X326179Y355615I-3200J0D01*
G01*
X310034Y441894D02*
G03*
X319141Y440551I4455J-1343D01*
G01*
D02*
G03*
X313145Y445006I-4653J0D01*
G01*
X320034Y441894D02*
G03*
X329141Y440551I4455J-1343D01*
G01*
X317091Y445748D02*
G03*
X317736Y444193I2200J0D01*
G01*
X317091Y445748D02*
G03*
X317740Y444189I2200J0D01*
G01*
X329141Y440551D02*
G03*
X323145Y445006I-4653J0D01*
G01*
X330034Y441894D02*
G03*
X339141Y440551I4455J-1343D01*
G01*
X327328Y445512D02*
G03*
X327976Y443952I2200J0D01*
G01*
X327328Y445512D02*
G03*
X327972Y443956I2200J0D01*
G01*
X338976Y302918D02*
G03*
X340532Y303562I0J2200D01*
G01*
X338976Y302918D02*
G03*
X340536Y303566I0J2200D01*
G01*
X331600Y352838D02*
G03*
X331642Y353353I-3158J515D01*
G01*
X331600Y352838D02*
G03*
X331642Y353353I-3158J515D01*
G01*
X336240Y351651D02*
G03*
X335595Y350095I1556J-1556D01*
G01*
X336244Y351655D02*
G03*
X335595Y350095I1552J-1560D01*
G01*
X341988Y299547D02*
G03*
X340079Y300338I-1909J-1909D01*
G01*
X341988Y299547D02*
G03*
X340079Y300338I-1909J-1909D01*
G01*
X348476Y320472D02*
G03*
X343145Y322860I-3200J0D01*
G01*
X346827Y309858D02*
G03*
X347476Y311417I-1552J1560D01*
G01*
X357606Y284173D02*
G03*
X353306Y288229I-4062J0D01*
G01*
X346831Y309862D02*
G03*
X347476Y311417I-1556J1556D01*
G01*
Y318149D02*
G03*
X348476Y320472I-2200J2324D01*
G01*
X344094Y336058D02*
G03*
X342535Y335410I0J-2200D01*
G01*
X344094Y336058D02*
G03*
X342539Y335414I0J-2200D01*
G01*
X344511Y359011D02*
G03*
X342951Y358363I0J-2200D01*
G01*
X344511Y359011D02*
G03*
X342955Y358367I0J-2200D01*
G01*
X339141Y440551D02*
G03*
X333145Y445006I-4653J0D01*
G01*
X337170Y445669D02*
G03*
X337818Y444110I2200J0D01*
G01*
X337170Y445669D02*
G03*
X337814Y444114I2200J0D01*
G01*
X340034Y441894D02*
G03*
X349141Y440551I4455J-1343D01*
G01*
D02*
G03*
X343145Y445006I-4653J0D01*
G01*
X347100Y445740D02*
G03*
X347748Y444180I2200J0D01*
G01*
X347100Y445740D02*
G03*
X347744Y444184I2200J0D01*
G01*
X350453Y433405D02*
G03*
X349662Y431496I1909J-1909D01*
G01*
X350453Y433405D02*
G03*
X349662Y431496I1909J-1909D01*
G01*
Y417294D02*
G03*
X356062Y414764I2700J-2530D01*
G01*
D02*
G03*
X355062Y417294I-3700J0D01*
G01*
X356240Y431555D02*
G03*
X357031Y433465I-1909J1909D01*
G01*
X350034Y441894D02*
G03*
X351631Y436879I4455J-1343D01*
G01*
X358278Y443251D02*
G03*
X353145Y445006I-3789J-2700D01*
G01*
X356240Y431555D02*
G03*
X357031Y433465I-1909J1909D01*
G01*
Y436655D02*
G03*
X358278Y437851I-2542J3897D01*
G01*
X301806Y446749D02*
G03*
X307249Y446806I2682J3802D01*
G01*
X301806Y455394D02*
G03*
X301158Y456953I-2200J0D01*
G01*
X301806Y455394D02*
G03*
X301162Y456949I-2200J0D01*
G01*
X307249Y454296D02*
G03*
X301806Y454353I-2761J-3745D01*
G01*
X311649Y455351D02*
G03*
X311000Y456911I-2200J0D01*
G01*
X317091Y454408D02*
G03*
X311649Y454237I-2603J-3856D01*
G01*
Y455351D02*
G03*
X311004Y456907I-2200J0D01*
G01*
X311649Y446865D02*
G03*
X317091Y446695I2840J3686D01*
G01*
X299375Y483225D02*
G03*
X300023Y481666I2200J0D01*
G01*
X299375Y483225D02*
G03*
X300019Y481670I2200J0D01*
G01*
X304775Y497638D02*
G03*
X299375Y495314I-3200J0D01*
G01*
X293932Y495314D02*
G03*
X294932Y497638I-2200J2324D01*
G01*
X303775Y495314D02*
G03*
X304775Y497638I-2200J2324D01*
G01*
X309217Y483283D02*
G03*
X309862Y481727I2200J0D01*
G01*
X309217Y483283D02*
G03*
X309866Y481723I2200J0D01*
G01*
X314800Y498780D02*
G03*
X309217Y495763I-2989J-1143D01*
G01*
X315444Y500956D02*
G03*
X314800Y499400I1556J-1556D01*
G01*
X319200Y495583D02*
G03*
X319454Y495314I2454J2054D01*
G01*
X315448Y500959D02*
G03*
X314800Y499400I1552J-1560D01*
G01*
X320500Y505100D02*
G03*
X318940Y504452I0J-2200D01*
G01*
X320500Y505100D02*
G03*
X318944Y504456I0J-2200D01*
G01*
X321491Y446992D02*
G03*
X327328Y446865I2997J3559D01*
G01*
Y454237D02*
G03*
X321491Y454110I-2839J-3686D01*
G01*
X331728Y455272D02*
G03*
X331079Y456832I-2200J0D01*
G01*
X331728Y455272D02*
G03*
X331083Y456828I-2200J0D01*
G01*
X321491Y455609D02*
G03*
X320847Y457164I-2200J0D01*
G01*
X321491Y455609D02*
G03*
X320843Y457168I-2200J0D01*
G01*
X331728Y446806D02*
G03*
X337170Y446749I2761J3745D01*
G01*
X341570Y446927D02*
G03*
X347100Y446701I2918J3624D01*
G01*
X337170Y454353D02*
G03*
X331728Y454296I-2682J-3802D01*
G01*
X351381Y454014D02*
G03*
X350856Y454856I-2081J-714D01*
G01*
X351381Y454014D02*
G03*
X350852Y454859I-2081J-714D01*
G01*
X359141Y450551D02*
G03*
X351381Y454014I-4653J0D01*
G01*
X351500Y446985D02*
G03*
X359141Y450551I2988J3566D01*
G01*
X337340Y470748D02*
G03*
X338900Y470100I1560J1552D01*
G01*
X337344Y470744D02*
G03*
X338900Y470100I1556J1556D01*
G01*
X319454Y489546D02*
G03*
X320098Y487991I2200J0D01*
G01*
X319454Y489546D02*
G03*
X320102Y487987I2200J0D01*
G01*
X343932Y495314D02*
G03*
X344932Y497638I-2200J2324D01*
G01*
X348333Y498156D02*
G03*
X354692Y497642I3159J-514D01*
G01*
X359015Y487585D02*
G03*
X359664Y486025I2200J0D01*
G01*
X359015Y487585D02*
G03*
X359660Y486029I2200J0D01*
G01*
X344932Y497638D02*
G03*
X342661Y500700I-3200J0D01*
G01*
X348256Y504456D02*
G03*
X346700Y505100I-1556J-1556D01*
G01*
X348259Y504452D02*
G03*
X346700Y505100I-1560J-1552D01*
G01*
X354692Y497642D02*
G03*
X351895Y500817I-3200J0D01*
G01*
X411891Y302709D02*
G03*
X411100Y300800I1909J-1909D01*
G01*
X411891Y302709D02*
G03*
X411100Y300800I1909J-1909D01*
G01*
X415618Y308900D02*
G03*
X412503Y303321I-1718J-2700D01*
G01*
X375629Y331658D02*
G03*
X381153Y333858I2324J2200D01*
G01*
D02*
G03*
X375629Y336058I-3200J0D01*
G01*
X411100Y298718D02*
G03*
X417000Y297000I2700J-1718D01*
G01*
D02*
G03*
X416500Y298718I-3200J0D01*
G01*
X411200Y324318D02*
G03*
X417100Y322600I2700J-1718D01*
G01*
D02*
G03*
X416600Y324318I-3200J0D01*
G01*
X411991Y343909D02*
G03*
X411200Y342000I1909J-1909D01*
G01*
X411991Y343909D02*
G03*
X411200Y342000I1909J-1909D01*
G01*
X378897Y354611D02*
G03*
X384420Y356811I2324J2200D01*
G01*
D02*
G03*
X378897Y359011I-3200J0D01*
G01*
X367800Y388400D02*
G03*
X371831Y390070I0J5700D01*
G01*
X367800Y388400D02*
G03*
X371831Y390070I0J5700D01*
G01*
X379431Y397670D02*
G03*
X381100Y401700I-4030J4030D01*
G01*
X379431Y397670D02*
G03*
X381100Y401700I-4030J4030D01*
G01*
X411791Y387109D02*
G03*
X411000Y385200I1909J-1909D01*
G01*
X411791Y387109D02*
G03*
X411000Y385200I1909J-1909D01*
G01*
X413205Y352224D02*
G03*
X413983Y345901I695J-3124D01*
G01*
X417734Y342015D02*
G03*
X423924Y340405I3066J-915D01*
G01*
X429409Y345891D02*
G03*
X430200Y347800I-1909J1909D01*
G01*
X429409Y345891D02*
G03*
X430200Y347800I-1909J1909D01*
G01*
X411000Y361918D02*
G03*
X415800Y357786I2700J-1718D01*
G01*
X425406Y400486D02*
G03*
X424622Y399941I1126J-2454D01*
G01*
X424900Y405524D02*
G03*
X425406Y400486I2200J-2324D01*
G01*
D02*
G03*
X424622Y399941I1126J-2454D01*
G01*
X458209Y306169D02*
G03*
X454991Y304668I0J-4200D01*
G01*
X452909Y309491D02*
G03*
X453700Y311400I-1909J1909D01*
G01*
X452909Y309491D02*
G03*
X453700Y311400I-1909J1909D01*
G01*
X449091Y334209D02*
G03*
X448300Y332300I1909J-1909D01*
G01*
X458209Y316011D02*
G03*
X458209Y307611I0J-4200D01*
G01*
X449091Y334209D02*
G03*
X448300Y332300I1909J-1909D01*
G01*
X454991Y299269D02*
G03*
X458209Y297768I3217J2700D01*
G01*
X459114D02*
G03*
X463314Y301969I0J4200D01*
G01*
X459114Y307611D02*
G03*
X463314Y311811I0J4200D01*
G01*
Y301969D02*
G03*
X459114Y306169I-4200J0D01*
G01*
X455308Y332789D02*
G03*
X458209Y331627I2901J3037D01*
G01*
X463314Y311811D02*
G03*
X459114Y316011I-4200J0D01*
G01*
Y331627D02*
G03*
X463314Y335827I0J4200D01*
G01*
D02*
G03*
X459114Y340027I-4200J0D01*
G01*
X454527Y338527D02*
G03*
X452618Y337736I0J-2700D01*
G01*
X454527Y338527D02*
G03*
X452618Y337736I0J-2700D01*
G01*
X458209Y340027D02*
G03*
X454991Y338527I0J-4200D01*
G01*
X458209Y349869D02*
G03*
X458209Y341469I0J-4200D01*
G01*
X459114D02*
G03*
X463314Y345669I0J4200D01*
G01*
D02*
G03*
X459114Y349869I-4200J0D01*
G01*
X451824Y371709D02*
G03*
X459055Y372785I3294J2700D01*
G01*
D02*
G03*
X467251Y374410I3937J1625D01*
G01*
X464617Y378346D02*
G03*
X467251Y382283I-1625J3937D01*
G01*
Y374410D02*
G03*
X464617Y378346I-4259J0D01*
G01*
X467251Y382283D02*
G03*
X464617Y386221I-4259J0D01*
G01*
D02*
G03*
X467251Y390158I-1625J3937D01*
G01*
D02*
G03*
X466762Y392139I-4259J0D01*
G01*
X467039D02*
G03*
X468595Y392784I0J2200D01*
G01*
X467039Y392139D02*
G03*
X468599Y392788I0J2200D01*
G01*
X470752Y394940D02*
G03*
X471400Y396500I-1552J1560D01*
G01*
X470756Y394944D02*
G03*
X471400Y396500I-1556J1556D01*
G01*
X360699Y437851D02*
G03*
X369141Y440551I3789J2700D01*
G01*
D02*
G03*
X360699Y443251I-4653J0D01*
G01*
X369141Y450551D02*
G03*
X369141Y450551I-4653J0D01*
G01*
X375592Y467297D02*
G03*
X369700Y461600I-192J-5697D01*
G01*
X369201Y487899D02*
G03*
X369849Y486340I2200J0D01*
G01*
X369201Y487899D02*
G03*
X369845Y486343I2200J0D01*
G01*
X363415Y495314D02*
G03*
X364415Y497638I-2200J2324D01*
G01*
X374601Y497531D02*
G03*
X369201Y495207I-3200J0D01*
G01*
X364415Y497638D02*
G03*
X359015Y495314I-3200J0D01*
G01*
X373601Y495207D02*
G03*
X374601Y497531I-2200J2324D01*
G01*
X378256Y489444D02*
G03*
X378722Y488090I2200J0D01*
G01*
X378256Y489444D02*
G03*
X378722Y488090I2200J0D01*
G01*
X382656Y495207D02*
G03*
X383656Y497531I-2200J2324D01*
G01*
D02*
G03*
X378256Y495207I-3200J0D01*
G01*
X392711Y497531D02*
G03*
X387311Y495207I-3200J0D01*
G01*
X391711D02*
G03*
X392711Y497531I-2200J2324D01*
G01*
X414200Y417924D02*
G03*
X419600Y415600I2200J-2324D01*
G01*
D02*
G03*
X418600Y417924I-3200J0D01*
G01*
X419847Y414529D02*
G03*
X424900Y410755I2200J-2324D01*
G01*
X465660Y459952D02*
G03*
X464100Y460600I-1560J-1552D01*
G01*
X465656Y459956D02*
G03*
X464100Y460600I-1556J-1556D01*
G01*
X471400Y453300D02*
G03*
X470752Y454859I-2200J0D01*
G01*
X471400Y453300D02*
G03*
X470756Y454856I-2200J0D01*
G01*
X401554Y495314D02*
G03*
X402554Y497638I-2200J2324D01*
G01*
D02*
G03*
X397154Y495314I-3200J0D01*
G01*
X470704Y476378D02*
G03*
X470704Y476378I-14011J0D01*
G01*
X477913Y501963D02*
G03*
X468504Y509611I-9409J-1963D01*
G01*
X291400Y163000D02*
Y188600D01*
X273228Y206772D02*
X291400Y188600D01*
X273228Y206772D02*
Y266142D01*
X288500Y161400D02*
Y187300D01*
X269685Y206115D02*
X288500Y187300D01*
X269685Y206115D02*
Y267323D01*
X286100Y230100D02*
X293800D01*
X284900Y231300D02*
X286100Y230100D01*
X284900Y231300D02*
Y258200D01*
X283700Y227400D02*
X292100D01*
X282100Y229000D02*
X283700Y227400D01*
X282100Y229000D02*
Y261600D01*
X282600Y305118D02*
X338976D01*
X278218D02*
X282600D01*
X275900Y302800D02*
X278218Y305118D01*
X275900Y254000D02*
Y302800D01*
X288516Y267716D02*
X299713D01*
X286000Y265200D02*
X288516Y267716D01*
X295200Y223819D02*
Y228700D01*
X293800Y230100D02*
X295200Y228700D01*
X234600Y251000D02*
X240656Y244944D01*
Y221567D02*
Y244944D01*
X234600Y251000D02*
Y257000D01*
X281496Y497244D02*
Y498032D01*
X211417Y497638D02*
Y498032D01*
X288244Y280764D02*
X292232D01*
X285898Y278418D02*
X288244Y280764D01*
X285898Y278104D02*
Y278418D01*
X292232Y280764D02*
Y289386D01*
X291854Y289764D02*
X292232Y289386D01*
X299713Y263264D02*
X301016Y264567D01*
X285898Y275740D02*
Y278104D01*
X285092Y274934D02*
X285898Y275740D01*
X280192Y274934D02*
X285092D01*
X264002Y283178D02*
Y287134D01*
Y283178D02*
X264372Y282808D01*
X292232Y254764D02*
Y263264D01*
X299713D02*
Y267716D01*
Y272264D01*
X345276Y311417D02*
Y320472D01*
X338976Y305118D02*
X345276Y311417D01*
X227559Y307874D02*
X335827D01*
X340945Y312992D01*
Y330709D01*
X253543Y258661D02*
X258527D01*
X343742Y89210D02*
Y89997D01*
X335800Y202482D02*
X355561D01*
X333500Y206025D02*
X353261D01*
X335800Y209175D02*
X355561D01*
X333500Y212718D02*
X353261D01*
X335800Y217124D02*
X355561D01*
X333500Y220668D02*
X353261D01*
X335800Y223817D02*
X355561D01*
X333500Y227361D02*
X353261D01*
X127771Y447008D02*
X132900Y441879D01*
X143100Y380900D02*
Y421000D01*
X139000Y373200D02*
Y420400D01*
X127771Y431629D02*
Y437008D01*
X132900Y431200D02*
X143100Y421000D01*
X132900Y431200D02*
Y441879D01*
X127771Y431629D02*
X139000Y420400D01*
X131100Y365300D02*
Y419200D01*
X134625Y379675D02*
Y420154D01*
X137771Y430629D02*
Y437008D01*
Y430629D02*
X146600Y421800D01*
Y370500D02*
Y421800D01*
X117771Y437008D02*
X134625Y420154D01*
X107771Y437008D02*
X117279Y427500D01*
X122800D01*
X131100Y419200D01*
X211417Y483683D02*
Y497638D01*
Y483683D02*
X238500Y456600D01*
Y446539D02*
Y456600D01*
Y446539D02*
X244488Y440551D01*
X221260Y483740D02*
Y497638D01*
X231496Y483504D02*
Y497638D01*
X241339Y483461D02*
Y497638D01*
X271654Y483347D02*
Y497244D01*
X281496Y483304D02*
Y497244D01*
X291732Y483168D02*
Y497638D01*
Y483168D02*
X319291Y455609D01*
Y445748D02*
X324488Y440551D01*
X301575Y483225D02*
Y496457D01*
Y483225D02*
X329528Y455272D01*
Y445512D02*
Y455272D01*
Y445512D02*
X334488Y440551D01*
X311417Y483283D02*
Y496457D01*
Y483283D02*
X339370Y455330D01*
Y445669D02*
Y455330D01*
Y445669D02*
X344488Y440551D01*
X351492Y497642D02*
Y498108D01*
X346700Y502900D02*
X351492Y498108D01*
X320500Y502900D02*
X346700D01*
X317000Y499400D02*
X320500Y502900D01*
X317000Y485600D02*
Y499400D01*
X349300Y445740D02*
X354488Y440551D01*
X317000Y485600D02*
X349300Y453300D01*
Y445740D02*
Y453300D01*
X344511Y356811D02*
X381221D01*
X337795Y350095D02*
X344511Y356811D01*
X211417Y307700D02*
Y308017D01*
X214817Y311417D01*
X333465D01*
X340945Y330709D02*
X344094Y333858D01*
X377953D01*
X333465Y311417D02*
X337795Y315748D01*
Y350095D01*
X266142Y205758D02*
Y268504D01*
Y205758D02*
X285300Y186600D01*
Y160200D02*
Y186600D01*
Y160200D02*
X295100Y150400D01*
X333500D01*
X335835Y148065D01*
Y137573D02*
Y148065D01*
X288500Y161400D02*
X296000Y153900D01*
X335800D01*
X339409Y150291D01*
Y109249D02*
Y150291D01*
X291400Y163000D02*
X297200Y157200D01*
X337600D01*
X343701Y151099D01*
Y89997D02*
Y151099D01*
X331890Y497510D02*
Y497638D01*
X380456Y489444D02*
Y497531D01*
Y489444D02*
X439600Y430300D01*
Y419700D02*
Y430300D01*
X389511Y485489D02*
Y497531D01*
Y485489D02*
X444100Y430900D01*
Y398031D02*
Y430900D01*
X399354Y481146D02*
Y497638D01*
Y481146D02*
X422100Y458400D01*
X464100D01*
X469200Y453300D01*
Y396500D02*
Y453300D01*
X467039Y394339D02*
X469200Y396500D01*
X459300Y394339D02*
X467039D01*
X455118Y390158D02*
X459300Y394339D01*
X435400Y423700D02*
Y430000D01*
X321654Y489546D02*
Y497638D01*
Y489546D02*
X338900Y472300D01*
X331890Y487510D02*
Y497510D01*
Y487510D02*
X343700Y475700D01*
X341732Y486868D02*
Y497638D01*
Y486868D02*
X349300Y479300D01*
X361215Y487585D02*
Y497638D01*
Y487585D02*
X366000Y482800D01*
X378000D01*
X431500Y429300D01*
Y427600D02*
Y429300D01*
X371401Y487899D02*
Y497531D01*
Y487899D02*
X373410Y485889D01*
X379510D02*
X435400Y430000D01*
X373410Y485889D02*
X379510D01*
X249606Y445433D02*
X254488Y440551D01*
X251575Y483225D02*
Y497638D01*
X261024Y483376D02*
Y497638D01*
X299606Y445433D02*
X304488Y440551D01*
X319291Y445748D02*
Y455609D01*
X309449Y445591D02*
X314488Y440551D01*
X309449Y445591D02*
Y455351D01*
X281496Y483304D02*
X309449Y455351D01*
X271654Y483347D02*
X299606Y455394D01*
X221260Y483740D02*
X249606Y455394D01*
X299606Y445433D02*
Y455394D01*
X261024Y483376D02*
X289370Y455030D01*
Y445669D02*
Y455030D01*
Y445669D02*
X294488Y440551D01*
X251575Y483225D02*
X279528Y455272D01*
Y445512D02*
Y455272D01*
Y445512D02*
X284488Y440551D01*
X241339Y483461D02*
X269685Y455115D01*
Y445354D02*
Y455115D01*
Y445354D02*
X274488Y440551D01*
X259449Y445591D02*
X264488Y440551D01*
X259449Y445591D02*
Y455551D01*
X231496Y483504D02*
X259449Y455551D01*
X249606Y445433D02*
Y455394D01*
X427100Y403200D02*
Y428700D01*
X349300Y479300D02*
X376500D01*
X427100Y428700D01*
X422047Y412205D02*
Y428753D01*
X343700Y475700D02*
X375100D01*
X416400Y415600D02*
Y429600D01*
X338900Y472300D02*
X373700D01*
X375100Y475700D02*
X422047Y428753D01*
X373700Y472300D02*
X416400Y429600D01*
X4732Y5374D02*
Y26776D01*
X6732Y3652D02*
Y24709D01*
X2191Y28291D02*
X3694D01*
X2191Y22290D02*
X10892D01*
X2191Y26291D02*
X5131D01*
X2191Y24291D02*
X7254D01*
X18732Y2200D02*
Y21743D01*
X20732Y2200D02*
Y22338D01*
X22732Y2200D02*
Y23287D01*
X24732Y2200D02*
Y24681D01*
X26732Y2200D02*
Y26734D01*
X10732Y2261D02*
Y22351D01*
X8732Y2707D02*
Y23305D01*
X16732Y2200D02*
Y21457D01*
X12732Y2200D02*
Y21751D01*
X14732Y2200D02*
Y21459D01*
X2191Y12687D02*
Y31897D01*
Y40291D02*
X2606D01*
X2191Y30291D02*
X2715D01*
X2191Y42291D02*
X3530D01*
X2191Y44291D02*
X4892D01*
X2191Y46291D02*
X6892D01*
X2191Y58290D02*
X42000D01*
X2191Y48291D02*
X10181D01*
X28732Y2200D02*
Y30167D01*
X2732Y9794D02*
Y30248D01*
X44732Y2200D02*
Y53234D01*
X2191Y54290D02*
X43460D01*
X42732Y2200D02*
Y55306D01*
X2191Y62291D02*
X42000D01*
Y61400D02*
Y132400D01*
X2191Y56291D02*
X42295D01*
X2191Y60290D02*
X42000D01*
Y58100D02*
Y61400D01*
X3117Y8291D02*
X99500D01*
X2660Y10291D02*
X99500D01*
X5827Y4291D02*
X99500D01*
X4075Y6291D02*
X99500D01*
X2191Y18291D02*
X99500D01*
X2191Y20290D02*
X99500D01*
X2413Y12291D02*
X99500D01*
X2191Y16290D02*
X99500D01*
X2191Y14290D02*
X99500D01*
X24242Y24291D02*
X99500D01*
X26365Y26291D02*
X99500D01*
X12205Y2200D02*
X99500D01*
X10495Y2290D02*
X99500D01*
X20604Y22290D02*
X99500D01*
X29712Y34291D02*
X99500D01*
X29733Y36291D02*
X99500D01*
X27802Y28291D02*
X99500D01*
X28781Y30291D02*
X99500D01*
X29402Y32291D02*
X99500D01*
X26604Y44291D02*
X86809D01*
X46732Y2200D02*
Y52483D01*
X29465Y38291D02*
X99500D01*
X27966Y42291D02*
X98809D01*
X28890Y40291D02*
X99500D01*
X2191Y52290D02*
X84400D01*
X24604Y46291D02*
X84809D01*
X2191Y50291D02*
X84400D01*
X21315Y48291D02*
X84400D01*
X48732Y2200D02*
Y52494D01*
X50732Y2200D02*
Y53273D01*
X51940Y54290D02*
X84400D01*
X52732Y2200D02*
Y55422D01*
X53105Y56291D02*
X84400D01*
X53400Y58100D02*
Y61400D01*
Y130039D01*
Y58290D02*
X67931D01*
X53400Y62291D02*
X64892D01*
X53400Y60290D02*
X65565D01*
X2191Y88291D02*
X42000D01*
X2191Y90290D02*
X42000D01*
X2191Y84290D02*
X42000D01*
X2191Y86291D02*
X42000D01*
X2191Y98290D02*
X42000D01*
X2191Y100291D02*
X42000D01*
X2191Y92291D02*
X42000D01*
X2191Y96290D02*
X42000D01*
X2191Y94291D02*
X42000D01*
X2191Y70290D02*
X42000D01*
X2191Y72290D02*
X42000D01*
X2191Y64290D02*
X42000D01*
X2191Y68291D02*
X42000D01*
X2191Y66290D02*
X42000D01*
X2191Y80291D02*
X42000D01*
X2191Y82291D02*
X42000D01*
X2191Y74291D02*
X42000D01*
X2191Y78290D02*
X42000D01*
X2191Y76291D02*
X42000D01*
X2191Y108291D02*
X42000D01*
X2191Y110291D02*
X42000D01*
X2191Y102290D02*
X42000D01*
X2191Y106291D02*
X42000D01*
X2191Y104291D02*
X42000D01*
X2191Y118291D02*
X42000D01*
X2191Y120291D02*
X42000D01*
X2191Y112291D02*
X42000D01*
X2191Y116291D02*
X42000D01*
X2191Y114291D02*
X42000D01*
X2191Y128291D02*
X42000D01*
X2191Y130291D02*
X42000D01*
X2191Y122291D02*
X42000D01*
X2191Y126291D02*
X42000D01*
X2191Y124291D02*
X42000D01*
X2191Y132291D02*
X42000D01*
X2191Y134291D02*
X42323D01*
X2191Y136291D02*
X43534D01*
X2191Y138291D02*
X45529D01*
X43670Y136431D02*
X46500Y139261D01*
X53400Y70290D02*
X84400D01*
X53400Y74291D02*
X84400D01*
X53400Y72290D02*
X84400D01*
X2191Y146291D02*
X46500D01*
X2191Y148291D02*
X46500D01*
X2191Y140291D02*
X46500D01*
X2191Y144291D02*
X46500D01*
X2191Y142291D02*
X46500D01*
X53400Y64290D02*
X65100D01*
X53400Y66290D02*
X66348D01*
X53400Y68291D02*
X84400D01*
X53400Y84290D02*
X84400D01*
X53400Y76291D02*
X84400D01*
X53400Y88291D02*
X84400D01*
X53400Y130039D02*
X56230Y132870D01*
X53400Y86291D02*
X84400D01*
X53400Y92291D02*
X86490D01*
X53400Y90290D02*
X84491D01*
X2191Y156291D02*
X46500D01*
X2191Y158291D02*
X46500D01*
X2191Y150291D02*
X46500D01*
X2191Y154291D02*
X46500D01*
X2191Y152291D02*
X46500D01*
X2191Y166291D02*
X46500D01*
X2191Y168291D02*
X46500D01*
X2191Y160291D02*
X46500D01*
X2191Y164291D02*
X46500D01*
X2191Y162291D02*
X46500D01*
X2191Y174291D02*
X46500D01*
X2191Y176291D02*
X46500D01*
X2191Y170291D02*
X46500D01*
X2191Y172291D02*
X46500D01*
Y139261D02*
Y174800D01*
X2191Y184291D02*
X46500D01*
X2191Y186291D02*
X46500D01*
X2191Y178291D02*
X46500D01*
X2191Y182291D02*
X46500D01*
X2191Y180291D02*
X46500D01*
X68732Y2200D02*
Y58051D01*
X66732Y2200D02*
Y58977D01*
X70732Y2200D02*
Y58058D01*
X72732Y2200D02*
Y59003D01*
X71499Y58290D02*
X84400D01*
X53400Y78290D02*
X84400D01*
X53400Y82291D02*
X84400D01*
X53400Y80291D02*
X84400D01*
X86732Y2200D02*
Y44368D01*
X84732Y2200D02*
Y46368D01*
X90732Y2200D02*
Y43400D01*
X84400Y46700D02*
X87700Y43400D01*
X88732Y2200D02*
Y43400D01*
X74330Y64290D02*
X84400D01*
X73082Y66290D02*
X84400D01*
X73865Y60290D02*
X84400D01*
X74538Y62291D02*
X84400D01*
Y46700D02*
Y90200D01*
X54732Y2200D02*
Y131371D01*
X56732Y2200D02*
Y133443D01*
X62732Y2200D02*
Y169100D01*
X58732Y2200D02*
Y169100D01*
X60732Y2200D02*
Y169100D01*
X66732Y66624D02*
Y169100D01*
X64732Y2200D02*
Y169100D01*
X72732Y66597D02*
Y169100D01*
X68732Y67549D02*
Y169100D01*
X70732Y67542D02*
Y169100D01*
X76732Y2200D02*
Y169100D01*
X74732Y2200D02*
Y169100D01*
X82732Y2200D02*
Y169100D01*
X78732Y2200D02*
Y169100D01*
X80732Y2200D02*
Y169100D01*
X84400Y90200D02*
X86500Y92300D01*
X84732Y90532D02*
Y169100D01*
X90732Y92300D02*
Y169100D01*
X86732Y92300D02*
Y169100D01*
X88732Y92300D02*
Y169100D01*
X94732Y2200D02*
Y43400D01*
X92732Y2200D02*
Y43400D01*
X99500Y2200D02*
Y41600D01*
X96732Y2200D02*
Y43400D01*
X98732Y2200D02*
Y42368D01*
X87700Y43400D02*
X97700D01*
X99500Y41600D01*
X86500Y92300D02*
X148500D01*
X150200Y90600D01*
X194732Y2200D02*
Y137532D01*
X192732Y2200D02*
Y137532D01*
X200732Y2200D02*
Y137532D01*
X196732Y2200D02*
Y137532D01*
X198732Y2200D02*
Y137532D01*
X150200Y2200D02*
Y90600D01*
X184732Y2200D02*
Y137597D01*
X190732Y2200D02*
Y137532D01*
X186732Y2200D02*
Y137532D01*
X188732Y2200D02*
Y137532D01*
X150732Y2200D02*
Y155697D01*
X152732Y2200D02*
Y169100D01*
X154732Y2200D02*
Y169339D01*
X156732Y2200D02*
Y170407D01*
X158732Y2200D02*
Y172371D01*
X98732Y92300D02*
Y169100D01*
X92732Y92300D02*
Y169100D01*
X148732Y92068D02*
Y153450D01*
X100732Y92300D02*
Y169100D01*
X102732Y92300D02*
Y169100D01*
X176732Y2200D02*
Y144529D01*
X174732Y2200D02*
Y146529D01*
X182732Y2200D02*
Y138546D01*
X178732Y2200D02*
Y142529D01*
X180732Y2200D02*
Y140529D01*
X160732Y2200D02*
Y174371D01*
X162732Y2200D02*
Y176371D01*
X172732Y2200D02*
Y148529D01*
X164732Y2200D02*
Y178371D01*
X166732Y2200D02*
Y180443D01*
X94732Y92300D02*
Y169100D01*
X106732Y92300D02*
Y169100D01*
X104732Y92300D02*
Y169100D01*
X57900Y156291D02*
X143599D01*
X57900Y154291D02*
X144554D01*
X57900Y160291D02*
X146111D01*
X57900Y158291D02*
X143881D01*
X114732Y92300D02*
Y169100D01*
X112732Y92300D02*
Y169100D01*
X120732Y92300D02*
Y169100D01*
X116732Y92300D02*
Y169100D01*
X118732Y92300D02*
Y169100D01*
X124732Y92300D02*
Y169100D01*
X122732Y92300D02*
Y169100D01*
X146732Y92300D02*
Y153164D01*
X144732Y92300D02*
Y154113D01*
X108732Y92300D02*
Y169100D01*
X96732Y92300D02*
Y169100D01*
X130732Y92300D02*
Y169100D01*
X110732Y92300D02*
Y169100D01*
X128732Y92300D02*
Y169100D01*
X126732Y92300D02*
Y169100D01*
X57900Y136900D02*
Y169100D01*
X153100D01*
X57900Y182291D02*
X152530D01*
X57900Y180500D02*
X150739D01*
X134732Y92300D02*
Y169100D01*
X132732Y92300D02*
Y169100D01*
X140732Y92300D02*
Y169100D01*
X136732Y92300D02*
Y169100D01*
X138732Y92300D02*
Y169100D01*
X144732Y159482D02*
Y169100D01*
X142732Y92300D02*
Y169100D01*
X150732Y157898D02*
Y169100D01*
X146732Y160432D02*
Y169100D01*
X148732Y160146D02*
Y169100D01*
X57900Y144291D02*
X176970D01*
X57900Y146291D02*
X174970D01*
X57900Y138291D02*
X183061D01*
X57900Y142291D02*
X178970D01*
X57900Y140291D02*
X180970D01*
X57900Y162291D02*
X170997D01*
X57900Y164291D02*
X170997D01*
X57900Y148291D02*
X172970D01*
X57900Y152291D02*
X170997D01*
X57900Y150291D02*
X171362D01*
X172227Y149033D02*
X182498Y138762D01*
X179397Y153743D02*
X187207Y145932D01*
X150583Y158291D02*
X170997D01*
X148354Y160291D02*
X170997D01*
X149910Y154291D02*
X170997D01*
X150866Y156291D02*
X170997D01*
X57900Y166291D02*
X170997D01*
X57900Y168291D02*
X170997D01*
X156586Y170291D02*
X170997D01*
X57900Y184291D02*
X154530D01*
X150739Y180500D02*
X156500Y186261D01*
X158652Y172291D02*
X170997D01*
X57900Y186291D02*
X156500D01*
X157131Y170770D02*
X166230Y179869D01*
X160652Y174291D02*
X170997D01*
X162652Y176291D02*
X170997D01*
X164652Y178291D02*
X170997D01*
X167900Y186291D02*
X170997D01*
X167900Y188291D02*
X170997D01*
X166612Y180291D02*
X170997D01*
X167668Y182291D02*
X170997D01*
X167900Y184291D02*
X170997D01*
X2191Y188291D02*
X46500D01*
X28732Y40699D02*
Y226019D01*
X2191Y190291D02*
X46500D01*
X2191Y192291D02*
X46500D01*
X2191Y226290D02*
X28394D01*
X2191Y194291D02*
X46698D01*
X2191Y198291D02*
X50669D01*
X2191Y196291D02*
X47694D01*
X30732Y2200D02*
Y225180D01*
X32732Y2200D02*
Y225280D01*
X46500Y174800D02*
Y190600D01*
X34732Y2200D02*
Y226402D01*
X46500Y190600D02*
Y192800D01*
X50732Y198308D02*
Y235616D01*
X48732Y197323D02*
Y235616D01*
X56732Y196257D02*
Y235616D01*
X52732Y198475D02*
Y235616D01*
X54732Y197907D02*
Y235616D01*
X2732Y40618D02*
Y471193D01*
X2191Y38969D02*
Y472842D01*
X8732Y47561D02*
Y464250D01*
X4732Y44090D02*
Y467721D01*
X6732Y46158D02*
Y465653D01*
X12732Y49116D02*
Y462696D01*
X10732Y48515D02*
Y463296D01*
X16732Y49409D02*
Y462401D01*
X14732Y49407D02*
Y462404D01*
X18732Y49123D02*
Y462688D01*
X26732Y44132D02*
Y396957D01*
X24732Y46185D02*
Y398109D01*
X40732Y2200D02*
Y235616D01*
X36732Y2200D02*
Y235616D01*
X38732Y2200D02*
Y235616D01*
X22732Y47580D02*
Y401506D01*
X20732Y48528D02*
Y463283D01*
X46732Y194409D02*
Y235616D01*
X42732Y135194D02*
Y235616D01*
X44732Y137493D02*
Y235616D01*
X2191Y206291D02*
X156500D01*
X2191Y208291D02*
X156500D01*
X2191Y202291D02*
X156500D01*
X2191Y204291D02*
X156500D01*
X2191Y216290D02*
X156500D01*
X2191Y218290D02*
X156500D01*
X2191Y210291D02*
X156500D01*
X2191Y214290D02*
X156500D01*
X2191Y212291D02*
X156500D01*
X57900Y180500D02*
Y190600D01*
Y192800D01*
Y188291D02*
X156500D01*
X57900Y192291D02*
X156500D01*
X57900Y190291D02*
X156500D01*
X57702Y194291D02*
X156500D01*
X56706Y196291D02*
X156500D01*
X2191Y200291D02*
X156500D01*
X53731Y198291D02*
X156500D01*
X60732Y180500D02*
Y235616D01*
X58732Y180500D02*
Y235616D01*
X66732Y180500D02*
Y235616D01*
X62732Y180500D02*
Y235616D01*
X64732Y180500D02*
Y235616D01*
X34609Y226290D02*
X156500D01*
X35947Y228291D02*
X156500D01*
X2191Y220290D02*
X156500D01*
X2191Y224290D02*
X156500D01*
X2191Y222290D02*
X156500D01*
X80732Y180500D02*
Y235616D01*
X78732Y180500D02*
Y235616D01*
X86732Y180500D02*
Y235616D01*
X82732Y180500D02*
Y235616D01*
X84732Y180500D02*
Y235616D01*
X70732Y180500D02*
Y235616D01*
X68732Y180500D02*
Y235616D01*
X76732Y180500D02*
Y235616D01*
X72732Y180500D02*
Y235616D01*
X74732Y180500D02*
Y235616D01*
X2191Y228291D02*
X27056D01*
X2191Y230291D02*
X26825D01*
X2191Y232291D02*
X27505D01*
X2191Y234291D02*
X30062D01*
X2191Y238291D02*
X27056D01*
X2191Y240290D02*
X26825D01*
X2191Y236291D02*
X28394D01*
X2191Y244290D02*
X30062D01*
X2191Y242290D02*
X27505D01*
X30732Y234453D02*
Y235180D01*
X28732Y233613D02*
Y236019D01*
X32732Y234352D02*
Y235280D01*
X33611Y235616D02*
X43300D01*
X34732Y233230D02*
Y235616D01*
X43300D02*
X50116D01*
X33611Y244016D02*
X43300D01*
Y235616D02*
X50116D01*
X43300Y244016D02*
X50116D01*
X43300D02*
X50116D01*
X28732Y243614D02*
Y396619D01*
X34732Y244016D02*
Y401428D01*
X36732Y244016D02*
Y440990D01*
X44732Y244016D02*
Y440625D01*
X30732Y244453D02*
Y396951D01*
X32732Y244352D02*
Y398094D01*
X42732Y244016D02*
Y441201D01*
X38732Y244016D02*
Y442867D01*
X40732Y244016D02*
Y444038D01*
X56732Y244016D02*
Y441147D01*
X58732Y244016D02*
Y443645D01*
X64732Y244016D02*
Y440627D01*
X60732Y244016D02*
Y443058D01*
X62732Y244016D02*
Y441033D01*
X46732Y244016D02*
Y441064D01*
X48732Y244016D02*
Y443200D01*
X54732Y244016D02*
Y440623D01*
X50732Y244016D02*
Y443448D01*
X52732Y244016D02*
Y441113D01*
X2191Y252291D02*
X156500D01*
X2191Y254291D02*
X156500D01*
X2191Y246290D02*
X156500D01*
X2191Y250290D02*
X156500D01*
X2191Y248290D02*
X156500D01*
X2191Y270290D02*
X156500D01*
X2191Y272290D02*
X109653D01*
X2191Y256291D02*
X156500D01*
X2191Y268290D02*
X156500D01*
X2191Y258291D02*
X156500D01*
X50116Y235616D02*
X106700D01*
X50116Y244016D02*
X106700D01*
X36178Y230291D02*
X156500D01*
X32941Y234291D02*
X156500D01*
X35497Y232291D02*
X156500D01*
X2191Y264290D02*
X156500D01*
X2191Y266290D02*
X156500D01*
X32941Y244290D02*
X156500D01*
X2191Y262291D02*
X156500D01*
X2191Y260291D02*
X156500D01*
X2191Y274290D02*
X108947D01*
X66732Y244016D02*
Y441238D01*
X2191Y276290D02*
X109433D01*
X2191Y280291D02*
X156500D01*
X2191Y278291D02*
X156500D01*
X2191Y288291D02*
X156500D01*
X2191Y290290D02*
X156500D01*
X2191Y282291D02*
X156500D01*
X2191Y286291D02*
X156500D01*
X2191Y284291D02*
X156500D01*
X80732Y244016D02*
Y509611D01*
X78732Y244016D02*
Y509611D01*
X86732Y244016D02*
Y509611D01*
X82732Y244016D02*
Y509611D01*
X84732Y244016D02*
Y509611D01*
X68732Y244016D02*
Y444519D01*
X70732Y244016D02*
Y509611D01*
X76732Y244016D02*
Y509611D01*
X72732Y244016D02*
Y509611D01*
X74732Y244016D02*
Y509611D01*
X100732Y180500D02*
Y235616D01*
X98732Y180500D02*
Y235616D01*
X104732Y180500D02*
Y235616D01*
X102732Y180500D02*
Y235616D01*
X90732Y180500D02*
Y235616D01*
X88732Y180500D02*
Y235616D01*
X96732Y180500D02*
Y235616D01*
X92732Y180500D02*
Y235616D01*
X94732Y180500D02*
Y235616D01*
X116732Y180500D02*
Y235616D01*
X114732Y180500D02*
Y235616D01*
X122732Y180500D02*
Y235616D01*
X118732Y180500D02*
Y235616D01*
X120732Y180500D02*
Y235616D01*
X108732Y180500D02*
Y235616D01*
X106732Y180500D02*
Y235616D01*
X112732Y180500D02*
Y235616D01*
X106700D02*
X111084D01*
X110732Y180500D02*
Y235616D01*
X126732Y180500D02*
Y235616D01*
X124732Y180500D02*
Y235616D01*
X132732Y180500D02*
Y235616D01*
X128732Y180500D02*
Y235616D01*
X130732Y180500D02*
Y235616D01*
X111084D02*
X135200D01*
X134732Y180500D02*
Y235616D01*
X135200D02*
X139200D01*
X136732Y180500D02*
Y235616D01*
X138732Y180500D02*
Y235616D01*
X142732Y180500D02*
Y235616D01*
X140732Y180500D02*
Y235616D01*
X144732Y180500D02*
Y235616D01*
X146732Y180500D02*
Y235616D01*
X150732Y180500D02*
Y237280D01*
X143500Y235616D02*
X147384D01*
X139200D02*
X143500D01*
X148732Y180500D02*
Y235839D01*
X152732Y182493D02*
Y509611D01*
X167900Y216290D02*
X170997D01*
X167900Y218290D02*
X170997D01*
X167900Y210291D02*
X170997D01*
X167900Y214290D02*
X170997D01*
X167900Y212291D02*
X170997D01*
X167900Y226290D02*
X170997D01*
X167900Y228291D02*
X170997D01*
X167900Y220290D02*
X170997D01*
X167900Y224290D02*
X170997D01*
X167900Y222290D02*
X170997D01*
X167900Y196291D02*
X170997D01*
X167900Y198291D02*
X170997D01*
X167900Y190291D02*
X170997D01*
X167900Y194291D02*
X170997D01*
X167900Y192291D02*
X170997D01*
X167900Y206291D02*
X170997D01*
X167900Y208291D02*
X170997D01*
X167900Y200291D02*
X170997D01*
X167900Y204291D02*
X170997D01*
X167900Y202291D02*
X170997D01*
X167900Y183900D02*
Y301600D01*
X168732Y2200D02*
Y378771D01*
X179397Y153743D02*
Y311457D01*
X170732Y2200D02*
Y380771D01*
X170997Y152003D02*
Y313197D01*
X156500Y186261D02*
Y301600D01*
X154732Y184493D02*
Y509611D01*
X167900Y230291D02*
X170997D01*
X167900Y234291D02*
X170997D01*
X167900Y232291D02*
X170997D01*
X190732Y145932D02*
Y322879D01*
X192732Y145932D02*
Y336588D01*
X198732Y145932D02*
Y336588D01*
X194732Y145932D02*
Y336588D01*
X196732Y145932D02*
Y336588D01*
X180732Y152408D02*
Y312792D01*
X182732Y150408D02*
Y314792D01*
X184732Y148408D02*
Y316792D01*
X186732Y146408D02*
Y318792D01*
X188732Y145932D02*
Y320792D01*
X106700Y235616D02*
X111084D01*
X110732Y244016D02*
Y271309D01*
X106700Y244016D02*
X111084D01*
X106700D02*
X111084D01*
X112732D02*
Y270793D01*
X114732Y244016D02*
Y271465D01*
X111084Y244016D02*
X135200D01*
X128732D02*
Y363148D01*
X138732Y244016D02*
Y370011D01*
X140732Y244016D02*
Y370509D01*
X139200Y244016D02*
X143500D01*
X142732D02*
Y377721D01*
X144732Y244016D02*
Y367902D01*
X130732Y244016D02*
Y362121D01*
X132732Y244016D02*
Y362547D01*
X135200Y244016D02*
X139200D01*
X134732D02*
Y376477D01*
X136732Y244016D02*
Y370943D01*
X98732Y244016D02*
Y442407D01*
X100732Y244016D02*
Y443358D01*
X106732Y244016D02*
Y432424D01*
X102732Y244016D02*
Y509611D01*
X104732Y244016D02*
Y433423D01*
X90732Y244016D02*
Y509611D01*
X88732Y244016D02*
Y509611D01*
X96732Y244016D02*
Y442424D01*
X92732Y244016D02*
Y509611D01*
X94732Y244016D02*
Y443423D01*
X116732Y244016D02*
Y425369D01*
X108732Y244016D02*
Y432407D01*
X126732Y244016D02*
Y420457D01*
X118732Y244016D02*
Y425300D01*
X120732Y244016D02*
Y425300D01*
X112732Y278126D02*
Y428936D01*
X110732Y277609D02*
Y430936D01*
X124732Y244016D02*
Y422457D01*
X114732Y277453D02*
Y426936D01*
X122732Y244016D02*
Y424457D01*
X149666Y236291D02*
X156500D01*
X167900D02*
X170997D01*
X151297Y238291D02*
X156500D01*
X167900D02*
X170997D01*
X151557Y240290D02*
X156500D01*
X143500Y244016D02*
X147384D01*
X167900Y240290D02*
X170997D01*
X150777Y242290D02*
X156500D01*
X167900D02*
X170997D01*
X167900Y250290D02*
X170997D01*
X167900Y252291D02*
X170997D01*
X167900Y244290D02*
X170997D01*
X167900Y248290D02*
X170997D01*
X167900Y246290D02*
X170997D01*
X167900Y260291D02*
X170997D01*
X167900Y262291D02*
X170997D01*
X167900Y254291D02*
X170997D01*
X167900Y258291D02*
X170997D01*
X167900Y256291D02*
X170997D01*
X146732Y244016D02*
Y367303D01*
X148732Y243794D02*
Y368113D01*
X167900Y264290D02*
X170997D01*
X150732Y242352D02*
Y509611D01*
X167900Y266290D02*
X170997D01*
X115571Y272290D02*
X156500D01*
X116277Y274290D02*
X156500D01*
X167900Y272290D02*
X170997D01*
X115790Y276290D02*
X156500D01*
X167900Y274290D02*
X170997D01*
X167900Y278291D02*
X170997D01*
X167900Y280291D02*
X170997D01*
X167900Y268290D02*
X170997D01*
X167900Y276290D02*
X170997D01*
X167900Y270290D02*
X170997D01*
X167900Y288291D02*
X170997D01*
X167900Y290290D02*
X170997D01*
X167900Y282291D02*
X170997D01*
X167900Y286291D02*
X170997D01*
X167900Y284291D02*
X170997D01*
X150200Y42291D02*
X216379D01*
X150200Y44291D02*
X216379D01*
X150200Y38291D02*
X216379D01*
X150200Y40291D02*
X216379D01*
X150200Y56291D02*
X216379D01*
X150200Y58290D02*
X216379D01*
X150200Y46291D02*
X216379D01*
X150200Y54290D02*
X216379D01*
X150200Y48291D02*
X216379D01*
X218732Y2200D02*
Y38288D01*
X216732Y2200D02*
Y38288D01*
X228732Y2200D02*
Y38288D01*
X220732Y2200D02*
Y38288D01*
X222732Y2200D02*
Y38288D01*
X150200Y50291D02*
X216379D01*
X150200Y52290D02*
X216379D01*
X230732Y2200D02*
Y38288D01*
X224732Y2200D02*
Y38288D01*
X226732Y2200D02*
Y38288D01*
X204732Y2200D02*
Y137532D01*
X202732Y2200D02*
Y137532D01*
X210732Y2200D02*
Y137532D01*
X206732Y2200D02*
Y137532D01*
X208732Y2200D02*
Y137532D01*
X150200Y66290D02*
X216379D01*
X150200Y68291D02*
X216379D01*
X150200Y60290D02*
X216379D01*
X150200Y64290D02*
X216379D01*
X150200Y62291D02*
X216379D01*
X214732Y2200D02*
Y137532D01*
X212732Y2200D02*
Y137532D01*
X216379Y38288D02*
Y68459D01*
X216732D02*
Y137532D01*
X218732Y68459D02*
Y137532D01*
X222732Y68459D02*
Y137532D01*
X220732Y68459D02*
Y137532D01*
X228732Y68459D02*
Y137532D01*
X224732Y68459D02*
Y137532D01*
X226732Y68459D02*
Y137532D01*
X150200Y20290D02*
X282119D01*
X150200Y22290D02*
X281976D01*
X150200Y24291D02*
X283121D01*
X150200Y26291D02*
X364958D01*
X150200Y28291D02*
X366958D01*
X150200Y36291D02*
X272462D01*
X150200Y30291D02*
X368347D01*
X150200Y34291D02*
X368347D01*
X150200Y32291D02*
X368347D01*
X150200Y2200D02*
X468504D01*
X150200Y2290D02*
X469820D01*
X150200Y4291D02*
X474488D01*
X150200Y8291D02*
X477447D01*
X150200Y6291D02*
X476371D01*
X150200Y16290D02*
X477913D01*
X150200Y18291D02*
X283837D01*
X150200Y10291D02*
X477913D01*
X150200Y14290D02*
X477913D01*
X150200Y12291D02*
X477913D01*
X150200Y76291D02*
X263770D01*
X150200Y78290D02*
X263533D01*
X150200Y70290D02*
X359136D01*
X150200Y74291D02*
X265813D01*
X150200Y72290D02*
X359136D01*
X150200Y80291D02*
X264552D01*
X150200Y82291D02*
X311714D01*
X150200Y84290D02*
X312862D01*
X150200Y90290D02*
X340555D01*
X150200Y88291D02*
X341035D01*
X232732Y2200D02*
Y38288D01*
X230732Y68459D02*
Y137532D01*
X216379Y38288D02*
X247338D01*
X234732Y2200D02*
Y38288D01*
X236732Y2200D02*
Y38288D01*
X234732Y68459D02*
Y137532D01*
X232732Y68459D02*
Y137532D01*
X216379Y68459D02*
X247338D01*
X150200Y86291D02*
X358782D01*
X236732Y68459D02*
Y137532D01*
X179397Y164291D02*
X278850D01*
X179397Y186291D02*
X277645D01*
X179397Y160291D02*
X278850D01*
X179397Y162291D02*
X278850D01*
X179397Y194291D02*
X269645D01*
X179397Y196291D02*
X267645D01*
X179397Y188291D02*
X275645D01*
X179397Y192291D02*
X271645D01*
X179397Y190291D02*
X273645D01*
X185468Y137532D02*
X259268D01*
X187207Y145932D02*
X259268D01*
X179397Y198291D02*
X265645D01*
X179397Y202291D02*
X261645D01*
X179397Y200291D02*
X263645D01*
X179397Y210291D02*
X260542D01*
X179397Y212291D02*
X260542D01*
X179397Y204291D02*
X260545D01*
X179397Y208291D02*
X260542D01*
X179397Y206291D02*
X260542D01*
X216732Y145932D02*
Y216914D01*
X216003D02*
Y226220D01*
X179397Y214290D02*
X260542D01*
X179397Y216290D02*
X260542D01*
X216003Y216914D02*
X225309D01*
X179397Y218290D02*
X216003D01*
X179397Y220290D02*
X216003D01*
X179397Y222290D02*
X216003D01*
X179397Y224290D02*
X216003D01*
Y226220D02*
X225309D01*
X220732Y145932D02*
Y216914D01*
X218732Y145932D02*
Y216914D01*
X222732Y145932D02*
Y216914D01*
X224732Y145932D02*
Y216914D01*
X225309D02*
Y226220D01*
Y220290D02*
X236182D01*
X225309Y222290D02*
X236060D01*
X225309Y218290D02*
X237352D01*
X225309Y224290D02*
X236884D01*
X53400Y100291D02*
X341501D01*
X53400Y102290D02*
X341501D01*
X53400Y94291D02*
X341501D01*
X53400Y98290D02*
X341501D01*
X53400Y96290D02*
X341501D01*
X53400Y108291D02*
X336397D01*
X53400Y110291D02*
X336425D01*
X53400Y104291D02*
X341501D01*
X53400Y112291D02*
X337210D01*
X53400Y106291D02*
X338230D01*
X53400Y118291D02*
X337210D01*
X53400Y120291D02*
X337210D01*
X148509Y92291D02*
X341501D01*
X53400Y116291D02*
X337210D01*
X53400Y114291D02*
X337210D01*
X53400Y128291D02*
X337210D01*
X53652Y130291D02*
X337210D01*
X53400Y122291D02*
X337210D01*
X53400Y126291D02*
X337210D01*
X53400Y124291D02*
X337210D01*
X179397Y154291D02*
X282345D01*
X179397Y156291D02*
X280345D01*
X55652Y132291D02*
X337210D01*
X57268Y134291D02*
X337210D01*
X57867Y136291D02*
X332903D01*
X179397Y178291D02*
X278850D01*
X179397Y184291D02*
X278850D01*
X179397Y158291D02*
X278904D01*
X179397Y168291D02*
X278850D01*
X179397Y166291D02*
X278850D01*
X180849Y152291D02*
X284345D01*
X179397Y170291D02*
X278850D01*
X186849Y146291D02*
X290345D01*
X182849Y150291D02*
X286345D01*
X184849Y148291D02*
X288345D01*
X179397Y180291D02*
X278850D01*
X179397Y182291D02*
X278850D01*
X179397Y172291D02*
X278850D01*
X179397Y176291D02*
X278850D01*
X179397Y174291D02*
X278850D01*
X240732Y2200D02*
Y38288D01*
X238732Y2200D02*
Y38288D01*
X244732Y2200D02*
Y38288D01*
X242732Y2200D02*
Y38288D01*
X246732Y2200D02*
Y38288D01*
Y68459D02*
Y137532D01*
X247338Y38291D02*
X271758D01*
X247338Y38288D02*
Y68459D01*
Y40291D02*
X272246D01*
X266732Y2200D02*
Y74061D01*
X264732Y2200D02*
Y74950D01*
X276732Y2200D02*
Y35030D01*
X268732Y2200D02*
Y74393D01*
X270732Y2200D02*
Y76891D01*
X272732Y2200D02*
Y35963D01*
X274732Y2200D02*
Y34854D01*
X278732Y2200D02*
Y36873D01*
X252732Y2200D02*
Y137532D01*
X250732Y2200D02*
Y137532D01*
X258732Y2200D02*
Y137532D01*
X254732Y2200D02*
Y137532D01*
X256732Y2200D02*
Y137532D01*
X240732Y68459D02*
Y137532D01*
X238732Y68459D02*
Y137532D01*
X248732Y2200D02*
Y137532D01*
X242732Y68459D02*
Y137532D01*
X244732Y68459D02*
Y137532D01*
X260732Y2200D02*
Y137796D01*
X262732Y2200D02*
Y139357D01*
X280732Y2200D02*
Y155903D01*
X272732Y40950D02*
Y191203D01*
X278732Y40041D02*
Y185204D01*
X268732Y81017D02*
Y195203D01*
X264732Y80459D02*
Y199204D01*
X276732Y41884D02*
Y187204D01*
X270732Y78519D02*
Y193203D01*
X274732Y42059D02*
Y189204D01*
X284732Y2200D02*
Y17947D01*
X282732Y2200D02*
Y19206D01*
X278384Y36291D02*
X368347D01*
X279088Y38291D02*
X368347D01*
X247338Y42291D02*
X358826D01*
X247338Y44291D02*
X358704D01*
X278600Y40291D02*
X360175D01*
X247338Y48291D02*
X359136D01*
X247338Y46291D02*
X359136D01*
X288732Y2200D02*
Y17843D01*
X286732Y2200D02*
Y17843D01*
X293200D02*
X365443D01*
X290732Y2200D02*
Y17843D01*
X292732Y2200D02*
Y17843D01*
X285600D02*
X289300D01*
X285600Y25243D02*
X289300D01*
Y17843D02*
X293200D01*
X289300Y25243D02*
X293200D01*
X363911D01*
X247338Y56291D02*
X359136D01*
X247338Y58290D02*
X359136D01*
X247338Y50291D02*
X359136D01*
X247338Y54290D02*
X359136D01*
X247338Y52290D02*
X359136D01*
X247338Y66290D02*
X359136D01*
X247338Y68291D02*
X359136D01*
X247338Y60290D02*
X359136D01*
X247338Y64290D02*
X359136D01*
X247338Y62291D02*
X359136D01*
X284732Y25140D02*
Y151903D01*
X282732Y23881D02*
Y153903D01*
X292732Y25243D02*
Y144023D01*
X288732Y25243D02*
Y147904D01*
X290732Y25243D02*
Y145904D01*
X269757Y80291D02*
X311854D01*
X286732Y25243D02*
Y149904D01*
X268496Y74291D02*
X359136D01*
X270539Y76291D02*
X359136D01*
X270776Y78290D02*
X313568D01*
X260732Y145669D02*
Y203463D01*
X248732Y145932D02*
Y217331D01*
X240732Y145932D02*
Y216915D01*
X238732Y145932D02*
Y217331D01*
X250732Y145932D02*
Y216915D01*
X266732Y81349D02*
Y197204D01*
X262732Y144107D02*
Y201203D01*
X278850Y158800D02*
Y185085D01*
X282821Y200291D02*
X284041D01*
X261262Y202673D02*
X278850Y185085D01*
X286732Y196379D02*
Y196906D01*
X275428Y207683D02*
X284282Y198829D01*
X280821Y202291D02*
X284932D01*
X242732Y145932D02*
Y217403D01*
X236732Y145932D02*
Y219067D01*
X246732Y145932D02*
Y219067D01*
X244732Y145932D02*
Y219323D01*
X245252Y222290D02*
X246060D01*
X243959Y218290D02*
X247352D01*
X244428Y224290D02*
X246884D01*
X245130Y220290D02*
X246182D01*
X252732Y145932D02*
Y217403D01*
X254732Y145932D02*
Y219323D01*
X253959Y218290D02*
X260542D01*
X282732Y200379D02*
Y225425D01*
X284732Y202063D02*
Y225200D01*
X255130Y220290D02*
X260542D01*
X255252Y222290D02*
X260542D01*
X254428Y224290D02*
X260542D01*
X262599Y144291D02*
X292354D01*
X279570Y157065D02*
X292218Y144418D01*
X261675Y138291D02*
X332716D01*
X263212Y140291D02*
X333635D01*
X263431Y142291D02*
X333635D01*
X288732Y194379D02*
Y197240D01*
X288821Y194291D02*
X389966D01*
X285995Y197116D02*
X292952Y190159D01*
X286821Y196291D02*
X389966D01*
X293600Y178291D02*
X341200D01*
X292732Y190380D02*
Y197367D01*
X290732Y192379D02*
Y197367D01*
X292821Y190291D02*
X341200D01*
X288951Y197367D02*
X308716D01*
X290821Y192291D02*
X341615D01*
X276821Y206291D02*
X330311D01*
X275428Y212291D02*
X330329D01*
X275428Y208291D02*
X331240D01*
X275428Y214290D02*
X330713D01*
X275428Y210291D02*
X331415D01*
X275428Y222290D02*
X292389D01*
X275428Y224290D02*
X291344D01*
X275428Y216290D02*
X332711D01*
X275428Y220290D02*
X330322D01*
X275428Y218290D02*
X331358D01*
X288732Y202894D02*
Y225200D01*
X288951Y202767D02*
X308716D01*
X290732D02*
Y224507D01*
X292732Y202767D02*
Y221782D01*
X283700Y225200D02*
X289776D01*
X286732Y203227D02*
Y225200D01*
X278821Y204291D02*
X330811D01*
X179397Y230291D02*
X238456D01*
X179397Y232291D02*
X238456D01*
X179397Y226290D02*
X238456D01*
X179397Y228291D02*
X238456D01*
X179397Y244290D02*
X238198D01*
X179397Y246290D02*
X236198D01*
X179397Y234291D02*
X238456D01*
X179397Y238291D02*
X238456D01*
X179397Y236291D02*
X238456D01*
X179397Y248290D02*
X234198D01*
X232732Y145932D02*
Y249838D01*
X238456Y225667D02*
Y244033D01*
X234732Y145932D02*
Y247757D01*
X236732Y224067D02*
Y245757D01*
X179397Y252291D02*
X232400D01*
X179397Y254291D02*
X232400D01*
X179397Y250290D02*
X232518D01*
X202732Y145932D02*
Y327340D01*
X200732Y145932D02*
Y327729D01*
X208732Y145932D02*
Y287214D01*
X204732Y145932D02*
Y328418D01*
X206732Y145932D02*
Y336588D01*
X210732Y145932D02*
Y285321D01*
X212732Y145932D02*
Y285330D01*
X218732Y226220D02*
Y285915D01*
X214732Y145932D02*
Y285915D01*
X216732Y226220D02*
Y285915D01*
X224732Y226220D02*
Y285915D01*
X222732Y226220D02*
Y285915D01*
X230732Y145932D02*
Y285915D01*
X226732Y145932D02*
Y285915D01*
X228732Y145932D02*
Y285915D01*
X232400Y251000D02*
Y254676D01*
X220732Y226220D02*
Y285915D01*
X236800Y251911D02*
Y254676D01*
X242856Y238291D02*
X255882D01*
X179397Y240290D02*
X238456D01*
X242856Y232291D02*
X260542D01*
X242856Y234291D02*
X259882D01*
X179397Y242290D02*
X238456D01*
X242856Y240290D02*
X253882D01*
X242396Y246290D02*
X247882D01*
X242856Y225667D02*
Y244944D01*
X246732Y224067D02*
Y247441D01*
X242856Y226290D02*
X260542D01*
X248732Y225803D02*
Y245441D01*
X250732Y226219D02*
Y243441D01*
X242856Y242290D02*
X251882D01*
X242856Y244290D02*
X249882D01*
X242856Y228291D02*
X260542D01*
X242856Y236291D02*
X257882D01*
X242856Y230291D02*
X260542D01*
X233048Y249441D02*
X238456Y244033D01*
X238732Y249979D02*
Y285504D01*
X240421Y248290D02*
X245882D01*
X236800Y251911D02*
X242208Y246504D01*
X240732Y247979D02*
Y283504D01*
X236800Y254291D02*
X240754D01*
X240750Y254438D02*
Y283485D01*
X238421Y250290D02*
X243882D01*
X236800Y252291D02*
X241882D01*
X244732Y223811D02*
Y249441D01*
X242732Y245673D02*
Y251441D01*
X248812Y252291D02*
X263942D01*
X241470Y252703D02*
X260542Y233631D01*
X245650Y255453D02*
X263942Y237161D01*
X246732Y254371D02*
Y305674D01*
X246812Y254291D02*
X263942D01*
X246737Y254857D02*
X255648D01*
X248732Y252371D02*
Y254857D01*
X179397Y256291D02*
X231480D01*
X179397Y258291D02*
X231672D01*
X179397Y260291D02*
X240750D01*
X179397Y264290D02*
X240750D01*
X179397Y278291D02*
X240750D01*
X179397Y280291D02*
X240750D01*
X179397Y266290D02*
X240750D01*
X179397Y276290D02*
X240750D01*
X179397Y274290D02*
X240750D01*
X234732Y260197D02*
Y285915D01*
X232732Y259598D02*
Y285915D01*
X237720Y256291D02*
X240750D01*
X179397Y282291D02*
X240750D01*
X236732Y259387D02*
Y285915D01*
X179397Y286291D02*
X209281D01*
X179397Y288291D02*
X208518D01*
X179397Y284291D02*
X239945D01*
X213776Y285915D02*
X238320D01*
X240750Y283485D01*
X179397Y290290D02*
X209161D01*
X208732Y289517D02*
Y305960D01*
X213776Y290815D02*
X239335D01*
X216732D02*
Y309217D01*
X210732Y291410D02*
Y304574D01*
X212732Y291400D02*
Y304782D01*
X214732Y290815D02*
Y308221D01*
X218732Y290815D02*
Y309217D01*
X220732Y290815D02*
Y309217D01*
X234732Y290815D02*
Y305674D01*
X232732Y290815D02*
Y305674D01*
X240732Y290378D02*
Y305674D01*
X236732Y290815D02*
Y305674D01*
X238732Y290815D02*
Y305674D01*
X224732Y290815D02*
Y306375D01*
X222732Y290815D02*
Y309217D01*
X226732Y290815D02*
Y304783D01*
X228732Y290815D02*
Y304897D01*
X230732Y290815D02*
Y305674D01*
X237528Y258291D02*
X240750D01*
X179397Y262291D02*
X240750D01*
X245650Y256291D02*
X246737D01*
X245650Y260291D02*
X246737D01*
X245650Y258291D02*
X246737D01*
X179397Y268290D02*
X240750D01*
X179397Y270290D02*
X240750D01*
X245650Y262291D02*
X246737D01*
X179397Y272290D02*
X240750D01*
X245650Y264290D02*
X263942D01*
X246737Y262390D02*
X255648D01*
X246737Y254857D02*
Y262390D01*
X245650Y266290D02*
X263831D01*
X245650Y270290D02*
X263487D01*
X245650Y268290D02*
X262949D01*
X245650Y278291D02*
X273700D01*
X246737Y278837D02*
X255648D01*
X245650Y272290D02*
X273700D01*
X245650Y276290D02*
X273700D01*
X245650Y274290D02*
X273700D01*
X241069Y290095D02*
X244930Y286235D01*
X244732Y286433D02*
Y305674D01*
X244874Y286291D02*
X246737D01*
X242874Y288291D02*
X261019D01*
X240850Y290290D02*
X263478D01*
X242732Y288433D02*
Y305674D01*
X245650Y255453D02*
Y284500D01*
X246737Y278837D02*
Y286371D01*
X250732Y262390D02*
Y278837D01*
X245650Y280291D02*
X246737D01*
X248732Y262390D02*
Y278837D01*
X245650Y282291D02*
X246737D01*
X245650Y284291D02*
X246737D01*
Y286371D02*
X255648D01*
X248732D02*
Y305674D01*
X250732Y286371D02*
Y305674D01*
X254732Y223811D02*
Y239441D01*
X252732Y225731D02*
Y241441D01*
X254812Y246290D02*
X263942D01*
X256732Y244371D02*
Y256012D01*
X252732Y248371D02*
Y254857D01*
X250732Y250371D02*
Y254857D01*
X252812Y248290D02*
X263942D01*
X250812Y250290D02*
X263942D01*
X254732Y246371D02*
Y254857D01*
X258732Y145932D02*
Y235441D01*
X256732Y145932D02*
Y237441D01*
X260542Y204408D02*
Y233631D01*
X262812Y238291D02*
X263942D01*
X275428Y207683D02*
Y250835D01*
X258812Y242290D02*
X263942D01*
X258732Y242371D02*
Y255468D01*
X260812Y240290D02*
X263942D01*
X256812Y244290D02*
X263942D01*
X260676Y256291D02*
X263942D01*
X255648Y256461D02*
X256203D01*
X255648Y254857D02*
Y256461D01*
Y256291D02*
X256378D01*
X254732Y262390D02*
Y278837D01*
X252732Y262390D02*
Y278837D01*
X255648Y260861D02*
X256203D01*
X255648D02*
Y262390D01*
Y262291D02*
X263942D01*
X260732Y240371D02*
Y256342D01*
X262732Y238371D02*
Y278647D01*
X261705Y258291D02*
X263942D01*
X261281Y260291D02*
X263942D01*
Y237161D02*
Y266180D01*
X258732Y261855D02*
Y279616D01*
X256732Y261310D02*
Y280104D01*
X260732Y260981D02*
Y278647D01*
X275428Y232291D02*
X279900D01*
X275428Y234291D02*
X279900D01*
X275428Y226290D02*
X281698D01*
X275428Y230291D02*
X279900D01*
X275428Y228291D02*
X280017D01*
X275428Y248290D02*
X279900D01*
X275428Y250290D02*
X279900D01*
X275428Y236291D02*
X279900D01*
X275428Y240290D02*
X279900D01*
X275428Y238291D02*
X279900D01*
X276732Y206380D02*
Y250910D01*
X278732Y204380D02*
Y252510D01*
X280732Y202379D02*
Y227257D01*
X280548Y227441D02*
X282140Y225848D01*
X275428Y246290D02*
X279900D01*
X278605Y252291D02*
X279900D01*
X275428Y244290D02*
X279900D01*
X275428Y242290D02*
X279900D01*
X278100Y256324D02*
Y270839D01*
Y258291D02*
X279900D01*
X278135Y256291D02*
X279900D01*
X278100Y260291D02*
X279180D01*
X278100Y262291D02*
X278975D01*
X278100Y264290D02*
X280368D01*
X278100Y268290D02*
X285170D01*
X278100Y266290D02*
X282992D01*
X279087Y254291D02*
X279900D01*
X278732Y255490D02*
Y270839D01*
X279900Y229000D02*
Y259276D01*
X280732Y264493D02*
Y270839D01*
X284732Y268138D02*
Y270839D01*
X282732Y264737D02*
Y270839D01*
X286087Y268399D02*
X286957Y269268D01*
X286732Y269043D02*
Y273462D01*
X259916Y278647D02*
Y279956D01*
X255648Y278837D02*
Y280104D01*
X259916Y278647D02*
X268828D01*
X255648Y280104D02*
X256739D01*
X255648Y285504D02*
X256739D01*
X259916Y286181D02*
X260948D01*
X259916Y285652D02*
Y286181D01*
X266732Y271649D02*
Y278647D01*
X264732Y271376D02*
Y278647D01*
X270882Y270290D02*
X273700D01*
X268732Y270383D02*
Y278647D01*
X267057Y286181D02*
X268828D01*
Y278647D02*
Y286181D01*
Y280291D02*
X273700D01*
X268828Y284291D02*
X273700D01*
X268828Y282291D02*
X273700D01*
X255648Y285504D02*
Y286371D01*
X256732Y285504D02*
Y305674D01*
X258732Y285992D02*
Y305674D01*
X260732Y286181D02*
Y305674D01*
X254732Y286371D02*
Y305674D01*
X252732Y286371D02*
Y305674D01*
X255648Y286291D02*
X260915D01*
X262732Y290071D02*
Y305674D01*
X264527Y290290D02*
X273700D01*
X268732Y286181D02*
Y305674D01*
X273700Y269307D02*
Y302800D01*
X270732Y270347D02*
Y305674D01*
X272732Y269303D02*
Y305674D01*
X266732Y288804D02*
Y305674D01*
X264732Y290250D02*
Y305674D01*
X267089Y286291D02*
X273700D01*
X266986Y288291D02*
X273700D01*
X278100Y286934D02*
Y301889D01*
Y270839D02*
X285558D01*
Y272783D01*
X278100Y270290D02*
X295946D01*
X285558Y272290D02*
X295946D01*
X285558Y282291D02*
X286660D01*
X286652Y273382D02*
X287450Y274180D01*
X288732Y269916D02*
Y276308D01*
X288516Y269916D02*
X295946D01*
X290732D02*
Y276308D01*
X292732Y269916D02*
Y276308D01*
X287554Y274290D02*
X295946D01*
X288535Y276290D02*
X295946D01*
X288547Y276308D02*
X295946D01*
X278732Y287976D02*
Y302520D01*
X284302Y285854D02*
X285558D01*
X284269Y286291D02*
X286650D01*
X284732Y285854D02*
Y302918D01*
X278100Y288291D02*
X279060D01*
X280732Y289005D02*
Y302918D01*
X283144Y288291D02*
X286650D01*
X278100Y290290D02*
X286650D01*
X282732Y288581D02*
Y302918D01*
X285664Y281295D02*
X286685Y282315D01*
X285558Y281286D02*
Y285854D01*
X286732Y282362D02*
Y285308D01*
X285558Y284291D02*
X288465D01*
X286650Y285308D02*
Y295795D01*
X288465Y282964D02*
Y285220D01*
X286650Y285308D02*
X290032D01*
X288465Y285220D02*
X290032D01*
X2191Y318290D02*
X156500D01*
X2191Y322290D02*
X156500D01*
X2191Y314290D02*
X156500D01*
X2191Y316290D02*
X156500D01*
X2191Y364290D02*
X128063D01*
X2191Y366290D02*
X128057D01*
X2191Y362291D02*
X130012D01*
X2191Y370290D02*
X128900D01*
X2191Y368290D02*
X128900D01*
X2191Y320290D02*
X156500D01*
X133300Y370290D02*
X137668D01*
X133300Y368290D02*
X144285D01*
X133300Y372290D02*
X135932D01*
X2191D02*
X128900D01*
X140332Y370290D02*
X143407D01*
X142068Y372290D02*
X143948D01*
X128900Y367624D02*
Y418289D01*
X128732Y367452D02*
Y418457D01*
X133300Y374290D02*
X135992D01*
X133300Y367624D02*
Y376762D01*
X2191Y374290D02*
X128900D01*
X2191Y376290D02*
X128900D01*
X133300D02*
X136800D01*
X2191Y378291D02*
X128900D01*
X144400Y372824D02*
Y377976D01*
X142008Y374290D02*
X144400D01*
X148800Y372824D02*
Y421800D01*
X136732Y375457D02*
Y377266D01*
X136800Y375524D02*
Y377327D01*
X141200Y376290D02*
X144400D01*
X141200Y375524D02*
Y378325D01*
X2191Y326290D02*
X156500D01*
X2191Y328291D02*
X156500D01*
X2191Y312291D02*
X156500D01*
X2191Y324290D02*
X156500D01*
X2191Y336291D02*
X156500D01*
X2191Y338291D02*
X156500D01*
X2191Y330291D02*
X156500D01*
X2191Y334291D02*
X156500D01*
X2191Y332291D02*
X156500D01*
X2191Y298290D02*
X156500D01*
X2191Y300290D02*
X156500D01*
X2191Y292290D02*
X156500D01*
X2191Y296290D02*
X156500D01*
X2191Y294290D02*
X156500D01*
X2191Y308291D02*
X156500D01*
X2191Y310291D02*
X156500D01*
X2191Y302291D02*
X156500D01*
X2191Y306291D02*
X156500D01*
X2191Y304291D02*
X156500D01*
X2191Y346290D02*
X156500D01*
X2191Y348290D02*
X156500D01*
X2191Y340290D02*
X156500D01*
X2191Y344290D02*
X156500D01*
X2191Y342290D02*
X156500D01*
X2191Y356291D02*
X156500D01*
X2191Y358291D02*
X156500D01*
X2191Y350290D02*
X156500D01*
X2191Y354291D02*
X156500D01*
X2191Y352291D02*
X156500D01*
X134143Y366290D02*
X156500D01*
X148915Y368290D02*
X156500D01*
X2191Y360291D02*
X156500D01*
X132188Y362291D02*
X156500D01*
X134137Y364290D02*
X156500D01*
X148800Y378291D02*
X156500D01*
X148800Y380291D02*
X156500D01*
X149252Y372290D02*
X156500D01*
X148800Y376290D02*
X156500D01*
X148800Y374290D02*
X156500D01*
X2191Y404290D02*
X22798D01*
X2191Y406290D02*
X23723D01*
X2191Y398290D02*
X24530D01*
X2191Y408290D02*
X26089D01*
X2191Y430291D02*
X111377D01*
X2191Y432291D02*
X109377D01*
X2191Y424291D02*
X122898D01*
X2191Y428291D02*
X113377D01*
X2191Y426291D02*
X115377D01*
X2191Y400290D02*
X23120D01*
X2191Y402290D02*
X22621D01*
X120732Y429700D02*
Y430936D01*
X115600Y432291D02*
X119377D01*
X117279Y425300D02*
X121889D01*
X117600Y430291D02*
X121377D01*
X118190Y429700D02*
X121968D01*
X2191Y434291D02*
X103936D01*
X34732Y404084D02*
Y440632D01*
X109152Y432515D02*
X115719Y425948D01*
X112264Y435627D02*
X118190Y429700D01*
X2191Y436291D02*
X103126D01*
X2191Y438291D02*
X103250D01*
X112293D02*
X113250D01*
X2191Y440290D02*
X104407D01*
X111135D02*
X114407D01*
X116732Y431158D02*
Y432424D01*
X113600Y434291D02*
X113936D01*
X118732Y429700D02*
Y432407D01*
X119152Y432515D02*
X121968Y429700D01*
X123600Y434291D02*
X123936D01*
X112416Y436291D02*
X113126D01*
X122416D02*
X123126D01*
X121135Y440290D02*
X124407D01*
X122293Y438291D02*
X123249D01*
X2191Y386291D02*
X128900D01*
X2191Y388291D02*
X128900D01*
X2191Y380291D02*
X128900D01*
X2191Y384291D02*
X128900D01*
X2191Y382291D02*
X128900D01*
X2191Y396290D02*
X128900D01*
X32950Y398290D02*
X128900D01*
X2191Y390290D02*
X128900D01*
X2191Y394290D02*
X128900D01*
X2191Y392290D02*
X128900D01*
X148800Y382291D02*
X156859D01*
X148800Y384291D02*
X158130D01*
X148800Y386291D02*
X160129D01*
X148800Y390290D02*
X164129D01*
X148800Y388291D02*
X162129D01*
X148800Y392290D02*
X166130D01*
X34360Y400290D02*
X128900D01*
X148800Y394290D02*
X168130D01*
X148800Y398290D02*
X172136D01*
X148800Y396290D02*
X170130D01*
X2191Y410290D02*
X128900D01*
X2191Y412290D02*
X128900D01*
X34682Y404290D02*
X128900D01*
X31392Y408290D02*
X128900D01*
X33757Y406290D02*
X128900D01*
X2191Y420291D02*
X126898D01*
X2191Y422291D02*
X124898D01*
X2191Y414291D02*
X128900D01*
X2191Y418291D02*
X128898D01*
X2191Y416291D02*
X128900D01*
X34859Y402290D02*
X128900D01*
X121889Y425300D02*
X128900Y418289D01*
X139971Y431540D02*
X148152Y423359D01*
X125571Y432319D02*
Y432855D01*
X122264Y435627D02*
X125571Y432319D01*
X139971Y431540D02*
Y432855D01*
X140732Y430780D02*
Y433358D01*
X167900Y298290D02*
X170997D01*
X167900Y300290D02*
X170997D01*
X167900Y292290D02*
X170997D01*
X167900Y294290D02*
X170997D01*
X167900Y302291D02*
X170997D01*
X156500Y301600D02*
Y309400D01*
X167900Y304291D02*
X170997D01*
X167900Y308291D02*
X170997D01*
X167900Y306291D02*
X170997D01*
X167900Y296290D02*
X170997D01*
X167900Y301600D02*
Y309400D01*
Y310291D02*
X170997D01*
X167900Y312291D02*
X170997D01*
X167900Y314290D02*
X171142D01*
X167900Y316290D02*
X172351D01*
X167900Y320290D02*
X176351D01*
X167900Y318290D02*
X174351D01*
X167900Y309400D02*
Y377939D01*
X156500Y309400D02*
Y380300D01*
X167900Y322290D02*
X178351D01*
X167900Y326290D02*
X182351D01*
X167900Y324290D02*
X180351D01*
X167900Y334291D02*
X183100D01*
X167900Y336291D02*
X183100D01*
X167900Y328291D02*
X183100D01*
X167900Y332291D02*
X183100D01*
X167900Y330291D02*
X183100D01*
X172732Y316671D02*
Y382771D01*
X174732Y318671D02*
Y384771D01*
X179397Y311457D02*
X190270Y322330D01*
X172227Y316167D02*
X183100Y327040D01*
X176732Y320671D02*
Y350711D01*
X180732Y324671D02*
Y349934D01*
X178732Y322671D02*
Y349956D01*
X182732Y326671D02*
Y349934D01*
X183100Y327040D02*
Y340788D01*
X179397Y306291D02*
X208544D01*
X179397Y308291D02*
X208272D01*
X179397Y310291D02*
X209539D01*
X180230Y312291D02*
X212579D01*
X191500Y330291D02*
X199119D01*
X191500Y328291D02*
X200008D01*
X214290Y306291D02*
X224778D01*
X214594Y308083D02*
X215729Y309217D01*
X211180Y310891D02*
X213258Y312969D01*
X214802Y308291D02*
X224386D01*
X215729Y309217D02*
X224655D01*
X210732Y310826D02*
Y336588D01*
X208732Y309440D02*
Y336588D01*
X216732Y313617D02*
Y336588D01*
X212732Y312443D02*
Y336588D01*
X214732Y313616D02*
Y336588D01*
X199112Y330512D02*
Y336588D01*
X191500Y325300D02*
Y336588D01*
Y332291D02*
X199112D01*
X191500Y334291D02*
X199112D01*
X205512Y330512D02*
Y336588D01*
X230732Y313617D02*
Y336588D01*
X228732Y313617D02*
Y336588D01*
X236732Y313617D02*
Y336588D01*
X232732Y313617D02*
Y336588D01*
X234732Y313617D02*
Y336588D01*
X220732Y313617D02*
Y336588D01*
X218732Y313617D02*
Y336588D01*
X226732Y313617D02*
Y336588D01*
X222732Y313617D02*
Y336588D01*
X224732Y313617D02*
Y336588D01*
X167900Y342290D02*
X183100D01*
X167900Y344290D02*
X183100D01*
X167900Y338291D02*
X183100D01*
X167900Y340290D02*
X183100D01*
X167900Y352291D02*
X175392D01*
X167900Y354291D02*
X174969D01*
X167900Y346290D02*
X183100D01*
X167900Y356291D02*
X175562D01*
X167900Y348290D02*
X183100D01*
Y340788D02*
Y341288D01*
Y346000D01*
X191500Y344988D02*
Y346000D01*
X183100Y341288D02*
Y346000D01*
X191500Y344988D02*
Y346000D01*
X167900Y350290D02*
X177472D01*
X167900Y358291D02*
X178565D01*
X183100Y346000D02*
Y349934D01*
X179166D02*
X183100D01*
X191500Y346000D02*
Y354134D01*
X149793Y370290D02*
X156500D01*
X176732Y357556D02*
Y386771D01*
X167900Y377939D02*
X178361Y388400D01*
X178732Y358311D02*
Y388400D01*
X158169Y384331D02*
X171969Y398130D01*
X188732Y358082D02*
Y388400D01*
X182732Y358334D02*
Y388400D01*
X190732Y356555D02*
Y388400D01*
X179166Y358334D02*
X183134D01*
X180732D02*
Y388400D01*
X183134Y358334D02*
X187300D01*
X184732D02*
Y388400D01*
X186732Y358334D02*
Y388400D01*
X191500Y336291D02*
X199112D01*
X191500Y336588D02*
X199112D01*
X191500Y344988D02*
X202312D01*
X191500Y348290D02*
X233040D01*
X191500Y346290D02*
X233040D01*
X191500Y352291D02*
X233040D01*
X178361Y388400D02*
X194800D01*
X191500Y350290D02*
X233040D01*
X190904Y356291D02*
X233865D01*
X191497Y354291D02*
X233043D01*
X194732Y344988D02*
Y388400D01*
X192732Y344988D02*
Y388400D01*
X202312Y344988D02*
X233040D01*
X202732D02*
Y388400D01*
X204732Y344988D02*
Y388400D01*
X206732Y344988D02*
Y388400D01*
X194800D02*
X201200D01*
X233040Y344988D02*
Y354147D01*
X208732Y344988D02*
Y388400D01*
X210732Y344988D02*
Y388400D01*
X198732Y344988D02*
Y388400D01*
X196732Y344988D02*
Y388400D01*
X216732Y344988D02*
Y388400D01*
X200732Y344988D02*
Y388400D01*
X214732Y344988D02*
Y388400D01*
X194800Y399800D02*
X201200D01*
X176000D02*
X194800D01*
X201200Y388400D02*
X210800D01*
X201200Y399800D02*
X210800D01*
X212732Y344988D02*
Y388400D01*
X220732Y344988D02*
Y388400D01*
X218732Y344988D02*
Y388400D01*
X226732Y344988D02*
Y388400D01*
X222732Y344988D02*
Y388400D01*
X224732Y344988D02*
Y388400D01*
X230732Y344988D02*
Y388400D01*
X228732Y344988D02*
Y388400D01*
X236732Y357309D02*
Y388400D01*
X232732Y344988D02*
Y388400D01*
X234732Y356969D02*
Y388400D01*
X32732Y407417D02*
Y441298D01*
X2191Y442290D02*
X31664D01*
X38366D02*
X41507D01*
X2191Y444290D02*
X30849D01*
X30815Y444823D02*
Y445728D01*
X39181Y444290D02*
X40692D01*
X39177Y446290D02*
X40696D01*
X39215Y444823D02*
Y445728D01*
X49024Y444290D02*
X50534D01*
X48208Y442290D02*
X51350D01*
X58866Y444290D02*
X60377D01*
X49058Y444823D02*
Y445728D01*
X40658Y444823D02*
Y445728D01*
X60343Y444823D02*
Y445728D01*
X50500Y444823D02*
Y445728D01*
X58900Y444823D02*
Y445728D01*
X22732Y404005D02*
Y464231D01*
X24732Y407403D02*
Y465626D01*
X26732Y408555D02*
Y467679D01*
X28732Y408893D02*
Y471112D01*
X30732Y408561D02*
Y509611D01*
X2191Y446290D02*
X30853D01*
X2191Y448290D02*
X31687D01*
X38343D02*
X41530D01*
X32732Y449253D02*
Y509611D01*
X40732Y446513D02*
Y509611D01*
X49020Y446290D02*
X50538D01*
X58862D02*
X60381D01*
X48732Y447351D02*
Y509611D01*
X38732Y447685D02*
Y509611D01*
X48186Y448290D02*
X51372D01*
X50732Y447104D02*
Y509611D01*
X58732Y446906D02*
Y509611D01*
X104732Y440593D02*
Y443423D01*
X106732Y441592D02*
Y442424D01*
X58051Y442290D02*
X61192D01*
X68709Y444290D02*
X93936D01*
X67893Y442290D02*
X129377D01*
X101606Y444290D02*
X103936D01*
X108732Y441609D02*
Y442407D01*
X110732Y440658D02*
Y443358D01*
X114732Y440593D02*
Y443423D01*
X124732Y440593D02*
Y443423D01*
X116732Y441592D02*
Y442424D01*
X111606Y444290D02*
X113936D01*
X118732Y441609D02*
Y442407D01*
X120732Y440658D02*
Y443358D01*
X121606Y444290D02*
X123936D01*
X68743Y444823D02*
Y445728D01*
X68732Y446032D02*
Y509611D01*
X68705Y446290D02*
X93126D01*
X58028Y448290D02*
X61215D01*
X60732Y447494D02*
Y509611D01*
X102293Y448290D02*
X103250D01*
X66732Y449313D02*
Y509611D01*
X67871Y448290D02*
X93249D01*
X112732Y435158D02*
Y509611D01*
X122732Y435158D02*
Y509611D01*
X112416Y446290D02*
X113126D01*
X102416D02*
X103126D01*
X122416D02*
X123126D01*
X112293Y448290D02*
X113250D01*
X122293D02*
X123249D01*
X2191Y464291D02*
X8663D01*
X2191Y466291D02*
X6024D01*
X2191Y450290D02*
X94407D01*
X2191Y470291D02*
X3128D01*
X2191Y482291D02*
X3046D01*
X2191Y468291D02*
X4307D01*
X2191Y486291D02*
X5846D01*
X2191Y484291D02*
X4185D01*
X2191Y479914D02*
Y502691D01*
X2732Y481563D02*
Y504115D01*
X4732Y485035D02*
Y506905D01*
X6732Y487103D02*
Y508392D01*
X2191Y488291D02*
X8372D01*
X8732Y488506D02*
Y509228D01*
X2191Y490290D02*
X14090D01*
X10732Y489460D02*
Y509586D01*
X14732Y490352D02*
Y509611D01*
X24732Y487130D02*
Y509611D01*
X22732Y488524D02*
Y509611D01*
X34732Y449919D02*
Y509611D01*
X26732Y485077D02*
Y509611D01*
X28732Y481644D02*
Y509611D01*
X12732Y490060D02*
Y509611D01*
X20732Y489473D02*
Y509611D01*
X16732Y490354D02*
Y509611D01*
X18732Y490068D02*
Y509611D01*
X46732Y449487D02*
Y509611D01*
X42732Y449351D02*
Y509611D01*
X62732Y449518D02*
Y509611D01*
X52732Y449438D02*
Y509611D01*
X56732Y449404D02*
Y509611D01*
X44732Y449927D02*
Y509611D01*
X36732Y449562D02*
Y509611D01*
X94732Y450593D02*
Y509611D01*
X54732Y449928D02*
Y509611D01*
X64732Y449924D02*
Y509611D01*
X2191Y458290D02*
X233698D01*
X2191Y460290D02*
X231698D01*
X2191Y452290D02*
X236300D01*
X2191Y456290D02*
X235698D01*
X2191Y454290D02*
X236300D01*
X27189Y468291D02*
X223698D01*
X27311Y484291D02*
X209217D01*
X2191Y462290D02*
X229698D01*
X22833Y464291D02*
X227698D01*
X25472Y466291D02*
X225698D01*
X111135Y450290D02*
X114407D01*
X101135D02*
X104407D01*
X121135D02*
X124407D01*
X28367Y470291D02*
X221698D01*
X29150Y472291D02*
X219698D01*
X29202Y480291D02*
X211698D01*
X28450Y482291D02*
X209714D01*
X29603Y474291D02*
X217698D01*
X29628Y478291D02*
X213698D01*
X29759Y476291D02*
X215698D01*
X98732Y451609D02*
Y509611D01*
X96732Y451591D02*
Y509611D01*
X25650Y486291D02*
X209217D01*
X17406Y490290D02*
X209217D01*
X23124Y488291D02*
X209217D01*
X2191Y496290D02*
X208515D01*
X2191Y498290D02*
X208285D01*
X2191Y492290D02*
X209217D01*
X2191Y500290D02*
X209628D01*
X2191Y494290D02*
X209217D01*
X104732Y450593D02*
Y509611D01*
X100732Y450658D02*
Y509611D01*
X124732Y450593D02*
Y509611D01*
X110732Y450658D02*
Y509611D01*
X114732Y450593D02*
Y509611D01*
X108732Y451609D02*
Y509611D01*
X106732Y451591D02*
Y509611D01*
X120732Y450658D02*
Y509611D01*
X116732Y451591D02*
Y509611D01*
X118732Y451609D02*
Y509611D01*
X128732Y441609D02*
Y442407D01*
X126732Y441592D02*
Y442424D01*
X129152Y442515D02*
X130700Y440968D01*
X132264Y445627D02*
X134452Y443438D01*
X128732Y451609D02*
Y509611D01*
X132416Y446290D02*
X133126D01*
X131135Y450290D02*
X134407D01*
X132293Y448290D02*
X133249D01*
X135100Y440875D02*
Y441879D01*
X136732Y441592D02*
Y442424D01*
X138732Y441609D02*
Y442407D01*
X140732Y440658D02*
Y443358D01*
X134732Y443097D02*
Y443423D01*
X133600Y444290D02*
X133936D01*
X134732Y450593D02*
Y509611D01*
X132732Y445158D02*
Y509611D01*
X146732Y424780D02*
Y509611D01*
X142732Y428780D02*
Y509611D01*
X144732Y426780D02*
Y509611D01*
X130732Y450658D02*
Y509611D01*
X126732Y451591D02*
Y509611D01*
X140732Y450658D02*
Y509611D01*
X136732Y451591D02*
Y509611D01*
X138732Y451609D02*
Y509611D01*
X158732Y384893D02*
Y509611D01*
X156732Y381909D02*
Y509611D01*
X164732Y390893D02*
Y509611D01*
X160732Y386893D02*
Y509611D01*
X162732Y388893D02*
Y509611D01*
X166732Y392893D02*
Y509611D01*
X148732Y422344D02*
Y509611D01*
X172732Y398770D02*
Y509611D01*
X168732Y394893D02*
Y509611D01*
X170732Y396893D02*
Y509611D01*
X218732Y399800D02*
Y473257D01*
X216732Y399800D02*
Y475257D01*
X224732Y399800D02*
Y467257D01*
X220732Y399800D02*
Y471257D01*
X222732Y399800D02*
Y469257D01*
X214732Y399800D02*
Y477257D01*
X212732Y399800D02*
Y479257D01*
X142416Y446290D02*
X236314D01*
X141135Y450290D02*
X236300D01*
X142293Y448290D02*
X236300D01*
X230732Y399800D02*
Y461257D01*
X226732Y399800D02*
Y465257D01*
X236732Y399800D02*
Y445231D01*
X232732Y399800D02*
Y459257D01*
X234732Y399800D02*
Y457257D01*
X236300Y446539D02*
Y455689D01*
X228732Y399800D02*
Y463257D01*
X236732Y461480D02*
Y465157D01*
X176732Y399800D02*
Y509611D01*
X174732Y399657D02*
Y509611D01*
X182732Y399800D02*
Y509611D01*
X178732Y399800D02*
Y509611D01*
X180732Y399800D02*
Y509611D01*
X186732Y399800D02*
Y509611D01*
X184732Y399800D02*
Y509611D01*
X192732Y399800D02*
Y509611D01*
X188732Y399800D02*
Y509611D01*
X190732Y399800D02*
Y509611D01*
X196732Y399800D02*
Y509611D01*
X194732Y399800D02*
Y509611D01*
X202732Y399800D02*
Y509611D01*
X198732Y399800D02*
Y509611D01*
X200732Y399800D02*
Y509611D01*
X206732Y399800D02*
Y509611D01*
X204732Y399800D02*
Y509611D01*
X210732Y399800D02*
Y481257D01*
X208732Y399800D02*
Y495898D01*
X209866Y482123D02*
X236300Y455689D01*
X209217Y483683D02*
Y495314D01*
X213921Y484291D02*
X219060D01*
X213617Y492290D02*
X219060D01*
X213617Y494290D02*
X219060D01*
X213617Y486291D02*
X219060D01*
X213617Y490290D02*
X219060D01*
X213617Y488291D02*
X219060D01*
X222732Y475480D02*
Y479157D01*
X220732Y477480D02*
Y481157D01*
X221921Y476291D02*
X225598D01*
X219921Y478291D02*
X223598D01*
X224732Y473480D02*
Y477157D01*
X215921Y482291D02*
X219605D01*
X219060Y483740D02*
Y495314D01*
X217921Y480291D02*
X221598D01*
X213617Y484594D02*
Y495314D01*
X214320Y496290D02*
X218357D01*
X214732Y483479D02*
Y509611D01*
X210732Y500764D02*
Y509611D01*
X208732Y499378D02*
Y509611D01*
X214550Y498290D02*
X218127D01*
X212732Y500555D02*
Y509611D01*
X213207Y500290D02*
X219470D01*
X218732Y479480D02*
Y495676D01*
X216732Y481480D02*
Y509611D01*
X223460Y484651D02*
Y495314D01*
X224732Y483380D02*
Y509611D01*
X226732Y481380D02*
Y509611D01*
X220732Y500794D02*
Y509611D01*
X218732Y499600D02*
Y509611D01*
X222732Y500479D02*
Y509611D01*
X228732Y469480D02*
Y473157D01*
X226732Y471480D02*
Y475157D01*
X229921Y468291D02*
X233598D01*
X225921Y472291D02*
X229598D01*
X227921Y470291D02*
X231598D01*
X223921Y474291D02*
X227598D01*
X225821Y482291D02*
X229661D01*
X229821Y478291D02*
X233598D01*
X227821Y480291D02*
X231598D01*
X232732Y465480D02*
Y469157D01*
X230732Y467480D02*
Y471157D01*
X233921Y464291D02*
X237598D01*
X231921Y466291D02*
X235598D01*
X234732Y463480D02*
Y467157D01*
X232732Y475380D02*
Y479157D01*
X230732Y477380D02*
Y481157D01*
X236732Y471380D02*
Y475157D01*
X231821Y476291D02*
X235598D01*
X234732Y473380D02*
Y477157D01*
X223460Y490290D02*
X229296D01*
X223460Y492290D02*
X229296D01*
X223821Y484291D02*
X229296D01*
X223460Y488291D02*
X229296D01*
X223460Y486291D02*
X229296D01*
X224162Y496290D02*
X228593D01*
X224393Y498290D02*
X228363D01*
X223460Y494290D02*
X229296D01*
X223049Y500290D02*
X229706D01*
X229296Y483504D02*
Y495314D01*
X228732Y479380D02*
Y496026D01*
X234732Y483380D02*
Y509611D01*
X236732Y481380D02*
Y509611D01*
X230732Y500745D02*
Y509611D01*
X228732Y499250D02*
Y509611D01*
X233696Y484415D02*
Y495314D01*
X232732Y500590D02*
Y509611D01*
X204615Y328291D02*
X247508D01*
X238732Y313617D02*
Y336588D01*
X179397Y296290D02*
X273700D01*
X179397Y302291D02*
X273700D01*
X205512Y336291D02*
X246612D01*
X205512Y336588D02*
X246612D01*
X205504Y330291D02*
X246620D01*
X205512Y334291D02*
X246612D01*
X205512Y332291D02*
X246612D01*
X246732Y313617D02*
Y329644D01*
X240732Y313617D02*
Y336588D01*
X250732Y313617D02*
Y327447D01*
X248732Y313617D02*
Y327500D01*
X254732Y313617D02*
Y336588D01*
X252732Y313617D02*
Y329203D01*
X246612Y330512D02*
Y336588D01*
X253012Y330512D02*
Y336588D01*
X239440Y344988D02*
Y354147D01*
X240732Y344988D02*
Y388400D01*
X242732Y313617D02*
Y336588D01*
Y344988D02*
Y388400D01*
X244732Y313617D02*
Y336588D01*
X238732Y356154D02*
Y388400D01*
X244732Y344988D02*
Y388400D01*
X246732Y344988D02*
Y388400D01*
X252732Y344988D02*
Y388400D01*
X248732Y344988D02*
Y388400D01*
X260732Y313617D02*
Y336588D01*
X256732Y313617D02*
Y336588D01*
X258732Y313617D02*
Y336588D01*
X254732Y344988D02*
Y388400D01*
X250732Y344988D02*
Y388400D01*
X260732Y344988D02*
Y388400D01*
X256732Y344988D02*
Y388400D01*
X258732Y344988D02*
Y388400D01*
X179397Y298290D02*
X273700D01*
X179397Y300290D02*
X273700D01*
X179397Y292290D02*
X273700D01*
X179397Y294290D02*
X273700D01*
X179397Y304291D02*
X274282D01*
X182230Y314290D02*
X333226D01*
X184230Y316290D02*
X335226D01*
X186230Y318290D02*
X335595D01*
X188230Y320290D02*
X335595D01*
X229883Y305674D02*
X275663D01*
X214817Y313617D02*
X332553D01*
X190230Y322290D02*
X335595D01*
X191377Y324290D02*
X335595D01*
X191500Y326290D02*
X335595D01*
X253012Y334291D02*
X291388D01*
X253012Y336291D02*
X291388D01*
X252115Y328291D02*
X292285D01*
X253004Y330291D02*
X291396D01*
X253012Y332291D02*
X291388D01*
X167900Y360291D02*
X410501D01*
X167900Y362291D02*
X411000D01*
X167900Y364290D02*
X411000D01*
X167900Y368290D02*
X411000D01*
X167900Y366290D02*
X411000D01*
X167900Y376290D02*
X411000D01*
X168252Y378291D02*
X411000D01*
X167900Y370290D02*
X411000D01*
X167900Y374290D02*
X411000D01*
X167900Y372290D02*
X411000D01*
X239440Y348290D02*
X279179D01*
X239440Y350290D02*
X279179D01*
X253012Y336588D02*
X291388D01*
X239440Y346290D02*
X279179D01*
X239440Y344988D02*
X279179D01*
X239440Y352291D02*
X279179D01*
X239437Y354291D02*
X279182D01*
X238616Y356291D02*
X280009D01*
X170252Y380291D02*
X411000D01*
X187902Y358291D02*
X342879D01*
X240732Y399800D02*
Y435898D01*
X239836D02*
Y442093D01*
X244732Y399800D02*
Y435898D01*
X242732Y399800D02*
Y435898D01*
X141135Y440290D02*
X239836D01*
X135061Y442290D02*
X239638D01*
X239836Y435898D02*
X249141D01*
X142293Y438291D02*
X239836D01*
X142416Y436291D02*
X239836D01*
X248732Y399800D02*
Y435898D01*
X246732Y399800D02*
Y435898D01*
X254732Y399800D02*
Y435905D01*
X250732Y399800D02*
Y437806D01*
X256732Y399800D02*
Y436475D01*
X249141Y440290D02*
X249843D01*
X249141Y442290D02*
X249638D01*
X252732Y399800D02*
Y436243D01*
X249141Y438291D02*
X250422D01*
X249141Y436291D02*
X252619D01*
X238732Y399800D02*
Y443196D01*
X141606Y444290D02*
X237638D01*
X249141Y442787D02*
X250034Y441894D01*
X236948Y444980D02*
X239836Y442093D01*
X249141Y435898D02*
Y442787D01*
X240700Y454290D02*
X241720D01*
X246732Y454627D02*
Y455157D01*
X251806Y446344D02*
X253145Y445006D01*
X247406Y454175D02*
Y454482D01*
X252732Y445419D02*
Y446243D01*
X251860Y446290D02*
X252619D01*
X254732Y445198D02*
Y445905D01*
X256358Y446290D02*
X257249D01*
X256732Y444627D02*
Y446475D01*
X251806Y446344D02*
Y446749D01*
Y454353D02*
Y455394D01*
X257249Y454296D02*
Y454640D01*
X256732Y454627D02*
Y455157D01*
X148800Y400290D02*
X365930D01*
X148800Y402290D02*
X367930D01*
X148800Y404290D02*
X369700D01*
X148800Y408290D02*
X369700D01*
X148800Y406290D02*
X369700D01*
X147221Y424291D02*
X349662D01*
X145221Y426291D02*
X349662D01*
X148800Y410290D02*
X369700D01*
X148745Y422291D02*
X349662D01*
X148800Y418291D02*
X349662D01*
X174252Y384291D02*
X411000D01*
X210800Y388400D02*
X284600D01*
X172252Y382291D02*
X411000D01*
X176252Y386291D02*
X411230D01*
X178252Y388291D02*
X412972D01*
X210800Y399800D02*
X284600D01*
X148800Y414291D02*
X348693D01*
X148800Y412290D02*
X349610D01*
X148800Y420291D02*
X349662D01*
X148800Y416291D02*
X348992D01*
X141221Y430291D02*
X349662D01*
X143221Y428291D02*
X349662D01*
X139971Y432291D02*
X349782D01*
X141606Y434291D02*
X351338D01*
X256358Y436291D02*
X262619D01*
X258732Y399800D02*
Y438643D01*
X259134Y440290D02*
X259843D01*
X260732Y399800D02*
Y437806D01*
X258555Y438291D02*
X260422D01*
X257257Y444290D02*
X257674D01*
X257249Y445591D02*
Y446806D01*
X258804Y442290D02*
X259638D01*
X257897Y444031D02*
X260034Y441894D01*
X258732Y442459D02*
Y443196D01*
X268732Y313617D02*
Y336588D01*
X266732Y313617D02*
Y336588D01*
X264732Y313617D02*
Y336588D01*
X262732Y313617D02*
Y336588D01*
X272732Y313617D02*
Y336588D01*
X268732Y344988D02*
Y388400D01*
X270732Y313617D02*
Y336588D01*
X274732Y304743D02*
Y305674D01*
Y313617D02*
Y336588D01*
X279129Y302918D02*
X282600D01*
X274348Y304360D02*
X275663Y305674D01*
X278100Y301889D02*
X279129Y302918D01*
X278732Y313617D02*
Y336588D01*
X276732Y313617D02*
Y336588D01*
X282732Y313617D02*
Y336588D01*
X279179Y344988D02*
Y354140D01*
X280732Y313617D02*
Y336588D01*
X264732Y344988D02*
Y388400D01*
X262732Y344988D02*
Y388400D01*
X272732Y344988D02*
Y388400D01*
X266732Y344988D02*
Y388400D01*
X270732Y344988D02*
Y388400D01*
X264732Y399800D02*
Y435905D01*
X262732Y399800D02*
Y436243D01*
X266732Y399800D02*
Y436475D01*
X268732Y399800D02*
Y438643D01*
X270732Y399800D02*
Y437806D01*
X276732Y344988D02*
Y388400D01*
X274732Y344988D02*
Y388400D01*
X282732Y357321D02*
Y388400D01*
X278732Y344988D02*
Y388400D01*
X280732Y356884D02*
Y388400D01*
X274732Y399800D02*
Y435905D01*
X272732Y399800D02*
Y436243D01*
X282732Y399800D02*
Y436243D01*
X276732Y399800D02*
Y436475D01*
X278732Y399800D02*
Y438643D01*
X278100Y292290D02*
X286650D01*
X278100Y294290D02*
X286650D01*
Y295795D02*
X296050D01*
X278100Y296290D02*
X303790D01*
X286732Y295795D02*
Y302918D01*
X278100Y298290D02*
X303560D01*
X284732Y313617D02*
Y336588D01*
X278100Y300290D02*
X304903D01*
X278502Y302291D02*
X411549D01*
X282600Y302918D02*
X338976D01*
X288732Y295795D02*
Y302918D01*
Y313617D02*
Y336588D01*
X290732Y295795D02*
Y302918D01*
Y313617D02*
Y336588D01*
X292732Y295795D02*
Y302918D01*
X291388Y330512D02*
Y336588D01*
X286732Y313617D02*
Y336588D01*
X292732Y313617D02*
Y327905D01*
X285579Y344988D02*
Y354140D01*
Y352291D02*
X325200D01*
X285575Y354291D02*
X325354D01*
X284732Y356309D02*
Y388400D01*
Y399800D02*
Y435905D01*
X284749Y356291D02*
X327173D01*
X284600Y399800D02*
X340037D01*
X284600Y388400D02*
X340037D01*
X288732Y344988D02*
Y388400D01*
X286732Y344988D02*
Y388400D01*
X285579Y344988D02*
X325200D01*
X290732D02*
Y388400D01*
X292732Y344988D02*
Y388400D01*
X290732Y399800D02*
Y437806D01*
X288732Y399800D02*
Y438643D01*
X285579Y346290D02*
X325200D01*
X285579Y350290D02*
X325200D01*
X285579Y348290D02*
X325200D01*
X268133Y443795D02*
X270034Y441894D01*
X266358Y436291D02*
X272619D01*
X268555Y438291D02*
X270422D01*
X264732Y445198D02*
Y445905D01*
X262732Y445419D02*
Y446243D01*
X267257Y444290D02*
X267759D01*
X268804Y442290D02*
X269638D01*
X268732Y442459D02*
Y443196D01*
X269134Y440290D02*
X269843D01*
X278732Y442459D02*
Y443196D01*
X274732Y445198D02*
Y445905D01*
X272732Y445419D02*
Y446243D01*
X277257Y444290D02*
X277698D01*
X261860Y446290D02*
X262619D01*
X261649Y446502D02*
X263145Y445006D01*
X266732Y444627D02*
Y446475D01*
X267485Y445354D02*
Y446992D01*
X261649Y446502D02*
Y446865D01*
Y454237D02*
Y455551D01*
X266358Y446290D02*
X267485D01*
X266732Y454627D02*
Y454957D01*
X271885Y446266D02*
X273145Y445006D01*
X271885Y446266D02*
Y446695D01*
X276732Y444627D02*
Y446475D01*
X277328Y445512D02*
Y446865D01*
X271885Y446290D02*
X272619D01*
X271885Y454408D02*
Y455115D01*
X276358Y446290D02*
X277328D01*
X276732Y454627D02*
Y454957D01*
X280732Y399800D02*
Y437806D01*
X278555Y438291D02*
X280422D01*
X276358Y436291D02*
X282619D01*
X286358D02*
X292619D01*
X278804Y442290D02*
X279638D01*
X279134Y440290D02*
X279843D01*
X277976Y443952D02*
X280034Y441894D01*
X286732Y399800D02*
Y436475D01*
X289134Y440290D02*
X289843D01*
X292732Y399800D02*
Y436243D01*
X288555Y438291D02*
X290422D01*
X288732Y442459D02*
Y443196D01*
X287257Y444290D02*
X287656D01*
X288804Y442290D02*
X289638D01*
X287818Y444110D02*
X290034Y441894D01*
X282732Y445419D02*
Y446243D01*
X281728Y446423D02*
X283145Y445006D01*
X284732Y445198D02*
Y445905D01*
X286732Y444627D02*
Y446475D01*
X281728Y446423D02*
Y446806D01*
Y454296D02*
Y455272D01*
X281860Y446290D02*
X282619D01*
X286358D02*
X287170D01*
Y445669D02*
Y446749D01*
X291570Y446581D02*
X293145Y445006D01*
X292732Y445419D02*
Y446243D01*
X291570Y446581D02*
Y446927D01*
Y454175D02*
Y455030D01*
X291860Y446290D02*
X292619D01*
X240700Y453252D02*
Y456600D01*
Y456290D02*
X245598D01*
X240732Y453296D02*
Y461157D01*
X235921Y462290D02*
X239598D01*
X238732Y459480D02*
Y463157D01*
X237921Y460290D02*
X241598D01*
X239921Y458290D02*
X243598D01*
X244732Y455198D02*
Y457157D01*
X242732Y454860D02*
Y459157D01*
X250732Y457379D02*
Y461157D01*
X243821Y464291D02*
X247598D01*
X246732Y461379D02*
Y465157D01*
X247821Y460290D02*
X251598D01*
X245821Y462290D02*
X249598D01*
X248732Y459379D02*
Y463157D01*
X240732Y467380D02*
Y471157D01*
X213617Y484594D02*
X240052Y458159D01*
X241821Y466291D02*
X245598D01*
X219708Y482181D02*
X247406Y454482D01*
X223460Y484651D02*
X251158Y456953D01*
X238732Y469380D02*
Y473157D01*
X233821Y474291D02*
X237598D01*
X239821Y468291D02*
X243598D01*
X235821Y472291D02*
X239598D01*
X237821Y470291D02*
X241598D01*
X244732Y463379D02*
Y467157D01*
X242732Y465379D02*
Y469157D01*
X247821Y470291D02*
X251398D01*
X248732Y469380D02*
Y472957D01*
X250732Y467380D02*
Y470957D01*
X244732Y473380D02*
Y476957D01*
X242732Y475380D02*
Y478957D01*
X245821Y472291D02*
X249398D01*
X243821Y474291D02*
X247398D01*
X246732Y471380D02*
Y474957D01*
X249821Y458290D02*
X253598D01*
X252732Y454860D02*
Y459157D01*
X251615Y456290D02*
X255598D01*
X254732Y455198D02*
Y457157D01*
X251821Y466291D02*
X255398D01*
X254732Y463379D02*
Y466957D01*
X255821Y462290D02*
X259398D01*
X253821Y464291D02*
X257398D01*
X256732Y461379D02*
Y464957D01*
X260732Y457379D02*
Y460957D01*
X261521Y456290D02*
X265398D01*
X262732Y454860D02*
Y458957D01*
X257821Y460290D02*
X261398D01*
X258732Y459379D02*
Y462957D01*
X259821Y458290D02*
X263398D01*
X259621Y468291D02*
X263398D01*
X261621Y466291D02*
X265398D01*
X239787Y481902D02*
X267485Y454204D01*
X229944Y481944D02*
X257249Y454640D01*
X250023Y481666D02*
X277328Y454361D01*
X243539Y484373D02*
X271237Y456674D01*
X253775Y484136D02*
X281079Y456832D01*
X252732Y465379D02*
Y468957D01*
Y475179D02*
Y478957D01*
X249821Y468291D02*
X253398D01*
X233696Y484415D02*
X261000Y457111D01*
X253621Y474291D02*
X257398D01*
X260732Y467179D02*
Y470957D01*
X258732Y469179D02*
Y472957D01*
X262732Y465179D02*
Y468957D01*
X257621Y470291D02*
X261398D01*
X259472Y481817D02*
X286583Y454706D01*
X256732Y471179D02*
Y474957D01*
X254732Y473179D02*
Y476957D01*
X255621Y472291D02*
X259398D01*
X261621Y476291D02*
X264998D01*
X262732Y475179D02*
Y478557D01*
X235821Y482291D02*
X239476D01*
X237821Y480291D02*
X241398D01*
X233696Y490290D02*
X239139D01*
X233696Y492290D02*
X239139D01*
X233821Y484291D02*
X239139D01*
X233696Y488291D02*
X239139D01*
X233696Y486291D02*
X239139D01*
X239821Y478291D02*
X243398D01*
X240732Y477380D02*
Y480957D01*
X241821Y476291D02*
X245398D01*
X243621Y484291D02*
X249375D01*
X245621Y482291D02*
X249583D01*
X243539Y492290D02*
X249375D01*
X243539Y494290D02*
X249375D01*
X243539Y486291D02*
X249375D01*
X243539Y490290D02*
X249375D01*
X243539Y488291D02*
X249375D01*
X238732Y479380D02*
Y495782D01*
X234399Y496290D02*
X238436D01*
X233696Y494290D02*
X239139D01*
Y483461D02*
Y495314D01*
X234629Y498290D02*
X238206D01*
X238732Y499494D02*
Y509611D01*
X233286Y500290D02*
X239549D01*
X240732Y500780D02*
Y509611D01*
X242732Y500519D02*
Y509611D01*
X243539Y484373D02*
Y495314D01*
X244732Y483180D02*
Y509611D01*
X249375Y483225D02*
Y495314D01*
X246732Y481180D02*
Y509611D01*
X248732Y479179D02*
Y496169D01*
X244471Y498290D02*
X248442D01*
X244241Y496290D02*
X248672D01*
X243128Y500290D02*
X249785D01*
X248732Y499106D02*
Y509611D01*
X250732Y477179D02*
Y480957D01*
X251621Y476291D02*
X255398D01*
X247621Y480291D02*
X251398D01*
X249621Y478291D02*
X253398D01*
X253775Y484136D02*
Y495314D01*
Y484291D02*
X258824D01*
X253775Y494290D02*
X258824D01*
X253775Y492290D02*
X258824D01*
X259621Y478291D02*
X262998D01*
X257621Y480291D02*
X260998D01*
X260732Y477179D02*
Y480557D01*
X253775Y488291D02*
X258824D01*
X253775Y490290D02*
X258824D01*
X255621Y482291D02*
X259110D01*
X253775Y486291D02*
X258824D01*
Y483376D02*
Y495314D01*
X252732Y500621D02*
Y509611D01*
X250732Y500725D02*
Y509611D01*
X253364Y500290D02*
X259234D01*
X2191Y502290D02*
X316779D01*
X2817Y504290D02*
X318779D01*
X4151Y506290D02*
X475770D01*
X6555Y508290D02*
X473366D01*
X11417Y509611D02*
X468504D01*
X254732Y483180D02*
Y497115D01*
X256732Y481180D02*
Y509611D01*
X258732Y479179D02*
Y495405D01*
X254477Y496290D02*
X258121D01*
X254708Y498290D02*
X257891D01*
X254732Y498161D02*
Y509611D01*
X262732Y500344D02*
Y509611D01*
X258732Y499871D02*
Y509611D01*
X260732Y500824D02*
Y509611D01*
X264732Y455198D02*
Y456957D01*
X270732Y457179D02*
Y460957D01*
X269621Y458290D02*
X273398D01*
X263621Y464291D02*
X267398D01*
X266732Y461179D02*
Y464957D01*
X267621Y460290D02*
X271398D01*
X265621Y462290D02*
X269398D01*
X268732Y459179D02*
Y462957D01*
X272732Y454860D02*
Y458957D01*
X271545Y456290D02*
X275398D01*
X274732Y455198D02*
Y456957D01*
X280732Y457179D02*
Y460557D01*
X273621Y464291D02*
X276998D01*
X276732Y461179D02*
Y464557D01*
X277621Y460290D02*
X280998D01*
X275621Y462290D02*
X278998D01*
X278732Y459179D02*
Y462557D01*
X264732Y463179D02*
Y466957D01*
X268732Y469179D02*
Y472557D01*
X271621Y466291D02*
X274998D01*
X269621Y468291D02*
X272998D01*
X270732Y467179D02*
Y470557D01*
X266732Y471179D02*
Y474557D01*
X264732Y473179D02*
Y476557D01*
X267621Y470291D02*
X270998D01*
X263621Y474291D02*
X266998D01*
X265621Y472291D02*
X268998D01*
X274732Y463179D02*
Y466557D01*
X272732Y465179D02*
Y468557D01*
X277221Y470291D02*
X281598D01*
X278732Y468780D02*
Y473157D01*
X280732Y466780D02*
Y471157D01*
X274732Y472780D02*
Y477157D01*
X272732Y474780D02*
Y479157D01*
X275221Y472291D02*
X279598D01*
X273221Y474291D02*
X277598D01*
X276732Y470780D02*
Y475157D01*
X281478Y456290D02*
X284998D01*
X282732Y454860D02*
Y458557D01*
X284732Y455198D02*
Y456557D01*
X279621Y458290D02*
X282998D01*
X284732Y462780D02*
Y467157D01*
X285221Y462290D02*
X289598D01*
X281221Y466291D02*
X285598D01*
X283221Y464291D02*
X287598D01*
X290732Y456779D02*
Y461157D01*
X291173Y456290D02*
X295598D01*
X292732Y454860D02*
Y459157D01*
X288732Y458779D02*
Y463157D01*
X286732Y460779D02*
Y465157D01*
X289221Y458290D02*
X293598D01*
X287221Y460290D02*
X291598D01*
X291821Y466291D02*
X295398D01*
X270102Y481787D02*
X297406Y454482D01*
X263224Y484288D02*
X290922Y456590D01*
X279944Y481744D02*
X307249Y454440D01*
X273853Y484258D02*
X301158Y456953D01*
X283696Y484215D02*
X311000Y456911D01*
X282732Y464780D02*
Y469157D01*
Y475380D02*
Y478957D01*
X279221Y468291D02*
X283598D01*
X283821Y474291D02*
X287398D01*
X284732Y473380D02*
Y476957D01*
X290732Y467380D02*
Y470957D01*
X288732Y469380D02*
Y472957D01*
X289821Y468291D02*
X293398D01*
X290181Y481608D02*
X317091Y454697D01*
X292732Y465379D02*
Y468957D01*
X285821Y472291D02*
X289398D01*
X286732Y471380D02*
Y474957D01*
X287821Y470291D02*
X291398D01*
X291621Y476291D02*
X295498D01*
X292732Y475179D02*
Y479057D01*
X265221Y482291D02*
X269724D01*
X263224Y484291D02*
X269454D01*
X269221Y478291D02*
X273598D01*
X267221Y480291D02*
X271598D01*
X263224Y492290D02*
X269454D01*
X263224Y494290D02*
X269454D01*
X263224Y486291D02*
X269454D01*
X263224Y490290D02*
X269454D01*
X263224Y488291D02*
X269454D01*
X271221Y476291D02*
X275598D01*
X270732Y476780D02*
Y481157D01*
X279296Y483304D02*
Y494920D01*
X273853Y484258D02*
Y494920D01*
X269454Y483347D02*
Y494920D01*
X273853Y484291D02*
X279296D01*
X273853Y494290D02*
X279296D01*
X273853Y486291D02*
X279296D01*
X263224Y484288D02*
Y495314D01*
X264732Y482780D02*
Y509611D01*
X268732Y478780D02*
Y495939D01*
X266732Y480780D02*
Y509611D01*
X263926Y496290D02*
X268599D01*
X264156Y498290D02*
X268630D01*
X262813Y500290D02*
X270674D01*
X268732Y498549D02*
Y509611D01*
X274732Y483380D02*
Y496370D01*
X278732Y479380D02*
Y495632D01*
X274708Y496290D02*
X278441D01*
X276732Y481380D02*
Y509611D01*
X272732Y500257D02*
Y509611D01*
X270732Y500308D02*
Y509611D01*
X274678Y498290D02*
X278472D01*
X274732Y498119D02*
Y509611D01*
X278732Y498856D02*
Y509611D01*
X280732Y477380D02*
Y480957D01*
X281821Y476291D02*
X285398D01*
X277821Y480291D02*
X281398D01*
X279821Y478291D02*
X283398D01*
X273853Y490290D02*
X279296D01*
X273853Y492290D02*
X279296D01*
X275821Y482291D02*
X279543D01*
X273853Y488291D02*
X279296D01*
X289621Y478291D02*
X293498D01*
X287621Y480291D02*
X291498D01*
X290732Y477179D02*
Y481057D01*
X283696Y488291D02*
X289532D01*
X283696Y490290D02*
X289532D01*
X285621Y482291D02*
X289715D01*
X283696Y486291D02*
X289532D01*
X283696Y484291D02*
X289532D01*
X283696Y484215D02*
Y494920D01*
Y492290D02*
X289532D01*
X283696Y494290D02*
X289532D01*
X272633Y500290D02*
X280517D01*
X280732Y500351D02*
Y509611D01*
X284520Y498290D02*
X288600D01*
X282475Y500290D02*
X289943D01*
X282732Y500196D02*
Y509611D01*
X286732Y481180D02*
Y509611D01*
X284732Y483180D02*
Y509611D01*
X289532Y483168D02*
Y495314D01*
X288732Y479179D02*
Y496526D01*
X284551Y496290D02*
X288830D01*
X288732Y498750D02*
Y509611D01*
X293522Y500290D02*
X299785D01*
X290732Y500677D02*
Y509611D01*
X292732Y500678D02*
Y509611D01*
X306732Y2200D02*
Y17843D01*
X304732Y2200D02*
Y17843D01*
X310732Y2200D02*
Y17843D01*
X308732Y2200D02*
Y17843D01*
X296732Y2200D02*
Y17843D01*
X294732Y2200D02*
Y17843D01*
X302732Y2200D02*
Y17843D01*
X298732Y2200D02*
Y17843D01*
X300732Y2200D02*
Y17843D01*
X324732Y2200D02*
Y17843D01*
X322732Y2200D02*
Y17843D01*
X332732Y2200D02*
Y17843D01*
X328732Y2200D02*
Y17843D01*
X330732Y2200D02*
Y17843D01*
X314732Y2200D02*
Y17843D01*
X312732Y2200D02*
Y17843D01*
X320732Y2200D02*
Y17843D01*
X316732Y2200D02*
Y17843D01*
X318732Y2200D02*
Y17843D01*
X306732Y25243D02*
Y143698D01*
X304732Y25243D02*
Y143698D01*
X312732Y25243D02*
Y78913D01*
X308732Y25243D02*
Y143698D01*
X310732Y25243D02*
Y143698D01*
X296732Y25243D02*
Y143698D01*
X294732Y25243D02*
Y143698D01*
X302732Y25243D02*
Y143698D01*
X298732Y25243D02*
Y143698D01*
X300732Y25243D02*
Y143698D01*
X316732Y25243D02*
Y77840D01*
X314732Y25243D02*
Y77890D01*
X326732Y2200D02*
Y17843D01*
X318732Y25243D02*
Y77840D01*
X320732Y25243D02*
Y77840D01*
X324732Y25243D02*
Y77840D01*
X322732Y25243D02*
Y77840D01*
X330732Y25243D02*
Y77840D01*
X326732Y25243D02*
Y77840D01*
X328732Y25243D02*
Y77840D01*
X346732Y2200D02*
Y17843D01*
X344732Y2200D02*
Y17843D01*
X350732Y2200D02*
Y17843D01*
X348732Y2200D02*
Y17843D01*
X336732Y2200D02*
Y17843D01*
X334732Y2200D02*
Y17843D01*
X342732Y2200D02*
Y17843D01*
X338732Y2200D02*
Y17843D01*
X340732Y2200D02*
Y17843D01*
X354732Y2200D02*
Y17843D01*
X352732Y2200D02*
Y17843D01*
X360732Y2200D02*
Y17843D01*
X356732Y2200D02*
Y17843D01*
X358732Y2200D02*
Y17843D01*
X364732Y2200D02*
Y17843D01*
X362732Y2200D02*
Y17843D01*
X363911Y25243D02*
X368347Y29680D01*
X344732Y25243D02*
Y77840D01*
X342732Y25243D02*
Y77840D01*
X350732Y25243D02*
Y77840D01*
X346732Y25243D02*
Y77840D01*
X348732Y25243D02*
Y77840D01*
X334732Y25243D02*
Y77840D01*
X332732Y25243D02*
Y77840D01*
X340732Y25243D02*
Y77840D01*
X336732Y25243D02*
Y77840D01*
X338732Y25243D02*
Y77840D01*
X354732Y25243D02*
Y77840D01*
X352732Y25243D02*
Y77840D01*
X362732Y25243D02*
Y39342D01*
X356732Y25243D02*
Y77840D01*
X358732Y25243D02*
Y42650D01*
X360732Y25243D02*
Y39906D01*
X358732Y44431D02*
Y77840D01*
X364732Y26064D02*
Y39792D01*
X365497Y40291D02*
X368347D01*
X315337Y77840D02*
X322200D01*
Y85240D02*
X358648D01*
X315337D02*
X322200D01*
X338732D02*
Y106131D01*
X336732Y85240D02*
Y107561D01*
X340670Y106291D02*
X341501D01*
X342732Y85240D02*
Y86960D01*
X340732Y85240D02*
Y88911D01*
X344732Y85240D02*
Y86954D01*
X346732Y85240D02*
Y88857D01*
X340732Y91083D02*
Y106317D01*
X341501Y92281D02*
Y106792D01*
X359095Y92300D02*
Y121853D01*
X345901Y124291D02*
X358895D01*
X345901Y122291D02*
X358949D01*
X314732Y85190D02*
Y143698D01*
X312732Y84167D02*
Y143698D01*
X320732Y85240D02*
Y143698D01*
X316732Y85240D02*
Y143698D01*
X318732Y85240D02*
Y143698D01*
X324732Y85240D02*
Y143698D01*
X322732Y85240D02*
Y143698D01*
X293952D02*
X329042D01*
X326732Y85240D02*
Y143698D01*
X328732Y85240D02*
Y143698D01*
X332732Y85240D02*
Y136791D01*
X330732Y85240D02*
Y142969D01*
X336732Y110937D02*
Y134502D01*
X334732Y85240D02*
Y134569D01*
X345901Y92359D02*
Y151099D01*
X332732Y138356D02*
Y143395D01*
X337210Y111533D02*
Y134684D01*
X333635Y139897D02*
Y144194D01*
X345901Y98290D02*
X359095D01*
X345901Y100291D02*
X359095D01*
X322200Y77840D02*
X359136D01*
X345901Y96290D02*
X359095D01*
X345901Y94291D02*
X359095D01*
X345901Y108291D02*
X359095D01*
X345901Y110291D02*
X359095D01*
X345901Y102290D02*
X359095D01*
X345901Y106291D02*
X359095D01*
X345901Y104291D02*
X359095D01*
X346449Y88291D02*
X359136D01*
X346928Y90290D02*
X359136D01*
Y45528D02*
Y77840D01*
Y87202D02*
Y91751D01*
X345973Y92291D02*
X359095D01*
X366495Y94291D02*
X368347D01*
X345901Y118291D02*
X359095D01*
X345901Y120291D02*
X359095D01*
X345901Y112291D02*
X359095D01*
X345901Y116291D02*
X359095D01*
X345901Y114291D02*
X359095D01*
X345901Y132291D02*
X359292D01*
X345901Y142291D02*
X359292D01*
X345901Y126291D02*
X359292D01*
X345901Y130291D02*
X359292D01*
X345901Y128291D02*
X359292D01*
X345901Y136291D02*
X359292D01*
X345901Y138291D02*
X359292D01*
X366495Y92808D02*
Y121071D01*
X345901Y134291D02*
X359292D01*
X345901Y148291D02*
X359292D01*
X345901Y150291D02*
X359292D01*
X345901Y140291D02*
X359292D01*
X345901Y146291D02*
X359292D01*
X345901Y144291D02*
X359292D01*
X366536Y46291D02*
X368347D01*
X366536Y48291D02*
X368347D01*
X366536Y50291D02*
X368347D01*
X366536Y58290D02*
X368347D01*
X366536Y68291D02*
X368347D01*
X366536Y52290D02*
X368347D01*
X366536Y56291D02*
X368347D01*
X366536Y54290D02*
X368347D01*
X366732Y2200D02*
Y18075D01*
Y28064D02*
Y41970D01*
X366846Y42291D02*
X368347D01*
X366536Y60290D02*
X368347D01*
X366969Y44291D02*
X368347D01*
X366536Y70290D02*
X368347D01*
X366536Y72290D02*
X368347D01*
X366536Y62291D02*
X368347D01*
X366536Y66290D02*
X368347D01*
X366536Y64290D02*
X368347D01*
X366536Y45528D02*
Y78100D01*
Y81540D01*
Y74291D02*
X368347D01*
X366536Y78290D02*
X368347D01*
X366536Y76291D02*
X368347D01*
X366536Y81729D02*
Y83228D01*
Y80291D02*
X368347D01*
X366536Y92291D02*
X368347D01*
X366536Y82291D02*
X368347D01*
X366732Y45110D02*
Y83638D01*
X366940Y84290D02*
X368347D01*
Y29680D02*
Y95344D01*
X366536Y87246D02*
Y92259D01*
X366732Y86836D02*
Y121473D01*
X366914Y86291D02*
X368347D01*
X366536Y90290D02*
X368347D01*
X366536Y88291D02*
X368347D01*
X368732Y2200D02*
Y19599D01*
X370732Y2200D02*
Y21599D01*
X372732Y2200D02*
Y23599D01*
X374732Y2200D02*
Y25601D01*
X368060Y18927D02*
X374663Y25531D01*
X375747Y86291D02*
X385560D01*
X375747Y78290D02*
X385314D01*
X388732Y2200D02*
Y76375D01*
X386732Y2200D02*
Y76729D01*
X390732Y2200D02*
Y77508D01*
X375747Y80291D02*
X385149D01*
X375747Y82291D02*
X385560D01*
X375747Y84290D02*
X385560D01*
X375747Y90290D02*
X385560D01*
X375747Y88291D02*
X385560D01*
X375747Y28147D02*
Y91416D01*
X375788Y92291D02*
X385560D01*
X375788Y91965D02*
Y102617D01*
X376732Y2200D02*
Y137805D01*
X368388Y95893D02*
Y103036D01*
X375788Y94291D02*
X385560D01*
X366495Y96290D02*
X368388D01*
X375788D02*
X385560D01*
X382732Y2200D02*
Y138385D01*
X380732Y2200D02*
Y138598D01*
X384732Y2200D02*
Y138124D01*
X392732Y2200D02*
Y150818D01*
X394732Y2200D02*
Y150818D01*
X385560Y81258D02*
Y98191D01*
X378732Y2200D02*
Y138598D01*
X390960Y81258D02*
Y98064D01*
X366495Y102290D02*
X368388D01*
X366495Y104291D02*
X368031D01*
X366495Y98290D02*
X368388D01*
X366495Y100291D02*
X368388D01*
X366495Y106291D02*
X368273D01*
X366495Y108291D02*
X368347D01*
X366495Y110291D02*
X368347D01*
X366495Y114291D02*
X368347D01*
X366495Y112291D02*
X368347D01*
Y115817D02*
Y122200D01*
Y115817D02*
Y122200D01*
Y106841D02*
Y115817D01*
X366495Y118291D02*
X368347D01*
X366495Y116291D02*
X368347D01*
X366495Y120291D02*
X368347D01*
X367051Y122291D02*
X368347D01*
X366692Y126291D02*
X368347D01*
X366692Y128291D02*
X368347D01*
X366692Y132291D02*
X368347D01*
X366692Y130291D02*
X368347D01*
X366692Y134291D02*
X368347D01*
X366692Y136291D02*
X368347D01*
X366692Y138291D02*
X368347D01*
X366692Y150291D02*
X371266D01*
X366692Y140291D02*
X368895D01*
X366732Y125327D02*
Y150818D01*
X366692Y125402D02*
Y150818D01*
X367105Y124291D02*
X368347D01*
Y122200D02*
Y138353D01*
X368732Y139995D02*
Y150818D01*
X366692Y142291D02*
X370752D01*
X370732Y142270D02*
Y150818D01*
X371266Y149000D02*
Y150818D01*
X375747Y107390D02*
Y122200D01*
Y115817D02*
Y122200D01*
Y136820D02*
X377525Y138598D01*
X375747Y122200D02*
Y136820D01*
X366692Y144291D02*
X372752D01*
X369431Y140969D02*
X373376Y144914D01*
X375788Y100291D02*
X385131D01*
X375788Y98290D02*
X385502D01*
X375788Y102290D02*
X386238D01*
X386732Y102633D02*
Y138902D01*
X377525Y138598D02*
X382272D01*
X377218Y138291D02*
X383002D01*
X375992Y145998D02*
X382272D01*
X372732Y144270D02*
Y146310D01*
X366692Y148291D02*
X371345D01*
X366692Y150818D02*
X371266D01*
X366692Y146291D02*
X372763D01*
X376168D02*
X382957D01*
X386732Y145693D02*
Y150818D01*
X380732Y145998D02*
Y150818D01*
X388732Y103014D02*
Y150818D01*
X390732Y101923D02*
Y150818D01*
X376732Y145998D02*
Y146741D01*
X377665Y149000D02*
Y150818D01*
X384732Y146471D02*
Y150818D01*
X378732Y145998D02*
Y150818D01*
X382732Y146210D02*
Y150818D01*
X296732Y160780D02*
Y170904D01*
X294732Y162779D02*
Y173011D01*
X293600Y163911D02*
X298111Y159400D01*
X293600Y174291D02*
X294500D01*
X293600Y176291D02*
X295081D01*
X298200Y170600D02*
X306600D01*
X293600Y172291D02*
X295093D01*
X298200Y178000D02*
X306600D01*
X300732Y159400D02*
Y170600D01*
X298732Y159400D02*
Y170600D01*
X306732Y159400D02*
Y170600D01*
X302732Y159400D02*
Y170600D01*
X304732Y159400D02*
Y170600D01*
X310732Y159400D02*
Y170600D01*
X308732Y159400D02*
Y170600D01*
X306600D02*
X314900D01*
X312732Y159400D02*
Y170600D01*
X314732Y159400D02*
Y170600D01*
X293600Y163911D02*
Y188600D01*
X294732Y175589D02*
Y197367D01*
X300732Y178000D02*
Y197367D01*
X296732Y177696D02*
Y197367D01*
X298732Y178000D02*
Y197367D01*
X296732Y202767D02*
Y221009D01*
X298732Y202767D02*
Y258808D01*
X302732Y178000D02*
Y197367D01*
X300732Y202767D02*
Y258808D01*
X302732Y202767D02*
Y258808D01*
X306732Y178000D02*
Y197367D01*
X304732Y178000D02*
Y197367D01*
X310732Y178000D02*
Y196881D01*
X308732Y178000D02*
Y197357D01*
X312732Y178000D02*
Y197841D01*
X306732Y202767D02*
Y294438D01*
X312732Y202293D02*
Y294938D01*
X314732Y178000D02*
Y294938D01*
X298111Y159400D02*
X337600D01*
X316732D02*
Y170600D01*
X297221Y160291D02*
X359292D01*
X295221Y162291D02*
X359292D01*
X293600Y170291D02*
X359292D01*
X314900Y170600D02*
X319660D01*
X293600Y164291D02*
X359292D01*
X293600Y168291D02*
X359292D01*
X293600Y166291D02*
X359292D01*
X320732Y159400D02*
Y170503D01*
X318732Y159400D02*
Y170600D01*
X330732Y159400D02*
Y170503D01*
X322732Y159400D02*
Y170503D01*
X324732Y159400D02*
Y170503D01*
X326732Y159400D02*
Y170503D01*
X328732Y159400D02*
Y170503D01*
X320500D02*
X344400D01*
X324040Y177903D02*
X341200D01*
X314900Y178000D02*
X323200D01*
X306600D02*
X314900D01*
X293600Y180291D02*
X341200D01*
X293600Y184291D02*
X341200D01*
X293600Y182291D02*
X341200D01*
X313625Y200291D02*
X333468D01*
X312734Y202291D02*
X332606D01*
X293600Y186291D02*
X341200D01*
X293600Y188291D02*
X341200D01*
X313095Y198291D02*
X389966D01*
X324732Y177903D02*
Y285113D01*
X330732Y177903D02*
Y204420D01*
X326732Y177903D02*
Y285807D01*
X328732Y177903D02*
Y294938D01*
X318732Y178000D02*
Y246250D01*
X316732Y178000D02*
Y247068D01*
X320732Y178000D02*
Y246464D01*
X322732Y178000D02*
Y247962D01*
X294732Y202767D02*
Y220653D01*
X295384Y241243D02*
X297100D01*
X295432Y241808D02*
X295999D01*
Y250308D01*
Y250720D01*
Y250308D02*
Y250720D01*
Y258808D02*
X303480D01*
X295999Y250720D02*
Y258808D01*
X296255Y230757D02*
X296752Y230259D01*
X297400Y226143D02*
Y228700D01*
X296732Y230279D02*
Y230757D01*
Y241243D02*
Y258808D01*
X296255Y230757D02*
X297100D01*
X295999Y250290D02*
X315036D01*
X297100Y230757D02*
Y241243D01*
X295946Y258808D02*
Y259220D01*
X294732Y269916D02*
Y276308D01*
X295999Y258808D02*
Y259220D01*
X295946Y269916D02*
Y276308D01*
X295999Y258808D02*
Y259220D01*
Y276308D02*
Y276720D01*
X295946Y276308D02*
Y276720D01*
X295999D02*
X303480D01*
X295999D02*
Y285220D01*
X296732Y276720D02*
Y302918D01*
X301913Y267720D02*
X303480D01*
Y258808D02*
Y267720D01*
X310732Y203253D02*
Y294938D01*
X304732Y202767D02*
Y295109D01*
X308732Y202777D02*
Y294938D01*
X300732Y276720D02*
Y302918D01*
X298732Y276720D02*
Y302918D01*
X301913Y267808D02*
X303480D01*
X302732Y276720D02*
Y302918D01*
X303480Y267808D02*
Y276720D01*
X297400Y226290D02*
X330484D01*
X297400Y228291D02*
X330438D01*
X298011Y222290D02*
X330742D01*
X296721Y230291D02*
X332213D01*
X298365Y224290D02*
X332597D01*
X295999Y248290D02*
X315634D01*
X295999Y252291D02*
X315440D01*
X295999Y246290D02*
X318484D01*
X295999Y254291D02*
X317404D01*
X330732Y207630D02*
Y211113D01*
Y214323D02*
Y219062D01*
Y222273D02*
Y225755D01*
X303480Y268290D02*
X315634D01*
X303480Y270290D02*
X315036D01*
X303480Y266290D02*
X318484D01*
X316732Y253877D02*
Y267068D01*
X303480Y272290D02*
X315440D01*
X316732Y273877D02*
Y294938D01*
X303480Y274290D02*
X317404D01*
X295999Y280291D02*
X352349D01*
X303480Y276290D02*
X350077D01*
X318732Y254695D02*
Y266250D01*
X320732Y254481D02*
Y266464D01*
X322732Y252983D02*
Y267962D01*
X323547Y270290D02*
X352349D01*
X330732Y228966D02*
Y294938D01*
X320732Y274481D02*
Y287255D01*
X318732Y274695D02*
Y294938D01*
X323143Y272290D02*
X349944D01*
X321179Y274290D02*
X349483D01*
X322732Y272983D02*
Y285445D01*
X342732Y155180D02*
Y170503D01*
X340732Y157179D02*
Y170503D01*
X341621Y156291D02*
X359292D01*
X339159Y158752D02*
X345252Y152659D01*
X334732Y159400D02*
Y170503D01*
X332732Y159400D02*
Y170503D01*
X339621Y158291D02*
X359292D01*
X348732Y85240D02*
Y170503D01*
X346732Y91137D02*
Y170503D01*
X359292Y125373D02*
Y170503D01*
X350732Y85240D02*
Y170503D01*
X358732Y86071D02*
Y170503D01*
X344732Y153180D02*
Y170503D01*
X345550Y152291D02*
X359292D01*
X343621Y154291D02*
X359292D01*
X336732Y159400D02*
Y170503D01*
X332732Y177903D02*
Y201573D01*
X344400Y170503D02*
X359292D01*
X336732Y177903D02*
Y199420D01*
X338732Y159087D02*
Y170503D01*
X334732Y177903D02*
Y199466D01*
X338732Y177903D02*
Y200282D01*
X347600Y177903D02*
Y190714D01*
X340732Y177903D02*
Y200282D01*
X341200Y177903D02*
Y190714D01*
X350732Y177903D02*
Y200282D01*
X348732Y177903D02*
Y200282D01*
X356732Y85240D02*
Y170503D01*
X352732Y85240D02*
Y170503D01*
X354732Y85240D02*
Y170503D01*
Y177903D02*
Y199441D01*
X352732Y177903D02*
Y200282D01*
X356732Y177903D02*
Y199528D01*
X358732Y177903D02*
Y201864D01*
X360732Y177903D02*
Y331658D01*
X366692Y158218D02*
X375000D01*
X366692D02*
Y171012D01*
Y158291D02*
X389966D01*
X366692Y162291D02*
X389966D01*
X366692Y160291D02*
X389966D01*
X366692Y170291D02*
X389966D01*
X362992Y177903D02*
X363883D01*
X366692Y164291D02*
X389966D01*
X366692Y168291D02*
X389966D01*
X366692Y166291D02*
X389966D01*
X366732Y158218D02*
Y171036D01*
X375000Y158218D02*
X389966D01*
X396366D02*
Y162925D01*
X367987Y172291D02*
X389966D01*
X367875Y176291D02*
X389966D01*
X368519Y174291D02*
X389966D01*
X347600Y177903D02*
X362992D01*
X366732Y177407D02*
Y331658D01*
X368732Y158218D02*
Y331658D01*
X370732Y158218D02*
Y331658D01*
X364732Y178000D02*
Y331658D01*
X362732Y177903D02*
Y331658D01*
X347600Y178291D02*
X389966D01*
X347600Y182291D02*
X389966D01*
X347600Y180291D02*
X389966D01*
X382732Y158218D02*
Y353990D01*
X384732Y158218D02*
Y458157D01*
X389966Y158218D02*
Y206210D01*
X386732Y158218D02*
Y456157D01*
X388732Y158218D02*
Y454157D01*
X374732Y158218D02*
Y331658D01*
X372732Y158218D02*
Y331658D01*
X378732Y158218D02*
Y330754D01*
X376732Y158218D02*
Y330900D01*
X380732Y158218D02*
Y332272D01*
X346732Y192906D02*
Y200282D01*
X342732Y193445D02*
Y200282D01*
X344732Y193897D02*
Y200282D01*
X332732Y215825D02*
Y216216D01*
X338124Y200282D02*
X353314D01*
X334787Y230291D02*
X351927D01*
X335824Y229561D02*
X350940D01*
X356732Y205515D02*
Y206221D01*
Y212207D02*
Y214171D01*
X358732Y203179D02*
Y208557D01*
X356732Y220157D02*
Y220864D01*
X358732Y217821D02*
Y223199D01*
X338732Y229561D02*
Y294938D01*
X336732Y229561D02*
Y294938D01*
X348732Y229561D02*
Y285166D01*
X340732Y229561D02*
Y293166D01*
X342732Y229561D02*
Y291166D01*
X334732Y230314D02*
Y294938D01*
X332732Y230467D02*
Y294938D01*
X344732Y229561D02*
Y289166D01*
X346732Y229561D02*
Y287166D01*
X352732Y230549D02*
Y270193D01*
X350732Y229561D02*
Y271241D01*
X354732Y230262D02*
Y270289D01*
X356732Y226850D02*
Y271656D01*
X352732Y278153D02*
Y280193D01*
X350732Y277105D02*
Y281241D01*
X354732Y278058D02*
Y280289D01*
X356732Y276690D02*
Y281656D01*
X347600Y190291D02*
X389966D01*
X347185Y192291D02*
X389966D01*
X347600Y184291D02*
X389966D01*
X347600Y188291D02*
X389966D01*
X347600Y186291D02*
X389966D01*
X356481Y212291D02*
X394721D01*
X357894Y200291D02*
X389966D01*
X358792Y202291D02*
X389966D01*
X358266Y204291D02*
X389966D01*
X396366Y200305D02*
Y204885D01*
X356901Y206291D02*
X389967D01*
X358664Y208291D02*
X390735D01*
X358613Y210291D02*
X392721D01*
X390906Y208476D02*
X395500Y213070D01*
X357009Y214290D02*
X395500D01*
X356473Y220290D02*
X395500D01*
X358390Y222290D02*
X395500D01*
X357678Y226290D02*
X395500D01*
X354673Y230291D02*
X396195D01*
X356374Y228291D02*
X395500D01*
X358732Y209872D02*
Y216506D01*
X390732Y208287D02*
Y452157D01*
X395500Y213070D02*
Y228300D01*
X392732Y210301D02*
Y450157D01*
X394732Y212301D02*
Y448157D01*
X358595Y218290D02*
X395500D01*
X358732Y224514D02*
Y331658D01*
X358679Y216290D02*
X395500D01*
X358770Y224290D02*
X395500D01*
X396732Y230823D02*
Y446157D01*
X369423Y20290D02*
X417748D01*
X371423Y22290D02*
X417727D01*
X367207Y18291D02*
X419188D01*
X373423Y24291D02*
X418600D01*
X375747Y32291D02*
X418600D01*
X375747Y34291D02*
X418600D01*
X375248Y26291D02*
X418600D01*
X375747Y30291D02*
X418600D01*
X375747Y28291D02*
X418600D01*
X375747Y38291D02*
X418600D01*
X375747Y40291D02*
X418600D01*
X420732Y2200D02*
Y17672D01*
X375747Y36291D02*
X418600D01*
X418732Y2200D02*
Y18665D01*
X375747Y48291D02*
X418600D01*
X375747Y50291D02*
X418600D01*
X375747Y42291D02*
X418600D01*
X375747Y46291D02*
X418600D01*
X375747Y44291D02*
X418600D01*
X398732Y2200D02*
Y150818D01*
X396732Y2200D02*
Y150818D01*
X375747Y52290D02*
X418600D01*
X375747Y54290D02*
X418600D01*
X400732Y2200D02*
Y150818D01*
X375747Y60290D02*
X417922D01*
X375747Y62291D02*
X417633D01*
X375747Y56291D02*
X418600D01*
X375747Y64290D02*
X418564D01*
X375747Y58290D02*
X418600D01*
X404732Y2200D02*
Y150818D01*
X402732Y2200D02*
Y150818D01*
X410732Y2200D02*
Y150818D01*
X406732Y2200D02*
Y150818D01*
X408732Y2200D02*
Y150818D01*
X414732Y2200D02*
Y150818D01*
X412732Y2200D02*
Y150818D01*
X418600Y59270D02*
X418600Y23858D01*
X416732Y2200D02*
Y150818D01*
X422732Y2200D02*
Y17917D01*
X423412Y18291D02*
X436022D01*
X424000Y36291D02*
X442708D01*
X424000Y38291D02*
X442976D01*
X424000Y40291D02*
X443551D01*
X424000Y42291D02*
X444475D01*
X424000Y46291D02*
X447837D01*
X424000Y44291D02*
X445837D01*
X424732Y2200D02*
Y19945D01*
X424852Y20290D02*
X433188D01*
X424000Y24291D02*
X431866D01*
X424873Y22290D02*
X432136D01*
X424000Y26291D02*
X432267D01*
X424000Y28291D02*
X433516D01*
X424000Y30291D02*
X443660D01*
X424000Y34291D02*
X442729D01*
X424000Y32291D02*
X443039D01*
X424000Y50291D02*
X424354D01*
X424000Y50612D02*
X424000Y23858D01*
X424000Y48291D02*
X451126D01*
X424000Y59270D02*
X424000Y57388D01*
Y58290D02*
X425248D01*
X424036Y64290D02*
X452662D01*
X424732Y22712D02*
Y50010D01*
Y57990D02*
Y60417D01*
X426732Y2200D02*
Y49247D01*
X428732Y2200D02*
Y49388D01*
X429552Y58290D02*
X477913D01*
X426732Y58753D02*
Y70079D01*
X424732Y63183D02*
Y70951D01*
X424678Y60290D02*
X454493D01*
X424967Y62291D02*
X452904D01*
X428732Y58612D02*
Y70135D01*
X375747Y70290D02*
X418600D01*
X375747Y72290D02*
X418600D01*
X375747Y66290D02*
X418600D01*
X375747Y68291D02*
X418600D01*
X390960Y88291D02*
X418600D01*
X390960Y90290D02*
X418600D01*
X375747Y74291D02*
X418600D01*
X375747Y76291D02*
X418600D01*
X390960Y82291D02*
X418600D01*
X391206Y78290D02*
X418600D01*
Y64330D02*
Y92782D01*
X424000Y70290D02*
X425955D01*
X424000Y77975D02*
Y92782D01*
Y64330D02*
Y71625D01*
X390960Y86291D02*
X418600D01*
X390960Y92291D02*
X418600D01*
X424000Y78290D02*
X424305D01*
X390960Y84290D02*
X418600D01*
X391371Y80291D02*
X418600D01*
X390960Y94291D02*
X417744D01*
X390960Y96290D02*
X417732D01*
X391098Y98290D02*
X419105D01*
X387949Y140291D02*
X425966D01*
X388460Y142291D02*
X424671D01*
X377665Y150291D02*
X424612D01*
X377665Y150818D02*
X424612D01*
X387957Y144291D02*
X424612D01*
X377586Y148291D02*
X424612D01*
X385562Y146291D02*
X424612D01*
X424732Y78649D02*
Y93929D01*
Y96695D02*
Y142037D01*
X426732Y79521D02*
Y139892D01*
X420732Y98968D02*
Y150818D01*
X418732Y97975D02*
Y150818D01*
X422732Y98724D02*
Y150818D01*
X396366Y158218D02*
X427615D01*
X424612Y142904D02*
Y150818D01*
X424000Y82291D02*
X452798D01*
X424000Y66290D02*
X453464D01*
X423495Y98290D02*
X477913D01*
X424000Y80291D02*
X454080D01*
X376127Y106291D02*
X452631D01*
X375747Y108291D02*
X453133D01*
X391469Y100291D02*
X477913D01*
X376369Y104291D02*
X453142D01*
X390362Y102290D02*
X455578D01*
X424000Y84290D02*
X452713D01*
X424000Y68291D02*
X477913D01*
X424000Y86291D02*
X453724D01*
X429245Y70290D02*
X477913D01*
X424856Y94291D02*
X477913D01*
X424868Y96290D02*
X477913D01*
X424000Y88291D02*
X477913D01*
X424000Y92291D02*
X477913D01*
X424000Y90290D02*
X477913D01*
X375747Y110291D02*
X455523D01*
X375747Y112291D02*
X477913D01*
X375747Y114291D02*
X477913D01*
X375747Y118291D02*
X477913D01*
X375747Y116291D02*
X477913D01*
X375747Y124291D02*
X452987D01*
X375747Y126291D02*
X452642D01*
X375747Y120291D02*
X477913D01*
X375747Y128291D02*
X453321D01*
X375747Y122291D02*
X454832D01*
X375747Y130291D02*
X477913D01*
X428732Y79465D02*
Y139839D01*
X375747Y132291D02*
X477913D01*
X375747Y136291D02*
X477913D01*
X375747Y134291D02*
X477913D01*
X385518Y138291D02*
X477913D01*
X396366Y158291D02*
X432848D01*
X427812Y158218D02*
X432775D01*
X434732Y2200D02*
Y18906D01*
X432732Y2200D02*
Y20952D01*
X438732Y2200D02*
Y18007D01*
X436732Y2200D02*
Y18095D01*
X440732Y2200D02*
Y18605D01*
X442732Y2200D02*
Y20192D01*
X443733Y26291D02*
X446076D01*
X442484Y28291D02*
X444639D01*
X446732Y2200D02*
Y25580D01*
X444732Y2200D02*
Y28137D01*
X456732Y2200D02*
Y21422D01*
X448732Y2200D02*
Y23904D01*
X450732Y2200D02*
Y22753D01*
X443864Y22290D02*
X451837D01*
X444134Y24291D02*
X448199D01*
X454732Y2200D02*
Y21560D01*
X452732Y2200D02*
Y21994D01*
X458732Y2200D02*
Y21571D01*
X430732Y2200D02*
Y50545D01*
X432732Y27248D02*
Y150818D01*
X442732Y28008D02*
Y34252D01*
X434732Y29294D02*
Y150843D01*
X440732Y29596D02*
Y155709D01*
X430732Y57455D02*
Y71162D01*
X436732Y30105D02*
Y151723D01*
X438732Y30193D02*
Y153709D01*
X442732Y36614D02*
Y157713D01*
X454732Y49306D02*
Y60142D01*
X452732Y48873D02*
Y62864D01*
X456831Y59579D02*
X459705D01*
X456732Y49444D02*
Y59581D01*
X458732Y49295D02*
Y59579D01*
X454732Y67417D02*
Y79827D01*
X452732Y64695D02*
Y82549D01*
X456831Y67980D02*
X459705D01*
X456732Y67978D02*
Y79266D01*
X458732Y67980D02*
Y79265D01*
X460732Y2200D02*
Y22017D01*
X462732Y2200D02*
Y22790D01*
X439978Y18291D02*
X477913D01*
X464732Y2200D02*
Y23958D01*
X466732Y2200D02*
Y25659D01*
X467310Y26291D02*
X477913D01*
X467549Y44291D02*
X477913D01*
X442811Y20290D02*
X477913D01*
X461549Y22290D02*
X477913D01*
X465187Y24291D02*
X477913D01*
X468732Y2203D02*
Y28265D01*
X468747Y28291D02*
X477913D01*
X469726Y30291D02*
X477913D01*
X470347Y32291D02*
X477913D01*
X469835Y40291D02*
X477913D01*
X468911Y42291D02*
X477913D01*
X470657Y34291D02*
X477913D01*
X470409Y38291D02*
X477913D01*
X470678Y36291D02*
X477913D01*
X430446Y50291D02*
X477913D01*
X431885Y52290D02*
X477913D01*
X431618Y56291D02*
X477913D01*
X432191Y54290D02*
X477913D01*
X431692Y72290D02*
X477913D01*
X432163Y76291D02*
X477913D01*
X432373Y74291D02*
X477913D01*
X460732Y48849D02*
Y59707D01*
X462732Y48076D02*
Y60868D01*
X465549Y46291D02*
X477913D01*
X462043Y60290D02*
X477913D01*
X462260Y48291D02*
X477913D01*
X460732Y67852D02*
Y79392D01*
X462732Y66691D02*
Y80553D01*
X463632Y62291D02*
X477913D01*
X463071Y66290D02*
X477913D01*
X463873Y64290D02*
X477913D01*
X452732Y84380D02*
Y105384D01*
X430732Y78438D02*
Y141595D01*
X454732Y87103D02*
Y102661D01*
Y109937D02*
Y122346D01*
X452732Y107215D02*
Y125069D01*
X456732Y110498D02*
Y121785D01*
X458732Y87665D02*
Y102099D01*
X456732Y87663D02*
Y102100D01*
X456831Y79265D02*
X459705D01*
X456831Y102099D02*
X459705D01*
X456831Y87665D02*
X459705D01*
X458732Y110499D02*
Y121784D01*
X457802Y145013D02*
X458708D01*
X456831Y110499D02*
X459705D01*
X456831Y130184D02*
X459705D01*
X456831Y121784D02*
X459705D01*
X431012Y150818D02*
X434308D01*
X431012Y142904D02*
Y150818D01*
Y146291D02*
X454785D01*
X431012Y150291D02*
X453743D01*
X431012Y148291D02*
X453705D01*
X437313Y152291D02*
X454945D01*
X436924Y151902D02*
X442633Y157611D01*
X441313Y156291D02*
X454640D01*
X454732Y129622D02*
Y146347D01*
Y152078D02*
Y156190D01*
X458732Y130184D02*
Y145013D01*
X456732Y130183D02*
Y145151D01*
Y153274D02*
Y154994D01*
X443169Y158291D02*
X453673D01*
X457802Y153413D02*
X458708D01*
X457802Y154855D02*
X458708D01*
X458732Y153412D02*
Y154855D01*
X460732Y87537D02*
Y102227D01*
X430895Y78290D02*
X477913D01*
X460732Y110372D02*
Y121912D01*
X460958Y102290D02*
X477913D01*
X461012Y110291D02*
X477913D01*
X461704Y122291D02*
X477913D01*
X462812Y86291D02*
X477913D01*
X462732Y86376D02*
Y103388D01*
X462455Y80291D02*
X477913D01*
X463737Y82291D02*
X477913D01*
X463823Y84290D02*
X477913D01*
X463905Y106291D02*
X477913D01*
X462732Y109211D02*
Y123073D01*
X463393Y104291D02*
X477913D01*
X463403Y108291D02*
X477913D01*
X463548Y124291D02*
X477913D01*
X460732Y130057D02*
Y145532D01*
X429658Y140291D02*
X477913D01*
X430953Y142291D02*
X477913D01*
X460732Y152893D02*
Y155375D01*
X431012Y144291D02*
X477913D01*
X439313Y154291D02*
X477913D01*
X463215Y128291D02*
X477913D01*
X462732Y128896D02*
Y148009D01*
X463894Y126291D02*
X477913D01*
X461725Y146291D02*
X477913D01*
X462805Y148291D02*
X477913D01*
X462767Y150291D02*
X477913D01*
X462732Y150416D02*
Y157852D01*
X461565Y152291D02*
X477913D01*
X461870Y156291D02*
X477913D01*
X462838Y158291D02*
X477913D01*
X398732Y158218D02*
Y162651D01*
X396732Y158218D02*
Y162756D01*
X396366Y160291D02*
X434848D01*
X396366Y162291D02*
X436317D01*
X400341Y167797D02*
Y179685D01*
Y170291D02*
X436317D01*
X400341Y168291D02*
X436317D01*
X400732Y158218D02*
Y164266D01*
Y167211D02*
Y180076D01*
X400744Y164291D02*
X436317D01*
X401043Y166291D02*
X436317D01*
Y161759D02*
Y171251D01*
X400341Y179685D02*
X401038Y180382D01*
X400947Y180291D02*
X436317D01*
X401758Y182291D02*
X436317D01*
X404732Y158218D02*
Y438157D01*
X402732Y158218D02*
Y440157D01*
X414732Y158218D02*
Y201208D01*
X406732Y158218D02*
Y436157D01*
X408732Y158218D02*
Y434157D01*
X401758Y182117D02*
Y196987D01*
X410732Y158218D02*
Y296091D01*
X401758Y184291D02*
X436317D01*
X401758Y186291D02*
X436317D01*
X412732Y158218D02*
Y203274D01*
X416732Y158218D02*
Y200965D01*
X418732Y158218D02*
Y201975D01*
X424732Y158218D02*
Y299269D01*
X420732Y158218D02*
Y299269D01*
X422732Y158218D02*
Y299269D01*
X428732Y158218D02*
Y299269D01*
X426732Y158218D02*
Y299269D01*
X434732Y160175D02*
Y299269D01*
X430732Y158218D02*
Y299269D01*
X432732Y158218D02*
Y299269D01*
X432775Y158218D02*
X436317Y161759D01*
X443717Y164291D02*
X477913D01*
X400341Y176291D02*
X436317D01*
X400341Y178291D02*
X436317D01*
X443717Y166291D02*
X454509D01*
X400341Y174291D02*
X436317D01*
X400341Y172291D02*
X436317D01*
X443717Y168291D02*
X453647D01*
X443717Y160227D02*
Y171251D01*
Y160291D02*
X453788D01*
X443717Y170291D02*
X453840D01*
X443717Y162291D02*
X455124D01*
X443717Y172291D02*
X455327D01*
X443717Y174291D02*
X477913D01*
X443717Y176291D02*
X477913D01*
X443717Y180291D02*
X477913D01*
X443717Y178291D02*
X477913D01*
X401758Y188291D02*
X436317D01*
Y171251D02*
Y193317D01*
X401758Y190291D02*
X436317D01*
X401758Y192291D02*
X436317D01*
X443717Y171251D02*
Y191784D01*
X401758Y194291D02*
X436447D01*
X436732Y195019D02*
Y299269D01*
X437400Y195933D02*
X448662Y207195D01*
X444732Y42730D02*
Y192799D01*
X446732Y45286D02*
Y194799D01*
X443717Y182291D02*
X477913D01*
X443717Y186291D02*
X454283D01*
X443717Y184291D02*
X477913D01*
X443717Y188291D02*
X453613D01*
X443717Y190291D02*
X453965D01*
X444223Y192291D02*
X455830D01*
X443717Y191784D02*
X454979Y203046D01*
X446223Y194291D02*
X477913D01*
X396732Y200944D02*
Y205250D01*
X398732Y202193D02*
Y207250D01*
X400732Y201912D02*
Y209250D01*
X396366Y204885D02*
X400960Y209479D01*
X396366Y202291D02*
X413297D01*
X396366Y204291D02*
X412500D01*
X397772Y206291D02*
X412907D01*
X401758Y196291D02*
X437758D01*
X402256Y200291D02*
X441758D01*
X402418Y198291D02*
X439758D01*
X414732Y207969D02*
Y219097D01*
X419017Y202291D02*
X443758D01*
X416732Y208211D02*
Y219025D01*
X419813Y204291D02*
X445758D01*
X401900Y222290D02*
X412203D01*
X401900Y211744D02*
Y228300D01*
Y220290D02*
X412999D01*
X412732Y205902D02*
Y220670D01*
X400732Y230772D02*
Y442157D01*
X398732Y231500D02*
Y444157D01*
X401900Y224290D02*
X412609D01*
X440732Y199264D02*
Y299269D01*
X438732Y197264D02*
Y299269D01*
X446732Y205264D02*
Y299269D01*
X442732Y201264D02*
Y299269D01*
X444732Y203264D02*
Y299269D01*
X414732Y226079D02*
Y293939D01*
X412732Y224506D02*
Y293984D01*
X418732Y207201D02*
Y220307D01*
X416732Y226151D02*
Y295717D01*
X418732Y224870D02*
Y299269D01*
X399772Y208291D02*
X448662D01*
X401551Y210291D02*
X448167D01*
X401900Y216290D02*
X448662D01*
X297100Y232291D02*
X448813D01*
X401205Y230291D02*
X449963D01*
X297100Y234291D02*
X448118D01*
X295999Y242290D02*
X448109D01*
X297100Y236291D02*
X448434D01*
X297100Y240290D02*
X448733D01*
X297100Y238291D02*
X450159D01*
X419406Y206291D02*
X447758D01*
X401900Y218290D02*
X448147D01*
X401900Y212291D02*
X448296D01*
X401900Y214290D02*
X448662D01*
X418719Y220290D02*
X448337D01*
X401900Y226290D02*
X448130D01*
X419515Y222290D02*
X449788D01*
X401900Y228291D02*
X448383D01*
X419109Y224290D02*
X448901D01*
X295999Y244290D02*
X448489D01*
X295999Y258291D02*
X448103D01*
X320098Y246290D02*
X450382D01*
X295999Y256291D02*
X448590D01*
X321179Y254291D02*
X450643D01*
X303480Y264290D02*
X448526D01*
X320098Y266290D02*
X448106D01*
X303480Y260291D02*
X448614D01*
X295999Y278291D02*
X450085D01*
X303480Y262291D02*
X450543D01*
X323547Y250290D02*
X448104D01*
X323143Y252291D02*
X448549D01*
X322949Y248290D02*
X448659D01*
X322949Y268290D02*
X448685D01*
X354738Y270290D02*
X450298D01*
X357604Y274290D02*
X448112D01*
X354738Y280291D02*
X448415D01*
X357143Y272290D02*
X448468D01*
X357010Y276290D02*
X448762D01*
X448732Y46962D02*
Y196799D01*
X450732Y48113D02*
Y198799D01*
X452732Y126900D02*
Y200799D01*
X454732Y161921D02*
Y166032D01*
Y171763D02*
Y185717D01*
X456732Y163116D02*
Y164836D01*
X457802Y163255D02*
X458708D01*
X457802Y164698D02*
X458708D01*
X458732Y163255D02*
Y164698D01*
X460732Y172578D02*
Y184903D01*
Y162735D02*
Y165217D01*
X457802Y173098D02*
X458708D01*
X456732Y172959D02*
Y184521D01*
X457802Y184383D02*
X458708D01*
X457802Y192783D02*
X458708D01*
X458732Y173098D02*
Y184383D01*
X454732Y191448D02*
Y202799D01*
X448662Y207195D02*
Y208914D01*
X456062Y205662D02*
Y208914D01*
X448662Y213133D02*
Y216788D01*
X456062Y208291D02*
X456970D01*
X456732Y192644D02*
Y208603D01*
X456062Y213133D02*
Y216788D01*
X460732Y192263D02*
Y206793D01*
X456732Y213444D02*
Y224351D01*
X458732Y192783D02*
Y207039D01*
X456062Y214290D02*
X457504D01*
X460732Y215254D02*
Y222541D01*
X458732Y215008D02*
Y222787D01*
X462732Y214475D02*
Y223320D01*
X461183Y172291D02*
X477913D01*
X460681Y192291D02*
X477913D01*
X448223Y196291D02*
X477913D01*
X450223Y198291D02*
X477913D01*
X462722Y160291D02*
X477913D01*
X462732Y160259D02*
Y167694D01*
X461386Y162291D02*
X477913D01*
X462001Y166291D02*
X477913D01*
X462864Y168291D02*
X477913D01*
X462670Y170291D02*
X477913D01*
X462732Y170101D02*
Y187379D01*
X462227Y186291D02*
X477913D01*
X462545Y190291D02*
X477913D01*
X462898Y188291D02*
X477913D01*
X452223Y200291D02*
X477913D01*
X462732Y189786D02*
Y207572D01*
X454223Y202291D02*
X477913D01*
X455799Y204291D02*
X477913D01*
X456062Y206291D02*
X477913D01*
X463503Y208291D02*
X477913D01*
X456062Y216290D02*
X477913D01*
X462969Y214290D02*
X477913D01*
X470732Y2462D02*
Y394920D01*
X472732Y3180D02*
Y508631D01*
X477913Y9849D02*
Y501963D01*
X474732Y4491D02*
Y507320D01*
X476732Y6844D02*
Y504967D01*
X464732Y46909D02*
Y370522D01*
X466732Y45207D02*
Y372371D01*
X464432Y210291D02*
X477913D01*
X464302Y212291D02*
X477913D01*
X468732Y42601D02*
Y392920D01*
X448732Y221125D02*
Y224545D01*
Y228999D02*
Y232419D01*
Y236873D02*
Y240293D01*
Y244747D02*
Y248167D01*
X454732Y222437D02*
Y223233D01*
Y230311D02*
Y231107D01*
Y238185D02*
Y238981D01*
Y246059D02*
Y246855D01*
X448732Y252621D02*
Y256041D01*
Y260495D02*
Y263915D01*
Y268369D02*
Y271789D01*
Y276243D02*
Y279663D01*
X454732Y253933D02*
Y254729D01*
Y261807D02*
Y262603D01*
Y269681D02*
Y270477D01*
Y277555D02*
Y278351D01*
X455824Y224290D02*
X456775D01*
X454762Y230291D02*
X457837D01*
X454937Y222290D02*
X477913D01*
X455911Y232291D02*
X477913D01*
X456291Y236291D02*
X477913D01*
X454342Y246290D02*
X477913D01*
X456066Y248290D02*
X477913D01*
X454565Y238291D02*
X477913D01*
X455991Y240290D02*
X477913D01*
X456236Y244290D02*
X477913D01*
X456387Y220290D02*
X477913D01*
X456578Y218290D02*
X477913D01*
X463698Y224290D02*
X477913D01*
X464468Y226290D02*
X477913D01*
X464215Y228291D02*
X477913D01*
X462636Y230291D02*
X477913D01*
X456606Y234291D02*
X477913D01*
X456615Y242290D02*
X477913D01*
X456110Y260291D02*
X477913D01*
X454181Y262291D02*
X477913D01*
X456176Y252291D02*
X477913D01*
X454081Y254291D02*
X477913D01*
X456135Y256291D02*
X477913D01*
X455963Y276290D02*
X477913D01*
X454639Y278291D02*
X477913D01*
X456198Y264290D02*
X477913D01*
X454427Y270290D02*
X477913D01*
X456039Y268290D02*
X477913D01*
X458732Y230756D02*
Y297768D01*
X456732Y229192D02*
Y298037D01*
X456620Y250290D02*
X477913D01*
X460732Y231002D02*
Y298093D01*
X462732Y230223D02*
Y299835D01*
X456612Y274290D02*
X477913D01*
X456310Y280291D02*
X477913D01*
X456621Y258291D02*
X477913D01*
X456256Y272290D02*
X477913D01*
X456619Y266290D02*
X477913D01*
X294432Y285220D02*
X295999D01*
X296050Y285308D02*
Y295795D01*
X294432Y285308D02*
X296050D01*
Y290290D02*
X320319D01*
X294732Y295795D02*
Y302918D01*
Y313617D02*
Y327315D01*
X296732Y313617D02*
Y328136D01*
X297788Y330512D02*
Y336588D01*
X298732Y313617D02*
Y336588D01*
X304732Y300166D02*
Y302918D01*
X312732Y300338D02*
Y302918D01*
X308732Y300338D02*
Y302918D01*
X310732Y300338D02*
Y302918D01*
X314732Y300338D02*
Y302918D01*
X306732Y300838D02*
Y302918D01*
X316732Y300338D02*
Y302918D01*
Y313617D02*
Y336588D01*
X318732Y300338D02*
Y302918D01*
X300732Y313617D02*
Y336588D01*
X298732Y344988D02*
Y388400D01*
X306732Y313617D02*
Y336588D01*
X302732Y313617D02*
Y336588D01*
X304732Y313617D02*
Y336588D01*
X296732Y344988D02*
Y388400D01*
X294732Y344988D02*
Y388400D01*
X304732Y344988D02*
Y388400D01*
X300732Y344988D02*
Y388400D01*
X302732Y344988D02*
Y388400D01*
X310732Y313617D02*
Y336588D01*
X308732Y313617D02*
Y336588D01*
X318732Y313617D02*
Y336588D01*
X312732Y313617D02*
Y336588D01*
X314732Y313617D02*
Y336588D01*
X308732Y344988D02*
Y388400D01*
X306732Y344988D02*
Y388400D01*
X316732Y344988D02*
Y388400D01*
X310732Y344988D02*
Y388400D01*
X312732Y344988D02*
Y388400D01*
X296050Y286291D02*
X321470D01*
X295999Y282291D02*
X349944D01*
X295999Y284291D02*
X349483D01*
X296050Y288291D02*
X320323D01*
X296050Y292290D02*
X321451D01*
X296050Y294290D02*
X339608D01*
X308411Y300338D02*
X340079D01*
X308411Y294938D02*
X338960D01*
X327349Y292290D02*
X341608D01*
X320732Y291345D02*
Y294938D01*
X327330Y286291D02*
X347608D01*
X328477Y288291D02*
X345608D01*
X328482Y290290D02*
X343608D01*
X322732Y293155D02*
Y294938D01*
X320732Y300338D02*
Y302918D01*
X326732Y292793D02*
Y294938D01*
X322732Y300338D02*
Y302918D01*
X324732Y293487D02*
Y294938D01*
X322732Y313617D02*
Y336588D01*
X320732Y313617D02*
Y336588D01*
X296892Y328291D02*
X325994D01*
X297780Y330291D02*
X325202D01*
X297788Y332291D02*
X325200D01*
X324732Y344988D02*
Y388400D01*
X320732Y344988D02*
Y388400D01*
X297788Y334291D02*
X325200D01*
X297788Y336588D02*
X325200D01*
X297788Y336291D02*
X325200D01*
X324732Y300338D02*
Y302918D01*
Y313617D02*
Y336588D01*
X326732Y300338D02*
Y302918D01*
X328732Y313617D02*
Y327217D01*
Y300338D02*
Y302918D01*
X325200Y330400D02*
Y336588D01*
Y344988D02*
Y353311D01*
X326732Y313617D02*
Y327669D01*
X294732Y399800D02*
Y435905D01*
X296732Y399800D02*
Y436475D01*
X302732Y399800D02*
Y436243D01*
X298732Y399800D02*
Y438643D01*
X298555Y438291D02*
X300422D01*
X299134Y440290D02*
X299843D01*
X304732Y399800D02*
Y435905D01*
X296358Y436291D02*
X302619D01*
X300732Y399800D02*
Y437806D01*
X306732Y399800D02*
Y436475D01*
X308732Y399800D02*
Y438643D01*
X314732Y344988D02*
Y388400D01*
X310732Y399800D02*
Y437806D01*
X314732Y399800D02*
Y435905D01*
X308555Y438291D02*
X310422D01*
X309134Y440290D02*
X309843D01*
X312732Y399800D02*
Y436243D01*
X306358Y436291D02*
X312619D01*
X316732Y399800D02*
Y436475D01*
X298804Y442290D02*
X299638D01*
X298732Y442459D02*
Y443196D01*
X298055Y443874D02*
X300034Y441894D01*
X297257Y444290D02*
X297726D01*
X294732Y445198D02*
Y445905D01*
X302732Y445419D02*
Y446243D01*
X308804Y442290D02*
X309638D01*
X307897Y444031D02*
X310034Y441894D01*
X308732Y442459D02*
Y443196D01*
X307257Y444290D02*
X307674D01*
X304732Y445198D02*
Y445905D01*
X314732Y445198D02*
Y445905D01*
X311860Y446290D02*
X312619D01*
X312732Y445419D02*
Y446243D01*
X318732Y344988D02*
Y388400D01*
Y399800D02*
Y438643D01*
X322732Y344988D02*
Y388400D01*
X320732Y399800D02*
Y437806D01*
X318555Y438291D02*
X320422D01*
X324732Y399800D02*
Y435905D01*
X316358Y436291D02*
X322619D01*
X322732Y399800D02*
Y436243D01*
X328732Y356540D02*
Y388400D01*
X326732Y356058D02*
Y388400D01*
X329710Y356291D02*
X340879D01*
X326732Y399800D02*
Y436475D01*
X328732Y399800D02*
Y438643D01*
X326358Y436291D02*
X332619D01*
X328555Y438291D02*
X330422D01*
X329134Y440290D02*
X329843D01*
X319134D02*
X319843D01*
X317740Y444189D02*
X320034Y441894D01*
X317257Y444290D02*
X317643D01*
X318804Y442290D02*
X319638D01*
X318732Y442459D02*
Y443196D01*
X328732Y442459D02*
Y443196D01*
X327976Y443952D02*
X330034Y441894D01*
X328804Y442290D02*
X329638D01*
X324732Y445198D02*
Y445905D01*
X322732Y445419D02*
Y446243D01*
X327257Y444290D02*
X327698D01*
X330732Y300338D02*
Y302918D01*
Y313617D02*
Y328208D01*
X330806Y328291D02*
X335595D01*
X331598Y330291D02*
X335595D01*
X331600Y332291D02*
X335595D01*
X331600Y330400D02*
Y340788D01*
Y338291D02*
X335595D01*
X331600Y342290D02*
X335595D01*
X331600Y340290D02*
X335595D01*
X334732Y300338D02*
Y302918D01*
X332732Y300338D02*
Y302918D01*
X336732Y300338D02*
Y302918D01*
X338732Y300338D02*
Y302918D01*
X340732Y300258D02*
Y303762D01*
X332553Y313617D02*
X335595Y316659D01*
X331600Y334291D02*
X335595D01*
X331600Y336291D02*
X335595D01*
X331600Y344290D02*
X335595D01*
X331600Y340788D02*
Y352838D01*
Y346290D02*
X335595D01*
X331600Y350290D02*
X335604D01*
X331600Y348290D02*
X335595D01*
X330732Y355588D02*
Y388400D01*
X331600Y352291D02*
X336879D01*
X331501Y354291D02*
X338879D01*
X334732Y315796D02*
Y388400D01*
X332732Y313796D02*
Y388400D01*
X339995Y332870D02*
Y349184D01*
X335595Y316659D02*
Y350095D01*
X340732Y333607D02*
Y349921D01*
Y356143D02*
Y388400D01*
X336732Y352143D02*
Y388400D01*
X338732Y354143D02*
Y388400D01*
X342732Y298803D02*
Y305762D01*
X338960Y294938D02*
X349488Y284410D01*
X341988Y299547D02*
X353306Y288229D01*
X344732Y296803D02*
Y307762D01*
X343145Y322860D02*
Y329797D01*
X340536Y303566D02*
X346827Y309858D01*
X343145Y329797D02*
X345006Y331658D01*
X346732Y294803D02*
Y309762D01*
X354732Y288058D02*
Y331658D01*
X356732Y286690D02*
Y331658D01*
X344732Y323626D02*
Y331384D01*
X346732Y323322D02*
Y331658D01*
X347476Y311417D02*
Y318149D01*
X339995Y334291D02*
X341416D01*
X339995Y332870D02*
X342535Y335410D01*
X342732Y335585D02*
Y351921D01*
X336244Y351655D02*
X342951Y358363D01*
X342732Y358143D02*
Y388400D01*
X344732Y336058D02*
Y353921D01*
X339995Y349184D02*
X345422Y354611D01*
X346732Y336058D02*
Y354611D01*
X348732Y292803D02*
Y331658D01*
Y336058D02*
Y354611D01*
X350732Y290803D02*
Y331658D01*
Y336058D02*
Y354611D01*
X352732Y288803D02*
Y331658D01*
X354732Y336058D02*
Y354611D01*
X352732Y336058D02*
Y354611D01*
X360732Y336058D02*
Y354611D01*
X356732Y336058D02*
Y354611D01*
X358732Y336058D02*
Y354611D01*
X332732Y399800D02*
Y436243D01*
X330732Y399800D02*
Y437806D01*
X334732Y399800D02*
Y435905D01*
X336732Y399800D02*
Y436475D01*
X338555Y438291D02*
X340422D01*
X338732Y399800D02*
Y438643D01*
X342732Y399800D02*
Y436243D01*
X336358Y436291D02*
X342619D01*
X340732Y399800D02*
Y437806D01*
X348732Y359011D02*
Y388400D01*
X344732Y359011D02*
Y388400D01*
X346732Y359011D02*
Y388400D01*
X344732Y399800D02*
Y435905D01*
X346732Y399800D02*
Y436475D01*
X348732Y399800D02*
Y414050D01*
Y415478D02*
Y438643D01*
X349662Y417294D02*
Y431496D01*
X338732Y442459D02*
Y443196D01*
X339134Y440290D02*
X339843D01*
X337818Y444110D02*
X340034Y441894D01*
X338804Y442290D02*
X339638D01*
X334732Y445198D02*
Y445905D01*
X332732Y445419D02*
Y446243D01*
X337257Y444290D02*
X337656D01*
X348732Y442459D02*
Y443196D01*
X349134Y440290D02*
X349843D01*
X348804Y442290D02*
X349638D01*
X344732Y445198D02*
Y445905D01*
X342732Y445419D02*
Y446243D01*
X347257Y444290D02*
X347644D01*
X352732Y359011D02*
Y388400D01*
X350732Y359011D02*
Y388400D01*
X354732Y359011D02*
Y388400D01*
X340037Y399800D02*
X360500D01*
X340037Y388400D02*
X360500D01*
X352732Y399800D02*
Y411082D01*
X350732Y399800D02*
Y411442D01*
X356732Y359011D02*
Y388400D01*
X354732Y399800D02*
Y411922D01*
X362732Y359011D02*
Y388400D01*
X358732Y359011D02*
Y388400D01*
X360732Y359011D02*
Y388400D01*
X355062Y417294D02*
Y430378D01*
X356240Y431555D01*
X356732Y399800D02*
Y432230D01*
X350453Y433405D02*
X351631Y434583D01*
X350732Y433684D02*
Y437806D01*
X346358Y436291D02*
X351631D01*
Y434583D02*
Y436879D01*
X348555Y438291D02*
X350422D01*
X347748Y444180D02*
X350034Y441894D01*
X352732Y445419D02*
Y446243D01*
X354732Y445198D02*
Y445905D01*
X357031Y433465D02*
Y436655D01*
X362732Y399800D02*
Y436243D01*
X358732Y399800D02*
Y437851D01*
X360732Y399800D02*
Y437806D01*
X358278Y437851D02*
X360699D01*
X357031Y436291D02*
X362619D01*
X357257Y444290D02*
X361720D01*
X358278Y443251D02*
X360699D01*
X296732Y444627D02*
Y446475D01*
X297406Y445433D02*
Y446927D01*
X296358Y446290D02*
X297406D01*
Y454175D02*
Y454482D01*
X296732Y454627D02*
Y455157D01*
X301615Y456290D02*
X305398D01*
X301860Y446290D02*
X302619D01*
X301806Y446344D02*
X303145Y445006D01*
X306358Y446290D02*
X307249D01*
X306732Y444627D02*
Y446475D01*
X307249Y445591D02*
Y446806D01*
X301806Y446344D02*
Y446749D01*
Y454353D02*
Y455394D01*
X306732Y454627D02*
Y454957D01*
X304732Y455198D02*
Y456957D01*
X294732Y455198D02*
Y457157D01*
X296732Y461379D02*
Y464957D01*
X297821Y460290D02*
X301398D01*
X295821Y462290D02*
X299398D01*
X298732Y459379D02*
Y462957D01*
X294732Y463379D02*
Y466957D01*
X296732Y471179D02*
Y475057D01*
X293821Y464291D02*
X297398D01*
X297621Y470291D02*
X301498D01*
X298732Y469179D02*
Y473057D01*
X302732Y454860D02*
Y458957D01*
X300732Y457379D02*
Y460957D01*
X299821Y458290D02*
X303398D01*
X304732Y463179D02*
Y467057D01*
X306732Y461179D02*
Y465057D01*
X302732Y465179D02*
Y469057D01*
X300732Y467179D02*
Y471057D01*
X303621Y464291D02*
X307498D01*
X299621Y468291D02*
X303498D01*
X301621Y466291D02*
X305498D01*
X311649Y446502D02*
Y446865D01*
Y446502D02*
X313145Y445006D01*
X307621Y460290D02*
X311498D01*
X310732Y457179D02*
Y461057D01*
X311438Y456290D02*
X315498D01*
X309621Y458290D02*
X313498D01*
X316732Y444627D02*
Y446475D01*
X311649Y454237D02*
Y455351D01*
X316358Y446290D02*
X317091D01*
Y445748D02*
Y446695D01*
X314732Y455198D02*
Y457057D01*
X312732Y454860D02*
Y459057D01*
X316732Y454627D02*
Y455057D01*
X315721Y462290D02*
X319398D01*
X317721Y460290D02*
X321398D01*
X308732Y459179D02*
Y463057D01*
X293932Y484079D02*
X320843Y457168D01*
X300023Y481666D02*
X327328Y454361D01*
X303775Y484136D02*
X331079Y456832D01*
X309866Y481723D02*
X337170Y454419D01*
X305621Y462290D02*
X309498D01*
X308732Y469279D02*
Y472957D01*
X309721Y468291D02*
X313398D01*
X307721Y470291D02*
X311398D01*
X310732Y467279D02*
Y470957D01*
X316732Y461279D02*
Y464957D01*
X314732Y463279D02*
Y466957D01*
X318732Y459279D02*
Y462957D01*
X313721Y464291D02*
X317398D01*
X319200Y486511D02*
X350852Y454859D01*
X311721Y466291D02*
X315398D01*
X312732Y465279D02*
Y468957D01*
X317621Y470291D02*
X321298D01*
X316732Y471179D02*
Y474857D01*
X318732Y469179D02*
Y472857D01*
X293621Y474291D02*
X297498D01*
X294732Y473179D02*
Y477057D01*
X295621Y472291D02*
X299498D01*
X295721Y482291D02*
X299583D01*
X293932Y490290D02*
X299375D01*
X293932Y492290D02*
X299375D01*
X293932Y484291D02*
X299375D01*
X293932Y488291D02*
X299375D01*
X293932Y486291D02*
X299375D01*
X304732Y473279D02*
Y476957D01*
X302732Y475280D02*
Y478957D01*
X303721Y474291D02*
X307398D01*
X301721Y476291D02*
X305398D01*
X306732Y471279D02*
Y474957D01*
X299721Y478291D02*
X303398D01*
X297721Y480291D02*
X301398D01*
X300732Y477280D02*
Y480957D01*
X293932Y484079D02*
Y495314D01*
X294732Y483280D02*
Y496523D01*
X293932Y494290D02*
X299375D01*
X296732Y481280D02*
Y509611D01*
X294732Y498753D02*
Y509611D01*
X294635Y496290D02*
X298672D01*
X294865Y498290D02*
X298442D01*
X298732Y499107D02*
Y509611D01*
X299375Y483225D02*
Y495314D01*
X298732Y479280D02*
Y496169D01*
X303775Y484136D02*
Y495314D01*
X304732Y483180D02*
Y497115D01*
X306732Y481180D02*
Y509611D01*
X302732Y500621D02*
Y509611D01*
X300732Y500725D02*
Y509611D01*
X304708Y498290D02*
X308678D01*
X304732Y498161D02*
Y509611D01*
X305721Y472291D02*
X309398D01*
X303775Y484291D02*
X309217D01*
X307621Y480291D02*
X311298D01*
X305621Y482291D02*
X309454D01*
X303775Y492290D02*
X309217D01*
X303775Y494290D02*
X309217D01*
X303775Y486291D02*
X309217D01*
X303775Y490290D02*
X309217D01*
X303775Y488291D02*
X309217D01*
X314732Y473179D02*
Y476857D01*
X312732Y475179D02*
Y478857D01*
X315621Y472291D02*
X319298D01*
X311621Y476291D02*
X315298D01*
X313621Y474291D02*
X317298D01*
X310732Y477179D02*
Y480857D01*
X309621Y478291D02*
X313298D01*
X319200Y488291D02*
X319847D01*
X319421Y486291D02*
X321798D01*
X308732Y479179D02*
Y496767D01*
Y498509D02*
Y509611D01*
X309217Y483283D02*
Y495763D01*
X304477Y496290D02*
X308908D01*
X303364Y500290D02*
X310021D01*
X310732Y500650D02*
Y509611D01*
X313601Y500290D02*
X314988D01*
X312732Y500702D02*
Y509611D01*
X314732Y498945D02*
Y509611D01*
X314800Y498780D02*
Y499400D01*
X319200Y486511D02*
Y495583D01*
X318732Y504243D02*
Y509611D01*
X316732Y502243D02*
Y509611D01*
X315448Y500959D02*
X318940Y504452D01*
X321860Y446290D02*
X322619D01*
X321491Y446659D02*
X323145Y445006D01*
X326358Y446290D02*
X327328D01*
X321491Y446659D02*
Y446992D01*
Y454110D02*
Y455609D01*
X326732Y454627D02*
Y454957D01*
X321383Y456290D02*
X325398D01*
X326732Y444627D02*
Y446475D01*
X327328Y445512D02*
Y446865D01*
X331860Y446290D02*
X332619D01*
X331728Y446423D02*
Y446806D01*
Y446423D02*
X333145Y445006D01*
X331728Y454296D02*
Y455272D01*
X331478Y456290D02*
X335298D01*
X334732Y455198D02*
Y456857D01*
X320732Y457279D02*
Y460957D01*
X319721Y458290D02*
X323398D01*
X322732Y454860D02*
Y458957D01*
Y465179D02*
Y468857D01*
X320732Y467179D02*
Y470857D01*
X323621Y464291D02*
X327298D01*
X319621Y468291D02*
X323298D01*
X321621Y466291D02*
X325298D01*
X324732Y455198D02*
Y456957D01*
X328732Y459179D02*
Y462857D01*
X329621Y458290D02*
X333298D01*
X330732Y457179D02*
Y460857D01*
X332732Y454860D02*
Y458857D01*
X326732Y461179D02*
Y464857D01*
X324732Y463179D02*
Y466857D01*
X327621Y460290D02*
X331298D01*
X325621Y462290D02*
X329298D01*
X336732Y468980D02*
Y471357D01*
Y444627D02*
Y446475D01*
X337170Y445669D02*
Y446749D01*
X346732Y444627D02*
Y446475D01*
X341570Y446581D02*
X343145Y445006D01*
X336358Y446290D02*
X337170D01*
X341570Y446581D02*
Y446927D01*
X341860Y446290D02*
X342619D01*
X346358D02*
X347100D01*
X351500Y446651D02*
X353145Y445006D01*
X347100Y445740D02*
Y446701D01*
X356732Y444627D02*
Y446475D01*
X358732Y443251D02*
Y448643D01*
X360732Y443296D02*
Y447806D01*
X351860Y446290D02*
X352619D01*
X351500Y446651D02*
Y446985D01*
X356358Y446290D02*
X362619D01*
X358555Y448290D02*
X360422D01*
X359134Y450290D02*
X359843D01*
X348732Y456980D02*
Y470100D01*
X350732Y454980D02*
Y470100D01*
X340732Y464980D02*
Y470100D01*
X338732Y466980D02*
Y470107D01*
X346732Y458980D02*
Y470100D01*
X342732Y462980D02*
Y470100D01*
X344732Y460980D02*
Y470100D01*
X358732Y452459D02*
Y470100D01*
X358804Y452290D02*
X360173D01*
X360732Y453296D02*
Y470100D01*
X351264Y454290D02*
X351720D01*
X352732Y454860D02*
Y470100D01*
X357257Y454290D02*
X361720D01*
X354732Y455198D02*
Y470100D01*
X356732Y454627D02*
Y470100D01*
X325421Y480291D02*
X327798D01*
X326732Y478979D02*
Y481357D01*
X327421Y478291D02*
X329798D01*
X320102Y487987D02*
X337340Y470748D01*
X322732Y482979D02*
Y485357D01*
X320732Y484979D02*
Y487357D01*
X323421Y482291D02*
X325798D01*
X321421Y484291D02*
X323798D01*
X324732Y480979D02*
Y483357D01*
X333421Y472291D02*
X335798D01*
X334732Y470979D02*
Y473357D01*
X335421Y470291D02*
X338004D01*
X330732Y474979D02*
Y477357D01*
X328732Y476979D02*
Y479357D01*
X331421Y474291D02*
X333798D01*
X329421Y476291D02*
X331798D01*
X332732Y472979D02*
Y475357D01*
X319454Y489546D02*
Y495314D01*
X320732Y505100D02*
Y509611D01*
X322732Y505100D02*
Y509611D01*
X326732Y505100D02*
Y509611D01*
X324732Y505100D02*
Y509611D01*
X332732Y505100D02*
Y509611D01*
X328732Y505100D02*
Y509611D01*
X330732Y505100D02*
Y509611D01*
X343932Y487779D02*
Y495314D01*
X338732Y505100D02*
Y509611D01*
X344732Y486979D02*
Y496523D01*
Y498753D02*
Y500700D01*
X336732Y505100D02*
Y509611D01*
X334732Y505100D02*
Y509611D01*
X344732Y505100D02*
Y509611D01*
X340732Y505100D02*
Y509611D01*
X342732Y505100D02*
Y509611D01*
X343932Y487779D02*
X350211Y481500D01*
X343932Y488291D02*
X359015D01*
X347421Y484291D02*
X361398D01*
X343932Y490290D02*
X359015D01*
X345421Y486291D02*
X359436D01*
X344635Y496290D02*
X348591D01*
X344865Y498290D02*
X348198D01*
X343932Y492290D02*
X359015D01*
X343932Y494290D02*
X359015D01*
X350732Y481500D02*
Y494534D01*
X348732Y482979D02*
Y496022D01*
X360732Y481500D02*
Y484957D01*
X352732Y481500D02*
Y494692D01*
X358732Y481500D02*
Y495620D01*
X354392Y496290D02*
X358313D01*
X354625Y498290D02*
X358083D01*
X359015Y487585D02*
Y495314D01*
X342661Y500700D02*
X345789D01*
X346732Y484979D02*
Y499757D01*
X343522Y500290D02*
X346198D01*
X345789Y500700D02*
X348333Y498156D01*
X320500Y505100D02*
X346700D01*
X346732Y505100D02*
Y509611D01*
X348259Y504452D02*
X351895Y500817D01*
X354732Y481500D02*
Y509611D01*
X353288Y500290D02*
X359425D01*
X356732Y481500D02*
Y509611D01*
X358732Y499656D02*
Y509611D01*
X350732Y501979D02*
Y509611D01*
X348732Y503979D02*
Y509611D01*
X362732Y500456D02*
Y509611D01*
X352732Y500592D02*
Y509611D01*
X360732Y500801D02*
Y509611D01*
X345244Y296290D02*
X410680D01*
X343244Y298290D02*
X410872D01*
X347244Y294290D02*
X412097D01*
X340582Y300290D02*
X411100D01*
X343260Y306291D02*
X410701D01*
X347909Y322290D02*
X410715D01*
X341260Y304291D02*
X411332D01*
X345260Y308291D02*
X411477D01*
X348470Y320290D02*
X411685D01*
X411100Y298718D02*
Y300800D01*
X410732Y297909D02*
Y305751D01*
X416500Y298718D02*
Y299269D01*
X411891Y302709D02*
X412503Y303321D01*
X410732Y306649D02*
Y322151D01*
X412732Y309179D02*
Y319621D01*
X414732Y309290D02*
Y319510D01*
X343145Y324290D02*
X411183D01*
X345006Y331658D02*
X375629D01*
X343145Y326290D02*
X411200D01*
X343145Y328291D02*
X411200D01*
X343638Y330291D02*
X411200D01*
X364732Y336058D02*
Y354611D01*
X362732Y336058D02*
Y354611D01*
X344094Y336058D02*
X375629D01*
X366732D02*
Y354611D01*
X368732Y336058D02*
Y354611D01*
X380742Y332291D02*
X411200D01*
X410732Y323049D02*
Y348651D01*
X411200Y324318D02*
Y342000D01*
X372732Y336058D02*
Y354611D01*
X370732Y336058D02*
Y354611D01*
X381123Y334291D02*
X411200D01*
X374732Y336058D02*
Y354611D01*
X380732Y335445D02*
Y353649D01*
X351244Y290290D02*
X477913D01*
X349244Y292290D02*
X477913D01*
X357010Y286291D02*
X477913D01*
X353244Y288291D02*
X477913D01*
X347165Y310291D02*
X446072D01*
X347476Y312291D02*
X448072D01*
X347476Y314290D02*
X448300D01*
X347476Y316290D02*
X448300D01*
X347616Y318290D02*
X448300D01*
X357143Y282291D02*
X448122D01*
X357604Y284291D02*
X448844D01*
X415503Y294290D02*
X477913D01*
X416920Y296290D02*
X477913D01*
X416732Y298283D02*
Y299269D01*
X416728Y298290D02*
X456181D01*
X415618Y308900D02*
X444682D01*
X416500Y299269D02*
X454991D01*
X416600Y324318D02*
Y340882D01*
X416115Y320290D02*
X448300D01*
X416600Y326290D02*
X448300D01*
X416600Y328291D02*
X448300D01*
X416600Y330291D02*
X448300D01*
X416600Y332291D02*
X448300D01*
X416600Y336291D02*
X451172D01*
X416600Y334291D02*
X449172D01*
X416732Y308900D02*
Y321110D01*
X418732Y308900D02*
Y338658D01*
X420732Y308900D02*
Y337901D01*
X422732Y308900D02*
Y338549D01*
X428732Y308900D02*
Y345213D01*
X416732Y324090D02*
Y341013D01*
X424732Y308900D02*
Y341213D01*
X417085Y322290D02*
X448300D01*
X416617Y324290D02*
X448300D01*
X426732Y308900D02*
Y343213D01*
X339995Y336291D02*
X375873D01*
X339995Y338291D02*
X411200D01*
X339995Y340290D02*
X411200D01*
X339995Y342290D02*
X411216D01*
X345102Y354291D02*
X379249D01*
X344511Y359011D02*
X378897D01*
X339995Y346290D02*
X412368D01*
X339995Y348290D02*
X410804D01*
X341102Y350290D02*
X410930D01*
X378732Y336962D02*
Y354611D01*
X376732Y336816D02*
Y354611D01*
X380032Y336291D02*
X411200D01*
X345422Y354611D02*
X378897D01*
X384058Y358291D02*
X411132D01*
X410732Y349549D02*
Y359004D01*
X366732Y359011D02*
Y388400D01*
X364732Y359011D02*
Y388400D01*
X360500D02*
X367800D01*
X368732Y359011D02*
Y388477D01*
X370732Y359011D02*
Y389212D01*
X360500Y399800D02*
X365439D01*
X369700Y404061D01*
X371831Y390070D02*
X379431Y397670D01*
X372732Y359011D02*
Y390971D01*
X374732Y359011D02*
Y392971D01*
X376732Y359011D02*
Y394971D01*
X378732Y359011D02*
Y396971D01*
X380732Y359974D02*
Y399684D01*
X411000Y361918D02*
Y385200D01*
X339995Y344290D02*
X412372D01*
X412732Y344650D02*
Y346121D01*
X416600Y338291D02*
X419268D01*
X411991Y343909D02*
X413983Y345901D01*
X416600Y340882D02*
X417734Y342015D01*
X343102Y352291D02*
X413272D01*
X383192Y354291D02*
X415272D01*
X384378Y356291D02*
X415800D01*
X413205Y352224D02*
X415800Y354818D01*
X416600Y340290D02*
X417704D01*
X422332Y338291D02*
X453422D01*
X423896Y340290D02*
X477913D01*
X423924Y340405D02*
X429409Y345891D01*
X425809Y342290D02*
X455714D01*
X427809Y344290D02*
X454241D01*
X429739Y346290D02*
X454055D01*
X372052Y390290D02*
X414972D01*
X374052Y392290D02*
X416972D01*
X376052Y394290D02*
X418972D01*
X378052Y396290D02*
X420972D01*
X379968Y398290D02*
X422972D01*
X381100Y402290D02*
X424032D01*
X381100Y404290D02*
X424092D01*
X380923Y400290D02*
X425053D01*
X381100Y408290D02*
X424900D01*
X381100Y406290D02*
X424900D01*
X412732Y352079D02*
Y357150D01*
X414732Y353750D02*
Y357171D01*
X415800Y354818D02*
Y357786D01*
X411791Y387109D02*
X424622Y399941D01*
X424732Y400044D02*
Y401048D01*
X422732Y398050D02*
Y409079D01*
X450732Y285824D02*
Y299269D01*
X448732Y284117D02*
Y299269D01*
X452732Y286133D02*
Y299269D01*
X448087Y304668D02*
X452909Y309491D01*
X448732Y304668D02*
Y305313D01*
X444682Y308900D02*
X448300Y312518D01*
X448087Y304668D02*
X454991D01*
X450732D02*
Y307313D01*
X451709Y308291D02*
X455918D01*
X454732Y285429D02*
Y299269D01*
X452732Y304668D02*
Y309313D01*
X454732Y304668D02*
Y309455D01*
X456732Y305900D02*
Y307879D01*
X453462Y310291D02*
X454293D01*
X453700Y314290D02*
X454819D01*
X453700Y312291D02*
X454036D01*
X432732Y308900D02*
Y371709D01*
X430732Y308900D02*
Y371709D01*
X438732Y308900D02*
Y371709D01*
X434732Y308900D02*
Y371709D01*
X436732Y308900D02*
Y371709D01*
X442732Y308900D02*
Y371709D01*
X440732Y308900D02*
Y371709D01*
X444732Y308950D02*
Y371709D01*
X446732Y310950D02*
Y371709D01*
X453700Y311400D02*
Y331182D01*
X448300Y312518D02*
Y332300D01*
X454732Y314167D02*
Y332213D01*
X456732Y315743D02*
Y331895D01*
X448732Y333765D02*
Y371709D01*
X454809Y332291D02*
X455943D01*
X449091Y334209D02*
X452618Y337736D01*
X453700Y331182D02*
X455308Y332789D01*
X458209Y297768D02*
X459114D01*
X456602Y282291D02*
X477913D01*
X455880Y284291D02*
X477913D01*
X458209Y306169D02*
X459114D01*
X458732D02*
Y307611D01*
X449709Y306291D02*
X477913D01*
X458209Y307611D02*
X459114D01*
X462732Y304102D02*
Y309677D01*
X461142Y298290D02*
X477913D01*
X462964Y300290D02*
X477913D01*
X463302Y302291D02*
X477913D01*
X462614Y304291D02*
X477913D01*
X460732Y305844D02*
Y307935D01*
X461405Y308291D02*
X477913D01*
X463029Y310291D02*
X477913D01*
X463287Y312291D02*
X477913D01*
X458209Y316011D02*
X459114D01*
X453700Y316290D02*
X477913D01*
X453700Y318290D02*
X477913D01*
X453700Y322290D02*
X477913D01*
X453700Y320290D02*
X477913D01*
X453700Y330291D02*
X477913D01*
X453700Y324290D02*
X477913D01*
X453700Y328291D02*
X477913D01*
X453700Y326290D02*
X477913D01*
X458732Y316011D02*
Y331627D01*
X460732Y315687D02*
Y331951D01*
X462504Y314290D02*
X477913D01*
X462732Y313945D02*
Y333693D01*
X458209Y331627D02*
X459114D01*
X461380Y332291D02*
X477913D01*
X463023Y334291D02*
X477913D01*
X454527Y338527D02*
X454991D01*
X454732D02*
Y343313D01*
X430200Y370290D02*
X454035D01*
X430200Y348290D02*
X454927D01*
X454732Y348025D02*
Y370168D01*
X458732Y340027D02*
Y341469D01*
X456732Y339758D02*
Y341738D01*
X458209Y340027D02*
X459114D01*
X460732Y339703D02*
Y341793D01*
X462732Y337961D02*
Y343535D01*
X458209Y341469D02*
X459114D01*
X458209Y349869D02*
X459114D01*
X462732Y347803D02*
Y370158D01*
X430200Y347800D02*
Y371482D01*
X450732Y335850D02*
Y371709D01*
X456732Y349601D02*
Y370468D01*
X452732Y337844D02*
Y370882D01*
X458732Y349869D02*
Y372155D01*
X430428Y371709D02*
X451824D01*
X430200Y371482D02*
X430428Y371709D01*
X456202Y370290D02*
X461908D01*
X458813Y372290D02*
X459298D01*
X460732Y349545D02*
Y370800D01*
X466732Y376448D02*
Y380245D01*
Y384322D02*
Y388119D01*
X430200Y356291D02*
X477913D01*
X430200Y358291D02*
X477913D01*
X430200Y350290D02*
X477913D01*
X430200Y354291D02*
X477913D01*
X430200Y352291D02*
X477913D01*
X430200Y366290D02*
X477913D01*
X430200Y368290D02*
X477913D01*
X430200Y360291D02*
X477913D01*
X430200Y364290D02*
X477913D01*
X430200Y362291D02*
X477913D01*
X463081Y344290D02*
X477913D01*
X463268Y346290D02*
X477913D01*
X463288Y336291D02*
X477913D01*
X461609Y342290D02*
X477913D01*
X462516Y338291D02*
X477913D01*
X467249Y374290D02*
X477913D01*
X466813Y376290D02*
X477913D01*
X462396Y348290D02*
X477913D01*
X464076Y370290D02*
X477913D01*
X466687Y372290D02*
X477913D01*
X466749Y384291D02*
X477913D01*
X464777Y386291D02*
X477913D01*
X464746Y378291D02*
X477913D01*
X466756Y380291D02*
X477913D01*
X467251Y382291D02*
X477913D01*
X468599Y392788D02*
X470752Y394940D01*
X466820Y388291D02*
X477913D01*
X467249Y390290D02*
X477913D01*
X467841Y392290D02*
X477913D01*
X470102Y394290D02*
X477913D01*
X471390Y396290D02*
X477913D01*
X471400Y398290D02*
X477913D01*
X471400Y406290D02*
X477913D01*
X471400Y408290D02*
X477913D01*
X471400Y400290D02*
X477913D01*
X471400Y404290D02*
X477913D01*
X471400Y402290D02*
X477913D01*
X355062Y418291D02*
X369700D01*
X355062Y420291D02*
X369700D01*
X355114Y412290D02*
X369700D01*
X355732Y416291D02*
X369700D01*
X355062Y428291D02*
X369700D01*
X355062Y430291D02*
X369700D01*
X355062Y422291D02*
X369700D01*
X355062Y426291D02*
X369700D01*
X355062Y424291D02*
X369700D01*
X364732Y399800D02*
Y435905D01*
X366732Y401093D02*
Y436475D01*
X356032Y414291D02*
X369700D01*
X356762Y432291D02*
X369700D01*
X368732Y403093D02*
Y438643D01*
X357031Y434291D02*
X369700D01*
X366358Y436291D02*
X369700D01*
X368555Y438291D02*
X369700D01*
X369134Y440290D02*
X369700D01*
X364732Y445198D02*
Y445905D01*
X362732Y444860D02*
Y446243D01*
X366358Y446290D02*
X369700D01*
X364732Y455198D02*
Y470100D01*
X362732Y454860D02*
Y470100D01*
X349421Y456290D02*
X369700D01*
X345421Y460290D02*
X369700D01*
X347421Y458290D02*
X369700D01*
X366732Y444627D02*
Y446475D01*
X368732Y442459D02*
Y448643D01*
X368804Y442290D02*
X369700D01*
X367257Y444290D02*
X369700D01*
Y404061D02*
Y461600D01*
X368732Y452459D02*
Y470100D01*
X366732Y454627D02*
Y470100D01*
X368555Y448290D02*
X369700D01*
X367257Y454290D02*
X369700D01*
X369134Y450290D02*
X369700D01*
X381100Y434291D02*
X408598D01*
X381100Y436291D02*
X406598D01*
X381100Y430291D02*
X412598D01*
X381100Y432291D02*
X410598D01*
X381100Y444290D02*
X398598D01*
X381100Y446290D02*
X396598D01*
X381100Y438291D02*
X404598D01*
X381100Y442290D02*
X400598D01*
X381100Y440290D02*
X402598D01*
X381100Y414291D02*
X413480D01*
X381100Y416291D02*
X413275D01*
X381100Y410290D02*
X419483D01*
X381100Y418291D02*
X414200D01*
X381100Y412290D02*
X418848D01*
X381100Y426291D02*
X414200D01*
X381100Y428291D02*
X414200D01*
X381100Y420291D02*
X414200D01*
X381100Y424291D02*
X414200D01*
X381100Y422291D02*
X414200D01*
X368804Y452290D02*
X369700D01*
X343421Y462290D02*
X369742D01*
X341421Y464291D02*
X370375D01*
X370732Y464871D02*
Y470100D01*
X339421Y466291D02*
X372161D01*
X372732Y466637D02*
Y470100D01*
X374732Y467261D02*
Y468157D01*
X337421Y468291D02*
X374598D01*
X372789Y470100D02*
X375592Y467297D01*
X382732Y359632D02*
Y460157D01*
X381100Y401700D02*
Y461600D01*
Y448290D02*
X394598D01*
X381097Y461792D02*
X414200Y428689D01*
X381100Y450290D02*
X392598D01*
X381100Y458290D02*
X384598D01*
X381100Y460290D02*
X382598D01*
X381100Y452290D02*
X390598D01*
X381100Y456290D02*
X386598D01*
X381100Y454290D02*
X388598D01*
X362732Y481500D02*
Y482957D01*
X359664Y486025D02*
X364189Y481500D01*
X338900Y470100D02*
X372789D01*
X350211Y481500D02*
X364189D01*
X349421Y482291D02*
X363398D01*
X363415Y488496D02*
X366911Y485000D01*
X363415Y490290D02*
X369201D01*
X363415Y494290D02*
X369201D01*
X363415Y492290D02*
X369201D01*
X365621Y486291D02*
X369898D01*
X366911Y485000D02*
X371189D01*
X369849Y486340D02*
X371189Y485000D01*
X370732D02*
Y485457D01*
X363621Y488291D02*
X369201D01*
Y487899D02*
Y495207D01*
X373601Y490290D02*
X378256D01*
X373601Y488810D02*
X374322Y488090D01*
X363415Y488496D02*
Y495314D01*
X364732Y487180D02*
Y509611D01*
X366732Y485180D02*
Y509611D01*
X364348Y498290D02*
X368292D01*
X364118Y496290D02*
X368451D01*
X363005Y500290D02*
X369781D01*
X368732Y499296D02*
Y509611D01*
X373601Y488810D02*
Y495207D01*
X368732Y485000D02*
Y495766D01*
X378256Y489444D02*
Y495207D01*
X374732Y488090D02*
Y509611D01*
X376732Y488090D02*
Y509611D01*
X372732Y500441D02*
Y509611D01*
X370732Y500660D02*
Y509611D01*
X374351Y496290D02*
X377506D01*
X374510Y498290D02*
X377348D01*
X374121Y488291D02*
X378583D01*
X374322Y488090D02*
X378722D01*
X382656Y490355D02*
X387311Y485700D01*
X373601Y492290D02*
X378256D01*
X373601Y494290D02*
X378256D01*
X382656Y492290D02*
X387311D01*
X382656Y490355D02*
Y495207D01*
Y494290D02*
X387311D01*
X386721Y486291D02*
X387311D01*
Y485700D02*
Y495207D01*
X391711Y486400D02*
X397163Y480949D01*
X384721Y488291D02*
X387311D01*
X391711Y486400D02*
Y495207D01*
Y490290D02*
X397154D01*
X382721D02*
X387311D01*
X391711Y488291D02*
X397154D01*
X391711Y494290D02*
X397154D01*
X391711Y492290D02*
X397154D01*
X382732Y490279D02*
Y495281D01*
X378732Y500227D02*
Y509611D01*
X382732Y499781D02*
Y509611D01*
X373021Y500290D02*
X378836D01*
X380732Y500719D02*
Y509611D01*
X382076Y500290D02*
X387891D01*
X348421Y504290D02*
X477104D01*
X350421Y502290D02*
X477838D01*
X383406Y496290D02*
X386561D01*
X384732Y488279D02*
Y509611D01*
X386732Y486279D02*
Y495945D01*
X383565Y498290D02*
X386403D01*
X386732Y499117D02*
Y509611D01*
X391131Y500290D02*
X397564D01*
X388732Y500635D02*
Y509611D01*
X390732Y500489D02*
Y509611D01*
X416732Y392050D02*
Y412417D01*
X414732Y390050D02*
Y412869D01*
X418600Y428291D02*
X419398D01*
X414200Y417924D02*
Y428689D01*
X418600Y418291D02*
X419847D01*
X418600Y426291D02*
X419847D01*
X418600Y424291D02*
X419847D01*
X420732Y396050D02*
Y409288D01*
X418732Y394050D02*
Y413408D01*
X424732Y405352D02*
Y410463D01*
X424900Y405524D02*
Y410755D01*
X419320Y414291D02*
X419620D01*
X419847Y414529D02*
Y427842D01*
X419525Y416291D02*
X419847D01*
X418600Y422291D02*
X419847D01*
X418600Y420291D02*
X419847D01*
X412732Y388050D02*
Y430157D01*
X410732Y361396D02*
Y432157D01*
X418732Y417792D02*
Y428957D01*
X418600Y429089D02*
X419847Y427842D01*
X418600Y417924D02*
Y429089D01*
X401554Y482058D02*
X423011Y460600D01*
X424732D02*
Y509611D01*
X430732Y460600D02*
Y509611D01*
X426732Y460600D02*
Y509611D01*
X428732Y460600D02*
Y509611D01*
X444732Y460600D02*
Y469081D01*
X442732Y460600D02*
Y475197D01*
X454732Y460600D02*
Y462505D01*
X450732Y460600D02*
Y463698D01*
X452732Y460600D02*
Y462938D01*
X434732Y460600D02*
Y509611D01*
X432732Y460600D02*
Y509611D01*
X440732Y460600D02*
Y509611D01*
X436732Y460600D02*
Y509611D01*
X438732Y460600D02*
Y509611D01*
X471400Y436291D02*
X477913D01*
X471400Y438291D02*
X477913D01*
X471400Y430291D02*
X477913D01*
X471400Y434291D02*
X477913D01*
X471400Y432291D02*
X477913D01*
X471400Y446290D02*
X477913D01*
X471400Y448290D02*
X477913D01*
X471400Y440290D02*
X477913D01*
X471400Y444290D02*
X477913D01*
X471400Y442290D02*
X477913D01*
X471400Y416291D02*
X477913D01*
X471400Y418291D02*
X477913D01*
X471400Y410290D02*
X477913D01*
X471400Y414291D02*
X477913D01*
X471400Y412290D02*
X477913D01*
X471400Y426291D02*
X477913D01*
X471400Y428291D02*
X477913D01*
X471400Y420291D02*
X477913D01*
X471400Y424291D02*
X477913D01*
X471400Y422291D02*
X477913D01*
X465660Y459952D02*
X470752Y454859D01*
X465225Y460290D02*
X477913D01*
X466732Y458880D02*
Y466604D01*
X456732Y460600D02*
Y462367D01*
X458732Y460600D02*
Y462516D01*
X423011Y460600D02*
X464100D01*
X460732D02*
Y462962D01*
X464732Y460507D02*
Y464902D01*
X471400Y396500D02*
Y453300D01*
Y450290D02*
X477913D01*
X471400Y452290D02*
X477913D01*
X468732Y456880D02*
Y469210D01*
X470732Y454880D02*
Y509349D01*
X471164Y454290D02*
X477913D01*
X467321Y458290D02*
X477913D01*
X469321Y456290D02*
X477913D01*
X397154Y481146D02*
Y495314D01*
X396732Y481380D02*
Y495803D01*
X401554Y482291D02*
X443991D01*
X395821D02*
X397154D01*
X392461Y496290D02*
X396451D01*
X392620Y498290D02*
X396221D01*
X393821Y484291D02*
X397154D01*
X391821Y486291D02*
X397154D01*
X411321Y472291D02*
X443291D01*
X409321Y474291D02*
X442838D01*
X446732Y460600D02*
Y466525D01*
X413321Y470291D02*
X444073D01*
X415321Y468291D02*
X445252D01*
X407321Y476291D02*
X442682D01*
X401554Y482058D02*
Y495314D01*
X405321Y478291D02*
X442813D01*
X401554Y484291D02*
X445130D01*
X403321Y480291D02*
X443239D01*
X402732Y480879D02*
Y509611D01*
X394732Y483380D02*
Y509611D01*
X408732Y474880D02*
Y509611D01*
X404732Y478879D02*
Y509611D01*
X406732Y476880D02*
Y509611D01*
X396732Y499472D02*
Y509611D01*
X392732Y485380D02*
Y509611D01*
X398732Y500777D02*
Y509611D01*
X400732Y500526D02*
Y509611D01*
X416732Y466880D02*
Y509611D01*
X414732Y468880D02*
Y509611D01*
X422732Y460880D02*
Y509611D01*
X418732Y464880D02*
Y509611D01*
X420732Y462880D02*
Y509611D01*
X412732Y470880D02*
Y509611D01*
X410732Y472880D02*
Y509611D01*
X446732Y486231D02*
Y509611D01*
X442732Y477559D02*
Y509611D01*
X444732Y483674D02*
Y509611D01*
X419321Y464291D02*
X449608D01*
X448732Y460600D02*
Y464849D01*
X421321Y462290D02*
X477913D01*
X462732Y460600D02*
Y463735D01*
X463778Y464291D02*
X477913D01*
X417321Y466291D02*
X446969D01*
X401554Y486291D02*
X446791D01*
X466417Y466291D02*
X477913D01*
X401554Y488291D02*
X449317D01*
X464069D02*
X477913D01*
X470548Y474291D02*
X477913D01*
X470704Y476291D02*
X477913D01*
X468134Y468291D02*
X477913D01*
X469312Y470291D02*
X477913D01*
X470094Y472291D02*
X477913D01*
X468256Y484291D02*
X477913D01*
X466595Y486291D02*
X477913D01*
X470573Y478291D02*
X477913D01*
X469395Y482291D02*
X477913D01*
X470147Y480291D02*
X477913D01*
X450732Y489058D02*
Y509611D01*
X448732Y487907D02*
Y509611D01*
X401554Y490290D02*
X455035D01*
X452732Y489817D02*
Y509611D01*
X402487Y498290D02*
X477913D01*
X401143Y500290D02*
X477913D01*
X401554Y492290D02*
X477913D01*
X401554Y494290D02*
X477913D01*
X402256Y496290D02*
X477913D01*
X462732Y489021D02*
Y509611D01*
X460732Y489794D02*
Y509611D01*
X468732Y483546D02*
Y509608D01*
X464732Y487853D02*
Y509611D01*
X466732Y486152D02*
Y509611D01*
X456732Y490389D02*
Y509611D01*
X454732Y490251D02*
Y509611D01*
X458351Y490290D02*
X477913D01*
X458732Y490240D02*
Y509611D01*
X331890Y497510D02*
X331990D01*
G54D11*
X292232Y263264D02*
D03*
X299713D02*
D03*
X292232Y246264D02*
D03*
X299713D02*
D03*
Y254764D02*
D03*
X292232D02*
D03*
X299713Y280764D02*
D03*
X292232D02*
D03*
X299713Y272264D02*
D03*
X292232D02*
D03*
G54D12*
X264372Y274934D02*
D03*
Y282414D02*
D03*
X281102Y282087D02*
D03*
Y274606D02*
D03*
X251192Y282604D02*
D03*
Y275124D02*
D03*
Y266104D02*
D03*
Y258624D02*
D03*
G54D40*
X291350Y290551D02*
D03*
X302350D02*
D03*
X303400Y236000D02*
D03*
X292400D02*
D03*
G54D52*
X388260Y79540D02*
Y99843D01*
X414968Y301969D02*
X458661D01*
X413800Y297000D02*
Y300800D01*
X414968Y301969D01*
X292232Y241800D02*
Y246264D01*
Y237351D02*
Y241800D01*
X291745Y236864D02*
X292232Y237351D01*
Y246264D02*
Y254764D01*
X354488Y440551D02*
X364488D01*
X288100Y254358D02*
X290452D01*
X251393Y282804D02*
X258457D01*
X251192Y282604D02*
X251393Y282804D01*
X281102Y282143D02*
Y285827D01*
X374465Y153984D02*
X375000Y154518D01*
X287233Y200067D02*
X310433D01*
X306693Y297638D02*
X340079D01*
X353543Y284173D01*
X421300Y61500D02*
X421300Y21328D01*
X421300Y61500D02*
Y95312D01*
X454527Y335827D02*
X458661D01*
X451000Y332300D02*
X454527Y335827D01*
X451000Y311400D02*
Y332300D01*
X445800Y306200D02*
X451000Y311400D01*
X413900Y306200D02*
X445800D01*
X413900Y349100D02*
X418500Y353700D01*
X422700Y350800D02*
Y377800D01*
X420800Y341100D02*
X427500Y347800D01*
Y372600D01*
X429310Y374410D01*
X455118D01*
X354331Y440394D02*
X354488Y440551D01*
X354331Y433465D02*
Y440394D01*
X352362Y431496D02*
X354331Y433465D01*
X352362Y414764D02*
Y431496D01*
X444100Y398031D02*
X455118D01*
X413900Y322600D02*
Y342000D01*
X422700Y350800D01*
Y377800D02*
X427183Y382283D01*
X455118D01*
X426532Y398031D02*
X444100D01*
X426557Y390158D02*
X455118D01*
X418500Y353700D02*
Y382100D01*
X426557Y390158D01*
X413700Y360200D02*
Y385200D01*
X426532Y398031D01*
G54D53*
X397891Y165739D02*
Y180699D01*
X399308Y182117D01*
Y199046D01*
X243200Y254438D02*
X262992Y234646D01*
X211717Y288365D02*
X239335D01*
X243200Y284500D01*
Y254438D02*
Y284500D01*
X262992Y204408D02*
Y234646D01*
X281300Y158800D02*
X293952Y146148D01*
X262992Y204408D02*
X281300Y186100D01*
X293952Y146148D02*
X331100D01*
X281300Y158800D02*
Y186100D01*
G54D54*
X288189Y272441D02*
X292232D01*
X398700Y211744D02*
Y228300D01*
X393166Y206210D02*
X398700Y211744D01*
X393166Y154715D02*
Y206210D01*
X427812Y142904D02*
Y154518D01*
X344400Y174203D02*
Y190714D01*
X374465Y149000D02*
Y153984D01*
X236240Y341040D02*
Y354147D01*
X282379Y341321D02*
Y354140D01*
X328400Y353311D02*
X328442Y353353D01*
X294588Y330512D02*
Y340212D01*
X249812Y330512D02*
Y340512D01*
X202312Y330512D02*
Y340788D01*
X328400Y330400D02*
Y353311D01*
G54D55*
X372088Y91965D02*
Y106841D01*
X289300Y21543D02*
X293200D01*
X285600D02*
X289300D01*
X452362Y211024D02*
Y218898D01*
X375992Y142298D02*
X384260D01*
X440017Y171251D02*
Y193317D01*
X452362Y205662D02*
Y211024D01*
X440017Y193317D02*
X452362Y205662D01*
X434308Y154518D02*
X440017Y160227D01*
Y171251D01*
X364820Y154518D02*
X375000D01*
X427615D01*
X427812D02*
X434308D01*
X306600Y174300D02*
X314900D01*
X323200D01*
X320500Y174203D02*
X344400D01*
X364723Y174300D02*
X364820Y174203D01*
X344400D02*
X362992D01*
X364820D01*
X362992Y124409D02*
Y174203D01*
X298200Y174300D02*
X306600D01*
X362836Y43540D02*
Y78100D01*
X362795Y92300D02*
Y121919D01*
Y92300D02*
X362836Y92259D01*
Y85237D02*
X362848D01*
X372047Y115817D02*
Y122200D01*
Y138353D01*
X375992Y142298D01*
X365443Y21543D02*
X372047Y28147D01*
X293200Y21543D02*
X365443D01*
X372047Y28147D02*
Y95344D01*
X372047Y106841D02*
Y122200D01*
X315337Y81540D02*
X322200D01*
X362647D01*
X362836Y78100D02*
Y81540D01*
Y85237D01*
Y81540D02*
Y81729D01*
Y85237D02*
Y92259D01*
G54D59*
X201200Y394100D02*
X210800D01*
X194800D02*
X201200D01*
X176000D02*
X194800D01*
X162200Y309400D02*
Y380300D01*
Y301600D02*
Y309400D01*
Y183900D02*
Y301600D01*
X52200Y190600D02*
Y192800D01*
Y174800D02*
Y190600D01*
X47700Y132400D02*
X52200Y136900D01*
Y174800D01*
X47700Y61400D02*
Y132400D01*
Y58100D02*
Y61400D01*
X375400Y401700D02*
Y461600D01*
X367800Y394100D02*
X375400Y401700D01*
X360500Y394100D02*
X367800D01*
X153100Y174800D02*
X162200Y183900D01*
Y380300D02*
X176000Y394100D01*
X284600D02*
X340037D01*
X360500D01*
X52200Y174800D02*
X153100D01*
X210800Y394100D02*
X284600D01*
G54D60*
X187300Y346000D02*
Y354134D01*
X185468Y141732D02*
X259268D01*
X175197Y152003D02*
Y313197D01*
X179166Y354134D02*
X183134D01*
X31501Y239816D02*
X43300D01*
X50116D01*
X175197Y152003D02*
X185468Y141732D01*
X183134Y354134D02*
X187300D01*
Y341288D02*
Y346000D01*
X175197Y313197D02*
X187300Y325300D01*
Y340788D02*
X202312D01*
X187300Y325300D02*
Y340788D01*
Y346000D01*
X202312Y340788D02*
X327400D01*
X43300Y239816D02*
X106700D01*
X111084D01*
X106700D02*
X135200D01*
X139200D01*
X143500D01*
X147384D01*
G54D108*
X416157Y204588D02*
D03*
X438000Y24100D02*
D03*
X112612Y274459D02*
D03*
X147232Y156798D02*
D03*
X275423Y38457D02*
D03*
X267155Y77705D02*
D03*
X28740Y402756D02*
D03*
X415859Y222588D02*
D03*
G54D109*
X455118Y374410D02*
D03*
X462992D02*
D03*
X455118Y382283D02*
D03*
X462992D02*
D03*
X455118Y390158D02*
D03*
X462992D02*
D03*
X455118Y398031D02*
D03*
X462992D02*
D03*
X455118Y405905D02*
D03*
X462992D02*
D03*
X455118Y413779D02*
D03*
X462992D02*
D03*
X455118Y421654D02*
D03*
X462992D02*
D03*
X455118Y429528D02*
D03*
X462992D02*
D03*
X455118Y437402D02*
D03*
X462992D02*
D03*
X455118Y445276D02*
D03*
X462992D02*
D03*
X319291Y250472D02*
D03*
Y270473D02*
D03*
X460236Y281890D02*
D03*
X452362D02*
D03*
X460236Y274016D02*
D03*
X452362D02*
D03*
X460236Y266142D02*
D03*
X452362D02*
D03*
X460236Y258268D02*
D03*
X452362D02*
D03*
X460236Y250394D02*
D03*
X452362D02*
D03*
X460236Y242520D02*
D03*
X452362D02*
D03*
X460236Y234646D02*
D03*
X452362D02*
D03*
X460236Y226772D02*
D03*
X452362D02*
D03*
X460236Y218898D02*
D03*
X452362D02*
D03*
X460236Y211024D02*
D03*
X452362D02*
D03*
G54D110*
X35015Y445276D02*
D03*
X44858D02*
D03*
X54700D02*
D03*
X64543D02*
D03*
G54D111*
X97771Y447008D02*
D03*
Y437008D02*
D03*
X107771Y447008D02*
D03*
Y437008D02*
D03*
X117771Y447008D02*
D03*
Y437008D02*
D03*
X127771Y447008D02*
D03*
Y437008D02*
D03*
X137771Y447008D02*
D03*
Y437008D02*
D03*
X31501Y249816D02*
D03*
Y229816D02*
D03*
Y239816D02*
D03*
G54D112*
X231853Y171757D02*
D03*
X231955Y111675D02*
D03*
X231858Y53373D02*
D03*
G54D113*
X85851Y207417D02*
D03*
G54D114*
X250656Y221567D02*
D03*
X240656D02*
D03*
X230656D02*
D03*
X364488Y450551D02*
D03*
Y440551D02*
D03*
X354488Y450551D02*
D03*
Y440551D02*
D03*
X344488Y450551D02*
D03*
Y440551D02*
D03*
X334488Y450551D02*
D03*
Y440551D02*
D03*
X324488Y450551D02*
D03*
Y440551D02*
D03*
X314488Y450551D02*
D03*
Y440551D02*
D03*
X304488Y450551D02*
D03*
Y440551D02*
D03*
X294488Y450551D02*
D03*
Y440551D02*
D03*
X284488Y450551D02*
D03*
Y440551D02*
D03*
X274488Y450551D02*
D03*
Y440551D02*
D03*
X264488Y450551D02*
D03*
Y440551D02*
D03*
X254488Y450551D02*
D03*
Y440551D02*
D03*
X244488Y450551D02*
D03*
G54D115*
X220656Y221567D02*
D03*
X244488Y440551D02*
D03*
G54D116*
X311141Y134184D02*
D03*
X69715Y62800D02*
D03*
Y82485D02*
D03*
X79558Y52957D02*
D03*
Y72642D02*
D03*
X89400Y82485D02*
D03*
X56159Y276716D02*
D03*
X319059Y40316D02*
D03*
G54D117*
X458661Y335827D02*
D03*
Y345669D02*
D03*
Y301969D02*
D03*
Y311811D02*
D03*
X458255Y168898D02*
D03*
Y178740D02*
D03*
Y188583D02*
D03*
Y159055D02*
D03*
Y149213D02*
D03*
G54D118*
X15748Y476378D02*
D03*
X456693D02*
D03*
Y35433D02*
D03*
G54D119*
X15748D02*
D03*
G54D120*
X324400Y289300D02*
D03*
X236200Y210543D02*
D03*
X37400Y349260D02*
D03*
X74019Y360481D02*
D03*
X362848Y85237D02*
D03*
X362836Y43540D02*
D03*
X384260Y142298D02*
D03*
X363000Y123400D02*
D03*
X372200Y104800D02*
D03*
G54D121*
X353543Y284173D02*
D03*
Y274173D02*
D03*
G54D122*
Y264173D02*
D03*
G54D123*
X130551Y31496D02*
D03*
G54D124*
X114961D02*
D03*
G54D125*
X427600Y74800D02*
D03*
Y114800D02*
D03*
X427400Y54000D02*
D03*
Y14000D02*
D03*
G54D126*
X458268Y125984D02*
D03*
Y116142D02*
D03*
Y106299D02*
D03*
Y83465D02*
D03*
Y73622D02*
D03*
Y63779D02*
D03*
G54D127*
X89400Y62800D02*
D03*
G54D128*
X410994Y79564D02*
D03*
X400000Y73800D02*
D03*
X388260Y79540D02*
D03*
X388300Y99843D02*
D03*
X401000Y111000D02*
D03*
X349150Y230818D02*
D03*
X345850D02*
D03*
X348700Y199100D02*
D03*
X345400D02*
D03*
X262300Y199700D02*
D03*
X179166Y354134D02*
D03*
X279200Y252000D02*
D03*
X278700Y224100D02*
D03*
X284900Y258200D02*
D03*
X282100Y261600D02*
D03*
X339994Y256890D02*
D03*
Y264370D02*
D03*
Y289173D02*
D03*
X295200Y223819D02*
D03*
X292100Y227400D02*
D03*
X296721Y36700D02*
D03*
X407300Y228061D02*
D03*
X433200Y234693D02*
D03*
X441900Y234793D02*
D03*
X433200Y248866D02*
D03*
X441900Y248966D02*
D03*
X433200Y263433D02*
D03*
X441900Y263533D02*
D03*
X441900Y278100D02*
D03*
X433200Y278000D02*
D03*
X358481Y152707D02*
D03*
X395421Y149400D02*
D03*
X359899Y197825D02*
D03*
Y188376D02*
D03*
X377779Y179046D02*
D03*
Y184046D02*
D03*
Y194000D02*
D03*
X411277Y171251D02*
D03*
X420769Y142539D02*
D03*
X49500Y129900D02*
D03*
X45900D02*
D03*
Y126600D02*
D03*
X49500Y126700D02*
D03*
X46000Y123500D02*
D03*
X49600Y123600D02*
D03*
X46100Y120300D02*
D03*
X49700Y120400D02*
D03*
X46200Y117200D02*
D03*
X49800D02*
D03*
X377300Y462800D02*
D03*
X373700D02*
D03*
Y459500D02*
D03*
X377300Y459600D02*
D03*
X373800Y456400D02*
D03*
X377400Y456500D02*
D03*
X373900Y453200D02*
D03*
X377500Y453300D02*
D03*
X267200Y45200D02*
D03*
X262800Y45100D02*
D03*
X258500Y45300D02*
D03*
X253700D02*
D03*
X267200Y49500D02*
D03*
X262800D02*
D03*
X258500D02*
D03*
X253700Y49600D02*
D03*
X212200Y20300D02*
D03*
X207900Y20800D02*
D03*
X204000Y20500D02*
D03*
X212200Y24600D02*
D03*
X208100Y24900D02*
D03*
X204100Y24700D02*
D03*
X212200Y28900D02*
D03*
X208100Y29000D02*
D03*
X204000D02*
D03*
X395969Y375940D02*
D03*
X363386Y376700D02*
D03*
X464732Y500000D02*
D03*
X451968Y500787D02*
D03*
X441339Y500394D02*
D03*
X368504Y324410D02*
D03*
X291732Y497638D02*
D03*
X281496Y497244D02*
D03*
X271654D02*
D03*
X261024Y497638D02*
D03*
X251575D02*
D03*
X241339D02*
D03*
X231496D02*
D03*
X221260D02*
D03*
X211417D02*
D03*
X345276Y320472D02*
D03*
X133100Y312200D02*
D03*
X258457Y282804D02*
D03*
X405000Y33800D02*
D03*
X376600Y287800D02*
D03*
X233900Y361100D02*
D03*
X288100Y254358D02*
D03*
X286000Y265200D02*
D03*
X281102Y285827D02*
D03*
X292232Y241800D02*
D03*
X285898Y278104D02*
D03*
X90040Y35151D02*
D03*
X264002Y287134D02*
D03*
X306693Y297638D02*
D03*
X349218Y90749D02*
D03*
X157300Y63500D02*
D03*
X170500Y61100D02*
D03*
X162800Y49400D02*
D03*
X256300Y301100D02*
D03*
X193500Y346654D02*
D03*
X355356Y43540D02*
D03*
X377300Y33500D02*
D03*
X392200Y33800D02*
D03*
X358600Y76400D02*
D03*
X234055Y330512D02*
D03*
X211717Y288365D02*
D03*
X322277Y324900D02*
D03*
X280512Y330512D02*
D03*
X211417Y307700D02*
D03*
X227559Y307874D02*
D03*
X399308Y199046D02*
D03*
X397891Y165739D02*
D03*
X346858Y124975D02*
D03*
X411277Y188180D02*
D03*
X438836Y203534D02*
D03*
X429190Y203337D02*
D03*
X282677Y299606D02*
D03*
X381221Y356811D02*
D03*
X377953Y333858D02*
D03*
X275900Y254000D02*
D03*
X378346Y299606D02*
D03*
X381890Y299661D02*
D03*
Y309661D02*
D03*
X378346Y309606D02*
D03*
X382125Y325827D02*
D03*
X378581Y325772D02*
D03*
X382125Y361811D02*
D03*
X378581Y361756D02*
D03*
X382125Y351811D02*
D03*
X378581Y351756D02*
D03*
X392678Y335827D02*
D03*
X396222Y335882D02*
D03*
X322200Y81540D02*
D03*
X258527Y258661D02*
D03*
X266142Y268504D02*
D03*
X269685Y267323D02*
D03*
X273228Y266142D02*
D03*
X343742Y89997D02*
D03*
X339450Y109249D02*
D03*
X335835Y137573D02*
D03*
X364820Y174203D02*
D03*
X427812Y142904D02*
D03*
X420332Y154715D02*
D03*
X427812D02*
D03*
X393245Y179046D02*
D03*
X398700Y228300D02*
D03*
X333500Y227361D02*
D03*
X335800Y223817D02*
D03*
Y217124D02*
D03*
X333500Y220668D02*
D03*
Y212718D02*
D03*
X335800Y202482D02*
D03*
Y209175D02*
D03*
X333500Y206025D02*
D03*
X353300Y206065D02*
D03*
X355600Y209214D02*
D03*
Y202521D02*
D03*
X353300Y212757D02*
D03*
Y220707D02*
D03*
X355600Y217164D02*
D03*
Y223857D02*
D03*
X353300Y227400D02*
D03*
X440017Y171251D02*
D03*
X298369Y174297D02*
D03*
X306600Y174300D02*
D03*
X314900D02*
D03*
X323200D02*
D03*
X344400Y190714D02*
D03*
X331100Y146148D02*
D03*
X374465Y149000D02*
D03*
X239538Y254138D02*
D03*
X196024Y266256D02*
D03*
X310433Y200067D02*
D03*
X287233D02*
D03*
X181600Y242200D02*
D03*
X185900Y242300D02*
D03*
X190400Y242200D02*
D03*
X183800Y239000D02*
D03*
X188200Y238900D02*
D03*
X181500Y235600D02*
D03*
X186000Y235300D02*
D03*
X190400Y235100D02*
D03*
X413929Y126659D02*
D03*
X354929Y123991D02*
D03*
X293200Y21543D02*
D03*
X413900Y349100D02*
D03*
X420800Y341100D02*
D03*
X413900Y322600D02*
D03*
Y306200D02*
D03*
X413800Y297000D02*
D03*
X413700Y360200D02*
D03*
X129900Y67200D02*
D03*
X135400D02*
D03*
X140300D02*
D03*
X144800D02*
D03*
X140500Y63200D02*
D03*
X144900D02*
D03*
X140600Y59100D02*
D03*
X144900Y59300D02*
D03*
X25900Y104000D02*
D03*
X31038D02*
D03*
X36175D02*
D03*
X25900Y99000D02*
D03*
X31038D02*
D03*
X36175D02*
D03*
X238800Y363300D02*
D03*
X147384Y239816D02*
D03*
X131100Y365300D02*
D03*
X146600Y370500D02*
D03*
X139000Y373200D02*
D03*
X143100Y380900D02*
D03*
X134625Y379675D02*
D03*
X301575Y497638D02*
D03*
X311811D02*
D03*
X321654D02*
D03*
X331890D02*
D03*
X341732D02*
D03*
X351492Y497642D02*
D03*
X361215Y497638D02*
D03*
X371401Y497531D02*
D03*
X380456D02*
D03*
X389511D02*
D03*
X399354Y497638D02*
D03*
X439600Y419700D02*
D03*
X435400Y423700D02*
D03*
X431500Y427600D02*
D03*
X427100Y403200D02*
D03*
X422047Y412205D02*
D03*
X416400Y415600D02*
D03*
X286347Y346654D02*
D03*
X240200Y346700D02*
D03*
X187300Y354134D02*
D03*
X236240Y354147D02*
D03*
X282379Y354140D02*
D03*
X328442Y353353D02*
D03*
X202312Y330512D02*
D03*
X328400Y330400D02*
D03*
X332000Y345800D02*
D03*
X294588Y330512D02*
D03*
X249812D02*
D03*
X183134Y354134D02*
D03*
X289300Y21543D02*
D03*
X285600D02*
D03*
X160300Y280900D02*
D03*
X164200D02*
D03*
X160300Y277300D02*
D03*
X164200D02*
D03*
X160300Y293600D02*
D03*
X164200Y293500D02*
D03*
X160300Y297200D02*
D03*
X164200Y297300D02*
D03*
X160300Y301400D02*
D03*
X164200Y301600D02*
D03*
X160300Y305400D02*
D03*
X164200Y305500D02*
D03*
X160300Y309400D02*
D03*
X164200D02*
D03*
X160300Y313200D02*
D03*
X164200D02*
D03*
X160300Y323600D02*
D03*
X164200Y323800D02*
D03*
X373386Y376700D02*
D03*
X404356Y375940D02*
D03*
X387969D02*
D03*
X384200Y446500D02*
D03*
X388600D02*
D03*
X393300Y446500D02*
D03*
X384200Y442600D02*
D03*
X388600Y442500D02*
D03*
X393300Y442567D02*
D03*
X384200Y438700D02*
D03*
X388600D02*
D03*
X393300Y438633D02*
D03*
X384100Y434800D02*
D03*
X388600D02*
D03*
X393300Y434700D02*
D03*
X136800Y312200D02*
D03*
X136900Y308400D02*
D03*
Y304600D02*
D03*
X133100Y308200D02*
D03*
X132900Y304300D02*
D03*
X137100Y300700D02*
D03*
X132900Y300500D02*
D03*
X132800Y296800D02*
D03*
X137100Y296900D02*
D03*
X132900Y293100D02*
D03*
X137100Y293000D02*
D03*
X140600Y312300D02*
D03*
X141000Y308400D02*
D03*
X141100Y304700D02*
D03*
X141200Y300800D02*
D03*
X141100Y296800D02*
D03*
Y293000D02*
D03*
X194100Y426000D02*
D03*
X200300Y425500D02*
D03*
X206100Y425700D02*
D03*
X194100Y421400D02*
D03*
X200300Y421000D02*
D03*
X206100Y420700D02*
D03*
X194100Y416300D02*
D03*
X200300Y416400D02*
D03*
X206100Y416300D02*
D03*
X194100Y411700D02*
D03*
X200300Y411400D02*
D03*
X206100Y411200D02*
D03*
X204300Y396200D02*
D03*
Y392600D02*
D03*
X201100Y396100D02*
D03*
X201200Y392500D02*
D03*
X197900Y396000D02*
D03*
X198000Y392400D02*
D03*
X194800Y395900D02*
D03*
X194900Y392300D02*
D03*
X207700Y392600D02*
D03*
X207600Y396200D02*
D03*
X210800Y392700D02*
D03*
Y396300D02*
D03*
X54300Y184200D02*
D03*
X50700D02*
D03*
X54200Y187400D02*
D03*
X50600Y187300D02*
D03*
X54100Y190600D02*
D03*
X50500Y190500D02*
D03*
X54000Y193700D02*
D03*
X50400Y193600D02*
D03*
X49600Y58200D02*
D03*
X46000D02*
D03*
X49500Y61400D02*
D03*
X45900Y61300D02*
D03*
X49400Y64600D02*
D03*
X45800Y64500D02*
D03*
X49300Y67700D02*
D03*
X45700Y67600D02*
D03*
Y70900D02*
D03*
X49300D02*
D03*
X41000Y99000D02*
D03*
Y104000D02*
D03*
X64662D02*
D03*
Y99000D02*
D03*
X59838D02*
D03*
X54700D02*
D03*
X59838Y104000D02*
D03*
X54700D02*
D03*
X79163Y103800D02*
D03*
Y98800D02*
D03*
X74338D02*
D03*
X69200D02*
D03*
X74338Y103800D02*
D03*
X69200D02*
D03*
X69300Y93800D02*
D03*
X74437D02*
D03*
X79263D02*
D03*
X54800Y94000D02*
D03*
X59938D02*
D03*
X64763D02*
D03*
X31137D02*
D03*
X26000D02*
D03*
X151100Y99400D02*
D03*
X165600D02*
D03*
X160775D02*
D03*
X155638D02*
D03*
X155537Y108000D02*
D03*
X160675D02*
D03*
X155638Y103800D02*
D03*
X160775D02*
D03*
X165600D02*
D03*
X165500Y108000D02*
D03*
X151100Y103800D02*
D03*
X151000Y108000D02*
D03*
X170800D02*
D03*
X170900Y103800D02*
D03*
Y99400D02*
D03*
X38000Y162300D02*
D03*
X41800D02*
D03*
X45500Y162200D02*
D03*
Y158800D02*
D03*
X41800Y158900D02*
D03*
X38000D02*
D03*
X38100Y155000D02*
D03*
X41900D02*
D03*
X45600Y154900D02*
D03*
X58262Y221900D02*
D03*
X53438D02*
D03*
X48300D02*
D03*
X72763Y221700D02*
D03*
X67937D02*
D03*
X62800D02*
D03*
X62700Y231700D02*
D03*
X67838D02*
D03*
X62700Y226700D02*
D03*
X67838D02*
D03*
X72663D02*
D03*
Y231700D02*
D03*
X48200Y231900D02*
D03*
X53338D02*
D03*
X48200Y226900D02*
D03*
X53338D02*
D03*
X58162D02*
D03*
Y231900D02*
D03*
X234600Y257000D02*
D03*
X252000Y111400D02*
D03*
X256400D02*
D03*
X260800Y111500D02*
D03*
X265300Y111400D02*
D03*
X269400Y111600D02*
D03*
X269500Y107300D02*
D03*
X265500D02*
D03*
X261000Y107100D02*
D03*
X256600Y107300D02*
D03*
X252200Y107200D02*
D03*
X318800Y81540D02*
D03*
X315337D02*
D03*
X143500Y239816D02*
D03*
X139200D02*
D03*
X135200D02*
D03*
X214798Y163582D02*
D03*
X197198Y172782D02*
D03*
X201598D02*
D03*
X205998Y172882D02*
D03*
X210498Y172782D02*
D03*
X214598Y172982D02*
D03*
X214698Y168682D02*
D03*
X210698D02*
D03*
X206198Y168482D02*
D03*
X201798Y168682D02*
D03*
X197398Y168582D02*
D03*
X201698Y181382D02*
D03*
X206098Y181482D02*
D03*
X210598Y181382D02*
D03*
X214698Y181582D02*
D03*
X214798Y177282D02*
D03*
X210798D02*
D03*
X206298Y177082D02*
D03*
X201898Y177282D02*
D03*
X197498Y177182D02*
D03*
X202080Y159928D02*
D03*
X210798Y163882D02*
D03*
X198143Y159928D02*
D03*
X206398Y164082D02*
D03*
X201798Y164182D02*
D03*
X197498D02*
D03*
X197600Y181500D02*
D03*
X253500Y167400D02*
D03*
X257900Y167500D02*
D03*
X262300Y167300D02*
D03*
X266800Y167500D02*
D03*
X270800D02*
D03*
X270700Y171800D02*
D03*
X266600Y171600D02*
D03*
X262100Y171700D02*
D03*
X257700Y171600D02*
D03*
X253300D02*
D03*
X41000Y503200D02*
D03*
X50600D02*
D03*
X60200D02*
D03*
X70500D02*
D03*
X80700D02*
D03*
X91100D02*
D03*
X100000D02*
D03*
X110900D02*
D03*
X120800D02*
D03*
X131200D02*
D03*
X141400D02*
D03*
X149800D02*
D03*
X157900D02*
D03*
X167800D02*
D03*
X177000D02*
D03*
X187900D02*
D03*
X200000D02*
D03*
X208300D02*
D03*
X216000D02*
D03*
X226100D02*
D03*
X236500D02*
D03*
X246200D02*
D03*
X256300D02*
D03*
X266600D02*
D03*
X276300D02*
D03*
X286700D02*
D03*
X297300D02*
D03*
X307300D02*
D03*
X356400D02*
D03*
X367000D02*
D03*
X375500D02*
D03*
X385500D02*
D03*
X394700D02*
D03*
X405600D02*
D03*
X414200D02*
D03*
X423700D02*
D03*
X432000D02*
D03*
X50800Y487800D02*
D03*
X63800D02*
D03*
X84200D02*
D03*
X74500D02*
D03*
X98400D02*
D03*
X112500D02*
D03*
X126000D02*
D03*
X135300D02*
D03*
X147600D02*
D03*
X160300D02*
D03*
X172300D02*
D03*
X185000D02*
D03*
X195600Y486900D02*
D03*
X32400Y286200D02*
D03*
X40500Y286300D02*
D03*
X49600D02*
D03*
X61300D02*
D03*
X72300Y284800D02*
D03*
X81400Y284900D02*
D03*
X92900Y283200D02*
D03*
X83800Y278100D02*
D03*
X66500Y277300D02*
D03*
X63200Y268300D02*
D03*
X45100D02*
D03*
X31200Y266200D02*
D03*
X30100Y276700D02*
D03*
X26200Y201400D02*
D03*
X26400Y190200D02*
D03*
X25700Y177800D02*
D03*
X26700Y167800D02*
D03*
X26400Y156300D02*
D03*
X26500Y144200D02*
D03*
X26200Y136200D02*
D03*
X26500Y124700D02*
D03*
X47500Y43200D02*
D03*
X43000Y33000D02*
D03*
X39900Y19700D02*
D03*
X46600Y13400D02*
D03*
X64100Y15600D02*
D03*
X83200Y16800D02*
D03*
X74200Y12800D02*
D03*
X56600Y19100D02*
D03*
X57000Y12900D02*
D03*
X90300Y10100D02*
D03*
X73300Y20800D02*
D03*
X47700Y23800D02*
D03*
X41400Y42800D02*
D03*
X195200Y21300D02*
D03*
X186400Y28200D02*
D03*
X179200Y21300D02*
D03*
X165500Y27400D02*
D03*
X160000Y20100D02*
D03*
X175500Y26900D02*
D03*
X171400Y20900D02*
D03*
X299000Y59800D02*
D03*
X311100Y59200D02*
D03*
X324600Y59400D02*
D03*
X317300Y64400D02*
D03*
X305500Y65600D02*
D03*
X291500Y67000D02*
D03*
X329300Y65900D02*
D03*
X333100Y57000D02*
D03*
X337100Y47700D02*
D03*
X332200Y41400D02*
D03*
X334300Y34200D02*
D03*
X342400Y38600D02*
D03*
X339300Y57900D02*
D03*
X321000Y137400D02*
D03*
X328100Y137000D02*
D03*
X325300Y128900D02*
D03*
X320700Y130600D02*
D03*
X299400Y138800D02*
D03*
X292600Y141100D02*
D03*
X299500Y131500D02*
D03*
G54D129*
X352362Y414764D02*
D03*
X412836Y46099D02*
D03*
X421300Y61800D02*
D03*
X239352Y161685D02*
D03*
X232052D02*
D03*
X224752D02*
D03*
X239352Y169785D02*
D03*
X232052D02*
D03*
X224752Y169585D02*
D03*
X239053Y178885D02*
D03*
X231752D02*
D03*
X224452D02*
D03*
X224555Y118803D02*
D03*
X231855D02*
D03*
X239155D02*
D03*
X224855Y109503D02*
D03*
X232155Y109703D02*
D03*
X239455D02*
D03*
X224855Y101603D02*
D03*
X232155D02*
D03*
X239455D02*
D03*
X239358Y43302D02*
D03*
X232058D02*
D03*
X224758D02*
D03*
X239358Y51402D02*
D03*
X232058D02*
D03*
X224758Y51202D02*
D03*
X239058Y60502D02*
D03*
X231758D02*
D03*
X224458D02*
D03*
X83489Y212609D02*
D03*
X88607D02*
D03*
X83489Y207491D02*
D03*
Y202767D02*
D03*
X88607D02*
D03*
Y207491D02*
D03*
X290232Y373228D02*
D03*
X344094D02*
D03*
X75216Y265868D02*
D03*
X81515D02*
D03*
X87814D02*
D03*
X94113D02*
D03*
X99625D02*
D03*
X75216Y260357D02*
D03*
X81515Y260750D02*
D03*
X87814D02*
D03*
X94113D02*
D03*
X99625D02*
D03*
X259268Y141732D02*
D03*
X175297Y212850D02*
D03*
X421300Y95312D02*
D03*
X421300Y21328D02*
D03*
X254400Y141600D02*
D03*
X249900Y141700D02*
D03*
X175300Y208400D02*
D03*
X175200Y203900D02*
D03*
X284600Y394100D02*
D03*
X360500D02*
D03*
X340037D02*
D03*
G54D130*
X116400Y63650D02*
D03*
M02*
