%FSLAX25Y25*%
%MOIN*%
G70*
G01*
G75*
G04 Layer_Color=8421504*
%ADD10C,0.01000*%
%ADD11R,0.04134X0.05512*%
%ADD12R,0.05512X0.04134*%
%ADD13R,0.04724X0.03150*%
%ADD14O,0.04724X0.03150*%
%ADD15R,0.04724X0.01969*%
%ADD16R,0.04724X0.01181*%
%ADD17R,0.01969X0.04724*%
%ADD18R,0.01181X0.04724*%
%ADD19R,0.05512X0.03937*%
%ADD20R,0.06102X0.08661*%
%ADD21R,0.08661X0.06102*%
%ADD22R,0.06102X0.02362*%
%ADD23R,0.02362X0.06102*%
%ADD24R,0.08268X0.14764*%
%ADD25R,0.09843X0.09055*%
%ADD26R,0.06000X0.10000*%
%ADD27O,0.06102X0.02362*%
%ADD28R,0.14764X0.08268*%
%ADD29R,0.10236X0.09449*%
%ADD30R,0.08661X0.05906*%
%ADD31R,0.05000X0.01000*%
%ADD32R,0.01000X0.05000*%
%ADD33O,0.05000X0.01000*%
%ADD34R,0.12402X0.06299*%
%ADD35R,0.02362X0.07874*%
%ADD36R,0.07087X0.06000*%
%ADD37R,0.03937X0.05512*%
%ADD38R,0.06299X0.12402*%
%ADD39R,0.09449X0.10236*%
%ADD40R,0.06000X0.07087*%
%ADD41R,0.06500X0.04500*%
%ADD42R,0.06500X0.11800*%
%ADD43O,0.03150X0.11811*%
%ADD44R,0.03150X0.11811*%
%ADD45R,0.03150X0.04724*%
%ADD46O,0.03150X0.04724*%
%ADD47R,0.01772X0.05709*%
%ADD48R,0.05709X0.01772*%
%ADD49R,0.04921X0.13386*%
%ADD50R,0.06299X0.10630*%
%ADD51R,0.10630X0.06299*%
%ADD52C,0.02000*%
%ADD53C,0.01500*%
%ADD54C,0.03000*%
%ADD55C,0.04000*%
%ADD56C,0.06000*%
%ADD57C,0.02500*%
%ADD58C,0.01200*%
%ADD59C,0.08000*%
%ADD60C,0.05000*%
%ADD61R,0.06900X0.16600*%
%ADD62R,0.12500X0.03400*%
%ADD63R,0.19600X0.16800*%
%ADD64R,0.27900X0.19600*%
%ADD65R,0.44300X0.27600*%
%ADD66R,0.18898X0.09449*%
%ADD67R,0.18898X0.09055*%
%ADD68R,0.10221X0.52362*%
%ADD69R,0.20331X0.12598*%
%ADD70R,0.45592X0.09289*%
%ADD71R,0.25590X0.20079*%
%ADD72R,0.22441X0.20254*%
%ADD73R,0.32677X0.11024*%
%ADD74R,0.36614X0.28346*%
%ADD75R,0.18504X0.62205*%
%ADD76R,0.13780X0.22835*%
%ADD77R,0.24900X0.11417*%
%ADD78R,0.30800X0.16605*%
%ADD79R,0.37402X0.13386*%
%ADD80R,0.14014X0.14161*%
%ADD81R,0.44488X0.16838*%
%ADD82R,0.14173X0.04724*%
%ADD83R,0.15354X0.16535*%
%ADD84R,0.19291X0.16142*%
%ADD85R,0.38976X0.14892*%
%ADD86R,0.15354X0.14098*%
%ADD87R,0.22300X0.17000*%
%ADD88R,0.69700X0.22200*%
%ADD89R,0.22200X0.18100*%
%ADD90R,0.20700X0.43400*%
%ADD91R,0.16900X0.61900*%
%ADD92R,0.17600X0.11100*%
%ADD93R,0.60400X0.28600*%
%ADD94R,0.06300X0.33500*%
%ADD95R,0.51100X0.18500*%
%ADD96R,0.17300X0.16200*%
%ADD97R,0.64800X0.19500*%
%ADD98R,0.54300X0.17300*%
%ADD99R,0.44100X0.21000*%
%ADD100R,0.22200X0.50300*%
%ADD101R,0.21200X0.51400*%
%ADD102R,0.42500X0.16300*%
%ADD103R,0.12300X0.11000*%
%ADD104R,0.36434X0.18432*%
%ADD105R,0.18200X0.09300*%
%ADD106R,0.30400X0.13200*%
%ADD107R,0.49910X0.31300*%
%ADD108C,0.03937*%
%ADD109C,0.05118*%
%ADD110O,0.05000X0.05906*%
%ADD111C,0.06000*%
%ADD112R,0.27559X0.26772*%
%ADD113R,0.09449X0.14961*%
%ADD114C,0.05906*%
%ADD115R,0.05906X0.05906*%
%ADD116C,0.06299*%
%ADD117O,0.05906X0.05000*%
%ADD118C,0.11811*%
%ADD119C,0.12598*%
%ADD120C,0.05000*%
%ADD121C,0.04724*%
%ADD122R,0.04724X0.04724*%
%ADD123C,0.09843*%
%ADD124R,0.08661X0.08661*%
%ADD125C,0.06200*%
%ADD126O,0.07874X0.05000*%
%ADD127R,0.06299X0.06299*%
%ADD128C,0.03000*%
%ADD129C,0.04000*%
%ADD130R,0.60400X0.13100*%
%ADD131C,0.00787*%
%ADD132C,0.00984*%
%ADD133C,0.02362*%
%ADD134C,0.01772*%
%ADD135C,0.01181*%
%ADD136C,0.00394*%
%ADD137C,0.00600*%
%ADD138C,0.00700*%
%ADD139C,0.00500*%
%ADD140C,0.00004*%
%ADD141C,0.00827*%
%ADD142C,0.00800*%
%ADD143C,0.00591*%
%ADD144C,0.00591*%
%ADD145R,1.14340X0.26480*%
G54D11*
X388260Y73800D02*
D03*
X395740D02*
D03*
X387260Y111000D02*
D03*
X394740D02*
D03*
X435292Y160030D02*
D03*
X427812D02*
D03*
X372300Y178928D02*
D03*
X364820D02*
D03*
X372300Y169479D02*
D03*
X364820D02*
D03*
X372300Y188376D02*
D03*
X364820D02*
D03*
X372300Y197825D02*
D03*
X364820D02*
D03*
X382930Y151369D02*
D03*
X390410D02*
D03*
X382930Y160030D02*
D03*
X390410D02*
D03*
X412851D02*
D03*
X420332D02*
D03*
X397891D02*
D03*
X405371D02*
D03*
X393166Y207668D02*
D03*
X385686D02*
D03*
X408127D02*
D03*
X400647D02*
D03*
X372160Y111000D02*
D03*
X379640D02*
D03*
X362848Y70312D02*
D03*
X355368D02*
D03*
Y61257D02*
D03*
X362848D02*
D03*
X380301Y41721D02*
D03*
X387781D02*
D03*
X362836Y49839D02*
D03*
X355356D02*
D03*
X269760Y202000D02*
D03*
X277240D02*
D03*
X355368Y100249D02*
D03*
X362848D02*
D03*
X91260Y158600D02*
D03*
X98740D02*
D03*
X83740D02*
D03*
X76260D02*
D03*
X88533Y223499D02*
D03*
X96013D02*
D03*
X112300D02*
D03*
X104820D02*
D03*
X60900Y35000D02*
D03*
X68380D02*
D03*
X250380Y210543D02*
D03*
X242900D02*
D03*
X287419Y84492D02*
D03*
X279939D02*
D03*
X281907Y28261D02*
D03*
X274427D02*
D03*
X96013Y232499D02*
D03*
X88533D02*
D03*
X112420Y232798D02*
D03*
X104940D02*
D03*
X362848Y109249D02*
D03*
X355368D02*
D03*
Y90749D02*
D03*
X362848D02*
D03*
X113860Y145000D02*
D03*
X121340D02*
D03*
X112814Y264294D02*
D03*
X105334D02*
D03*
X373260Y77100D02*
D03*
X380740D02*
D03*
X354929Y128912D02*
D03*
X362409D02*
D03*
Y137573D02*
D03*
X354929D02*
D03*
X415065Y133524D02*
D03*
X422546D02*
D03*
X40060Y421600D02*
D03*
X47540D02*
D03*
X406360Y142500D02*
D03*
X413840D02*
D03*
X172760Y125400D02*
D03*
X180240D02*
D03*
X134440Y260900D02*
D03*
X126960D02*
D03*
G54D12*
X278700Y235440D02*
D03*
Y227960D02*
D03*
X306637Y186120D02*
D03*
Y178640D02*
D03*
X416198Y178731D02*
D03*
Y171251D02*
D03*
X407300Y215660D02*
D03*
Y223140D02*
D03*
X365410Y160227D02*
D03*
Y152747D02*
D03*
X425253Y171251D02*
D03*
Y178731D02*
D03*
X374465Y152747D02*
D03*
Y160227D02*
D03*
X425253Y188180D02*
D03*
Y195660D02*
D03*
X433914D02*
D03*
Y188180D02*
D03*
X416198Y195660D02*
D03*
Y188180D02*
D03*
X434308Y171251D02*
D03*
Y178731D02*
D03*
X433914Y211014D02*
D03*
Y203534D02*
D03*
X424859Y211014D02*
D03*
Y203534D02*
D03*
X398600Y223240D02*
D03*
Y215760D02*
D03*
X344400Y178260D02*
D03*
Y185740D02*
D03*
X227559Y319685D02*
D03*
Y312205D02*
D03*
X211417Y319685D02*
D03*
Y312205D02*
D03*
X407521Y46099D02*
D03*
Y53579D02*
D03*
X416100Y54060D02*
D03*
Y61540D02*
D03*
X406734Y79564D02*
D03*
Y87044D02*
D03*
X415789D02*
D03*
Y94524D02*
D03*
X434308Y142904D02*
D03*
Y150384D02*
D03*
X211717Y292893D02*
D03*
Y300373D02*
D03*
X314905Y186120D02*
D03*
Y178640D02*
D03*
X407521Y61847D02*
D03*
Y69328D02*
D03*
X209629Y273321D02*
D03*
Y265840D02*
D03*
X64000Y356740D02*
D03*
Y349260D02*
D03*
X54000Y356840D02*
D03*
Y349360D02*
D03*
X41000Y150740D02*
D03*
Y143260D02*
D03*
X164400Y117060D02*
D03*
Y124540D02*
D03*
X44100Y349260D02*
D03*
Y356740D02*
D03*
X96476Y188113D02*
D03*
Y180632D02*
D03*
X210800Y148560D02*
D03*
Y156040D02*
D03*
X268724Y149214D02*
D03*
Y156694D02*
D03*
X210100Y34660D02*
D03*
Y42140D02*
D03*
X265962Y30033D02*
D03*
Y37513D02*
D03*
X199800Y95740D02*
D03*
Y88260D02*
D03*
X265962Y88232D02*
D03*
Y95713D02*
D03*
X406734Y95312D02*
D03*
Y102792D02*
D03*
X370079Y29399D02*
D03*
Y21919D02*
D03*
X399600Y29040D02*
D03*
Y21560D02*
D03*
X198800Y346660D02*
D03*
Y354140D02*
D03*
X220772Y300373D02*
D03*
Y292893D02*
D03*
X346858Y137376D02*
D03*
Y129896D02*
D03*
X407000Y126620D02*
D03*
Y134100D02*
D03*
X323172Y178640D02*
D03*
Y186120D02*
D03*
X408500Y21560D02*
D03*
Y29040D02*
D03*
X291339Y354134D02*
D03*
Y346654D02*
D03*
X337402Y353346D02*
D03*
Y345866D02*
D03*
X245200Y354140D02*
D03*
Y346660D02*
D03*
X298369Y186120D02*
D03*
Y178640D02*
D03*
X334252Y289173D02*
D03*
Y281693D02*
D03*
X377953Y339173D02*
D03*
Y346654D02*
D03*
X290765Y36726D02*
D03*
Y29246D02*
D03*
X334252Y271850D02*
D03*
Y264370D02*
D03*
Y256890D02*
D03*
Y249410D02*
D03*
G54D13*
X427665Y238593D02*
D03*
Y252766D02*
D03*
Y267333D02*
D03*
X427665Y281900D02*
D03*
G54D14*
X427665Y231113D02*
D03*
X437508Y234853D02*
D03*
X427665Y245286D02*
D03*
X437508Y249026D02*
D03*
Y263593D02*
D03*
X427665Y259853D02*
D03*
X427665Y274420D02*
D03*
X437508Y278160D02*
D03*
G54D15*
X346150Y217124D02*
D03*
Y227361D02*
D03*
X339850D02*
D03*
Y217124D02*
D03*
X329553D02*
D03*
Y227361D02*
D03*
X323253D02*
D03*
Y217124D02*
D03*
X329550Y202482D02*
D03*
Y212718D02*
D03*
X323250D02*
D03*
Y202482D02*
D03*
X346050D02*
D03*
Y212718D02*
D03*
X339750D02*
D03*
Y202482D02*
D03*
G54D16*
X346150Y220668D02*
D03*
Y223817D02*
D03*
X339850D02*
D03*
Y220668D02*
D03*
X329553D02*
D03*
Y223817D02*
D03*
X323253D02*
D03*
Y220668D02*
D03*
X329550Y206025D02*
D03*
Y209175D02*
D03*
X323250D02*
D03*
Y206025D02*
D03*
X346050D02*
D03*
Y209175D02*
D03*
X339750D02*
D03*
Y206025D02*
D03*
G54D17*
X292070Y179230D02*
D03*
X281834D02*
D03*
Y185530D02*
D03*
X292070D02*
D03*
X380315Y468898D02*
D03*
X390551D02*
D03*
Y475197D02*
D03*
X380315D02*
D03*
X224803Y468504D02*
D03*
X235039D02*
D03*
Y474803D02*
D03*
X224803D02*
D03*
X265748Y468504D02*
D03*
X275984D02*
D03*
Y474803D02*
D03*
X265748D02*
D03*
X345276D02*
D03*
X355512D02*
D03*
Y468504D02*
D03*
X345276D02*
D03*
X305118Y474803D02*
D03*
X315354D02*
D03*
Y468504D02*
D03*
X305118D02*
D03*
X114218Y385850D02*
D03*
X103982D02*
D03*
Y392150D02*
D03*
X114218D02*
D03*
X141318Y385950D02*
D03*
X131082D02*
D03*
Y392250D02*
D03*
X141318D02*
D03*
G54D18*
X288527Y179230D02*
D03*
X285377D02*
D03*
Y185530D02*
D03*
X288527D02*
D03*
X383858Y468898D02*
D03*
X387008D02*
D03*
Y475197D02*
D03*
X383858D02*
D03*
X228346Y468504D02*
D03*
X231496D02*
D03*
Y474803D02*
D03*
X228346D02*
D03*
X269291Y468504D02*
D03*
X272441D02*
D03*
Y474803D02*
D03*
X269291D02*
D03*
X348819D02*
D03*
X351969D02*
D03*
Y468504D02*
D03*
X348819D02*
D03*
X308661Y474803D02*
D03*
X311811D02*
D03*
Y468504D02*
D03*
X308661D02*
D03*
X110675Y385850D02*
D03*
X107525D02*
D03*
Y392150D02*
D03*
X110675D02*
D03*
X137775Y385950D02*
D03*
X134625D02*
D03*
Y392250D02*
D03*
X137775D02*
D03*
G54D19*
X335800Y185643D02*
D03*
Y178557D02*
D03*
X399162Y484752D02*
D03*
Y491839D02*
D03*
X389320Y484646D02*
D03*
Y491732D02*
D03*
X351300Y491843D02*
D03*
Y484757D02*
D03*
X341541Y491839D02*
D03*
Y484752D02*
D03*
X331698Y491839D02*
D03*
Y484752D02*
D03*
X321462Y491839D02*
D03*
Y484752D02*
D03*
X311619Y491839D02*
D03*
Y484752D02*
D03*
X301383Y491839D02*
D03*
Y484752D02*
D03*
X291541Y491839D02*
D03*
Y484752D02*
D03*
X281305Y491839D02*
D03*
Y484752D02*
D03*
X271462Y491839D02*
D03*
Y484752D02*
D03*
X261226Y491839D02*
D03*
Y484752D02*
D03*
X251383Y491839D02*
D03*
Y484752D02*
D03*
X241147Y491839D02*
D03*
Y484752D02*
D03*
X231305Y491839D02*
D03*
Y484752D02*
D03*
X221068Y491839D02*
D03*
Y484752D02*
D03*
X211226Y491839D02*
D03*
Y484752D02*
D03*
X380265Y491732D02*
D03*
Y484646D02*
D03*
X371210Y491732D02*
D03*
Y484646D02*
D03*
X361024Y491839D02*
D03*
Y484752D02*
D03*
X138100Y414543D02*
D03*
Y407457D02*
D03*
X146600Y414543D02*
D03*
Y407457D02*
D03*
X95800Y414943D02*
D03*
Y407857D02*
D03*
X104300Y414843D02*
D03*
Y407757D02*
D03*
X112800Y414843D02*
D03*
Y407757D02*
D03*
X200574Y273342D02*
D03*
Y266256D02*
D03*
X129700Y407557D02*
D03*
Y414643D02*
D03*
X121300Y407657D02*
D03*
Y414743D02*
D03*
G54D20*
X352300Y393329D02*
D03*
Y409471D02*
D03*
X403900Y393529D02*
D03*
Y409671D02*
D03*
X439900Y387129D02*
D03*
Y403271D02*
D03*
X389000Y393429D02*
D03*
Y409571D02*
D03*
G54D21*
X419882Y322835D02*
D03*
X436024D02*
D03*
X419882Y335039D02*
D03*
X436024D02*
D03*
Y360630D02*
D03*
X419882D02*
D03*
X436024Y348425D02*
D03*
X419882D02*
D03*
X436024Y309449D02*
D03*
X419882D02*
D03*
X69901Y188703D02*
D03*
X86042D02*
D03*
X125571Y134600D02*
D03*
X109429D02*
D03*
X436024Y297244D02*
D03*
X419882D02*
D03*
G54D22*
X387402Y335827D02*
D03*
Y330827D02*
D03*
Y325827D02*
D03*
Y320827D02*
D03*
X408661D02*
D03*
Y325827D02*
D03*
Y330827D02*
D03*
Y335827D02*
D03*
X408661Y361811D02*
D03*
Y356811D02*
D03*
Y351811D02*
D03*
Y346811D02*
D03*
X387402D02*
D03*
Y351811D02*
D03*
Y356811D02*
D03*
Y361811D02*
D03*
X395284Y127337D02*
D03*
Y132337D02*
D03*
Y137337D02*
D03*
Y142337D02*
D03*
X374024D02*
D03*
Y137337D02*
D03*
Y132337D02*
D03*
Y127337D02*
D03*
X96481Y199617D02*
D03*
X373636Y50627D02*
D03*
Y55627D02*
D03*
Y60627D02*
D03*
Y65627D02*
D03*
X394895D02*
D03*
Y60627D02*
D03*
Y55627D02*
D03*
Y50627D02*
D03*
X99462Y134443D02*
D03*
Y139443D02*
D03*
Y144443D02*
D03*
Y149443D02*
D03*
X78202D02*
D03*
Y144443D02*
D03*
Y139443D02*
D03*
Y134443D02*
D03*
X408427Y309661D02*
D03*
Y304661D02*
D03*
Y299661D02*
D03*
Y294661D02*
D03*
X387167D02*
D03*
Y299661D02*
D03*
Y304661D02*
D03*
Y309661D02*
D03*
X394895Y84843D02*
D03*
Y89843D02*
D03*
Y94843D02*
D03*
Y99843D02*
D03*
X373636D02*
D03*
Y94843D02*
D03*
Y89843D02*
D03*
Y84843D02*
D03*
X404780Y169046D02*
D03*
Y174046D02*
D03*
Y179046D02*
D03*
Y184046D02*
D03*
Y189046D02*
D03*
Y194046D02*
D03*
Y199046D02*
D03*
X383521D02*
D03*
Y194046D02*
D03*
Y189046D02*
D03*
Y184046D02*
D03*
Y179046D02*
D03*
Y174046D02*
D03*
Y169046D02*
D03*
G54D23*
X363386Y403150D02*
D03*
X368386D02*
D03*
X373386D02*
D03*
X378386D02*
D03*
Y381890D02*
D03*
X373386D02*
D03*
X368386D02*
D03*
X363386D02*
D03*
X414567Y403150D02*
D03*
X419567D02*
D03*
X424567D02*
D03*
X429567D02*
D03*
Y381890D02*
D03*
X424567D02*
D03*
X419567D02*
D03*
X414567D02*
D03*
G54D24*
X430700Y466483D02*
D03*
Y439317D02*
D03*
X38100Y62717D02*
D03*
Y89883D02*
D03*
X218400Y392417D02*
D03*
Y419583D02*
D03*
G54D25*
X114035Y59700D02*
D03*
X130965D02*
D03*
G54D26*
X222852Y144985D02*
D03*
X240852D02*
D03*
X240955Y84903D02*
D03*
X222955D02*
D03*
X222858Y26602D02*
D03*
X240858D02*
D03*
G54D27*
X96481Y204617D02*
D03*
Y209617D02*
D03*
Y214617D02*
D03*
X75221Y199617D02*
D03*
Y204617D02*
D03*
Y209617D02*
D03*
Y214617D02*
D03*
G54D28*
X164783Y286800D02*
D03*
X137617D02*
D03*
G54D29*
X92619Y249019D02*
D03*
X117816D02*
D03*
G54D30*
X117342Y188309D02*
D03*
Y209963D02*
D03*
X110900Y104400D02*
D03*
Y126054D02*
D03*
G54D31*
X247295Y283885D02*
D03*
Y281917D02*
D03*
Y279948D02*
D03*
Y276011D02*
D03*
Y274043D02*
D03*
Y272074D02*
D03*
Y268137D02*
D03*
Y266169D02*
D03*
Y264200D02*
D03*
Y260263D02*
D03*
Y258295D02*
D03*
Y256326D02*
D03*
Y254358D02*
D03*
X294539Y256326D02*
D03*
Y258295D02*
D03*
Y262232D02*
D03*
Y264200D02*
D03*
Y266169D02*
D03*
Y270106D02*
D03*
Y274043D02*
D03*
Y277980D02*
D03*
Y279948D02*
D03*
Y260263D02*
D03*
Y268137D02*
D03*
Y272074D02*
D03*
Y276011D02*
D03*
Y281917D02*
D03*
Y283885D02*
D03*
X247295Y262232D02*
D03*
Y270106D02*
D03*
Y277980D02*
D03*
G54D32*
X285681Y292744D02*
D03*
X283713D02*
D03*
X281744D02*
D03*
X279776D02*
D03*
X277807D02*
D03*
X275838D02*
D03*
X273870D02*
D03*
X271901D02*
D03*
X269933D02*
D03*
X267965D02*
D03*
X265996D02*
D03*
X262059D02*
D03*
X260090D02*
D03*
X258122D02*
D03*
Y245500D02*
D03*
X275838D02*
D03*
X273870D02*
D03*
X260090D02*
D03*
X281744D02*
D03*
X279776D02*
D03*
X265996D02*
D03*
X271901D02*
D03*
X267964D02*
D03*
X264028D02*
D03*
X256153D02*
D03*
X283713D02*
D03*
X277807D02*
D03*
X262059D02*
D03*
X269933D02*
D03*
X285681D02*
D03*
X256153Y292744D02*
D03*
X264028D02*
D03*
G54D33*
X294539Y254358D02*
D03*
G54D34*
X142454Y318100D02*
D03*
X161746D02*
D03*
G54D35*
X300079Y373228D02*
D03*
X305079D02*
D03*
X310079D02*
D03*
X315079D02*
D03*
X320079D02*
D03*
X325079D02*
D03*
X330079D02*
D03*
X335079D02*
D03*
X340079D02*
D03*
Y410236D02*
D03*
X335079D02*
D03*
X330079D02*
D03*
X325079D02*
D03*
X320079D02*
D03*
X315079D02*
D03*
X310079D02*
D03*
X305079D02*
D03*
X300079D02*
D03*
X244642D02*
D03*
X249642D02*
D03*
X254642D02*
D03*
X259642D02*
D03*
X264642D02*
D03*
X269642D02*
D03*
X274642D02*
D03*
X279642D02*
D03*
X284642D02*
D03*
Y373228D02*
D03*
X279642D02*
D03*
X274642D02*
D03*
X269642D02*
D03*
X264642D02*
D03*
X259642D02*
D03*
X254642D02*
D03*
X249642D02*
D03*
X244642D02*
D03*
G54D36*
X154400Y114700D02*
D03*
Y125700D02*
D03*
X58500Y211000D02*
D03*
Y200000D02*
D03*
X47700D02*
D03*
Y211000D02*
D03*
X256519Y148241D02*
D03*
Y159241D02*
D03*
X255332Y39667D02*
D03*
Y28667D02*
D03*
Y87653D02*
D03*
Y98654D02*
D03*
X209800Y85800D02*
D03*
Y96800D02*
D03*
G54D37*
X83684Y35000D02*
D03*
X76597D02*
D03*
G54D38*
X187200Y394254D02*
D03*
Y413546D02*
D03*
X58900Y158446D02*
D03*
Y139154D02*
D03*
X400000Y439854D02*
D03*
Y459146D02*
D03*
G54D39*
X138400Y103702D02*
D03*
Y128898D02*
D03*
G54D40*
X208700Y240800D02*
D03*
X197700D02*
D03*
G54D41*
X183171Y230567D02*
D03*
Y221467D02*
D03*
Y212367D02*
D03*
G54D42*
X208171Y221467D02*
D03*
G54D43*
X44019Y408351D02*
D03*
X74019D02*
D03*
X64019D02*
D03*
X54019D02*
D03*
X74019Y370556D02*
D03*
X64019D02*
D03*
X54019D02*
D03*
G54D44*
X44019D02*
D03*
G54D45*
X380709Y21328D02*
D03*
X63100Y426900D02*
D03*
G54D46*
X388189Y21328D02*
D03*
X384449Y31171D02*
D03*
X55620Y426900D02*
D03*
X59360Y417058D02*
D03*
G54D47*
X206594Y353740D02*
D03*
X209154D02*
D03*
X211713D02*
D03*
X214272D02*
D03*
X216831D02*
D03*
X219390D02*
D03*
X221949D02*
D03*
X224508D02*
D03*
X227067D02*
D03*
X229626D02*
D03*
Y330512D02*
D03*
X227067D02*
D03*
X224508D02*
D03*
X221949D02*
D03*
X219390D02*
D03*
X216831D02*
D03*
X214272D02*
D03*
X211713D02*
D03*
X209154D02*
D03*
X206594D02*
D03*
X345571D02*
D03*
X348130D02*
D03*
X350689D02*
D03*
X353248D02*
D03*
X355807D02*
D03*
X358366D02*
D03*
X360925D02*
D03*
X363484D02*
D03*
X366043D02*
D03*
X368602D02*
D03*
Y353740D02*
D03*
X366043D02*
D03*
X363484D02*
D03*
X360925D02*
D03*
X358366D02*
D03*
X355807D02*
D03*
X353248D02*
D03*
X350689D02*
D03*
X348130D02*
D03*
X345571D02*
D03*
X299245Y330512D02*
D03*
X301804D02*
D03*
X304363D02*
D03*
X306923D02*
D03*
X309482D02*
D03*
X312041D02*
D03*
X314600D02*
D03*
X317159D02*
D03*
X319718D02*
D03*
X322277D02*
D03*
Y353740D02*
D03*
X319718D02*
D03*
X317159D02*
D03*
X314600D02*
D03*
X312041D02*
D03*
X309482D02*
D03*
X306923D02*
D03*
X304363D02*
D03*
X301804D02*
D03*
X299245D02*
D03*
X252920Y330512D02*
D03*
X255479D02*
D03*
X258038D02*
D03*
X260597D02*
D03*
X263156D02*
D03*
X265715D02*
D03*
X268274D02*
D03*
X270833D02*
D03*
X273392D02*
D03*
X275952D02*
D03*
Y353740D02*
D03*
X273392D02*
D03*
X270833D02*
D03*
X268274D02*
D03*
X265715D02*
D03*
X263156D02*
D03*
X260597D02*
D03*
X258038D02*
D03*
X255479D02*
D03*
X252920D02*
D03*
G54D48*
X287205Y203346D02*
D03*
Y205906D02*
D03*
Y208465D02*
D03*
Y211024D02*
D03*
Y213583D02*
D03*
Y216142D02*
D03*
Y218701D02*
D03*
Y221260D02*
D03*
Y223819D02*
D03*
Y226378D02*
D03*
X310433D02*
D03*
Y223819D02*
D03*
Y221260D02*
D03*
Y218701D02*
D03*
Y216142D02*
D03*
Y213583D02*
D03*
Y211024D02*
D03*
Y208465D02*
D03*
Y205906D02*
D03*
Y203346D02*
D03*
G54D49*
X55792Y123800D02*
D03*
X79808D02*
D03*
G54D50*
X308482Y85061D02*
D03*
X297458D02*
D03*
G54D51*
X144600Y261212D02*
D03*
Y250188D02*
D03*
M02*
