M48
;Layer_Color=9474304
;FILE_FORMAT=2:5
INCH,TZ
;TYPE=PLATED
T1F00S00C0.01500
T2F00S00C0.01600
T3F00S00C0.02000
T4F00S00C0.02400
T5F00S00C0.02500
T6F00S00C0.02756
T7F00S00C0.03200
T8F00S00C0.03346
T9F00S00C0.03500
T10F00S00C0.03543
T11F00S00C0.03700
T12F00S00C0.03937
T13F00S00C0.04000
T14F00S00C0.04724
T15F00S00C0.05906
T16F00S00C0.13780
%
T01
X378346Y299606
Y309606
X378581Y325772
X378581Y351756
Y361756
X396222Y335882
T02
X405000Y33800
X400000Y73800
X392200Y33800
X377300Y33500
X355356Y43540
X342400Y38600
X334300Y34200
X332200Y41400
X337100Y47700
X339300Y57900
X333100Y57000
X324600Y59400
X329300Y65900
X317300Y64400
X311100Y59200
X305500Y65600
X299000Y59800
X291500Y67000
X296721Y36700
X293200Y21543
X289300
X285600
X267200Y45200
Y49500
X262800
X258500
Y45300
X262800Y45100
X253700Y45300
Y49600
X212200Y28900
X208100Y29000
Y24900
X204100Y24700
X204000Y20500
X207900Y20800
X212200Y20300
Y24600
X204000Y29000
X195200Y21300
X186400Y28200
X175500Y26900
X179200Y21300
X171400Y20900
X160000Y20100
X165500Y27400
X162800Y49400
X170500Y61100
X157300Y63500
X144900Y63200
Y59300
X140600Y59100
X140500Y63200
X140300Y67200
X144800
X135400
X129900
X90040Y35151
X90300Y10100
X83200Y16800
X74200Y12800
X73300Y20800
X64100Y15600
X57000Y12900
X56600Y19100
X47700Y23800
X46600Y13400
X39900Y19700
X43000Y33000
X41400Y42800
X47500Y43200
X46000Y58200
X45900Y61300
X45800Y64500
X45700Y67600
Y70900
X49300
Y67700
X49400Y64600
X49500Y61400
X49600Y58200
X54800Y94000
X54700Y99000
Y104000
X59838
X64662
X69200Y103800
Y98800
X64662Y99000
X59838
X59938Y94000
X64763
X69300Y93800
X74437
X79263
X79163Y98800
X74338
Y103800
X79163
X41000Y104000
X36175
Y99000
X41000
X31038
Y104000
X25900
Y99000
X26000Y94000
X31137
X26500Y124700
X26200Y136200
X26500Y144200
X26400Y156300
X26700Y167800
X25700Y177800
X26400Y190200
X26200Y201400
X50400Y193600
X50500Y190500
X50600Y187300
X50700Y184200
X54300
X54200Y187400
X54100Y190600
X54000Y193700
X53438Y221900
X58262
X62800Y221700
X62700Y226700
X58162Y226900
X53338
X48200
X48300Y221900
X67937Y221700
X72763
X72663Y226700
X67838
X45500Y162200
Y158800
X41800Y158900
Y162300
X38000
Y158900
X38100Y155000
X41900
X45600Y154900
X45900Y129900
Y126600
X46000Y123500
X46100Y120300
X46200Y117200
X49800
X49700Y120400
X49600Y123600
X49500Y126700
Y129900
X151000Y108000
X151100Y103800
Y99400
X155638
Y103800
X155537Y108000
X160675
X160775Y103800
Y99400
X165600
Y103800
X165500Y108000
X170800
X170900Y103800
Y99400
X198143Y159928
X202080
X201798Y164182
X197498
X197398Y168582
X197198Y172782
X201598
X201798Y168682
X206198Y168482
X205998Y172882
X206298Y177082
X206098Y181482
X201698Y181382
X197600Y181500
X197498Y177182
X201898Y177282
X210798
X214798
X214698Y181582
X210598Y181382
X210498Y172782
X214598Y172982
X214698Y168682
X210698
X210798Y163882
X214798Y163582
X206398Y164082
X253500Y167400
X253300Y171600
X257700
X257900Y167500
X262300Y167300
X262100Y171700
X266600Y171600
X266800Y167500
X270800
X270700Y171800
X298369Y174297
X306600Y174300
X314900
X323200
X331100Y146148
X328100Y137000
X321000Y137400
X320700Y130600
X325300Y128900
X335835Y137573
X346858Y124975
X354929Y123991
X339450Y109249
X343742Y89997
X349218Y90749
X358600Y76400
X388260Y79540
X388300Y99843
X395421Y149400
X397891Y165739
X393245Y179046
X377779
Y184046
Y194000
X359899Y197825
X355600Y202521
X353300Y206065
X355600Y209214
X353300Y212757
X355600Y217164
X353300Y220707
X355600Y223857
X353300Y227400
X349150Y230818
X345850
X333500Y227361
X335800Y223817
X333500Y220668
X335800Y217124
X333500Y212718
X335800Y209175
X333500Y206025
X335800Y202482
X345400Y199100
X348700
X344400Y190714
X359899Y188376
X364820Y174203
X358481Y152707
X374465Y149000
X299400Y138800
X299500Y131500
X292600Y141100
X269400Y111600
X265300Y111400
X265500Y107300
X269500
X261000Y107100
X260800Y111500
X256400Y111400
X256600Y107300
X252200Y107200
X252000Y111400
X315337Y81540
X318800
X322200
X310433Y200067
X287233
X262300Y199700
X278700Y224100
X292100Y227400
X295200Y223819
X398700Y228300
X407300Y228061
X399308Y199046
X411277Y188180
Y171251
X420332Y154715
X427812
Y142904
X420769Y142539
X413929Y126659
X401000Y111000
X410994Y79564
X440017Y171251
X438836Y203534
X429190Y203337
X433200Y234693
X441900Y234793
Y248966
X433200Y248866
Y263433
X441900Y263533
X441900Y278100
X433200Y278000
X413800Y297000
X413900Y306200
Y322600
X420800Y341100
X413900Y349100
X413700Y360200
X404356Y375940
X395969
X387969
X373386Y376700
X363386
X382125Y361811
X381221Y356811
X382125Y351811
X377953Y333858
X382125Y325827
X368504Y324410
X345276Y320472
X328400Y330400
X322277Y324900
X332000Y345800
X328442Y353353
X282379Y354140
X286347Y346654
X280512Y330512
X294588
X282677Y299606
X281102Y285827
X285898Y278104
X286000Y265200
X282100Y261600
X284900Y258200
X288100Y254358
X279200Y252000
X275900Y254000
X273228Y266142
X269685Y267323
X266142Y268504
X258527Y258661
X258457Y282804
X264002Y287134
X256300Y301100
X249812Y330512
X306693Y297638
X339994Y289173
Y264370
Y256890
X292232Y241800
X376600Y287800
X381890Y299661
Y309661
X392678Y335827
X240200Y346700
X236240Y354147
X233900Y361100
X238800Y363300
X234055Y330512
X227559Y307874
X211417Y307700
X211717Y288365
X196024Y266256
X190400Y242200
X185900Y242300
X181600Y242200
X183800Y239000
X188200Y238900
X186000Y235300
X190400Y235100
X181500Y235600
X147384Y239816
X143500
X139200
X135200
X137100Y293000
Y296900
Y300700
X136900Y304600
Y308400
X136800Y312200
X133100
Y308200
X132900Y304300
Y300500
X132800Y296800
X132900Y293100
X141100Y293000
Y296800
X141200Y300800
X141100Y304700
X141000Y308400
X140600Y312300
X160300Y313200
Y309400
X164200
Y313200
Y305500
Y301600
X160300Y301400
Y305400
Y297200
Y293600
X164200Y293500
Y297300
Y280900
Y277300
X160300
Y280900
Y323600
X164200Y323800
X202312Y330512
X193500Y346654
X187300Y354134
X183134
X179166
X146600Y370500
X139000Y373200
X134625Y379675
X143100Y380900
X131100Y365300
X92900Y283200
X234600Y257000
X239538Y254138
X83800Y278100
X81400Y284900
X72300Y284800
X61300Y286300
X49600
X40500
X32400Y286200
X30100Y276700
X31200Y266200
X45100Y268300
X63200
X66500Y277300
X67838Y231700
X72663
X62700
X58162Y231900
X53338
X48200
X50800Y487800
X63800
X74500
X84200
X80700Y503200
X70500
X60200
X50600
X41000
X91100
X100000
X110900
X120800
X131200
X141400
X149800
X157900
X167800
X177000
X187900
X200000
X208300
X216000
X226100
X236500
X241339Y497638
X231496
X221260
X211417
X195600Y486900
X185000Y487800
X172300
X160300
X147600
X135300
X126000
X112500
X98400
X194100Y426000
Y421400
Y416300
Y411700
X200300Y411400
Y416400
Y421000
Y425500
X206100Y425700
Y420700
Y416300
Y411200
X207600Y396200
X204300
X201100Y396100
X197900Y396000
X194800Y395900
X194900Y392300
X198000Y392400
X201200Y392500
X204300Y392600
X207700
X210800Y392700
Y396300
X251575Y497638
X261024
X256300Y503200
X246200
X266600
X276300
X286700
X291732Y497638
X301575
X297300Y503200
X307300
X311811Y497638
X321654
X331890
X341732
X351492Y497642
X361215Y497638
X371401Y497531
X380456
X389511
X385500Y503200
X394700
X375500
X367000
X356400
X373700Y462800
Y459500
X373800Y456400
X373900Y453200
X377500Y453300
X377400Y456500
X377300Y459600
Y462800
X384200Y446500
Y442600
Y438700
X384100Y434800
X388600
Y438700
Y442500
Y446500
X393300Y446500
Y442567
Y438633
Y434700
X281496Y497244
X271654
X399354Y497638
X405600Y503200
X414200
X423700
X432000
X441339Y500394
X451968Y500787
X464732Y500000
X439600Y419700
X435400Y423700
X431500Y427600
X422047Y412205
X416400Y415600
X427100Y403200
T03
X421300Y21328
X412836Y46099
X421300Y61800
X83489Y202767
Y207491
Y212609
X88607
Y207491
Y202767
X421300Y95312
T04
X362836Y43540
X239358Y43302
X232058
X224758
Y51202
X232058Y51402
X239358
X239058Y60502
X231758
X224458
X224855Y101603
X232155
X239455
Y109703
X232155
X224855Y109503
X224555Y118803
X231855
X239155
X239352Y161685
X232052
X224752
Y169585
X232052Y169785
X239352
X239053Y178885
X231752
X224452
X236200Y210543
X175300Y208400
X175297Y212850
X175200Y203900
X249900Y141700
X254400Y141600
X259268Y141732
X363000Y123400
X372200Y104800
X362848Y85237
X384260Y142298
X344094Y373228
X290232
X99625Y265868
Y260750
X94113
Y265868
X87814
Y260750
X81515
Y265868
X75216
Y260357
X74019Y360481
X37400Y349260
X284600Y394100
X340037
X360500
X352362Y414764
T05
X324400Y289300
T06
X275423Y38457
X147232Y156798
X267155Y77705
X416157Y204588
X415859Y222588
X452362Y218898
Y211024
X460236
Y218898
Y226772
X452362
Y234646
Y242520
Y250394
Y258268
Y266142
Y274016
Y281890
X460236
Y274016
Y266142
Y258268
Y250394
Y242520
Y234646
X462992Y374410
Y382283
X455118
Y374410
X353543Y284173
Y274173
Y264173
X112612Y274459
X455118Y390158
X462992
Y398031
Y405905
X455118
Y398031
Y413779
Y421654
X462992
Y413779
Y429528
Y437402
X455118
Y429528
Y445276
X462992
T07
X427400Y14000
Y54000
X427600Y74800
Y114800
T08
X319291Y250472
Y270473
T09
X97771Y437008
Y447008
X107771
Y437008
X117771
Y447008
X127771
Y437008
X137771
Y447008
T10
X220656Y221567
X230656
X240656
X250656
X254488Y440551
X264488
X274488
X284488
X294488
X304488
X314488
X324488
X334488
X344488
X354488
X364488
Y450551
X354488
X344488
X334488
X324488
X314488
X304488
X294488
X284488
X274488
X264488
X254488
X244488
Y440551
T11
X31501Y229816
Y239816
Y249816
T12
X319059Y40316
X311141Y134184
X56159Y276716
T13
X458268Y63779
Y73622
Y83465
Y106299
Y116142
Y125984
X458255Y149213
Y159055
Y168898
Y178740
Y188583
X458661Y301969
Y311811
Y335827
Y345669
X64543Y445276
X54700
X44858
X35015
T14
X89400Y62800
X69715
X79558Y52957
Y72642
X69715Y82485
X89400
T15
X114961Y31496
X130551
T16
X456693Y35433
X15748
X15748Y476378
X456693
M30
