%FSLAX25Y25*%
%MOIN*%
G70*
G01*
G75*
G04 Layer_Color=255*
%ADD10C,0.01000*%
%ADD11R,0.04134X0.05512*%
%ADD12R,0.05512X0.04134*%
%ADD13R,0.04724X0.03150*%
%ADD14O,0.04724X0.03150*%
%ADD15R,0.04724X0.01969*%
%ADD16R,0.04724X0.01181*%
%ADD17R,0.01969X0.04724*%
%ADD18R,0.01181X0.04724*%
%ADD19R,0.05512X0.03937*%
%ADD20R,0.06102X0.08661*%
%ADD21R,0.08661X0.06102*%
%ADD22R,0.06102X0.02362*%
%ADD23R,0.02362X0.06102*%
%ADD24R,0.08268X0.14764*%
%ADD25R,0.09843X0.09055*%
%ADD26R,0.06000X0.10000*%
%ADD27O,0.06102X0.02362*%
%ADD28R,0.14764X0.08268*%
%ADD29R,0.10236X0.09449*%
%ADD30R,0.08661X0.05906*%
%ADD31R,0.05000X0.01000*%
%ADD32R,0.01000X0.05000*%
%ADD33O,0.05000X0.01000*%
%ADD34R,0.12402X0.06299*%
%ADD35R,0.02362X0.07874*%
%ADD36R,0.07087X0.06000*%
%ADD37R,0.03937X0.05512*%
%ADD38R,0.06299X0.12402*%
%ADD39R,0.09449X0.10236*%
%ADD40R,0.06000X0.07087*%
%ADD41R,0.06500X0.04500*%
%ADD42R,0.06500X0.11800*%
%ADD43O,0.03150X0.11811*%
%ADD44R,0.03150X0.11811*%
%ADD45R,0.03150X0.04724*%
%ADD46O,0.03150X0.04724*%
%ADD47R,0.01772X0.05709*%
%ADD48R,0.05709X0.01772*%
%ADD49R,0.04921X0.13386*%
%ADD50R,0.06299X0.10630*%
%ADD51R,0.10630X0.06299*%
%ADD52C,0.02000*%
%ADD53C,0.01500*%
%ADD54C,0.03000*%
%ADD55C,0.04000*%
%ADD56C,0.06000*%
%ADD57C,0.02500*%
%ADD58C,0.01200*%
%ADD59C,0.08000*%
%ADD60C,0.05000*%
%ADD61R,0.06900X0.16600*%
%ADD62R,0.12500X0.03400*%
%ADD63R,0.19600X0.16800*%
%ADD64R,0.27900X0.19600*%
%ADD65R,0.44300X0.27600*%
%ADD66R,0.18898X0.09449*%
%ADD67R,0.18898X0.09055*%
%ADD68R,0.10221X0.52362*%
%ADD69R,0.20331X0.12598*%
%ADD70R,0.45592X0.09289*%
%ADD71R,0.25590X0.20079*%
%ADD72R,0.22441X0.20254*%
%ADD73R,0.32677X0.11024*%
%ADD74R,0.36614X0.28346*%
%ADD75R,0.18504X0.62205*%
%ADD76R,0.13780X0.22835*%
%ADD77R,0.24900X0.11417*%
%ADD78R,0.30800X0.16605*%
%ADD79R,0.37402X0.13386*%
%ADD80R,0.14014X0.14161*%
%ADD81R,0.44488X0.16838*%
%ADD82R,0.14173X0.04724*%
%ADD83R,0.15354X0.16535*%
%ADD84R,0.19291X0.16142*%
%ADD85R,0.38976X0.14892*%
%ADD86R,0.15354X0.14098*%
%ADD87R,0.22300X0.17000*%
%ADD88R,0.69700X0.22200*%
%ADD89R,0.22200X0.18100*%
%ADD90R,0.20700X0.43400*%
%ADD91R,0.16900X0.61900*%
%ADD92R,0.17600X0.11100*%
%ADD93R,0.60400X0.28600*%
%ADD94R,0.06300X0.33500*%
%ADD95R,0.51100X0.18500*%
%ADD96R,0.17300X0.16200*%
%ADD97R,0.64800X0.19500*%
%ADD98R,0.54300X0.17300*%
%ADD99R,0.44100X0.21000*%
%ADD100R,0.22200X0.50300*%
%ADD101R,0.21200X0.51400*%
%ADD102R,0.42500X0.16300*%
%ADD103R,0.12300X0.11000*%
%ADD104R,0.36434X0.18432*%
%ADD105R,0.18200X0.09300*%
%ADD106R,0.30400X0.13200*%
%ADD107R,0.49910X0.31300*%
%ADD108C,0.03937*%
%ADD109C,0.05118*%
%ADD110O,0.05000X0.05906*%
%ADD111C,0.06000*%
%ADD112R,0.27559X0.26772*%
%ADD113R,0.09449X0.14961*%
%ADD114C,0.05906*%
%ADD115R,0.05906X0.05906*%
%ADD116C,0.06299*%
%ADD117O,0.05906X0.05000*%
%ADD118C,0.11811*%
%ADD119C,0.12598*%
%ADD120C,0.05000*%
%ADD121C,0.04724*%
%ADD122R,0.04724X0.04724*%
%ADD123C,0.09843*%
%ADD124R,0.08661X0.08661*%
%ADD125C,0.06200*%
%ADD126O,0.07874X0.05000*%
%ADD127R,0.06299X0.06299*%
%ADD128C,0.03000*%
%ADD129C,0.04000*%
%ADD130R,0.60400X0.13100*%
G54D11*
X292232Y263264D02*
D03*
X299713D02*
D03*
X292232Y246264D02*
D03*
X299713D02*
D03*
Y254764D02*
D03*
X292232D02*
D03*
X299713Y280764D02*
D03*
X292232D02*
D03*
X299713Y272264D02*
D03*
X292232D02*
D03*
G54D12*
X264372Y274934D02*
D03*
Y282414D02*
D03*
X281102Y282087D02*
D03*
Y274606D02*
D03*
X251192Y282604D02*
D03*
Y275124D02*
D03*
Y266104D02*
D03*
Y258624D02*
D03*
G54D40*
X291350Y290551D02*
D03*
X302350D02*
D03*
X303400Y236000D02*
D03*
X292400D02*
D03*
G54D108*
X416157Y204588D02*
D03*
X438000Y24100D02*
D03*
X112612Y274459D02*
D03*
X147232Y156798D02*
D03*
X275423Y38457D02*
D03*
X267155Y77705D02*
D03*
X28740Y402756D02*
D03*
X415859Y222588D02*
D03*
G54D109*
X455118Y374410D02*
D03*
X462992D02*
D03*
X455118Y382283D02*
D03*
X462992D02*
D03*
X455118Y390158D02*
D03*
X462992D02*
D03*
X455118Y398031D02*
D03*
X462992D02*
D03*
X455118Y405905D02*
D03*
X462992D02*
D03*
X455118Y413779D02*
D03*
X462992D02*
D03*
X455118Y421654D02*
D03*
X462992D02*
D03*
X455118Y429528D02*
D03*
X462992D02*
D03*
X455118Y437402D02*
D03*
X462992D02*
D03*
X455118Y445276D02*
D03*
X462992D02*
D03*
X319291Y250472D02*
D03*
Y270473D02*
D03*
X460236Y281890D02*
D03*
X452362D02*
D03*
X460236Y274016D02*
D03*
X452362D02*
D03*
X460236Y266142D02*
D03*
X452362D02*
D03*
X460236Y258268D02*
D03*
X452362D02*
D03*
X460236Y250394D02*
D03*
X452362D02*
D03*
X460236Y242520D02*
D03*
X452362D02*
D03*
X460236Y234646D02*
D03*
X452362D02*
D03*
X460236Y226772D02*
D03*
X452362D02*
D03*
X460236Y218898D02*
D03*
X452362D02*
D03*
X460236Y211024D02*
D03*
X452362D02*
D03*
G54D110*
X35015Y445276D02*
D03*
X44858D02*
D03*
X54700D02*
D03*
X64543D02*
D03*
G54D111*
X97771Y447008D02*
D03*
Y437008D02*
D03*
X107771Y447008D02*
D03*
Y437008D02*
D03*
X117771Y447008D02*
D03*
Y437008D02*
D03*
X127771Y447008D02*
D03*
Y437008D02*
D03*
X137771Y447008D02*
D03*
Y437008D02*
D03*
X31501Y249816D02*
D03*
Y229816D02*
D03*
Y239816D02*
D03*
G54D112*
X231853Y171757D02*
D03*
X231955Y111675D02*
D03*
X231858Y53373D02*
D03*
G54D113*
X85851Y207417D02*
D03*
G54D114*
X250656Y221567D02*
D03*
X240656D02*
D03*
X230656D02*
D03*
X364488Y450551D02*
D03*
Y440551D02*
D03*
X354488Y450551D02*
D03*
Y440551D02*
D03*
X344488Y450551D02*
D03*
Y440551D02*
D03*
X334488Y450551D02*
D03*
Y440551D02*
D03*
X324488Y450551D02*
D03*
Y440551D02*
D03*
X314488Y450551D02*
D03*
Y440551D02*
D03*
X304488Y450551D02*
D03*
Y440551D02*
D03*
X294488Y450551D02*
D03*
Y440551D02*
D03*
X284488Y450551D02*
D03*
Y440551D02*
D03*
X274488Y450551D02*
D03*
Y440551D02*
D03*
X264488Y450551D02*
D03*
Y440551D02*
D03*
X254488Y450551D02*
D03*
Y440551D02*
D03*
X244488Y450551D02*
D03*
G54D115*
X220656Y221567D02*
D03*
X244488Y440551D02*
D03*
G54D116*
X311141Y134184D02*
D03*
X69715Y62800D02*
D03*
Y82485D02*
D03*
X79558Y52957D02*
D03*
Y72642D02*
D03*
X89400Y82485D02*
D03*
X56159Y276716D02*
D03*
X319059Y40316D02*
D03*
G54D117*
X458661Y335827D02*
D03*
Y345669D02*
D03*
Y301969D02*
D03*
Y311811D02*
D03*
X458255Y168898D02*
D03*
Y178740D02*
D03*
Y188583D02*
D03*
Y159055D02*
D03*
Y149213D02*
D03*
G54D118*
X15748Y476378D02*
D03*
X456693D02*
D03*
Y35433D02*
D03*
G54D119*
X15748D02*
D03*
G54D120*
X324400Y289300D02*
D03*
G54D121*
X353543Y284173D02*
D03*
Y274173D02*
D03*
G54D122*
Y264173D02*
D03*
G54D123*
X130551Y31496D02*
D03*
G54D124*
X114961D02*
D03*
G54D125*
X427600Y74800D02*
D03*
Y114800D02*
D03*
X427400Y54000D02*
D03*
Y14000D02*
D03*
G54D126*
X458268Y125984D02*
D03*
Y116142D02*
D03*
Y106299D02*
D03*
Y83465D02*
D03*
Y73622D02*
D03*
Y63779D02*
D03*
G54D127*
X89400Y62800D02*
D03*
M02*
